<?xml version="1.0" standalone="no"?>
<!DOCTYPE svg PUBLIC "-//W3C//DTD SVG 1.1//EN" "http://www.w3.org/Graphics/SVG/1.1/DTD/svg11.dtd" >
<svg>
<metadata>
Created by FontForge 20090914 at Mon Jul 11 09:39:46 2016
 By www-data
Font data copyright Google 2014
</metadata>
<defs>
<font id="RobotoCondensed-Bold" horiz-adv-x="930" >
  <font-face 
    font-family="Roboto Condensed"
    font-weight="700"
    font-stretch="normal"
    units-per-em="2048"
    panose-1="0 0 0 0 0 0 0 0 0 0"
    ascent="1536"
    descent="-512"
    x-height="1082"
    cap-height="1456"
    bbox="-1486.99 -480.996 2132 1928.01"
    underline-thickness="100"
    underline-position="-100"
    unicode-range="U+0002-U+04FF"
  />
<missing-glyph horiz-adv-x="472" 
 />
    <glyph glyph-name="fi" unicode="fi" horiz-adv-x="1118" 
d="M160 0l-0.000976562 868.998h-131v213h131v43c0 70 9.5 131.833 28.5 185.5s46.667 98.834 83 135.501s80.833 64.334 133.5 83.001s112.334 28 179.001 28c50 0 97.833 -5.5 143.5 -16.5s93.5 -25.167 143.5 -42.5l-41 -241c-30 11.333 -63 21.833 -99 31.5
s-78.667 14.5 -128 14.5c-54 0 -94 -15 -120 -45s-39 -74.333 -39 -133v-43h167v-213h-167v-869h-284zM999.999 -0.00195312h-284v1082h284v-1082z" />
    <glyph glyph-name=".notdef" horiz-adv-x="472" 
 />
    <glyph glyph-name="NULL" horiz-adv-x="0" 
 />
    <glyph glyph-name="NULL" horiz-adv-x="0" 
 />
    <glyph glyph-name="uni0002" horiz-adv-x="40" 
 />
    <glyph glyph-name="uni0009" unicode="&#x9;" horiz-adv-x="40" 
 />
    <glyph glyph-name="nonmarkingreturn" unicode="&#xd;" horiz-adv-x="472" 
 />
    <glyph glyph-name="space" unicode=" " horiz-adv-x="472" 
 />
    <glyph glyph-name="exclam" unicode="!" horiz-adv-x="533" 
d="M392 448h-235l-33 1008h301zM119 137c0 22 3.66699 42.5 11 61.5s17.666 35.333 30.999 49s29.5 24.5 48.5 32.5s40.5 12 64.5 12c23.333 0 44.5 -4 63.5 -12s35.167 -18.833 48.5 -32.5s23.666 -30 30.999 -49s11 -39.5 11 -61.5s-3.66699 -42.333 -11 -61
s-17.666 -34.834 -30.999 -48.501s-29.5 -24.334 -48.5 -32.001s-40.167 -11.5 -63.5 -11.5c-24 0 -45.5 3.83301 -64.5 11.5s-35.167 18.334 -48.5 32.001s-23.666 29.834 -30.999 48.501s-11 39 -11 61z" />
    <glyph glyph-name="quotedbl" unicode="&#x22;" horiz-adv-x="656" 
d="M265 1398l-39 -413h-164v551h203v-138zM592 1398l-40 -413h-163v551h203v-138z" />
    <glyph glyph-name="numbersign" unicode="#" horiz-adv-x="1057" 
d="M549 410h-134l-59 -410h-175l60 410h-183v173h208l42 283h-188v174h213l61 416h174l-61 -416h134l61 416h175l-61 -416h179v-174h-204l-42 -283h182v-173h-207l-60 -410h-175zM440 583h134l42 283h-134z" />
    <glyph glyph-name="dollar" unicode="$" horiz-adv-x="1036" 
d="M657 384c0 27.333 -2.66602 51.667 -7.99902 73s-14 40.5 -26 57.5s-27.167 32.833 -45.5 47.5s-40.5 29 -66.5 43c-55.333 24.667 -105.833 50.5 -151.5 77.5s-84.834 58.333 -117.501 94s-58 77 -76 124s-27 103.5 -27 169.5c0 56 8 107.167 24 153.5
s38.667 86.833 68 121.5s64.5 63 105.5 85s86.833 36.333 137.5 43v214h151v-218c48 -9.33301 91.667 -26.5 131 -51.5s72.666 -57.167 99.999 -96.5s48.5 -85.5 63.5 -138.5s22.5 -112.167 22.5 -177.5h-283c0 80 -11.5 139.667 -34.5 179s-52.833 59 -89.5 59
c-20 0 -37 -4.5 -51 -13.5s-25.667 -21.333 -35 -37s-16.166 -34 -20.499 -55s-6.5 -43.833 -6.5 -68.5s2.66699 -46.834 8 -66.501s13.833 -38 25.5 -55s27 -33 46 -48s42.167 -30.5 69.5 -46.5c54.667 -26 104.667 -52.667 150 -80s84.333 -58.833 117 -94.5
s57.834 -77.167 75.501 -124.5s26.5 -103.333 26.5 -168c0 -58 -8 -110.333 -24 -157s-38.667 -87 -68 -121s-64.833 -61.5 -106.5 -82.5s-87.834 -34.833 -138.501 -41.5v-199h-150v199c-46.667 6.66699 -91.667 20.167 -135 40.5s-81.833 49.333 -115.5 87
s-60.5 85 -80.5 142s-30 125.167 -30 204.5h283c0 -47.333 4.16699 -86.666 12.5 -117.999s19.5 -56.5 33.5 -75.5s30.167 -32.333 48.5 -40s37.5 -11.5 57.5 -11.5c22 0 41.167 4.33301 57.5 13s29.833 20.5 40.5 35.5s18.667 33 24 54s8 43.833 8 68.5z" />
    <glyph glyph-name="percent" unicode="%" horiz-adv-x="1308" 
d="M97 1176c0 41.333 5.83203 80.166 17.499 116.499s28.834 68.166 51.501 95.499s51 49 85 65s73.333 24 118 24c46 0 86 -8 120 -24s62.5 -37.667 85.5 -65s40.167 -59.166 51.5 -95.499s17 -75.166 17 -116.499v-77c0 -40.667 -5.66699 -79.167 -17 -115.5
s-28.333 -68 -51 -95s-51 -48.5 -85 -64.5s-73.667 -24 -119 -24s-85 8 -119 24s-62.5 37.5 -85.5 64.5s-40.333 58.667 -52 95s-17.5 74.833 -17.5 115.5v77zM280.999 1099c0 -17.333 1.83105 -33.833 5.49805 -49.5s9.33398 -29.5 17.001 -41.5s17 -21.667 28 -29
s24.167 -11 39.5 -11c14.667 0 27.5 3.66699 38.5 11s20 17 27 29s12.333 25.833 16 41.5s5.5 32.167 5.5 49.5v77c0 17.333 -1.83301 34 -5.5 50s-9.16699 30.167 -16.5 42.5s-16.666 22.166 -27.999 29.499s-24.333 11 -39 11s-27.5 -3.66699 -38.5 -11
s-20.167 -17.166 -27.5 -29.499s-12.833 -26.5 -16.5 -42.5s-5.5 -32.667 -5.5 -50v-77zM670.997 357c0 40.667 5.83203 79.334 17.499 116.001s29 68.5 52 95.5s51.5 48.5 85.5 64.5s73.333 24 118 24c46 0 86 -8 120 -24s62.5 -37.5 85.5 -64.5s40.167 -58.833 51.5 -95.5
s17 -75.334 17 -116.001v-78c0 -41.333 -5.66699 -80 -17 -116s-28.333 -67.667 -51 -95s-51 -48.833 -85 -64.5s-73.667 -23.5 -119 -23.5s-85.166 7.83301 -119.499 23.5s-63 37.167 -86 64.5s-40.333 59 -52 95s-17.5 74.667 -17.5 116v78zM855.996 279
c0 -17.333 2.16797 -34 6.50098 -50s10.5 -30 18.5 -42s17.5 -21.667 28.5 -29s23.167 -11 36.5 -11c18 0 32.667 3.66699 44 11s20.166 17 26.499 29s10.666 26 12.999 42s3.5 32.667 3.5 50v78c0 17.333 -1.83301 34 -5.5 50s-9.16699 30 -16.5 42
s-16.666 21.667 -27.999 29s-24.333 11 -39 11c-15.333 0 -28.5 -3.66699 -39.5 -11s-20 -17 -27 -29s-12.333 -26 -16 -42s-5.5 -32.667 -5.5 -50v-78zM421.997 109l-134 76l597 1138l135 -76z" />
    <glyph glyph-name="ampersand" unicode="&#x26;" horiz-adv-x="1186" 
d="M72 392c0 42 5.33594 80.1689 16.0029 114.502s25.667 66.166 45 95.499s42.5 57.333 69.5 84s57.167 53.667 90.5 81c-36.667 58 -65.667 112.833 -87 164.5s-32 105.167 -32 160.5c0 58 8.33301 110.5 25 157.5s40.167 87.333 70.5 121s67 59.667 110 78
s90.833 27.5 143.5 27.5c50 0 95.167 -9.16699 135.5 -27.5s74.666 -43 102.999 -74s50.333 -67 66 -108s23.5 -84.5 23.5 -130.5c0 -68 -14.333 -128.333 -43 -181s-69 -99.334 -121 -140.001l-75 -61l187 -261c11.333 33.333 20 68.333 26 105s9 75.667 9 117h239
c0 -87.333 -8.33301 -169 -25 -245s-45 -145 -85 -207l188 -263h-321l-54 76c-44.667 -33.333 -91.334 -57.666 -140.001 -72.999s-101.334 -23 -158.001 -23c-62.667 0 -119.167 10.167 -169.5 30.5s-93 48.666 -128 84.999s-61.833 79.833 -80.5 130.5s-28 106 -28 166z
M493.003 214.002c52.667 0 102.333 17.332 149 51.999l-230 325l-6 -5c-20.667 -32 -34.167 -62.667 -40.5 -92s-9.5 -57.666 -9.5 -84.999c0 -28 3.5 -54 10.5 -78s16.667 -44.667 29 -62s26.833 -30.833 43.5 -40.5s34.667 -14.5 54 -14.5zM426.002 1097
c0 -28 6.16797 -56.167 18.501 -84.5s28.833 -58.166 49.5 -89.499l47 36c17.333 13.333 31.166 26.333 41.499 39s18.166 25.5 23.499 38.5s8.83301 26.167 10.5 39.5s2.5 27.333 2.5 42s-2.16699 29.5 -6.5 44.5s-10.666 28.167 -18.999 39.5s-18.5 20.666 -30.5 27.999
s-25.667 11 -41 11c-16 0 -30 -3.83301 -42 -11.5s-22 -18 -30 -31s-14 -28.167 -18 -45.5s-6 -36 -6 -56z" />
    <glyph glyph-name="quotesingle" unicode="'" horiz-adv-x="330" 
d="M275 1388l-29 -405h-184v553h213v-148z" />
    <glyph glyph-name="parenleft" unicode="(" horiz-adv-x="662" 
d="M120 592c0 93.333 6.33301 181.168 19 263.501s29.667 158.666 51 228.999s46.333 134.333 75 192s59 108.834 91 153.501s64.833 82.5 98.5 113.5s66.5 54.833 98.5 71.5l53 -156c-30 -28 -59.667 -66 -89 -114s-55.833 -107.333 -79.5 -178
s-42.834 -153.334 -57.501 -248.001s-22 -203 -22 -325v-28c0 -122 7.33301 -230.333 22 -325s33.834 -177.334 57.501 -248.001s50.167 -130.167 79.5 -178.5s59 -86.833 89 -115.5l-53 -154c-32 16.667 -64.833 40.5 -98.5 71.5s-66.5 68.833 -98.5 113.5
s-62.333 95.834 -91 153.501s-53.667 121.667 -75 192s-38.333 146.5 -51 228.5s-19 170 -19 264v24z" />
    <glyph glyph-name="parenright" unicode=")" horiz-adv-x="662" 
d="M556 568c0 -135.333 -13.999 -260 -41.999 -374s-63.833 -214.833 -107.5 -302.5s-91.834 -161 -144.501 -220s-104 -101.167 -154 -126.5l-52 154c29.333 28 58.666 66 87.999 114s55.833 107.5 79.5 178.5s43 154 58 249s22.5 203.5 22.5 325.5v28
c0 122 -7.66699 230.5 -23 325.5s-35 178 -59 249s-50.667 130.5 -80 178.5s-58 86 -86 114l52 154c50 -25.333 101.333 -67.333 154 -126s100.834 -131.834 144.501 -219.501s79.5 -188.667 107.5 -303s42 -239.166 42 -374.499v-24z" />
    <glyph glyph-name="asterisk" unicode="*" 
d="M342 962l-315 89l60 182l310 -126l-19 349h196l-20 -356l304 123l59 -183l-320 -90l210 -265l-160 -113l-182 291l-181 -282l-159 109z" />
    <glyph glyph-name="plus" unicode="+" horiz-adv-x="973" 
d="M620 816h283v-263h-283v-407h-268v407h-288v263h288v390h268v-390z" />
    <glyph glyph-name="comma" unicode="," horiz-adv-x="503" 
d="M385 48c0 -38 -5.00098 -76.333 -15.001 -115s-23.667 -76.167 -41 -112.5s-38.166 -70.5 -62.499 -102.5s-50.833 -60.333 -79.5 -85l-151 79l36.5 68c12.333 22.667 23.5 46.667 33.5 72s18.167 52.833 24.5 82.5s9.5 62.5 9.5 98.5v213h246z" />
    <glyph glyph-name="hyphen" unicode="-" horiz-adv-x="744" 
d="M612 506h-489v236h489v-236z" />
    <glyph glyph-name="period" unicode="." horiz-adv-x="596" 
d="M126 144c0 22 3.83301 42.5 11.5 61.5s18.667 35.5 33 49.5s31.5 25 51.5 33s42.667 12 68 12c24.667 0 47.167 -4 67.5 -12s37.833 -19 52.5 -33s25.834 -30.5 33.501 -49.5s11.5 -39.5 11.5 -61.5s-3.83301 -42.5 -11.5 -61.5s-18.834 -35.333 -33.501 -49
s-32.167 -24.5 -52.5 -32.5s-42.833 -12 -67.5 -12c-25.333 0 -48 4 -68 12s-37.167 18.833 -51.5 32.5s-25.333 30 -33 49s-11.5 39.5 -11.5 61.5z" />
    <glyph glyph-name="slash" unicode="/" horiz-adv-x="678" 
d="M206 -125h-207l437 1581h207z" />
    <glyph glyph-name="zero" unicode="0" horiz-adv-x="1036" 
d="M941 602c0 -109.333 -10.333 -203.166 -31 -281.499s-49.667 -142.666 -87 -192.999s-81.833 -87.5 -133.5 -111.5s-108.5 -36 -170.5 -36s-119 12 -171 36s-96.667 61.167 -134 111.5s-66.5 114.666 -87.5 192.999s-31.5 172.166 -31.5 281.499v254
c0 108.667 10.333 202.167 31 280.5s49.667 142.666 87 192.999s81.833 87.333 133.5 111s108.5 35.5 170.5 35.5s119 -11.833 171 -35.5s96.667 -60.667 134 -111s66.5 -114.666 87.5 -192.999s31.5 -171.833 31.5 -280.5v-254zM657 897
c0 64 -3.33398 117.833 -10.001 161.5s-16 79 -28 106s-26.667 46.5 -44 58.5s-36.666 18 -57.999 18s-40.666 -6 -57.999 -18s-32 -31.5 -44 -58.5s-21.333 -62.333 -28 -106s-10 -97.5 -10 -161.5v-334c0 -64.667 3.33301 -119.167 10 -163.5
s16.167 -80.166 28.5 -107.499s27.166 -47 44.499 -59s37 -18 59 -18c21.333 0 40.5 6 57.5 18s31.5 31.667 43.5 59s21.167 63.166 27.5 107.499s9.5 98.833 9.5 163.5v334z" />
    <glyph glyph-name="one" unicode="1" horiz-adv-x="1036" 
d="M718 0h-284v1112l-277 -107v236l531 217h30v-1458z" />
    <glyph glyph-name="two" unicode="2" horiz-adv-x="1036" 
d="M953 0l-857.999 -0.00390625v200l394 501c28 38.667 51.333 73.834 70 105.501s33.667 60.834 45 87.501s19.333 51.334 24 74.001s7 44.667 7 66c0 64.667 -11.167 115.334 -33.5 152.001s-54.5 55 -96.5 55c-25.333 0 -47.333 -6.16699 -66 -18.5
s-34.334 -29.333 -47.001 -51s-22 -47.5 -28 -77.5s-9 -62.333 -9 -97h-284c0 66 10.167 128 30.5 186s49.333 108.667 87 152s83.667 77.666 138 102.999s115.5 38 183.5 38c66.667 0 125.5 -9.5 176.5 -28.5s93.833 -46.167 128.5 -81.5s60.834 -78.666 78.501 -129.999
s26.5 -109 26.5 -173c0 -48.667 -6.33301 -95.834 -19 -141.501s-30.834 -91.167 -54.501 -136.5s-52.5 -91.166 -86.5 -137.499s-72.333 -94.833 -115 -145.5l-187 -267h495v-235z" />
    <glyph glyph-name="three" unicode="3" horiz-adv-x="1036" 
d="M347 857l136.996 -0.000976562c52 0 90.167 18.167 114.5 54.5s36.5 84.833 36.5 145.5c0 26.667 -2.83301 51.167 -8.5 73.5s-14.334 41.666 -26.001 57.999s-26.167 29.166 -43.5 38.499s-37.333 14 -60 14c-18 0 -35.167 -3.66699 -51.5 -11s-30.5 -18 -42.5 -32
s-21.667 -31 -29 -51s-11 -42.667 -11 -68h-283c0 60 10.667 114.5 32 163.5s50.333 90.667 87 125s79.834 61 129.501 80s103.167 28.5 160.5 28.5c63.333 0 121.333 -8.83301 174 -26.5s97.834 -44 135.501 -79s67 -78.333 88 -130s31.5 -111.5 31.5 -179.5
c0 -32 -4.16699 -63.167 -12.5 -93.5s-20.5 -59 -36.5 -86s-35.5 -52 -58.5 -75s-49.5 -42.5 -79.5 -58.5c68.667 -29.333 119.834 -73.333 153.501 -132s50.5 -128 50.5 -208c0 -68 -11.5 -128.667 -34.5 -182s-54.5 -98.166 -94.5 -134.499s-87.333 -64 -142 -83
s-113.667 -28.5 -177 -28.5c-53.333 0 -105.166 8.33301 -155.499 25s-95 42.334 -134 77.001s-70.5 78.167 -94.5 130.5s-36 114.5 -36 186.5h283c0 -26.667 3.66699 -51.167 11 -73.5s17.333 -41.666 30 -57.999s27.834 -29.166 45.501 -38.499s37.167 -14 58.5 -14
c24.667 0 46.667 4.66699 66 14s35.833 22.666 49.5 39.999s24.167 38.166 31.5 62.499s11 51.5 11 81.5c0 76.667 -14.833 131.834 -44.5 165.501s-71.167 50.5 -124.5 50.5h-137v228z" />
    <glyph glyph-name="four" unicode="4" horiz-adv-x="1036" 
d="M841 550h124v-235h-124v-315h-283v315h-482l-13 183l494 958h284v-906zM338 550h220v487l-6 -11z" />
    <glyph glyph-name="five" unicode="5" horiz-adv-x="1036" 
d="M124 716l71.9951 740.002h705v-242h-473l-26 -312c8 5.33301 17.667 11.166 29 17.499s24.333 12.333 39 18s30.5 10.334 47.5 14.001s34.833 5.5 53.5 5.5c60.667 0 114.334 -11 161.001 -33s85.834 -54 117.501 -96s55.667 -93.333 72 -154s24.5 -129.667 24.5 -207
c0 -64.667 -8.66699 -126.334 -26 -185.001s-43.666 -110.334 -78.999 -155.001s-79.666 -80.334 -132.999 -107.001s-116 -40 -188 -40c-54 0 -106.333 9.5 -157 28.5s-95.834 46.833 -135.501 83.5s-71.5 81.334 -95.5 134.001s-36.333 112.667 -37 180h280
c4.66699 -60.667 19.667 -107.667 45 -141s58 -50 98 -50c26.667 0 49.334 7 68.001 21s33.834 33 45.501 57s20 52.333 25 85s7.5 68 7.5 106s-3.33301 72.667 -10 104s-17.167 58 -31.5 80s-32.333 39.167 -54 51.5s-47.5 18.5 -77.5 18.5c-20 0 -37.5 -2.33301 -52.5 -7
s-28 -10.667 -39 -18s-20.5 -15.833 -28.5 -25.5s-15.333 -19.5 -22 -29.5z" />
    <glyph glyph-name="six" unicode="6" horiz-adv-x="1036" 
d="M770 1471l0.00195312 -239.999h-14c-54.667 0 -103.334 -8.16699 -146.001 -24.5s-79.167 -40 -109.5 -71s-55 -68.667 -74 -113s-31.833 -94.5 -38.5 -150.5c28 32 61 57.167 99 75.5s80.667 27.5 128 27.5c58 0 108.667 -13.167 152 -39.5s79.5 -62 108.5 -107
s50.667 -97.5 65 -157.5s21.5 -123.667 21.5 -191c0 -70.667 -10 -136.5 -30 -197.5s-48.333 -113.833 -85 -158.5s-81.334 -79.834 -134.001 -105.501s-111.334 -38.5 -176.001 -38.5c-67.333 0 -128 14 -182 42s-100 67.5 -138 118.5s-67.167 112.167 -87.5 183.5
s-30.5 150 -30.5 236v112c0 118 14 226 42 324s68.833 182.167 122.5 252.5s119.834 125 198.501 164s168.667 58.5 270 58.5h38zM527.002 741.001c-36 0 -66.168 -11.3311 -90.501 -33.998s-42.5 -50.667 -54.5 -84v-102c0 -102.667 13.667 -179.334 41 -230.001
s63.333 -76 108 -76c22.667 0 43.334 6.5 62.001 19.5s34.5 31.167 47.5 54.5s23 51 30 83s10.5 67 10.5 105c0 38.667 -3.66699 74.167 -11 106.5s-17.833 60.166 -31.5 83.499s-30 41.5 -49 54.5s-39.833 19.5 -62.5 19.5z" />
    <glyph glyph-name="seven" unicode="7" horiz-adv-x="1036" 
d="M949 1293l-460 -1293h-299l462 1221h-584v235h881v-163z" />
    <glyph glyph-name="eight" unicode="8" horiz-adv-x="1036" 
d="M911 1069c0 -70.667 -15 -133.333 -45 -188s-71.333 -98.334 -124 -131.001c60 -34 107.333 -80.833 142 -140.5s52 -129.834 52 -210.501c0 -69.333 -10.5 -130 -31.5 -182s-50 -95.667 -87 -131s-81 -61.833 -132 -79.5s-106.5 -26.5 -166.5 -26.5
s-115.667 8.83301 -167 26.5s-95.833 44.167 -133.5 79.5s-67.167 79 -88.5 131s-32 112.667 -32 182c0 80.667 17.333 151 52 211s82.334 106.667 143.001 140c-53.333 32.667 -95 76.334 -125 131.001s-45 117.334 -45 188.001c0 66 9.66699 124.333 29 175
s46.5 93.167 81.5 127.5s76.667 60.333 125 78s101.166 26.5 158.499 26.5c58 0 111.167 -8.83301 159.5 -26.5s89.833 -43.667 124.5 -78s61.667 -76.833 81 -127.5s29 -109 29 -175zM652 421.001c0 64.667 -11.999 115.334 -35.999 152.001s-57 55 -99 55
s-75.167 -18.333 -99.5 -55s-36.5 -87.334 -36.5 -152.001s12.167 -115.167 36.5 -151.5s58.166 -54.5 101.499 -54.5c42.667 0 75.5 18.167 98.5 54.5s34.5 86.833 34.5 151.5zM629.001 1054c0 56.667 -9.16699 102 -27.5 136s-46.5 51 -84.5 51
c-36 0 -63.333 -16.5 -82 -49.5s-28 -78.833 -28 -137.5c0 -57.333 9.33301 -103.5 28 -138.5s46.667 -52.5 84 -52.5s65 17.5 83 52.5s27 81.167 27 138.5z" />
    <glyph glyph-name="nine" unicode="9" horiz-adv-x="1036" 
d="M290 229c112 0 196.166 28.334 252.499 85.001s90.166 139.667 101.499 249c-27.333 -28 -57.666 -50.333 -90.999 -67s-68.666 -25 -105.999 -25c-58 0 -109.333 12.333 -154 37s-82 58.834 -112 102.501s-52.667 95.5 -68 155.5s-23 125 -23 195
c0 70.667 9.83301 137.167 29.5 199.5s47.667 116.833 84 163.5s80.5 83.667 132.5 111s110 41 174 41c62.667 0 120 -14.167 172 -42.5s96.333 -68.5 133 -120.5s65.167 -114.5 85.5 -187.5s30.5 -154.167 30.5 -243.5v-102c0 -120 -13.333 -228.833 -40 -326.5
s-66.667 -181.334 -120 -251.001s-119.833 -123.334 -199.5 -161.001s-172.5 -56.5 -278.5 -56.5h-18v244h15zM518.999 693.001c28.667 0 54 10.6699 76 32.0029s39.667 48 53 80v130c0 51.333 -3.66699 96.166 -11 134.499s-17.5 70.166 -30.5 95.499s-28 44.333 -45 57
s-34.833 19 -53.5 19c-22 0 -41.5 -7.83301 -58.5 -23.5s-31.167 -36.334 -42.5 -62.001s-20 -55.167 -26 -88.5s-9 -67.666 -9 -102.999c0 -37.333 2.83301 -72.333 8.5 -105s14.5 -61.334 26.5 -86.001s27.333 -44.167 46 -58.5s40.667 -21.5 66 -21.5z" />
    <glyph glyph-name="colon" unicode=":" horiz-adv-x="562" 
d="M128 144c0 22 3.83301 42.5 11.5 61.5s18.667 35.5 33 49.5s31.5 25 51.5 33s42.667 12 68 12c24.667 0 47.167 -4 67.5 -12s37.833 -19 52.5 -33s25.834 -30.5 33.501 -49.5s11.5 -39.5 11.5 -61.5s-3.83301 -42.5 -11.5 -61.5s-18.834 -35.333 -33.501 -49
s-32.167 -24.5 -52.5 -32.5s-42.833 -12 -67.5 -12c-25.333 0 -48 4 -68 12s-37.167 18.833 -51.5 32.5s-25.333 30 -33 49s-11.5 39.5 -11.5 61.5zM128 962c0 22 3.83301 42.5 11.5 61.5s18.667 35.5 33 49.5s31.5 25 51.5 33s42.667 12 68 12c24.667 0 47.167 -4 67.5 -12
s37.833 -19 52.5 -33s25.834 -30.5 33.501 -49.5s11.5 -39.5 11.5 -61.5s-3.83301 -42.5 -11.5 -61.5s-18.834 -35.333 -33.501 -49s-32.167 -24.5 -52.5 -32.5s-42.833 -12 -67.5 -12c-25.333 0 -48 4 -68 12s-37.167 18.833 -51.5 32.5s-25.333 30 -33 49
s-11.5 39.5 -11.5 61.5z" />
    <glyph glyph-name="semicolon" unicode=";" horiz-adv-x="522" 
d="M112 962c0 22 3.83301 42.5 11.5 61.5s18.667 35.5 33 49.5s31.5 25 51.5 33s42.667 12 68 12c24.667 0 47.167 -4 67.5 -12s37.833 -19 52.5 -33s25.834 -30.5 33.501 -49.5s11.5 -39.5 11.5 -61.5s-3.83301 -42.5 -11.5 -61.5s-18.834 -35.333 -33.501 -49
s-32.167 -24.5 -52.5 -32.5s-42.833 -12 -67.5 -12c-25.333 0 -48 4 -68 12s-37.167 18.833 -51.5 32.5s-25.333 30 -33 49s-11.5 39.5 -11.5 61.5zM409 48c0 -38 -5.00098 -76.333 -15.001 -115s-23.667 -76.167 -41 -112.5s-38.166 -70.5 -62.499 -102.5
s-50.833 -60.333 -79.5 -85l-151 79l36.5 68c12.333 22.667 23.5 46.667 33.5 72s18.167 52.833 24.5 82.5s9.5 62.5 9.5 98.5v213h246z" />
    <glyph glyph-name="less" unicode="&#x3c;" horiz-adv-x="915" 
d="M336 617l453 -199v-282l-728 364v238l728 365v-282z" />
    <glyph glyph-name="equal" unicode="=" horiz-adv-x="1030" 
d="M895 744h-763v238h763v-238zM895 311h-763v237h763v-237z" />
    <glyph glyph-name="greater" unicode="&#x3e;" 
d="M583 621l-462 201v280l738 -364v-238l-738 -365v280z" />
    <glyph glyph-name="question" unicode="?" horiz-adv-x="918" 
d="M304 448c0 44.667 2.00098 84.832 6.00098 120.499s10.833 68.5 20.5 98.5s22.667 58 39 84s36.5 51.667 60.5 77c18 20 34.667 39.5 50 58.5s28.5 38.167 39.5 57.5s19.667 39.333 26 60s9.5 43 9.5 67c0 111.333 -36 167 -108 167c-12.667 0 -25.667 -3.16699 -39 -9.5
s-25.5 -16.5 -36.5 -30.5s-20 -31.667 -27 -53s-10.833 -47 -11.5 -77h-283c0.666992 70 11.334 130.667 32.001 182s48.834 93.666 84.501 126.999s77.334 58.166 125.001 74.499s99.5 24.5 155.5 24.5c61.333 0 116.166 -8.66699 164.499 -26s89.333 -42.666 123 -75.999
s59.5 -74.333 77.5 -123s27 -104.667 27 -168c0 -43.333 -6 -82.666 -18 -117.999s-27.667 -68.5 -47 -99.5s-41.666 -61 -66.999 -90l-78 -88.5c-14.667 -17.333 -26.834 -34.666 -36.501 -51.999s-17.334 -35.5 -23.001 -54.5s-9.83398 -39.333 -12.501 -61
s-4.33398 -45.5 -5.00098 -71.5h-248zM278.001 141.998c0 22 3.66699 42.333 11 61s17.666 34.834 30.999 48.501s29.5 24.5 48.5 32.5s40.167 12 63.5 12c24 0 45.5 -4 64.5 -12s35.167 -18.833 48.5 -32.5s23.666 -29.834 30.999 -48.501s11 -39 11 -61
s-3.66699 -42.333 -11 -61s-17.666 -35 -30.999 -49s-29.5 -24.833 -48.5 -32.5s-40.5 -11.5 -64.5 -11.5c-23.333 0 -44.5 3.83301 -63.5 11.5s-35.167 18.5 -48.5 32.5s-23.666 30.333 -30.999 49s-11 39 -11 61z" />
    <glyph glyph-name="at" unicode="@" horiz-adv-x="1569" 
d="M1484 537c-1.33301 -45.333 -5.49707 -90.6689 -12.4971 -136.002s-17.167 -88.666 -30.5 -129.999s-30 -79.833 -50 -115.5s-43.833 -66.5 -71.5 -92.5s-59.334 -46.5 -95.001 -61.5s-75.5 -22.5 -119.5 -22.5c-47.333 0 -88.333 11.667 -123 35s-61.667 56.333 -81 99
c-28 -44 -59.667 -76.833 -95 -98.5s-73.333 -32.5 -114 -32.5c-41.333 0 -78.5 10.667 -111.5 32s-60.333 51.666 -82 90.999s-37.167 86.5 -46.5 141.5s-11.333 116.5 -6 184.5c8 85.333 23.833 162.5 47.5 231.5s53 127.667 88 176s74.667 85.666 119 111.999
s91.5 39.5 141.5 39.5c33.333 0 62.833 -3 88.5 -9s48.834 -14 69.501 -24s39.667 -21.667 57 -35l53 -41l-44 -578c-2.66699 -33.333 -2.5 -60.5 0.5 -81.5s8 -37.5 15 -49.5s15.667 -20.167 26 -24.5s21.5 -6.5 33.5 -6.5c24.667 0 47.167 10 67.5 30s38 47.5 53 82.5
s27 76.167 36 123.5s14.167 98.333 15.5 153c4 109.333 -2.83301 208.333 -20.5 297s-46.834 164.5 -87.501 227.5s-93 111.667 -157 146s-140 51.5 -228 51.5c-84.667 0 -160 -19.833 -226 -59.5s-122.333 -94.667 -169 -165s-82.834 -153.666 -108.501 -249.999
s-40.5 -201.166 -44.5 -314.499c-4.66699 -121.333 3 -228 23 -320s51.333 -169.167 94 -231.5s95.834 -109.333 159.501 -141s137.167 -47.5 220.5 -47.5c24.667 0 49.667 1.66699 75 5s50.166 8 74.499 14s47.5 13.167 69.5 21.5s42 17.5 60 27.5l34 -155
c-20 -15.333 -42.833 -28.5 -68.5 -39.5s-52.5 -20.167 -80.5 -27.5s-56.333 -12.833 -85 -16.5s-56 -5.5 -82 -5.5c-112 0 -211.5 19.833 -298.5 59.5s-159.833 98.334 -218.5 176.001s-102.334 173.5 -131.001 287.5s-40.667 245 -36 393
c4.66699 136.667 25.334 263 62.001 379s87 216.5 151 301.5s140.5 151.5 229.5 199.5s188.833 72 299.5 72c108 0 204.167 -21 288.5 -63s154.666 -101.5 210.999 -178.5s98.333 -169.5 126 -277.5s39.167 -227.667 34.5 -359zM661.003 430.997
c-5.33301 -88.667 0.668945 -155.667 18.002 -201s45 -68 83 -68c7.33301 0 15.666 2.33301 24.999 7s19 12.667 29 24s20 27 30 47s19 45 27 75l36 491c-7.33301 2 -15 3.66699 -23 5s-16.333 2 -25 2c-31.333 0 -58.5 -8.33301 -81.5 -25s-42.5 -41 -58.5 -73
s-28.833 -71.833 -38.5 -119.5s-16.834 -102.5 -21.501 -164.5z" />
    <glyph glyph-name="A" unicode="A" horiz-adv-x="1223" 
d="M812 298h-401l-78 -298h-311l455 1456h269l458 -1456h-314zM475 543h272l-136 519z" />
    <glyph glyph-name="B" unicode="B" horiz-adv-x="1149" 
d="M117 0l-0.000976562 1456h450c72.667 0 137.834 -8 195.501 -24s106.5 -40.5 146.5 -73.5s70.5 -74.5 91.5 -124.5s31.5 -109 31.5 -177c0 -33.333 -3.5 -65.333 -10.5 -96s-18 -59.334 -33 -86.001s-34 -50.834 -57 -72.501s-50.5 -39.5 -82.5 -53.5
c37.333 -10.667 69 -26.834 95 -48.501s47 -46.834 63 -75.501s27.667 -59.834 35 -93.501s11 -68.167 11 -103.5c0 -141.333 -38.833 -248 -116.5 -320s-190.167 -108 -337.5 -108h-482zM410.999 633.005v-389h188c28.667 0 53.167 4.66699 73.5 14s37 22.5 50 39.5
s22.5 36.833 28.5 59.5s9 47.667 9 75c0 62 -11.5 111 -34.5 147s-61.833 54 -116.5 54h-198zM410.999 847.005h153c58.667 0 102.167 15.167 130.5 45.5s42.5 74.833 42.5 133.5c0 66 -13.333 113.333 -40 142s-70 43 -130 43h-156v-364z" />
    <glyph glyph-name="C" unicode="C" horiz-adv-x="1168" 
d="M1104 485c-7.33301 -166 -54.0039 -291.67 -140.004 -377.003s-207.333 -128 -364 -128c-80.667 0 -152.667 13.333 -216 40s-116.666 66.334 -159.999 119.001s-76.5 117.834 -99.5 195.501s-34.5 167.167 -34.5 268.5v248c0 101.333 11.833 191 35.5 269
s57.834 143.333 102.501 196s98.667 92.5 162 119.5s134.666 40.5 213.999 40.5c158.667 0 279.167 -44.333 361.5 -133s129.166 -216 140.499 -382h-295c-1.33301 52 -5.83301 95.5 -13.5 130.5s-19.5 62.833 -35.5 83.5s-36.833 35.334 -62.5 44.001s-57.5 13 -95.5 13
c-39.333 0 -72.833 -6.66699 -100.5 -20s-50.167 -34.833 -67.5 -64.5s-30.166 -68.667 -38.499 -117s-12.5 -107.5 -12.5 -177.5v-250c0 -68 3.33301 -126 10 -174s18.334 -87.167 35.001 -117.5s38.667 -52.5 66 -66.5s62 -21 104 -21c36 0 66.833 3.83301 92.5 11.5
s46.834 21.167 63.501 40.5s29.334 46 38.001 80s14 77 16 129h294z" />
    <glyph glyph-name="D" unicode="D" horiz-adv-x="1157" 
d="M117 0l-0.00195312 1456h385c84 0 160.5 -13.833 229.5 -41.5s128 -67.667 177 -120s87 -116.666 114 -192.999s40.5 -163.5 40.5 -261.5v-226c0 -98 -13.333 -185 -40 -261s-64.667 -140.167 -114 -192.5s-108.666 -92.166 -177.999 -119.499s-146.666 -41 -231.999 -41
h-382zM410.998 1211l-0.000976562 -967.001h88c52 0 95.333 6.83301 130 20.5s62.334 35.5 83.001 65.5s35.334 68.333 44.001 115s13 103 13 169v228c0 66.667 -4.33301 123.334 -13 170.001s-23.334 84.667 -44.001 114s-48.167 50.833 -82.5 64.5
s-76.833 20.5 -127.5 20.5h-91z" />
    <glyph glyph-name="E" unicode="E" horiz-adv-x="1005" 
d="M869 630h-458v-386h542v-244h-836v1456h834v-245h-540v-344h458v-237z" />
    <glyph glyph-name="F" unicode="F" horiz-adv-x="974" 
d="M868 594h-457v-594h-294v1456h806v-245h-512v-373h457v-244z" />
    <glyph glyph-name="G" unicode="G" horiz-adv-x="1198" 
d="M1107 165c-15.333 -16.667 -35.998 -35.666 -61.998 -56.999s-58.5 -41.5 -97.5 -60.5s-84.833 -35 -137.5 -48s-113.334 -19.5 -182.001 -19.5c-81.333 0 -154.666 12.667 -219.999 38s-121.333 63.666 -168 114.999s-82.5 116.166 -107.5 194.499
s-37.5 170.5 -37.5 276.5v246c0 106 12 198.167 36 276.5s58.167 143.5 102.5 195.5s98.333 90.667 162 116s135.167 38 214.5 38c82.667 0 154 -10.333 214 -31s110 -51.5 150 -92.5s70.667 -91.667 92 -152s35 -129.833 41 -208.5h-286c-4 46 -10.5 84.333 -19.5 115
s-21.667 55.167 -38 73.5s-36.333 31.5 -60 39.5s-51.834 12 -84.501 12c-38.667 0 -72.334 -6.83301 -101.001 -20.5s-52.5 -35.667 -71.5 -66s-33.167 -69.666 -42.5 -117.999s-14 -106.833 -14 -175.5v-248c0 -69.333 5.16699 -128 15.5 -176s26 -87.167 47 -117.5
s47.5 -52.333 79.5 -66s69.667 -20.5 113 -20.5c26 0 48.167 2 66.5 6s34 8.83301 47 14.5s23.667 11.5 32 17.5l21.5 15v267h-206v222h501v-601z" />
    <glyph glyph-name="H" unicode="H" horiz-adv-x="1257" 
d="M1138 0h-293v623h-434v-623h-294v1456h294v-589h434v589h293v-1456z" />
    <glyph glyph-name="I" unicode="I" horiz-adv-x="554" 
d="M424 0h-294v1456h294v-1456z" />
    <glyph glyph-name="J" unicode="J" horiz-adv-x="1004" 
d="M596 1456h293.999v-1008c0 -72.667 -10.667 -138 -32 -196s-51 -107.167 -89 -147.5s-82.667 -71.166 -134 -92.499s-107 -32 -167 -32c-60.667 0 -116.834 9 -168.501 27s-96.167 45.5 -133.5 82.5s-66.666 83.667 -87.999 140s-32 123.166 -32 200.499h295
c0 -38.667 3.16699 -71.167 9.5 -97.5s15 -47.5 26 -63.5s24.333 -27.5 40 -34.5s32.834 -10.5 51.501 -10.5c40.667 0 72.167 19.333 94.5 58s33.5 94 33.5 166v1008z" />
    <glyph glyph-name="K" unicode="K" horiz-adv-x="1133" 
d="M527 562l-116 -146v-416h-294v1456h294v-635l93 157l271 478h360l-417 -640l424 -816h-349z" />
    <glyph glyph-name="L" unicode="L" horiz-adv-x="980" 
d="M411 244h516v-244h-810v1456h294v-1212z" />
    <glyph glyph-name="M" unicode="M" horiz-adv-x="1553" 
d="M501 1456l275 -1053l274 1053h384v-1456h-295v394l27 607l-291 -1001h-200l-291 1001l27 -607v-394h-294v1456h384z" />
    <glyph glyph-name="N" unicode="N" horiz-adv-x="1254" 
d="M1135 0h-294l-430 955v-955h-294v1456h294l431 -956v956h293v-1456z" />
    <glyph glyph-name="O" unicode="O" horiz-adv-x="1236" 
d="M1142 597c0 -102 -12.665 -191.667 -37.998 -269s-60.833 -141.666 -106.5 -192.999s-100.667 -90 -165 -116s-135.5 -39 -213.5 -39s-149.333 13 -214 39s-120.167 64.667 -166.5 116s-82.333 115.666 -108 192.999s-38.5 167 -38.5 269v242
c0 104.667 12.667 196.834 38 276.501s61 146.167 107 199.5s101.333 93.5 166 120.5s136 40.5 214 40.5s149.167 -13.5 213.5 -40.5s119.666 -67.167 165.999 -120.5s82.166 -119.833 107.499 -199.5s38 -171.834 38 -276.501v-242zM847.002 841
c0 69.333 -4.99805 128.5 -14.998 177.5s-24.667 89.167 -44 120.5s-43.333 54.333 -72 69s-61.667 22 -99 22c-38 0 -71.333 -7.33301 -100 -22s-52.667 -37.667 -72 -69s-34 -71.5 -44 -120.5s-15 -108.167 -15 -177.5v-244c0 -66 5 -122.5 15 -169.5
s24.833 -85.5 44.5 -115.5s44 -52 73 -66s62.5 -21 100.5 -21c37.333 0 70.166 7 98.499 21s52.166 36 71.499 66s33.833 68.5 43.5 115.5s14.5 103.5 14.5 169.5v244z" />
    <glyph glyph-name="P" unicode="P" horiz-adv-x="1165" 
d="M411 512l0.000976562 -512h-294v1456h496c74 0 140.167 -12 198.5 -36s107.833 -57.5 148.5 -100.5s71.834 -94 93.501 -153s32.5 -123.167 32.5 -192.5c0 -70.667 -10.833 -134.5 -32.5 -191.5s-52.834 -105.5 -93.501 -145.5s-90.334 -70.833 -149.001 -92.5
s-124.667 -32.5 -198 -32.5h-202zM411.001 757l202 0.000976562c30.667 0 57.167 5.33301 79.5 16s40.666 25.5 54.999 44.5s24.833 41.667 31.5 68s10 55.166 10 86.499s-3.33301 61.333 -10 90s-17.167 54 -31.5 76s-32.666 39.667 -54.999 53s-48.833 20 -79.5 20h-202
v-454z" />
    <glyph glyph-name="Q" unicode="Q" horiz-adv-x="1236" 
d="M1141 615c0 -124 -16.998 -229.5 -50.998 -316.5s-82 -156.5 -144 -208.5l201 -180l-185 -170l-268 245c-12.667 -1.33301 -25.334 -2.5 -38.001 -3.5s-25.667 -1.5 -39 -1.5c-78 0 -149.333 13.333 -214 40s-120.167 66.667 -166.5 120s-82.333 119.5 -108 198.5
s-38.5 171.167 -38.5 276.5v224c0 104.667 12.667 196.834 38 276.501s61 146.167 107 199.5s101.333 93.5 166 120.5s136 40.5 214 40.5s149.333 -13.5 214 -40.5s120.167 -67.167 166.5 -120.5s82.166 -119.833 107.499 -199.5s38 -171.834 38 -276.501v-224zM846.002 841
c0 69.333 -4.99707 128.5 -14.9971 177.5s-24.833 89.167 -44.5 120.5s-43.834 54.333 -72.501 69s-61.667 22 -99 22c-38 0 -71.333 -7.33301 -100 -22s-52.667 -37.667 -72 -69s-34 -71.5 -44 -120.5s-15 -108.167 -15 -177.5v-226c0 -68.667 5 -127.667 15 -177
s24.833 -89.666 44.5 -120.999s44 -54.5 73 -69.5s62.5 -22.5 100.5 -22.5c37.333 0 70.166 7.5 98.499 22.5s52.166 38.167 71.499 69.5s34 71.666 44 120.999s15 108.333 15 177v226z" />
    <glyph glyph-name="R" unicode="R" horiz-adv-x="1134" 
d="M558 532h-146v-532h-294v1456h469c72.667 0 137.5 -9.5 194.5 -28.5s105.333 -47 145 -84s70 -82.833 91 -137.5s31.5 -118 31.5 -190c0 -52.667 -4.83301 -100.167 -14.5 -142.5s-23.667 -80 -42 -113s-40.5 -61.833 -66.5 -86.5s-55.333 -46 -88 -64l255 -596v-14h-316
zM412 777h166.999c58.667 0 102.667 19.5 132 58.5s44 91.167 44 156.5c0 33.333 -3.16699 63.5 -9.5 90.5s-16.333 50 -30 69s-31.167 33.667 -52.5 44s-46.666 15.5 -75.999 15.5h-175v-434z" />
    <glyph glyph-name="S" unicode="S" horiz-adv-x="1106" 
d="M732 382c0 25.333 -2.33398 47.999 -7.00098 67.999s-14.5 38.833 -29.5 56.5s-36.333 34.834 -64 51.501s-64.5 34.334 -110.5 53.001c-54.667 20.667 -106.834 44.334 -156.501 71.001s-93.334 58.167 -131.001 94.5s-67.667 78.333 -90 126s-33.5 103.167 -33.5 166.5
c0 60.667 11.333 116.167 34 166.5s54.5 93.166 95.5 128.499s89.667 62.833 146 82.5s118.5 29.5 186.5 29.5c70 0 133.167 -11.167 189.5 -33.5s104.333 -53.333 144 -93s70.167 -87 91.5 -142s32 -115.5 32 -181.5h-293c0 30.667 -3.16699 58.834 -9.5 84.501
s-16.333 47.667 -30 66s-31.167 32.666 -52.5 42.999s-47 15.5 -77 15.5c-28 0 -52.167 -4.33301 -72.5 -13s-37.166 -20.5 -50.499 -35.5s-23.333 -32.833 -30 -53.5s-10 -42.667 -10 -66c0 -24 5.16699 -45.667 15.5 -65s25 -37.333 44 -54s42 -32.334 69 -47.001
s56.833 -29 89.5 -43c68 -24.667 127.333 -52 178 -82s93 -64 127 -102s59.333 -80.833 76 -128.5s25 -101.5 25 -161.5c0 -64 -10.5 -121 -31.5 -171s-51 -92.167 -90 -126.5s-86.167 -60.666 -141.5 -78.999s-117.666 -27.5 -186.999 -27.5
c-62.667 0 -124.167 9.5 -184.5 28.5s-114.166 48.167 -161.499 87.5s-85.5 89 -114.5 149s-43.5 131.333 -43.5 214h295c0 -44 4.33301 -81.333 13 -112s21.834 -55.5 39.501 -74.5s39.5 -32.667 65.5 -41s56.333 -12.5 91 -12.5c28 0 51.833 4.16699 71.5 12.5
s35.667 19.666 48 33.999s21.166 31.5 26.499 51.5s8 41.667 8 65z" />
    <glyph glyph-name="T" unicode="T" horiz-adv-x="1112" 
d="M1060 1211h-360v-1211h-295v1211h-354v245h1009v-245z" />
    <glyph glyph-name="U" unicode="U" horiz-adv-x="1170" 
d="M1064 1456v-1000c0 -84.667 -11.833 -157 -35.5 -217s-56.667 -109.167 -99 -147.5s-92.833 -66.5 -151.5 -84.5s-122.667 -27 -192 -27c-70.667 0 -135.5 9 -194.5 27s-109.667 46.167 -152 84.5s-75.333 87.5 -99 147.5s-35.5 132.333 -35.5 217v1000h296v-1000
c0 -48 4 -87 12 -117s19.833 -53.5 35.5 -70.5s35 -28.667 58 -35s49.5 -9.5 79.5 -9.5s56.5 3.16699 79.5 9.5s42.167 18 57.5 35s27 40.5 35 70.5s12 69 12 117v1000h294z" />
    <glyph glyph-name="V" unicode="V" horiz-adv-x="1184" 
d="M591 400l245 1056h328l-420 -1456h-306l-417 1456h326z" />
    <glyph glyph-name="W" unicode="W" horiz-adv-x="1534" 
d="M1063 541l138 915h291l-259 -1456h-295l-170 858l-168 -858h-296l-260 1456h293l137 -914l171 914h247z" />
    <glyph glyph-name="X" unicode="X" horiz-adv-x="1146" 
d="M573 956l196 500h337l-342 -722l350 -734h-341l-200 509l-199 -509h-341l350 734l-343 722h337z" />
    <glyph glyph-name="Y" unicode="Y" horiz-adv-x="1111" 
d="M556 802l219 654h320l-390 -928v-528h-298v528l-391 928h320z" />
    <glyph glyph-name="Z" unicode="Z" horiz-adv-x="1086" 
d="M422 244h600v-244h-944v177l594 1034h-600v245h939v-173z" />
    <glyph glyph-name="bracketleft" unicode="[" horiz-adv-x="540" 
d="M499 1471h-105v-1587h105v-223h-389v2034h389v-224z" />
    <glyph glyph-name="backslash" unicode="\" horiz-adv-x="781" 
d="M10 1456h289l510 -1581h-289z" />
    <glyph glyph-name="bracketright" unicode="]" horiz-adv-x="540" 
d="M34 1695h389v-2034h-389v223h106v1587h-106v224z" />
    <glyph glyph-name="asciicircum" unicode="^" horiz-adv-x="800" 
d="M402 1184l-131 -455h-222l252 727h203l251 -727h-221z" />
    <glyph glyph-name="underscore" unicode="_" horiz-adv-x="819" 
d="M796 -228h-775v228h775v-228z" />
    <glyph glyph-name="grave" unicode="`" horiz-adv-x="678" 
d="M567 1226h-239l-276 310h317z" />
    <glyph glyph-name="a" unicode="a" horiz-adv-x="964" 
d="M617 0c-5.33301 11.333 -9.83691 24.168 -13.5039 38.501s-7.16699 29.5 -10.5 45.5c-21.333 -29.333 -48.833 -54 -82.5 -74s-74.834 -30 -123.501 -30c-44 0 -85.167 7.66699 -123.5 23s-71.666 37 -99.999 65s-50.666 61.833 -66.999 101.5s-24.5 84.167 -24.5 133.5
c0 54.667 8.83301 104.167 26.5 148.5s44.334 82 80.001 113s80.334 54.833 134.001 71.5s116.834 25 189.501 25h77v87c0 48.667 -8.33301 83 -25 103s-41 30 -73 30c-36.667 0 -63.5 -10.833 -80.5 -32.5s-25.5 -52.167 -25.5 -91.5h-283
c0 47.333 9.16699 91.833 27.5 133.5s44.833 78.167 79.5 109.5s76.334 56.166 125.001 74.499s103.667 27.5 165 27.5c54 0 103.667 -6.83301 149 -20.5s84.666 -35 117.999 -64s59.333 -66 78 -111s28 -99.167 28 -162.5v-480c0 -31.333 0.833008 -59.166 2.5 -83.499
s4.16699 -46.333 7.5 -66s7.5 -37.334 12.5 -53.001s10.833 -30.5 17.5 -44.5v-17h-285zM449.996 202.002c31.333 0 58 6.33203 80 18.999s38.333 27.667 49 45v225h-67c-26.667 0 -49.667 -4.33301 -69 -13s-35.5 -20.667 -48.5 -36s-22.667 -33.333 -29 -54
s-9.5 -42.667 -9.5 -66c0 -39.333 8.16699 -69.166 24.5 -89.499s39.5 -30.5 69.5 -30.5z" />
    <glyph glyph-name="b" unicode="b" horiz-adv-x="1014" 
d="M947 506c0 -175.333 -28 -306.833 -84 -394.5s-144 -131.5 -264 -131.5c-50 0 -93.5 11.167 -130.5 33.5s-68.833 53.5 -95.5 93.5l-9 -107h-261v1536h283v-542c25.333 34 55.333 60.5 90 79.5s75 28.5 121 28.5c121.333 0 210 -44.5 266 -133.5s84 -219.5 84 -391.5v-71
zM664 577c0 48.667 -1.83105 90.998 -5.49805 126.998s-10.834 66 -21.501 90s-25.667 41.833 -45 53.5s-44.666 17.5 -75.999 17.5c-32 0 -58.5 -7.16699 -79.5 -21.5s-37.833 -34.166 -50.5 -59.499v-493c12 -24 28.667 -42.667 50 -56s48.666 -20 81.999 -20
c30.667 0 55.667 5.33301 75 16s34.166 27.667 44.499 51s17.333 53.333 21 90s5.5 81.334 5.5 134.001v71z" />
    <glyph glyph-name="c" unicode="c" horiz-adv-x="942" 
d="M494 215c39.333 0 69.8291 12.168 91.4961 36.501s32.834 65.5 33.501 123.5h266c-0.666992 -61.333 -11 -116.5 -31 -165.5s-47.167 -90.5 -81.5 -124.5s-74.833 -60 -121.5 -78s-97 -27 -151 -27c-72.667 0 -136 11.667 -190 35s-98.833 57.166 -134.5 101.499
s-62.334 98.833 -80.001 163.5s-26.5 138.334 -26.5 221.001v78c0 82.667 8.83301 156.5 26.5 221.5s44.167 119.833 79.5 164.5s80 78.667 134 102s117 35 189 35c58 0 110.833 -9.16699 158.5 -27.5s88.334 -45.333 122.001 -81s59.667 -79.834 78 -132.501
s27.833 -113.667 28.5 -183h-266c-0.666992 60.667 -10.667 107.334 -30 140.001s-51.333 49 -96 49c-31.333 0 -56.166 -6.33301 -74.499 -19s-32.333 -31.167 -42 -55.5s-16 -54.333 -19 -90s-4.5 -76.834 -4.5 -123.501v-78c0 -47.333 1.33301 -88.833 4 -124.5
s8.83398 -65.5 18.501 -89.5s23.834 -42 42.501 -54s44 -18 76 -18z" />
    <glyph glyph-name="d" unicode="d" horiz-adv-x="1015" 
d="M65 574c0 177.333 30.001 309.667 90.001 397s147.333 131 262 131c44 0 83.167 -9.5 117.5 -28.5s64.5 -45.5 90.5 -79.5v542h285v-1536h-257l-13 110c-27.333 -40.667 -59.5 -72.5 -96.5 -95.5s-79.5 -34.5 -127.5 -34.5c-114.667 0 -201.834 44.333 -261.501 133
s-89.5 218.667 -89.5 390v71zM349.001 503.001c0 -50 2.33203 -93 6.99902 -129s12.834 -65.833 24.501 -89.5s27 -41 46 -52s42.833 -16.5 71.5 -16.5c30 0 55.333 6.66699 76 20s37.667 31.666 51 54.999v494c-13.333 25.333 -30.5 45 -51.5 59s-45.833 21 -74.5 21
c-28 0 -51.5 -5.66699 -70.5 -17s-34.5 -28.666 -46.5 -51.999s-20.5 -53.5 -25.5 -90.5s-7.5 -80.833 -7.5 -131.5v-71z" />
    <glyph glyph-name="e" unicode="e" horiz-adv-x="980" 
d="M540 -20c-74 0 -139.669 11.3291 -197.002 33.9961s-105.666 55.334 -144.999 98.001s-69.166 94.834 -89.499 156.501s-30.5 131.834 -30.5 210.501v89c0 88 9.83301 165.167 29.5 231.5s48 122 85 167s82.333 78.833 136 101.5s114.5 34 182.5 34
c137.333 0 240.333 -44.333 309 -133s103 -220 103 -394v-129h-563c2 -43.333 7.83301 -79.666 17.5 -108.999s22.834 -53 39.501 -71s36.834 -31 60.501 -39s50.5 -12 80.5 -12c50 0 94.5 8.5 133.5 25.5s73.5 40.833 103.5 71.5l111 -171
c-14 -19.333 -32.333 -38.5 -55 -57.5s-49.334 -36.167 -80.001 -51.5s-65.334 -27.833 -104.001 -37.5s-81 -14.5 -127 -14.5zM508.998 866.996c-49.333 0 -85.167 -17.667 -107.5 -53s-35.5 -92 -39.5 -170h283v26c-1.33301 64.667 -12 113.667 -32 147
s-54.667 50 -104 50z" />
    <glyph glyph-name="f" unicode="f" horiz-adv-x="671" 
d="M168 0l-0.000976562 869.001h-131v213h131v93c0 62 8.16699 116.667 24.5 164s39.833 87.166 70.5 119.499s67.834 56.833 111.501 73.5s92.5 25 146.5 25c23.333 0 45.333 -2 66 -6s41.334 -8.66699 62.001 -14l-2 -226c-19.333 6 -42.333 9 -69 9
c-40.667 0 -71.834 -12.333 -93.501 -37s-32.5 -60.667 -32.5 -108v-93h169v-213h-169v-869h-284z" />
    <glyph glyph-name="g" unicode="g" horiz-adv-x="1030" 
d="M69 574c0 177.333 32.001 309.672 96.001 397.005s153.667 131 269 131c52.667 0 97.334 -10.167 134.001 -30.5s67.667 -48.833 93 -85.5l11 96h255v-1082c0 -74 -10.833 -137.833 -32.5 -191.5s-52.167 -97.834 -91.5 -132.501s-86.5 -60.334 -141.5 -77.001
s-116.167 -25 -183.5 -25c-25.333 0 -53.333 2.66699 -84 8s-61.334 13.166 -92.001 23.499s-59.834 23.333 -87.501 39s-50.834 34.167 -69.501 55.5l95 196c12.667 -13.333 27.834 -25.833 45.501 -37.5s36.334 -21.667 56.001 -30s40.167 -15 61.5 -20s42 -7.5 62 -7.5
c28.667 0 54.167 3.16699 76.5 9.5s41.166 17.166 56.499 32.499s26.833 35.666 34.5 60.999s11.5 57 11.5 95v87c-26 -34 -56.167 -60.167 -90.5 -78.5s-74.5 -27.5 -120.5 -27.5c-57.333 0 -108.5 11.333 -153.5 34s-83 56 -114 100s-54.833 98.5 -71.5 163.5
s-25 140.167 -25 225.5v71zM352.001 503.006c0 -100 13 -172.833 39 -218.5s67.333 -68.5 124 -68.5c30.667 0 56.5 5.5 77.5 16.5s38.167 26.5 51.5 46.5v517c-14 22 -31.5 39 -52.5 51s-45.833 18 -74.5 18c-56 0 -97.5 -23 -124.5 -69s-40.5 -120 -40.5 -222v-71z" />
    <glyph glyph-name="h" unicode="h" horiz-adv-x="1008" 
d="M379 987c29.333 36.667 62.8311 64.998 100.498 84.998s79.5 30 125.5 30c44.667 0 85.667 -7.66699 123 -23s69.333 -39.666 96 -72.999s47.334 -76.666 62.001 -129.999s22 -118.333 22 -195v-681h-284v683c0 34.667 -2.66699 63.667 -8 87s-13.333 42 -24 56
s-23.667 24 -39 30s-33.333 9 -54 9c-28 0 -51.667 -6.33301 -71 -19s-35.666 -30 -48.999 -52v-794h-283v1536h283v-549z" />
    <glyph glyph-name="i" unicode="i" horiz-adv-x="516" 
d="M400 0h-284v1082h284v-1082zM103 1362c0 22 3.66699 42.167 11 60.5s17.666 34.166 30.999 47.499s29.5 23.666 48.5 30.999s40.167 11 63.5 11s44.5 -3.66699 63.5 -11s35.167 -17.666 48.5 -30.999s23.666 -29.166 30.999 -47.499s11 -38.5 11 -60.5
s-3.66699 -42.167 -11 -60.5s-17.666 -34.333 -30.999 -48s-29.5 -24.167 -48.5 -31.5s-40.167 -11 -63.5 -11s-44.5 3.66699 -63.5 11s-35.167 17.833 -48.5 31.5s-23.666 29.667 -30.999 48s-11 38.5 -11 60.5z" />
    <glyph glyph-name="j" unicode="j" horiz-adv-x="503" 
d="M401 1082l0.000976562 -1140c0 -123.333 -28.333 -217.333 -85 -282s-137 -97 -241 -97c-22 0 -43.333 1.33301 -64 4s-42 7 -64 13l-1 231c14 -2.66699 27.167 -4.83398 39.5 -6.50098s24.166 -2.5 35.499 -2.5c32 0 56 11.167 72 33.5s24 57.833 24 106.5v1140h284z
M98.001 1362c0 22 3.66699 42.167 11 60.5s17.666 34.166 30.999 47.499s29.5 23.666 48.5 30.999s40.167 11 63.5 11s44.5 -3.66699 63.5 -11s35.167 -17.666 48.5 -30.999s23.666 -29.166 30.999 -47.499s11 -38.5 11 -60.5s-3.66699 -42.167 -11 -60.5
s-17.666 -34.333 -30.999 -48s-29.5 -24.167 -48.5 -31.5s-40.167 -11 -63.5 -11s-44.5 3.66699 -63.5 11s-35.167 17.833 -48.5 31.5s-23.666 29.667 -30.999 48s-11 38.5 -11 60.5z" />
    <glyph glyph-name="k" unicode="k" horiz-adv-x="980" 
d="M462 417l-76 -85v-332h-283v1536h283v-830l35 52l196 324h337l-314 -446l344 -636h-324z" />
    <glyph glyph-name="l" unicode="l" horiz-adv-x="516" 
d="M400 0h-284v1536h284v-1536z" />
    <glyph glyph-name="m" unicode="m" horiz-adv-x="1519" 
d="M369 1082l8 -99.998c30 38 65.833 67.5 107.5 88.5s89.5 31.5 143.5 31.5c50 0 94.833 -11.667 134.5 -35s71.167 -60.333 94.5 -111c29.333 46 65.833 81.833 109.5 107.5s95.5 38.5 155.5 38.5c44 0 83.833 -7.33301 119.5 -22s66.167 -38.334 91.5 -71.001
s45 -75.334 59 -128.001s21 -117 21 -193v-688h-283v689c0 36 -2.5 65.333 -7.5 88s-12.5 40.5 -22.5 53.5s-22 22 -36 27s-30 7.5 -48 7.5c-28 0 -51.667 -8.66699 -71 -26s-35 -41 -47 -71c0.666992 -7.33301 1.16699 -15 1.5 -23s0.5 -16 0.5 -24v-721h-283v687
c0 36 -2.5 65.5 -7.5 88.5s-12.333 41.167 -22 54.5s-21.667 22.5 -36 27.5s-30.5 7.5 -48.5 7.5c-26 0 -48.5 -7 -67.5 -21s-35.167 -33.333 -48.5 -58v-786h-283v1082h265z" />
    <glyph glyph-name="n" unicode="n" horiz-adv-x="1008" 
d="M362 1082l7.99902 -106.998c31.333 41.333 68 72.833 110 94.5s89 32.5 141 32.5c42 0 80.667 -7.16699 116 -21.5s65.666 -37.833 90.999 -70.5s45 -75.334 59 -128.001s21 -117.334 21 -194.001v-688h-284v689c0 34.667 -2.66699 63.334 -8 86.001
s-13.166 40.667 -23.499 54s-23.166 22.666 -38.499 27.999s-33.333 8 -54 8c-26.667 0 -50 -7 -70 -21s-36.667 -33.333 -50 -58v-786h-284v1082h266z" />
    <glyph glyph-name="o" unicode="o" horiz-adv-x="1019" 
d="M70 576c0 84.667 10.332 159.667 30.999 225s50 120.333 88 165s83.833 78.5 137.5 101.5s113.834 34.5 180.501 34.5c67.333 0 128 -11.5 182 -34.5s100 -56.833 138 -101.5s67.333 -99.667 88 -165s31 -140.333 31 -225v-71c0 -85.333 -10.167 -160.5 -30.5 -225.5
s-49.5 -119.833 -87.5 -164.5s-84 -78.334 -138 -101.001s-114.333 -34 -181 -34c-67.333 0 -128 11.333 -182 34s-100 56.334 -138 101.001s-67.333 99.5 -88 164.5s-31 140.167 -31 225.5v71zM353.999 505c0 -100.667 13.667 -174.167 41 -220.5s65.333 -69.5 114 -69.5
c51.333 0 90 23.167 116 69.5s39 119.833 39 220.5v71c0 98.667 -13.667 171.834 -41 219.501s-66 71.5 -116 71.5c-48 0 -85.5 -23.833 -112.5 -71.5s-40.5 -120.834 -40.5 -219.501v-71z" />
    <glyph glyph-name="p" unicode="p" horiz-adv-x="1014" 
d="M946 507c0 -170 -29.168 -300.333 -87.501 -391s-145.166 -136 -260.499 -136c-46 0 -86.5 9.33301 -121.5 28s-65.167 45 -90.5 79v-503h-283v1498h262l10 -99c26 38 57.167 67.333 93.5 88s78.833 31 127.5 31c116.667 0 204.167 -43 262.5 -129
s87.5 -217.667 87.5 -395v-71zM663.999 578c0 51.333 -2.66699 95.167 -8 131.5s-14 66 -26 89s-27.5 39.833 -46.5 50.5s-42.5 16 -70.5 16c-30 0 -55.5 -6.33301 -76.5 -19s-37.833 -30.667 -50.5 -54v-507c12 -22 28.5 -39.167 49.5 -51.5s47.5 -18.5 79.5 -18.5
c56 0 94.833 23.667 116.5 71s32.5 121 32.5 221v71z" />
    <glyph glyph-name="q" unicode="q" horiz-adv-x="1018" 
d="M65 576c0 177.333 29.666 309.334 88.999 396.001s147.333 130 264 130c50 0 93.5 -11.167 130.5 -33.5s68.833 -53.833 95.5 -94.5l18 108h247v-1498h-284v500c-25.333 -33.333 -55.166 -59 -89.499 -77s-73.833 -27 -118.5 -27
c-115.333 0 -202.833 45.167 -262.5 135.5s-89.5 220.166 -89.5 389.499v71zM348.999 505.001c0 -50 2.50098 -93.168 7.50098 -129.501s13.333 -66.5 25 -90.5s27 -41.667 46 -53s42.833 -17 71.5 -17c30.667 0 56.167 5.83301 76.5 17.5s36.833 28.167 49.5 49.5v515
c-26.667 46.667 -68.334 70 -125.001 70c-28 0 -51.667 -5.66699 -71 -17s-34.833 -28.666 -46.5 -51.999s-20.167 -53.5 -25.5 -90.5s-8 -80.833 -8 -131.5v-71z" />
    <glyph glyph-name="r" unicode="r" horiz-adv-x="679" 
d="M637 809l-46.502 4.99902c-18.333 2 -34.166 3 -47.499 3c-40.667 0 -73.667 -8.66699 -99 -26s-44.666 -42.666 -57.999 -75.999v-715h-284v1082h267l8 -117c21.333 43.333 47.5 77 78.5 101s66.5 36 106.5 36c12.667 0 26.5 -1.16699 41.5 -3.5s27.167 -5.5 36.5 -9.5z
" />
    <glyph glyph-name="s" unicode="s" 
d="M582 290c0 14 -3.49707 26.833 -10.4971 38.5s-18 23.334 -33 35.001s-34.5 23.5 -58.5 35.5s-52.667 25.333 -86 40c-49.333 20 -93 40.5 -131 61.5s-70 44.667 -96 71s-45.667 56 -59 89s-20 71.167 -20 114.5c0 45.333 8.5 87.833 25.5 127.5
s41.5 74.334 73.5 104.001s71.167 53 117.5 70s98.833 25.5 157.5 25.5c60.667 0 115.167 -8.16699 163.5 -24.5s89.5 -39.333 123.5 -69s60 -65.334 78 -107.001s27 -87.834 27 -138.501h-283c0 41.333 -8.33301 73.666 -25 96.999s-45 35 -85 35
c-30 0 -54.667 -9.33301 -74 -28s-29 -44.667 -29 -78c0 -14 3.16699 -26.5 9.5 -37.5s16.666 -21.833 30.999 -32.5s33.166 -21.667 56.499 -33s52 -24.333 86 -39c54 -20 100.833 -41 140.5 -63s72.5 -46.5 98.5 -73.5s45.333 -57.5 58 -91.5s19 -73.333 19 -118
c0 -48 -9.33301 -91.667 -28 -131s-45.167 -73 -79.5 -101s-75.833 -49.833 -124.5 -65.5s-103 -23.5 -163 -23.5c-66 0 -124.167 10.167 -174.5 30.5s-92.5 47.333 -126.5 81s-59.667 71.667 -77 114s-26 85.5 -26 129.5h269c0.666992 -29.333 4.66699 -53.5 12 -72.5
s17.166 -34.167 29.499 -45.5s27 -19.166 44 -23.499s35.5 -6.5 55.5 -6.5c76 0 114 34.333 114 103z" />
    <glyph glyph-name="t" unicode="t" horiz-adv-x="629" 
d="M432 1348v-266.001h145v-213h-145v-537c0 -22.667 1.5 -41.334 4.5 -56.001s8 -26.167 15 -34.5s15.833 -14 26.5 -17s23.667 -4.5 39 -4.5c14 0 26.833 0.666992 38.5 2s21.167 3 28.5 5l-2 -220c-21.333 -8 -44.333 -14.5 -69 -19.5s-53.667 -7.5 -87 -7.5
c-42 0 -80 5.83301 -114 17.5s-63.167 30.334 -87.5 56.001s-43 58.834 -56 99.501s-19.5 89.667 -19.5 147v569h-125v213h125v266h283z" />
    <glyph glyph-name="u" unicode="u" horiz-adv-x="1008" 
d="M635 99c-28 -38 -61.499 -67.333 -100.499 -88s-84.167 -31 -135.5 -31c-45.333 0 -86.5 7.5 -123.5 22.5s-68.833 38.667 -95.5 71s-47.334 74 -62.001 125s-22 112.167 -22 183.5v700h283v-702c0 -59.333 9.66699 -101.5 29 -126.5s44.666 -37.5 75.999 -37.5
c34.667 0 63.334 7.5 86.001 22.5s40.667 35.5 54 61.5v782h285v-1082h-266z" />
    <glyph glyph-name="v" unicode="v" horiz-adv-x="920" 
d="M458 400l137 682h295l-297 -1082h-270l-298 1082h296z" />
    <glyph glyph-name="w" unicode="w" horiz-adv-x="1296" 
d="M891 475l97 607h271l-224 -1082h-235l-153 626l-153 -626h-236l-224 1082h272l96 -608l144 608h201z" />
    <glyph glyph-name="x" unicode="x" horiz-adv-x="927" 
d="M465 761l126 321h300l-247 -529l256 -553h-301l-133 339l-132 -339h-302l256 553l-245 529h301z" />
    <glyph glyph-name="y" unicode="y" horiz-adv-x="914" 
d="M450 471l143.998 611.003h302l-356 -1244c-8 -27.333 -18.833 -57 -32.5 -89s-32.167 -61.833 -55.5 -89.5s-52.333 -50.667 -87 -69s-76.667 -27.5 -126 -27.5c-12.667 0 -23.834 0.5 -33.501 1.5s-18.667 2.16699 -27 3.5s-16.833 3.16602 -25.5 5.49902l-30 8.5v221
c5.33301 -0.666992 10.833 -1 16.5 -1h16.5c22.667 0 42.334 2.16699 59.001 6.5s30.834 11.166 42.501 20.499s21.334 21.166 29.001 35.499s14.167 31.5 19.5 51.5l22 73l-312 1093h304z" />
    <glyph glyph-name="z" unicode="z" horiz-adv-x="927" 
d="M416 235h428v-235h-764v177l418 669h-408v236h748v-171z" />
    <glyph glyph-name="braceleft" unicode="{" horiz-adv-x="610" 
d="M502 -360c-59.333 19.333 -108.669 44.668 -148.002 76.001s-71 67.166 -95 107.499s-41 84.333 -51 132s-15 97.834 -15 150.501v203c0 62 -10.667 111.667 -32 149s-56.333 56 -105 56v208c24 0 44.667 4.83301 62 14.5s31.5 23.5 42.5 41.5s19.167 39.833 24.5 65.5
s8 54.167 8 85.5v203c0 52.667 5 102.834 15 150.501s27 91.667 51 132s55.667 76 95 107s88.666 56.167 147.999 75.5l54 -162c-22 -10.667 -40.167 -25.834 -54.5 -45.501s-25.666 -42.667 -33.999 -69s-14 -55.5 -17 -87.5s-4.5 -65.667 -4.5 -101v-203
c0 -66.667 -12.667 -127 -38 -181s-65.666 -97 -120.999 -129c54.667 -32 94.834 -75.167 120.501 -129.5s38.5 -114.5 38.5 -180.5v-203c0 -35.333 1.5 -69 4.5 -101s8.5 -61.167 16.5 -87.5s19.167 -49.333 33.5 -69s32.5 -34.834 54.5 -45.501z" />
    <glyph glyph-name="bar" unicode="|" horiz-adv-x="519" 
d="M349 -270h-176v1726h176v-1726z" />
    <glyph glyph-name="braceright" unicode="}" horiz-adv-x="610" 
d="M54 -197c22.667 10.667 41.166 25.832 55.499 45.499s25.5 42.667 33.5 69s13.5 55.5 16.5 87.5s4.5 65.667 4.5 101v203c0 67.333 13 128 39 182s67.333 96.333 124 127c-57.333 31.333 -98.833 74 -124.5 128s-38.5 115 -38.5 183v203c0 35.333 -1.5 69 -4.5 101
s-8.66699 61.167 -17 87.5s-19.666 49.333 -33.999 69s-32.833 34.834 -55.5 45.501l54 162c59.333 -19.333 108.833 -44.5 148.5 -75.5s71.334 -66.667 95.001 -107s40.5 -84.333 50.5 -132s15 -97.834 15 -150.501v-203c0 -31.333 2.66699 -59.833 8 -85.5
s13.5 -47.5 24.5 -65.5s25.167 -31.833 42.5 -41.5s38.333 -14.5 63 -14.5v-208c-24.667 0 -45.667 -4.83301 -63 -14.5s-31.5 -23.5 -42.5 -41.5s-19.167 -39.667 -24.5 -65s-8 -53.333 -8 -84v-203c0 -52.667 -5 -102.834 -15 -150.501s-26.833 -91.667 -50.5 -132
s-55.334 -76.166 -95.001 -107.499s-89.167 -56.666 -148.5 -75.999z" />
    <glyph glyph-name="asciitilde" unicode="~" horiz-adv-x="1141" 
d="M1041 794c0 -63.333 -7.33301 -120.831 -22 -172.498s-35 -95.834 -61 -132.501s-56.667 -64.834 -92 -84.501s-73.666 -29.5 -114.999 -29.5c-22 0 -42.833 2.66699 -62.5 8s-38.834 13.333 -57.501 24s-37 24.334 -55 41.001s-37 36.334 -57 59.001
c-20 27.333 -39.5 48 -58.5 62s-38.167 21 -57.5 21c-14 0 -26.833 -4.5 -38.5 -13.5s-21.667 -21.5 -30 -37.5s-14.833 -34.833 -19.5 -56.5s-7 -45.167 -7 -70.5l-209 3c0 64 7.33301 121.667 22 173s34.834 94.666 60.501 129.999s56.167 62.5 91.5 81.5
s73.666 28.5 114.999 28.5c44 0 84.5 -10.833 121.5 -32.5s74.167 -54.5 111.5 -98.5c19.333 -28 38.5 -49 57.5 -63s38.167 -21 57.5 -21c14 0 27 4.66699 39 14s22.5 22.166 31.5 38.499s16 35.5 21 57.5s7.5 45.667 7.5 71h206z" />
    <glyph glyph-name="uni0400" unicode="&#x400;" horiz-adv-x="1005" 
d="M869 630h-458v-386h542v-244h-836v1456h834v-245h-540v-344h458v-237zM700 1539h-239l-276 310h317z" />
    <glyph glyph-name="uni0401" unicode="&#x401;" horiz-adv-x="1005" 
d="M869 630h-458v-386h542v-244h-836v1456h834v-245h-540v-344h458v-237zM171 1678c0 18 3.5 34.833 10.5 50.5s16.667 29.167 29 40.5s27 20.333 44 27s35.5 10 55.5 10s38.5 -3.33301 55.5 -10s31.667 -15.667 44 -27s22 -24.833 29 -40.5s10.5 -32.5 10.5 -50.5
s-3.5 -34.667 -10.5 -50s-16.667 -28.666 -29 -39.999s-27 -20.333 -44 -27s-35.5 -10 -55.5 -10s-38.5 3.33301 -55.5 10s-31.667 15.667 -44 27s-22 24.666 -29 39.999s-10.5 32 -10.5 50zM660 1678c0 18 3.5 34.667 10.5 50s16.667 28.666 29 39.999s27 20.333 44 27
s35.5 10 55.5 10s38.5 -3.33301 55.5 -10s31.667 -15.667 44 -27s22 -24.666 29 -39.999s10.5 -32 10.5 -50s-3.5 -34.667 -10.5 -50s-16.667 -28.833 -29 -40.5s-27 -20.667 -44 -27s-35.5 -9.5 -55.5 -9.5s-38.5 3.16699 -55.5 9.5s-31.667 15.333 -44 27
s-22 25.167 -29 40.5s-10.5 32 -10.5 50z" />
    <glyph glyph-name="uni0402" unicode="&#x402;" horiz-adv-x="1329" 
d="M996 1211l-373.999 -0.000976562v-341c30 7.33301 60.333 13.333 91 18s61 7 91 7c69.333 0 132.5 -9.16699 189.5 -27.5s105.833 -46.166 146.5 -83.499s72.167 -84.333 94.5 -141s33.5 -123.334 33.5 -200.001c0 -37.333 -3.5 -74.5 -10.5 -111.5
s-18.167 -72.667 -33.5 -107s-35.5 -66.166 -60.5 -95.499s-55.333 -55 -91 -77s-77.334 -39.167 -125.001 -51.5s-102.167 -18.5 -163.5 -18.5v229c46.667 0 82.667 7.16699 108 21.5s44 32.166 56 53.499s19.333 44.5 22 69.5s4 48.167 4 69.5
c0 34 -3.83301 64.667 -11.5 92s-19.167 50.833 -34.5 70.5s-34.666 34.834 -57.999 45.501s-50.333 16 -81 16c-32.667 0 -62.334 -1.5 -89.001 -4.5s-52.667 -7.16699 -78 -12.5v-632h-295v1211h-290v245h959v-245z" />
    <glyph glyph-name="uni0403" unicode="&#x403;" horiz-adv-x="1001" 
d="M937 1211h-523v-1211h-294v1456h817v-245zM594 1849h318l-278 -310h-236z" />
    <glyph glyph-name="uni0404" unicode="&#x404;" horiz-adv-x="1178" 
d="M1105 485c-4 -74 -17.9961 -142 -41.9961 -204s-57.167 -115.333 -99.5 -160s-93.833 -79.334 -154.5 -104.001s-129.667 -37 -207 -37c-81.333 0 -154 16.167 -218 48.5s-118.333 78.833 -163 139.5s-78.834 134 -102.501 220s-35.5 183 -35.5 291v93
c0 108 12.333 205.333 37 292s59.667 160.5 105 221.5s100.166 108 164.499 141s136.166 49.5 215.499 49.5s148.833 -12.833 208.5 -38.5s110.334 -61.5 152.001 -107.5s74.167 -100.5 97.5 -163.5s38 -131.833 44 -206.5h-295c-2 43.333 -6.83301 81.833 -14.5 115.5
s-19.334 62 -35.001 85s-36.334 40.5 -62.001 52.5s-57.5 18 -95.5 18c-72 0 -126.333 -31 -163 -93s-58 -157.667 -64 -287h342v-244h-342c2 -63.333 7.66699 -119 17 -167s22.833 -88.167 40.5 -120.5s40.167 -56.666 67.5 -72.999s60.333 -24.5 99 -24.5
c71.333 0 122.833 22.167 154.5 66.5s49.5 109.833 53.5 196.5h295z" />
    <glyph glyph-name="uni0405" unicode="&#x405;" horiz-adv-x="1106" 
d="M732 382c0 25.333 -2.33398 47.999 -7.00098 67.999s-14.5 38.833 -29.5 56.5s-36.333 34.834 -64 51.501s-64.5 34.334 -110.5 53.001c-54.667 20.667 -106.834 44.334 -156.501 71.001s-93.334 58.167 -131.001 94.5s-67.667 78.333 -90 126s-33.5 103.167 -33.5 166.5
c0 60.667 11.333 116.167 34 166.5s54.5 93.166 95.5 128.499s89.667 62.833 146 82.5s118.5 29.5 186.5 29.5c70 0 133.167 -11.167 189.5 -33.5s104.333 -53.333 144 -93s70.167 -87 91.5 -142s32 -115.5 32 -181.5h-293c0 30.667 -3.16699 58.834 -9.5 84.501
s-16.333 47.667 -30 66s-31.167 32.666 -52.5 42.999s-47 15.5 -77 15.5c-28 0 -52.167 -4.33301 -72.5 -13s-37.166 -20.5 -50.499 -35.5s-23.333 -32.833 -30 -53.5s-10 -42.667 -10 -66c0 -24 5.16699 -45.667 15.5 -65s25 -37.333 44 -54s42 -32.334 69 -47.001
s56.833 -29 89.5 -43c68 -24.667 127.333 -52 178 -82s93 -64 127 -102s59.333 -80.833 76 -128.5s25 -101.5 25 -161.5c0 -64 -10.5 -121 -31.5 -171s-51 -92.167 -90 -126.5s-86.167 -60.666 -141.5 -78.999s-117.666 -27.5 -186.999 -27.5
c-62.667 0 -124.167 9.5 -184.5 28.5s-114.166 48.167 -161.499 87.5s-85.5 89 -114.5 149s-43.5 131.333 -43.5 214h295c0 -44 4.33301 -81.333 13 -112s21.834 -55.5 39.501 -74.5s39.5 -32.667 65.5 -41s56.333 -12.5 91 -12.5c28 0 51.833 4.16699 71.5 12.5
s35.667 19.666 48 33.999s21.166 31.5 26.499 51.5s8 41.667 8 65z" />
    <glyph glyph-name="uni0406" unicode="&#x406;" horiz-adv-x="554" 
d="M424 0h-294v1456h294v-1456z" />
    <glyph glyph-name="uni0407" unicode="&#x407;" horiz-adv-x="554" 
d="M424 0h-294v1456h294v-1456zM-109 1678c0 18 3.5 34.833 10.5 50.5s16.667 29.167 29 40.5s27 20.333 44 27s35.5 10 55.5 10s38.5 -3.33301 55.5 -10s31.667 -15.667 44 -27s22 -24.833 29 -40.5s10.5 -32.5 10.5 -50.5s-3.5 -34.667 -10.5 -50
s-16.667 -28.666 -29 -39.999s-27 -20.333 -44 -27s-35.5 -10 -55.5 -10s-38.5 3.33301 -55.5 10s-31.667 15.667 -44 27s-22 24.666 -29 39.999s-10.5 32 -10.5 50zM380 1678c0 18 3.5 34.667 10.5 50s16.667 28.666 29 39.999s27 20.333 44 27s35.5 10 55.5 10
s38.5 -3.33301 55.5 -10s31.667 -15.667 44 -27s22 -24.666 29 -39.999s10.5 -32 10.5 -50s-3.5 -34.667 -10.5 -50s-16.667 -28.833 -29 -40.5s-27 -20.667 -44 -27s-35.5 -9.5 -55.5 -9.5s-38.5 3.16699 -55.5 9.5s-31.667 15.333 -44 27s-22 25.167 -29 40.5
s-10.5 32 -10.5 50z" />
    <glyph glyph-name="uni0408" unicode="&#x408;" horiz-adv-x="1004" 
d="M596 1456h293.999v-1008c0 -72.667 -10.667 -138 -32 -196s-51 -107.167 -89 -147.5s-82.667 -71.166 -134 -92.499s-107 -32 -167 -32c-60.667 0 -116.834 9 -168.501 27s-96.167 45.5 -133.5 82.5s-66.666 83.667 -87.999 140s-32 123.166 -32 200.499h295
c0 -38.667 3.16699 -71.167 9.5 -97.5s15 -47.5 26 -63.5s24.333 -27.5 40 -34.5s32.834 -10.5 51.501 -10.5c40.667 0 72.167 19.333 94.5 58s33.5 94 33.5 166v1008z" />
    <glyph glyph-name="uni0409" unicode="&#x409;" horiz-adv-x="1852" 
d="M1138 1456l-0.000976562 -493.001h178c72.667 0 138.5 -12 197.5 -36s109.167 -57.333 150.5 -100s73.166 -93.5 95.499 -152.5s33.5 -123.167 33.5 -192.5c0 -70 -11.167 -134.333 -33.5 -193s-54.166 -109.5 -95.499 -152.5s-91.5 -76.5 -150.5 -100.5
s-124.833 -36 -197.5 -36h-473v1211h-273l5 -410c1.33301 -148 -8.66699 -272.833 -30 -374.5s-53 -184.167 -95 -247.5s-93.5 -109 -154.5 -137s-130.167 -42 -207.5 -42h-37v244h35c40.667 0 74 9.33301 100 28s46.167 49.834 60.5 93.501s23.833 101 28.5 172
s6.33398 158.833 5.00098 263.5l-7 655h865zM1138 718.999v-475h178c30 0 56.333 6.66699 79 20s41.834 31 57.501 53s27.334 47.5 35.001 76.5s11.5 59.167 11.5 90.5c0 30.667 -3.83301 60.167 -11.5 88.5s-19.334 53.333 -35.001 75s-34.834 39 -57.501 52
s-49 19.5 -79 19.5h-178z" />
    <glyph glyph-name="uni040A" unicode="&#x40a;" horiz-adv-x="1854" 
d="M414 843l430 0.000976562v613h295v-501h178c72.667 0 138.5 -11.833 197.5 -35.5s109.167 -56.834 150.5 -99.501s73.166 -93.167 95.499 -151.5s33.5 -121.833 33.5 -190.5c0 -69.333 -11.167 -133.166 -33.5 -191.499s-54.166 -108.833 -95.499 -151.5
s-91.5 -75.834 -150.5 -99.501s-124.833 -35.5 -197.5 -35.5h-473v599h-430v-599h-294v1456h294v-613zM1139 711.001v-465.998h178c30 0 56.5 6.5 79.5 19.5s42.167 30.167 57.5 51.5s27 46.166 35 74.499s12 58.166 12 89.499c0 30 -4 59 -12 87s-19.667 52.667 -35 74
s-34.5 38.333 -57.5 51s-49.5 19 -79.5 19h-178z" />
    <glyph glyph-name="uni040B" unicode="&#x40b;" horiz-adv-x="1357" 
d="M977 1211l-369 0.00195312v-292c27.333 4 54.166 7.16699 80.499 9.5s48.5 3.5 66.5 3.5c74.667 0 142.334 -9.33301 203.001 -28s112.5 -47.834 155.5 -87.501s76.333 -90 100 -151s35.5 -133.5 35.5 -217.5v-448h-295v448c0 46.667 -4 85.5 -12 116.5
s-20.333 55.667 -37 74s-37.334 31.166 -62.001 38.499s-54 11 -88 11c-17.333 0 -39.166 -1.16699 -65.499 -3.5s-53.5 -5.5 -81.5 -9.5v-675h-296v1211h-267v245h932v-245z" />
    <glyph glyph-name="uni040C" unicode="&#x40c;" horiz-adv-x="1133" 
d="M527 562l-116 -146v-416h-294v1456h294v-635l93 157l271 478h360l-417 -640l424 -816h-349zM577 1846h318l-278 -310h-236z" />
    <glyph glyph-name="uni040D" unicode="&#x40d;" horiz-adv-x="1241" 
d="M830 1456h294v-1456h-294v964l-429 -964h-295v1456h295v-965zM760 1539h-239l-276 310h317z" />
    <glyph glyph-name="uni040E" unicode="&#x40e;" horiz-adv-x="1128" 
d="M577 809l196 646.997h316l-399 -1170c-16 -40.667 -33.5 -79.5 -52.5 -116.5s-41.833 -69.667 -68.5 -98s-58.167 -50.833 -94.5 -67.5s-79.5 -25 -129.5 -25h-22.5c-8.33301 0 -16.833 0.166992 -25.5 0.5s-16.834 0.833008 -24.501 1.5s-14.167 1.33398 -19.5 2.00098
l-5 244c3.33301 -1.33301 8 -2.16602 14 -2.49902s12.333 -0.666016 19 -0.999023s12.834 -0.5 18.501 -0.5h13.5c23.333 0 42.5 3 57.5 9s27.167 14.833 36.5 26.5s17 26 23 43s11.667 36.5 17 58.5l14 53l-416 1043h315zM934 1840c0 -44 -8.16699 -84.167 -24.5 -120.5
s-39.5 -67.5 -69.5 -93.5s-66.333 -46.333 -109 -61s-90.667 -22 -144 -22s-101.5 7.33301 -144.5 22s-79.5 35 -109.5 61s-53.167 57.167 -69.5 93.5s-24.5 76.5 -24.5 120.5h207c0 -17.333 2.5 -33.833 7.5 -49.5s13.167 -29.5 24.5 -41.5s25.833 -21.667 43.5 -29
s39.5 -11 65.5 -11c25.333 0 46.833 3.66699 64.5 11s32 17 43 29s19 25.833 24 41.5s7.5 32.167 7.5 49.5h208z" />
    <glyph glyph-name="uni040F" unicode="&#x40f;" horiz-adv-x="1246" 
d="M104 1456h294v-1212h431v1212h296v-1456h-350v-360h-296v360h-375v1456z" />
    <glyph glyph-name="uni0410" unicode="&#x410;" horiz-adv-x="1223" 
d="M812 298h-401l-78 -298h-311l455 1456h269l458 -1456h-314zM475 543h272l-136 519z" />
    <glyph glyph-name="uni0411" unicode="&#x411;" horiz-adv-x="1118" 
d="M933 1211l-522 0.000976562v-278h178c73.333 0 139.5 -11 198.5 -33s109.333 -53.167 151 -93.5s73.667 -88.833 96 -145.5s33.5 -119.667 33.5 -189c0 -70 -11.167 -133.833 -33.5 -191.5s-54.333 -107.334 -96 -149.001s-92 -74 -151 -97s-125.167 -34.5 -198.5 -34.5
h-473v1456h817v-245zM411 689.001v-445h178c30 0 56.667 6 80 18s42.666 28.5 57.999 49.5s27 45.5 35 73.5s12 57.667 12 89c0 30.667 -4 59 -12 85s-19.667 48.667 -35 68s-34.666 34.5 -57.999 45.5s-50 16.5 -80 16.5h-178z" />
    <glyph glyph-name="uni0412" unicode="&#x412;" horiz-adv-x="1149" 
d="M117 0l-0.000976562 1456h450c72.667 0 137.834 -8 195.501 -24s106.5 -40.5 146.5 -73.5s70.5 -74.5 91.5 -124.5s31.5 -109 31.5 -177c0 -33.333 -3.5 -65.333 -10.5 -96s-18 -59.334 -33 -86.001s-34 -50.834 -57 -72.501s-50.5 -39.5 -82.5 -53.5
c37.333 -10.667 69 -26.834 95 -48.501s47 -46.834 63 -75.501s27.667 -59.834 35 -93.501s11 -68.167 11 -103.5c0 -141.333 -38.833 -248 -116.5 -320s-190.167 -108 -337.5 -108h-482zM410.999 633.005v-389h188c28.667 0 53.167 4.66699 73.5 14s37 22.5 50 39.5
s22.5 36.833 28.5 59.5s9 47.667 9 75c0 62 -11.5 111 -34.5 147s-61.833 54 -116.5 54h-198zM410.999 847.005h153c58.667 0 102.167 15.167 130.5 45.5s42.5 74.833 42.5 133.5c0 66 -13.333 113.333 -40 142s-70 43 -130 43h-156v-364z" />
    <glyph glyph-name="uni0413" unicode="&#x413;" horiz-adv-x="1001" 
d="M937 1211h-523v-1211h-294v1456h817v-245z" />
    <glyph glyph-name="uni0414" unicode="&#x414;" horiz-adv-x="1343" 
d="M1283 -358h-270.001v358h-689v-357h-278l-16 601h97c16.667 15.333 33.834 36.5 51.501 63.5s34 64 49 111s27.5 106.167 37.5 177.5s16 159 18 263l38 597h837v-1212h151zM577.999 859c-2 -76 -6.66797 -145.001 -14.001 -207.001s-16.666 -118 -27.999 -168
s-24.333 -94.667 -39 -134s-30.667 -74.666 -48 -105.999h416v967h-265z" />
    <glyph glyph-name="uni0415" unicode="&#x415;" horiz-adv-x="1005" 
d="M869 630h-458v-386h542v-244h-836v1456h834v-245h-540v-344h458v-237z" />
    <glyph glyph-name="uni0416" unicode="&#x416;" horiz-adv-x="1809" 
d="M1205 591h-139v-591h-294v591h-144l-229 -591h-366l367 798l-351 658h366l237 -585h120v585h294v-585h116l229 585h365l-343 -655l359 -801h-366z" />
    <glyph glyph-name="uni0417" unicode="&#x417;" horiz-adv-x="1109" 
d="M551 861c52.667 0 90.6709 17.5039 114.004 52.5039s35 82.167 35 141.5c0 23.333 -3.33301 45.666 -10 66.999s-16.667 40 -30 56s-30.5 28.833 -51.5 38.5s-45.5 14.5 -73.5 14.5c-21.333 0 -41.333 -3.83301 -60 -11.5s-34.834 -18.834 -48.501 -33.501
s-24.334 -32.5 -32.001 -53.5s-11.5 -44.833 -11.5 -71.5h-294c0 64.667 12 122.5 36 173.5s56.333 94.333 97 130s88 63 142 82s111 28.5 171 28.5c70 0 133.333 -8.83301 190 -26.5s105 -43.834 145 -78.501s70.833 -77.834 92.5 -129.501s32.5 -111.5 32.5 -179.5
c0 -66.667 -16.833 -127.5 -50.5 -182.5s-79.834 -98.5 -138.501 -130.5c66.667 -28 118 -70.5 154 -127.5s54 -127.833 54 -212.5c0 -68 -11.833 -128.5 -35.5 -181.5s-56.834 -97.667 -99.501 -134s-93.167 -64 -151.5 -83s-122.5 -28.5 -192.5 -28.5
c-56.667 0 -112.667 8 -168 24s-105 41.167 -149 75.5s-79.5 78.166 -106.5 131.499s-40.5 117.333 -40.5 192h295c0 -25.333 4.16699 -49 12.5 -71s19.833 -41.167 34.5 -57.5s32.334 -29.166 53.001 -38.499s43.667 -14 69 -14c28.667 0 54.5 4.83301 77.5 14.5
s42.333 23 58 40s27.667 37.167 36 60.5s12.5 48.333 12.5 75c0 75.333 -14.333 129.333 -43 162s-70.334 49 -125.001 49h-149v237h149z" />
    <glyph glyph-name="uni0418" unicode="&#x418;" horiz-adv-x="1241" 
d="M830 1456h294v-1456h-294v964l-429 -964h-295v1456h295v-965z" />
    <glyph glyph-name="uni0419" unicode="&#x419;" horiz-adv-x="1241" 
d="M830 1456h294v-1456h-294v964l-429 -964h-295v1456h295v-965zM964 1840c0 -44 -8.16699 -84.167 -24.5 -120.5s-39.5 -67.5 -69.5 -93.5s-66.333 -46.333 -109 -61s-90.667 -22 -144 -22s-101.5 7.33301 -144.5 22s-79.5 35 -109.5 61s-53.167 57.167 -69.5 93.5
s-24.5 76.5 -24.5 120.5h207c0 -17.333 2.5 -33.833 7.5 -49.5s13.167 -29.5 24.5 -41.5s25.833 -21.667 43.5 -29s39.5 -11 65.5 -11c25.333 0 46.833 3.66699 64.5 11s32 17 43 29s19 25.833 24 41.5s7.5 32.167 7.5 49.5h208z" />
    <glyph glyph-name="uni041A" unicode="&#x41a;" horiz-adv-x="1155" 
d="M541 594h-128v-594h-294v1456h294v-582h99l253 582h358l-356 -678l396 -778h-350z" />
    <glyph glyph-name="uni041B" unicode="&#x41b;" horiz-adv-x="1258" 
d="M1138 1456l0.000976562 -1456h-295v1211h-267l-14 -410c-5.33301 -148 -17.666 -272.833 -36.999 -374.5s-46.833 -184.167 -82.5 -247.5s-79.834 -109 -132.501 -137s-114.334 -42 -185.001 -42h-70v244h34c38.667 4.66699 69 16.667 91 36s39 50.166 51 92.499
s20.333 98.166 25 167.499s8.66699 156.333 12 261l21 655h849z" />
    <glyph glyph-name="uni041C" unicode="&#x41c;" horiz-adv-x="1553" 
d="M501 1456l275 -1053l274 1053h384v-1456h-295v394l27 607l-291 -1001h-200l-291 1001l27 -607v-394h-294v1456h384z" />
    <glyph glyph-name="uni041D" unicode="&#x41d;" horiz-adv-x="1257" 
d="M1138 0h-293v623h-434v-623h-294v1456h294v-589h434v589h293v-1456z" />
    <glyph glyph-name="uni041E" unicode="&#x41e;" horiz-adv-x="1236" 
d="M1142 597c0 -102 -12.665 -191.667 -37.998 -269s-60.833 -141.666 -106.5 -192.999s-100.667 -90 -165 -116s-135.5 -39 -213.5 -39s-149.333 13 -214 39s-120.167 64.667 -166.5 116s-82.333 115.666 -108 192.999s-38.5 167 -38.5 269v242
c0 104.667 12.667 196.834 38 276.501s61 146.167 107 199.5s101.333 93.5 166 120.5s136 40.5 214 40.5s149.167 -13.5 213.5 -40.5s119.666 -67.167 165.999 -120.5s82.166 -119.833 107.499 -199.5s38 -171.834 38 -276.501v-242zM847.002 841
c0 69.333 -4.99805 128.5 -14.998 177.5s-24.667 89.167 -44 120.5s-43.333 54.333 -72 69s-61.667 22 -99 22c-38 0 -71.333 -7.33301 -100 -22s-52.667 -37.667 -72 -69s-34 -71.5 -44 -120.5s-15 -108.167 -15 -177.5v-244c0 -66 5 -122.5 15 -169.5
s24.833 -85.5 44.5 -115.5s44 -52 73 -66s62.5 -21 100.5 -21c37.333 0 70.166 7 98.499 21s52.166 36 71.499 66s33.833 68.5 43.5 115.5s14.5 103.5 14.5 169.5v244z" />
    <glyph glyph-name="uni041F" unicode="&#x41f;" horiz-adv-x="1259" 
d="M1139 0h-294v1211h-432v-1211h-294v1456h1020v-1456z" />
    <glyph glyph-name="uni0420" unicode="&#x420;" horiz-adv-x="1165" 
d="M411 512l0.000976562 -512h-294v1456h496c74 0 140.167 -12 198.5 -36s107.833 -57.5 148.5 -100.5s71.834 -94 93.501 -153s32.5 -123.167 32.5 -192.5c0 -70.667 -10.833 -134.5 -32.5 -191.5s-52.834 -105.5 -93.501 -145.5s-90.334 -70.833 -149.001 -92.5
s-124.667 -32.5 -198 -32.5h-202zM411.001 757l202 0.000976562c30.667 0 57.167 5.33301 79.5 16s40.666 25.5 54.999 44.5s24.833 41.667 31.5 68s10 55.166 10 86.499s-3.33301 61.333 -10 90s-17.167 54 -31.5 76s-32.666 39.667 -54.999 53s-48.833 20 -79.5 20h-202
v-454z" />
    <glyph glyph-name="uni0421" unicode="&#x421;" horiz-adv-x="1168" 
d="M1104 485c-7.33301 -166 -54.0039 -291.67 -140.004 -377.003s-207.333 -128 -364 -128c-80.667 0 -152.667 13.333 -216 40s-116.666 66.334 -159.999 119.001s-76.5 117.834 -99.5 195.501s-34.5 167.167 -34.5 268.5v248c0 101.333 11.833 191 35.5 269
s57.834 143.333 102.501 196s98.667 92.5 162 119.5s134.666 40.5 213.999 40.5c158.667 0 279.167 -44.333 361.5 -133s129.166 -216 140.499 -382h-295c-1.33301 52 -5.83301 95.5 -13.5 130.5s-19.5 62.833 -35.5 83.5s-36.833 35.334 -62.5 44.001s-57.5 13 -95.5 13
c-39.333 0 -72.833 -6.66699 -100.5 -20s-50.167 -34.833 -67.5 -64.5s-30.166 -68.667 -38.499 -117s-12.5 -107.5 -12.5 -177.5v-250c0 -68 3.33301 -126 10 -174s18.334 -87.167 35.001 -117.5s38.667 -52.5 66 -66.5s62 -21 104 -21c36 0 66.833 3.83301 92.5 11.5
s46.834 21.167 63.501 40.5s29.334 46 38.001 80s14 77 16 129h294z" />
    <glyph glyph-name="uni0422" unicode="&#x422;" horiz-adv-x="1112" 
d="M1060 1211h-360v-1211h-295v1211h-354v245h1009v-245z" />
    <glyph glyph-name="uni0423" unicode="&#x423;" horiz-adv-x="1128" 
d="M577 809l196 646.997h316l-399 -1170c-16 -40.667 -33.5 -79.5 -52.5 -116.5s-41.833 -69.667 -68.5 -98s-58.167 -50.833 -94.5 -67.5s-79.5 -25 -129.5 -25h-22.5c-8.33301 0 -16.833 0.166992 -25.5 0.5s-16.834 0.833008 -24.501 1.5s-14.167 1.33398 -19.5 2.00098
l-5 244c3.33301 -1.33301 8 -2.16602 14 -2.49902s12.333 -0.666016 19 -0.999023s12.834 -0.5 18.501 -0.5h13.5c23.333 0 42.5 3 57.5 9s27.167 14.833 36.5 26.5s17 26 23 43s11.667 36.5 17 58.5l14 53l-416 1043h315z" />
    <glyph glyph-name="uni0424" unicode="&#x424;" horiz-adv-x="1481" 
d="M887 1327c74.667 0 143.667 -14.499 207 -43.499s118 -69.833 164 -122.5s82 -116.334 108 -191.001s39 -158 39 -250c0 -89.333 -13 -170.5 -39 -243.5s-62 -135.333 -108 -187s-100.667 -91.667 -164 -120s-132.333 -42.5 -207 -42.5v-187h-283v187h-2
c-75.333 0 -144.833 14 -208.5 42s-118.5 67.667 -164.5 119s-82 113.333 -108 186s-39 154 -39 244c0 92 13 175.5 39 250.5s62 139 108 192s100.833 94 164.5 123s133.167 43.5 208.5 43.5h2v189h283v-189zM602 1075c-36.667 0 -69.834 -7.49902 -99.501 -22.499
s-55 -37.5 -76 -67.5s-37.333 -67.333 -49 -112s-17.5 -96.334 -17.5 -155.001c0 -56 5.83301 -105.167 17.5 -147.5s28 -77.833 49 -106.5s46.333 -50.167 76 -64.5s62.834 -21.5 99.501 -21.5h2v697h-2zM1127 720.002c0 58.667 -5.66699 110.167 -17 154.5
s-27.5 81.333 -48.5 111s-46.167 52 -75.5 67s-62.333 22.5 -99 22.5v-697c36.667 0 69.667 7.33301 99 22s54.5 36.5 75.5 65.5s37.167 64.833 48.5 107.5s17 91.667 17 147z" />
    <glyph glyph-name="uni0425" unicode="&#x425;" horiz-adv-x="1146" 
d="M573 956l196 500h337l-342 -722l350 -734h-341l-200 509l-199 -509h-341l350 734l-343 722h337z" />
    <glyph glyph-name="uni0426" unicode="&#x426;" horiz-adv-x="1367" 
d="M106 1456h294v-1212h431v1212h295v-1213h179l-20 -594h-274v351h-905v1456z" />
    <glyph glyph-name="uni0427" unicode="&#x427;" horiz-adv-x="1252" 
d="M1133 1456l0.00195312 -1456h-294v549c-18 -4 -37 -7.66699 -57 -11s-39.833 -6 -59.5 -8s-38.5 -3.66699 -56.5 -5s-33.667 -2 -47 -2c-74.667 0 -142.334 9.33301 -203.001 28s-112.5 47.834 -155.5 87.501s-76.167 90 -99.5 151s-35 133.5 -35 217.5v449h295v-449
c0 -46.667 4 -85.5 12 -116.5s20.167 -55.667 36.5 -74s37 -31.166 62 -38.499s54.167 -11 87.5 -11c12.667 0 28 0.5 46 1.5s37 2.66699 57 5s40.167 5.16602 60.5 8.49902s39.166 7 56.499 11v663h294z" />
    <glyph glyph-name="uni0428" unicode="&#x428;" horiz-adv-x="1705" 
d="M412 1456v-1212h296v1212h294v-1212h292v1212h294v-1456h-1471v1456h295z" />
    <glyph glyph-name="uni0429" unicode="&#x429;" horiz-adv-x="1834" 
d="M412 1456v-1212h296v1212h294v-1212h292v1212h294v-1222h173l-20 -584h-262v350h-1362v1456h295z" />
    <glyph glyph-name="uni042A" unicode="&#x42a;" horiz-adv-x="1360" 
d="M52 1456l601 0.000976562v-523h178c73.333 0 139.5 -11 198.5 -33s109.333 -53.167 151 -93.5s73.667 -88.833 96 -145.5s33.5 -119.667 33.5 -189c0 -70 -11.167 -133.833 -33.5 -191.5s-54.333 -107.334 -96 -149.001s-92 -74 -151 -97s-125.167 -34.5 -198.5 -34.5
h-473v1221h-306v235zM653 689.001v-445h178c30 0 56.667 6 80 18s42.666 28.5 57.999 49.5s27 45.5 35 73.5s12 57.667 12 89c0 30.667 -4 59 -12 85s-19.667 48.667 -35 68s-34.666 34.5 -57.999 45.5s-50 16.5 -80 16.5h-178z" />
    <glyph glyph-name="uni042B" unicode="&#x42b;" horiz-adv-x="1561" 
d="M415 933l178 0.000976562c73.333 0 139.5 -11 198.5 -33s109.333 -53.167 151 -93.5s73.667 -88.833 96 -145.5s33.5 -119.667 33.5 -189c0 -70 -11.167 -133.833 -33.5 -191.5s-54.333 -107.334 -96 -149.001s-92 -74 -151 -97s-125.167 -34.5 -198.5 -34.5h-473v1456
h295v-523zM1442 0.000976562h-294v1456h294v-1456zM415 689.001v-445h178c30 0 56.667 6 80 18s42.666 28.5 57.999 49.5s27 45.5 35 73.5s12 57.667 12 89c0 30.667 -4 59 -12 85s-19.667 48.667 -35 68s-34.666 34.5 -57.999 45.5s-50 16.5 -80 16.5h-178z" />
    <glyph glyph-name="uni042C" unicode="&#x42c;" horiz-adv-x="1125" 
d="M411 933l178 0.000976562c73.333 0 139.5 -11 198.5 -33s109.333 -53.167 151 -93.5s73.667 -88.833 96 -145.5s33.5 -119.667 33.5 -189c0 -70 -11.167 -133.833 -33.5 -191.5s-54.333 -107.334 -96 -149.001s-92 -74 -151 -97s-125.167 -34.5 -198.5 -34.5h-473v1456
h295v-523zM411 689.001v-445h178c30 0 56.667 6 80 18s42.666 28.5 57.999 49.5s27 45.5 35 73.5s12 57.667 12 89c0 30.667 -4 59 -12 85s-19.667 48.667 -35 68s-34.666 34.5 -57.999 45.5s-50 16.5 -80 16.5h-178z" />
    <glyph glyph-name="uni042D" unicode="&#x42d;" horiz-adv-x="1158" 
d="M353 485c4.66699 -86.667 22.834 -152.169 54.501 -196.502s83.5 -66.5 155.5 -66.5c76.667 0 131.834 32.167 165.501 96.5s52.834 159.833 57.501 286.5h-355v245h354c-5.33301 128.667 -26.666 224.334 -63.999 287.001s-91.333 94 -162 94
c-38 0 -69.833 -6 -95.5 -18s-46.334 -29.5 -62.001 -52.5s-27.334 -51.333 -35.001 -85s-12.5 -72.167 -14.5 -115.5h-295c6 74.667 20.667 143.5 44 206.5s55.833 117.5 97.5 163.5s92.334 81.833 152.001 107.5s129.167 38.5 208.5 38.5s151.166 -16.5 215.499 -49.5
s119.166 -80 164.499 -141s80.333 -134.833 105 -221.5s37 -184 37 -292v-93c0 -108 -11.833 -205 -35.5 -291s-57.834 -159.333 -102.501 -220s-99 -107.167 -163 -139.5s-136.333 -48.5 -217 -48.5c-78 0 -147.333 12.333 -208 37s-112.167 59.334 -154.5 104.001
s-75.5 98 -99.5 160s-38 130 -42 204h294z" />
    <glyph glyph-name="uni042E" unicode="&#x42e;" horiz-adv-x="1672" 
d="M1584 597c0 -102 -12.665 -191.668 -37.998 -269.001s-60.833 -141.666 -106.5 -192.999s-100.667 -90 -165 -116s-135.5 -39 -213.5 -39c-77.333 0 -147.833 12.5 -211.5 37.5s-118.667 62.5 -165 112.5s-82.5 112.333 -108.5 187s-40 161.667 -42 261h-117v-578h-294
v1456h294v-642h117v25c0 104.667 12.667 196.834 38 276.501s61 146.167 107 199.5s101.333 93.5 166 120.5s136 40.5 214 40.5s149.167 -13.5 213.5 -40.5s119.666 -67.167 165.999 -120.5s82.166 -119.833 107.499 -199.5s38 -171.834 38 -276.501v-242zM1289 840.999
c0 69.333 -4.99805 128.5 -14.998 177.5s-24.667 89.167 -44 120.5s-43.333 54.333 -72 69s-61.667 22 -99 22c-38 0 -71.333 -7.33301 -100 -22s-52.667 -37.667 -72 -69s-34 -71.5 -44 -120.5s-15 -108.167 -15 -177.5v-244c0 -66 5 -122.5 15 -169.5
s24.833 -85.5 44.5 -115.5s44 -52 73 -66s62.5 -21 100.5 -21c37.333 0 70.166 7 98.499 21s52.166 36 71.499 66s33.833 68.5 43.5 115.5s14.5 103.5 14.5 169.5v244z" />
    <glyph glyph-name="uni042F" unicode="&#x42f;" horiz-adv-x="1068" 
d="M660 0l-0.000976562 524h-154l-215 -524h-317l258 630c-59.333 41.333 -104.166 92.833 -134.499 154.5s-45.5 135.5 -45.5 221.5c0 74 10.667 139 32 195s52 102.833 92 140.5s88.5 66.167 145.5 85.5s121.167 29 192.5 29h441v-1456h-295zM346.999 983
c0 -80.667 14.332 -139.166 42.999 -175.499s73.334 -54.5 134.001 -54.5h136v458h-146c-58.667 0 -101.167 -19.833 -127.5 -59.5s-39.5 -95.834 -39.5 -168.501z" />
    <glyph glyph-name="uni0430" unicode="&#x430;" horiz-adv-x="964" 
d="M617 0c-5.33301 11.333 -9.83691 24.168 -13.5039 38.501s-7.16699 29.5 -10.5 45.5c-21.333 -29.333 -48.833 -54 -82.5 -74s-74.834 -30 -123.501 -30c-44 0 -85.167 7.66699 -123.5 23s-71.666 37 -99.999 65s-50.666 61.833 -66.999 101.5s-24.5 84.167 -24.5 133.5
c0 54.667 8.83301 104.167 26.5 148.5s44.334 82 80.001 113s80.334 54.833 134.001 71.5s116.834 25 189.501 25h77v87c0 48.667 -8.33301 83 -25 103s-41 30 -73 30c-36.667 0 -63.5 -10.833 -80.5 -32.5s-25.5 -52.167 -25.5 -91.5h-283
c0 47.333 9.16699 91.833 27.5 133.5s44.833 78.167 79.5 109.5s76.334 56.166 125.001 74.499s103.667 27.5 165 27.5c54 0 103.667 -6.83301 149 -20.5s84.666 -35 117.999 -64s59.333 -66 78 -111s28 -99.167 28 -162.5v-480c0 -31.333 0.833008 -59.166 2.5 -83.499
s4.16699 -46.333 7.5 -66s7.5 -37.334 12.5 -53.001s10.833 -30.5 17.5 -44.5v-17h-285zM449.996 202.002c31.333 0 58 6.33203 80 18.999s38.333 27.667 49 45v225h-67c-26.667 0 -49.667 -4.33301 -69 -13s-35.5 -20.667 -48.5 -36s-22.667 -33.333 -29 -54
s-9.5 -42.667 -9.5 -66c0 -39.333 8.16699 -69.166 24.5 -89.499s39.5 -30.5 69.5 -30.5z" />
    <glyph glyph-name="uni0431" unicode="&#x431;" horiz-adv-x="1027" 
d="M578 1022c62 0 116.669 -12.8301 164.002 -38.4971s87 -61 119 -106s56.167 -98.333 72.5 -160s24.5 -128.834 24.5 -201.501v-21c0 -74 -9.33301 -142.5 -28 -205.5s-46.334 -117.5 -83.001 -163.5s-82.167 -82 -136.5 -108s-116.833 -39 -187.5 -39
s-133.167 14 -187.5 42s-99.833 67 -136.5 117s-64.334 109.333 -83.001 178s-28 143.334 -28 224.001v21v2v30c0.666992 131.333 10.834 245.666 30.501 342.999s47.334 179.666 83.001 246.999s78.667 120.833 129 160.5s106.5 67.5 168.5 83.5c26 8 48.667 15.667 68 23
s35.333 15.833 48 25.5s22.167 21 28.5 34s9.5 29.167 9.5 48.5h226c0 -52.667 -5.5 -98.334 -16.5 -137.001s-29.167 -72 -54.5 -100s-59 -51.667 -101 -71s-94.333 -36 -157 -50c-32 -8 -60.833 -19.5 -86.5 -34.5s-48.334 -34.5 -68.001 -58.5s-36.167 -53 -49.5 -87
s-23.333 -73.667 -30 -119c75.333 80.667 162.666 121 261.999 121zM522.002 787.003c-29.333 0 -53.667 -7.33301 -73 -22s-34.666 -34.334 -45.999 -59.001s-19.333 -53.334 -24 -86.001s-7 -67.334 -7 -104.001v-21c0 -39.333 2.16699 -76 6.5 -110
s12.333 -63.667 24 -89s27.167 -45.333 46.5 -60s44 -22 74 -22s54.667 7.33301 74 22s34.833 34.667 46.5 60s19.834 55 24.501 89s7 70.667 7 110v21c0 36.667 -2.33301 71.334 -7 104.001s-12.834 61.334 -24.501 86.001s-27.334 44.334 -47.001 59.001
s-44.5 22 -74.5 22z" />
    <glyph glyph-name="uni0432" unicode="&#x432;" horiz-adv-x="1019" 
d="M121 0v1082h393c60 0 114.167 -6.16699 162.5 -18.5s89.5 -31 123.5 -56s60.167 -56.333 78.5 -94s27.5 -82.167 27.5 -133.5c0 -50 -14.5 -94.833 -43.5 -134.5s-71.167 -70.167 -126.5 -91.5c38 -8 70.667 -20 98 -36s50 -34.667 68 -56s31.167 -45 39.5 -71
s12.5 -53.333 12.5 -82c0 -103.333 -32.667 -180.666 -98 -231.999s-160 -77 -284 -77h-451zM403 447.999l0.000976562 -214.998h169c36.667 0 62.334 9 77.001 27s22 44.333 22 79c0 16.667 -1.33301 31.667 -4 45s-7.83398 24.666 -15.501 33.999
s-17.834 16.666 -30.501 21.999s-29 8 -49 8h-169zM403.001 643.001h115.001c38 0 64.833 8.16699 80.5 24.5s23.5 40.5 23.5 72.5c0 38.667 -8.83301 66.5 -26.5 83.5s-44.834 25.5 -81.501 25.5h-111v-206z" />
    <glyph glyph-name="uni0433" unicode="&#x433;" horiz-adv-x="759" 
d="M736 846h-351v-846h-283v1082h634v-236z" />
    <glyph glyph-name="uni0434" unicode="&#x434;" horiz-adv-x="1157" 
d="M126 236c31.333 36.667 56.168 71.834 74.501 105.501s32.166 69.167 41.499 106.5s15.333 78.166 18 122.499s4.66699 95.5 6 153.5l2 358h705v-847h143v-560h-283v325h-499v-325h-290v561h82zM549.002 724c-4.66699 -109.333 -16.668 -204 -36.001 -284
s-44.666 -148.333 -75.999 -205h254v606h-142v-117z" />
    <glyph glyph-name="uni0435" unicode="&#x435;" horiz-adv-x="980" 
d="M540 -20c-74 0 -139.669 11.3291 -197.002 33.9961s-105.666 55.334 -144.999 98.001s-69.166 94.834 -89.499 156.501s-30.5 131.834 -30.5 210.501v89c0 88 9.83301 165.167 29.5 231.5s48 122 85 167s82.333 78.833 136 101.5s114.5 34 182.5 34
c137.333 0 240.333 -44.333 309 -133s103 -220 103 -394v-129h-563c2 -43.333 7.83301 -79.666 17.5 -108.999s22.834 -53 39.501 -71s36.834 -31 60.501 -39s50.5 -12 80.5 -12c50 0 94.5 8.5 133.5 25.5s73.5 40.833 103.5 71.5l111 -171
c-14 -19.333 -32.333 -38.5 -55 -57.5s-49.334 -36.167 -80.001 -51.5s-65.334 -27.833 -104.001 -37.5s-81 -14.5 -127 -14.5zM508.998 866.996c-49.333 0 -85.167 -17.667 -107.5 -53s-35.5 -92 -39.5 -170h283v26c-1.33301 64.667 -12 113.667 -32 147
s-54.667 50 -104 50z" />
    <glyph glyph-name="uni0436" unicode="&#x436;" horiz-adv-x="1542" 
d="M1013 400h-97v-400h-282v400h-96l-143 -400h-339l265 583l-272 499h350l155 -403h80v403h282v-403h80l157 403h350l-268 -492l267 -590h-347z" />
    <glyph glyph-name="uni0437" unicode="&#x437;" horiz-adv-x="927" 
d="M472 647c32.667 0 56.002 10.6602 70.002 31.9932s21 49 21 83c0 14.667 -1.33301 29 -4 43s-7.33398 26.667 -14.001 38s-15.834 20.5 -27.501 27.5s-26.5 10.5 -44.5 10.5c-32.667 0 -58.334 -9.5 -77.001 -28.5s-28 -46.5 -28 -82.5h-283c0 52 9.66699 98.333 29 139
s45.833 75.334 79.5 104.001s73.167 50.5 118.5 65.5s94 22.5 146 22.5c58.667 0 111.834 -6.83301 159.501 -20.5s88.334 -33.667 122.001 -60s59.667 -59.166 78 -98.499s27.5 -84.666 27.5 -135.999c0 -48 -12.333 -92.167 -37 -132.5s-59 -72.5 -103 -96.5
c50.667 -21.333 89.334 -53.166 116.001 -95.499s40 -94.166 40 -155.499c0 -51.333 -10 -97.166 -30 -137.499s-47.833 -74.5 -83.5 -102.5s-78.334 -49.333 -128.001 -64s-103.834 -22 -162.501 -22c-48 0 -95.167 6.66699 -141.5 20s-87.5 33.833 -123.5 61.5
s-65.167 62.834 -87.5 105.501s-33.5 93.667 -33.5 153h283c0 -16 2.16699 -31.333 6.5 -46s11.333 -27.5 21 -38.5s22 -19.833 37 -26.5s33.167 -10 54.5 -10c20 0 36.833 3.66699 50.5 11s24.5 17 32.5 29s13.833 25.833 17.5 41.5s5.5 31.5 5.5 47.5
c0 46.667 -8.83301 80.167 -26.5 100.5s-44.5 30.5 -80.5 30.5h-133v188h133z" />
    <glyph glyph-name="uni0438" unicode="&#x438;" horiz-adv-x="1023" 
d="M638 1082h282v-1082h-282v665l-252 -665h-284v1082h284v-664z" />
    <glyph glyph-name="uni0439" unicode="&#x439;" horiz-adv-x="1023" 
d="M638 1082h282v-1082h-282v665l-252 -665h-284v1082h284v-664zM865 1522c0 -44 -8.16699 -84.167 -24.5 -120.5s-39.5 -67.5 -69.5 -93.5s-66.333 -46.333 -109 -61s-90.667 -22 -144 -22s-101.5 7.33301 -144.5 22s-79.5 35 -109.5 61s-53.167 57.167 -69.5 93.5
s-24.5 76.5 -24.5 120.5h207c0 -17.333 2.5 -33.833 7.5 -49.5s13.167 -29.5 24.5 -41.5s25.833 -21.667 43.5 -29s39.5 -11 65.5 -11c25.333 0 46.833 3.66699 64.5 11s32 17 43 29s19 25.833 24 41.5s7.5 32.167 7.5 49.5h208z" />
    <glyph glyph-name="uni043A" unicode="&#x43a;" horiz-adv-x="1032" 
d="M479 397h-74v-397h-282v1082h282v-406h70l164 406h355l-285 -499l307 -583h-375z" />
    <glyph glyph-name="uni043B" unicode="&#x43b;" horiz-adv-x="1024" 
d="M921 1082l0.000976562 -1082h-283v846h-165l-8 -225c-4 -103.333 -12.833 -193.666 -26.5 -270.999s-35.167 -142 -64.5 -194s-68 -91 -116 -117s-108.667 -39 -182 -39h-41l-4 239h25c29.333 0 52 6.83301 68 20.5s27.667 35.5 35 65.5s12.166 69.333 14.499 118
s4.83301 108 7.5 178l17 461h723z" />
    <glyph glyph-name="uni043C" unicode="&#x43c;" horiz-adv-x="1360" 
d="M670 344l203 738h355v-1082h-283v579l-180 -579h-189l-173 560v-560h-282v1082h349z" />
    <glyph glyph-name="uni043D" unicode="&#x43d;" horiz-adv-x="1022" 
d="M918 0h-283v415h-249v-415h-284v1082h284v-433h249v433h283v-1082z" />
    <glyph glyph-name="uni043E" unicode="&#x43e;" horiz-adv-x="1019" 
d="M70 576c0 84.667 10.332 159.667 30.999 225s50 120.333 88 165s83.833 78.5 137.5 101.5s113.834 34.5 180.501 34.5c67.333 0 128 -11.5 182 -34.5s100 -56.833 138 -101.5s67.333 -99.667 88 -165s31 -140.333 31 -225v-71c0 -85.333 -10.167 -160.5 -30.5 -225.5
s-49.5 -119.833 -87.5 -164.5s-84 -78.334 -138 -101.001s-114.333 -34 -181 -34c-67.333 0 -128 11.333 -182 34s-100 56.334 -138 101.001s-67.333 99.5 -88 164.5s-31 140.167 -31 225.5v71zM353.999 505c0 -100.667 13.667 -174.167 41 -220.5s65.333 -69.5 114 -69.5
c51.333 0 90 23.167 116 69.5s39 119.833 39 220.5v71c0 98.667 -13.667 171.834 -41 219.501s-66 71.5 -116 71.5c-48 0 -85.5 -23.833 -112.5 -71.5s-40.5 -120.834 -40.5 -219.501v-71z" />
    <glyph glyph-name="uni043F" unicode="&#x43f;" horiz-adv-x="1023" 
d="M920 0h-283v846h-251v-846h-284v1082h818v-1082z" />
    <glyph glyph-name="uni0440" unicode="&#x440;" horiz-adv-x="1014" 
d="M946 507c0 -170 -29.168 -300.333 -87.501 -391s-145.166 -136 -260.499 -136c-46 0 -86.5 9.33301 -121.5 28s-65.167 45 -90.5 79v-503h-283v1498h262l10 -99c26 38 57.167 67.333 93.5 88s78.833 31 127.5 31c116.667 0 204.167 -43 262.5 -129
s87.5 -217.667 87.5 -395v-71zM663.999 578c0 51.333 -2.66699 95.167 -8 131.5s-14 66 -26 89s-27.5 39.833 -46.5 50.5s-42.5 16 -70.5 16c-30 0 -55.5 -6.33301 -76.5 -19s-37.833 -30.667 -50.5 -54v-507c12 -22 28.5 -39.167 49.5 -51.5s47.5 -18.5 79.5 -18.5
c56 0 94.833 23.667 116.5 71s32.5 121 32.5 221v71z" />
    <glyph glyph-name="uni0441" unicode="&#x441;" horiz-adv-x="942" 
d="M494 215c39.333 0 69.8291 12.168 91.4961 36.501s32.834 65.5 33.501 123.5h266c-0.666992 -61.333 -11 -116.5 -31 -165.5s-47.167 -90.5 -81.5 -124.5s-74.833 -60 -121.5 -78s-97 -27 -151 -27c-72.667 0 -136 11.667 -190 35s-98.833 57.166 -134.5 101.499
s-62.334 98.833 -80.001 163.5s-26.5 138.334 -26.5 221.001v78c0 82.667 8.83301 156.5 26.5 221.5s44.167 119.833 79.5 164.5s80 78.667 134 102s117 35 189 35c58 0 110.833 -9.16699 158.5 -27.5s88.334 -45.333 122.001 -81s59.667 -79.834 78 -132.501
s27.833 -113.667 28.5 -183h-266c-0.666992 60.667 -10.667 107.334 -30 140.001s-51.333 49 -96 49c-31.333 0 -56.166 -6.33301 -74.499 -19s-32.333 -31.167 -42 -55.5s-16 -54.333 -19 -90s-4.5 -76.834 -4.5 -123.501v-78c0 -47.333 1.33301 -88.833 4 -124.5
s8.83398 -65.5 18.501 -89.5s23.834 -42 42.501 -54s44 -18 76 -18z" />
    <glyph glyph-name="uni0442" unicode="&#x442;" 
d="M882 849h-278v-849h-283v849h-276v233h837v-233z" />
    <glyph glyph-name="uni0443" unicode="&#x443;" horiz-adv-x="914" 
d="M450 471l143.998 611.003h302l-356 -1244c-8 -27.333 -18.833 -57 -32.5 -89s-32.167 -61.833 -55.5 -89.5s-52.333 -50.667 -87 -69s-76.667 -27.5 -126 -27.5c-12.667 0 -23.834 0.5 -33.501 1.5s-18.667 2.16699 -27 3.5s-16.833 3.16602 -25.5 5.49902l-30 8.5v221
c5.33301 -0.666992 10.833 -1 16.5 -1h16.5c22.667 0 42.334 2.16699 59.001 6.5s30.834 11.166 42.501 20.499s21.334 21.166 29.001 35.499s14.167 31.5 19.5 51.5l22 73l-312 1093h304z" />
    <glyph glyph-name="uni0444" unicode="&#x444;" horiz-adv-x="1300" 
d="M68 534c0 82.667 7.17188 158.834 21.5049 228.501s35.666 129.667 63.999 180s63.666 89.5 105.999 117.5s91.166 42 146.499 42c18 0 35.167 -1.66699 51.5 -5s32.166 -8 47.499 -14v453h283v-454c32 13.333 66.667 20 104 20c56 0 105 -14 147 -42
s77.333 -67.167 106 -117.5s50.167 -110.333 64.5 -180s21.5 -145.834 21.5 -228.501v-21c0 -78 -7.16699 -149.667 -21.5 -215s-35.833 -121.5 -64.5 -168.5s-64 -83.667 -106 -110s-90.333 -39.5 -145 -39.5c-38.667 0 -74 6.66699 -106 20v-416h-283v414
c-30 -12 -63.333 -18 -100 -18c-55.333 0 -103.833 13.167 -145.5 39.5s-76.834 63 -105.501 110s-50.167 103.167 -64.5 168.5s-21.5 137 -21.5 215v21zM948.005 534c0 46 -2.16992 89.165 -6.50293 129.498s-11.666 75.5 -21.999 105.5s-24 53.833 -41 71.5
s-37.833 26.5 -62.5 26.5c-5.33301 0 -10.166 -0.166992 -14.499 -0.5s-8.83301 -0.833008 -13.5 -1.5v-649c4.66699 -0.666992 9.5 -1.16699 14.5 -1.5s10.167 -0.5 15.5 -0.5c24.667 0 45.334 7.5 62.001 22.5s30 35.833 40 62.5s17.167 58.334 21.5 95.001
s6.5 76.334 6.5 119.001v21zM351.002 512.998c0 -42.667 2.00098 -82.167 6.00098 -118.5s10.833 -67.833 20.5 -94.5s22.667 -47.5 39 -62.5s37.166 -22.5 62.499 -22.5h13.5c4.33301 0 8.5 0.333008 12.5 1v649c-4 0.666992 -8 1.16699 -12 1.5s-8 0.5 -12 0.5
c-25.333 0 -46.333 -8.83301 -63 -26.5s-30 -41.5 -40 -71.5s-17 -65.167 -21 -105.5s-6 -83.5 -6 -129.5v-21z" />
    <glyph glyph-name="uni0445" unicode="&#x445;" horiz-adv-x="927" 
d="M465 761l126 321h300l-247 -529l256 -553h-301l-133 339l-132 -339h-302l256 553l-245 529h301z" />
    <glyph glyph-name="uni0446" unicode="&#x446;" horiz-adv-x="1109" 
d="M102 1082h284v-847h251v847h283v-849h148l-20 -554h-262v321h-684v1082z" />
    <glyph glyph-name="uni0447" unicode="&#x447;" horiz-adv-x="1003" 
d="M902 0h-284.001v334c-16.667 -3.33301 -33.167 -5.83301 -49.5 -7.5s-32.166 -2.5 -47.499 -2.5c-66 0 -125.667 8 -179 24s-98.833 41 -136.5 75s-66.667 77.167 -87 129.5s-30.5 114.833 -30.5 187.5v342h284v-342c0 -35.333 2.83301 -64.666 8.5 -87.999
s14.5 -41.833 26.5 -55.5s27.5 -23.334 46.5 -29.001s41.5 -8.5 67.5 -8.5c17.333 0 33.833 1 49.5 3s31.5 4.66699 47.5 8v512h284v-1082z" />
    <glyph glyph-name="uni0448" unicode="&#x448;" horiz-adv-x="1480" 
d="M386 1082v-847h203v847h284v-847h205v847h283v-1082h-1259v1082h284z" />
    <glyph glyph-name="uni0449" unicode="&#x449;" horiz-adv-x="1633" 
d="M383 1082v-847h203v847h284v-847h205v847h283v-848h200l-20 -555h-262v321h-1177v1082h284z" />
    <glyph glyph-name="uni044A" unicode="&#x44a;" horiz-adv-x="1177" 
d="M580 767h148c64 0 121.333 -9.33301 172 -28s93.334 -45 128.001 -79s61.167 -74.667 79.5 -122s27.5 -99.666 27.5 -156.999c0 -55.333 -9.16699 -106.333 -27.5 -153s-44.833 -86.834 -79.5 -120.501s-77.334 -60 -128.001 -79s-108 -28.5 -172 -28.5h-431v846h-249
v236h532v-315zM580 532v-299.002h148c22.667 0 41.834 4 57.501 12s28.5 18.667 38.5 32s17.333 29 22 47s7 36.667 7 56c0 20.667 -2.33301 40.334 -7 59.001s-12 34.834 -22 48.501s-22.833 24.5 -38.5 32.5s-34.834 12 -57.501 12h-148z" />
    <glyph glyph-name="uni044B" unicode="&#x44b;" horiz-adv-x="1500" 
d="M404 767h148c64 0 121.333 -9.33301 172 -28s93.334 -45 128.001 -79s61.167 -74.667 79.5 -122s27.5 -99.666 27.5 -156.999c0 -55.333 -9.16699 -106.333 -27.5 -153s-44.833 -86.834 -79.5 -120.501s-77.334 -60 -128.001 -79s-108 -28.5 -172 -28.5h-431v1082h283
v-315zM1365 0h-283v1082h283v-1082zM404 532v-299.002h148c22.667 0 41.834 4 57.501 12s28.5 18.667 38.5 32s17.333 29 22 47s7 36.667 7 56c0 20.667 -2.33301 40.334 -7 59.001s-12 34.834 -22 48.501s-22.833 24.5 -38.5 32.5s-34.834 12 -57.501 12h-148z" />
    <glyph glyph-name="uni044C" unicode="&#x44c;" horiz-adv-x="1010" 
d="M404 767h148c64 0 121.333 -9.33301 172 -28s93.334 -45 128.001 -79s61.167 -74.667 79.5 -122s27.5 -99.666 27.5 -156.999c0 -55.333 -9.16699 -106.333 -27.5 -153s-44.833 -86.834 -79.5 -120.501s-77.334 -60 -128.001 -79s-108 -28.5 -172 -28.5h-431v1082h283
v-315zM404 532v-299.002h148c22.667 0 41.834 4 57.501 12s28.5 18.667 38.5 32s17.333 29 22 47s7 36.667 7 56c0 20.667 -2.33301 40.334 -7 59.001s-12 34.834 -22 48.501s-22.833 24.5 -38.5 32.5s-34.834 12 -57.501 12h-148z" />
    <glyph glyph-name="uni044D" unicode="&#x44d;" 
d="M443 867c-39.333 0 -68.333 -14.498 -87 -43.498s-28 -67.833 -28 -116.5h-266c0 57.333 9.66699 110.166 29 158.499s46 90 80 125s74.333 62.333 121 82s97 29.5 151 29.5c70.667 0 132.667 -14.167 186 -42.5s98 -67.166 134 -116.499s63 -107.333 81 -174
s27 -138.334 27 -215.001v-28c0 -76.667 -9 -148.167 -27 -214.5s-45 -124 -81 -173s-80.667 -87.667 -134 -116s-115.333 -42.5 -186 -42.5c-57.333 0 -109.333 9.66699 -156 29s-86.667 47.333 -120 84s-59.166 81.167 -77.499 133.5s-27.5 111.166 -27.5 176.499h266
c0 -26 2.16699 -50.5 6.5 -73.5s11.333 -43 21 -60s21.667 -30.5 36 -40.5s31.5 -15 51.5 -15c24.667 0 45.667 6.33301 63 19s31.666 30 42.999 52s19.833 47.667 25.5 77s9.5 60.666 11.5 93.999h-197v177h196c-2 32.667 -5.83301 63.334 -11.5 92.001s-14 53.5 -25 74.5
s-25.167 37.5 -42.5 49.5s-38.333 18 -63 18z" />
    <glyph glyph-name="uni044E" unicode="&#x44e;" horiz-adv-x="1438" 
d="M408 669l91.001 0.00292969c7.33301 70 22.666 132 45.999 186s53.666 99.167 90.999 135.5s81 64 131 83s105 28.5 165 28.5c67.333 0 128 -11.5 182 -34.5s100 -56.833 138 -101.5s67.333 -99.667 88 -165s31 -140.333 31 -225v-71
c0 -85.333 -10.167 -160.5 -30.5 -225.5s-49.5 -119.833 -87.5 -164.5s-84 -78.334 -138 -101.001s-114.333 -34 -181 -34c-62 0 -118.667 9.83301 -170 29.5s-95.666 48.667 -132.999 87s-67.333 85.666 -90 141.999s-37 121.166 -43 194.499h-90v-433h-283v1082h283v-413z
M779.001 505.003c0 -100.667 13.667 -174.167 41 -220.5s65.333 -69.5 114 -69.5c51.333 0 90 23.167 116 69.5s39 119.833 39 220.5v71c0 98.667 -13.667 171.834 -41 219.501s-66 71.5 -116 71.5c-48 0 -85.5 -23.833 -112.5 -71.5s-40.5 -120.834 -40.5 -219.501v-71z
" />
    <glyph glyph-name="uni044F" unicode="&#x44f;" horiz-adv-x="1010" 
d="M886 1082l0.000976562 -1082h-281v373h-105l-176 -373h-285l201 427c-54.667 30 -96.834 70.167 -126.501 120.5s-44.5 107.5 -44.5 171.5c0 52.667 9.33301 101.167 28 145.5s45.5 82.666 80.5 114.999s77.5 57.5 127.5 75.5s106.333 27 169 27h412zM352.001 710.001
c0 -16 2.50098 -32.002 7.50098 -48.002s12.667 -30.333 23 -43s23.166 -23 38.499 -31s33.666 -12 54.999 -12h129v273h-131c-20 0 -37.667 -4.16699 -53 -12.5s-28.166 -19.166 -38.499 -32.499s-18 -28.166 -23 -44.499s-7.5 -32.833 -7.5 -49.5z" />
    <glyph glyph-name="uni0450" unicode="&#x450;" horiz-adv-x="980" 
d="M540 -20c-74 0 -139.669 11.3291 -197.002 33.9961s-105.666 55.334 -144.999 98.001s-69.166 94.834 -89.499 156.501s-30.5 131.834 -30.5 210.501v89c0 88 9.83301 165.167 29.5 231.5s48 122 85 167s82.333 78.833 136 101.5s114.5 34 182.5 34
c137.333 0 240.333 -44.333 309 -133s103 -220 103 -394v-129h-563c2 -43.333 7.83301 -79.666 17.5 -108.999s22.834 -53 39.501 -71s36.834 -31 60.501 -39s50.5 -12 80.5 -12c50 0 94.5 8.5 133.5 25.5s73.5 40.833 103.5 71.5l111 -171
c-14 -19.333 -32.333 -38.5 -55 -57.5s-49.334 -36.167 -80.001 -51.5s-65.334 -27.833 -104.001 -37.5s-81 -14.5 -127 -14.5zM508.998 866.996c-49.333 0 -85.167 -17.667 -107.5 -53s-35.5 -92 -39.5 -170h283v26c-1.33301 64.667 -12 113.667 -32 147
s-54.667 50 -104 50zM616.997 1226h-239l-276 310h317z" />
    <glyph glyph-name="uni0451" unicode="&#x451;" horiz-adv-x="980" 
d="M540 -20c-74 0 -139.669 11.3291 -197.002 33.9961s-105.666 55.334 -144.999 98.001s-69.166 94.834 -89.499 156.501s-30.5 131.834 -30.5 210.501v89c0 88 9.83301 165.167 29.5 231.5s48 122 85 167s82.333 78.833 136 101.5s114.5 34 182.5 34
c137.333 0 240.333 -44.333 309 -133s103 -220 103 -394v-129h-563c2 -43.333 7.83301 -79.666 17.5 -108.999s22.834 -53 39.501 -71s36.834 -31 60.501 -39s50.5 -12 80.5 -12c50 0 94.5 8.5 133.5 25.5s73.5 40.833 103.5 71.5l111 -171
c-14 -19.333 -32.333 -38.5 -55 -57.5s-49.334 -36.167 -80.001 -51.5s-65.334 -27.833 -104.001 -37.5s-81 -14.5 -127 -14.5zM508.998 866.996c-49.333 0 -85.167 -17.667 -107.5 -53s-35.5 -92 -39.5 -170h283v26c-1.33301 64.667 -12 113.667 -32 147
s-54.667 50 -104 50zM88.9971 1365c0 18 3.5 34.833 10.5 50.5s16.667 29.167 29 40.5s27 20.333 44 27s35.5 10 55.5 10s38.5 -3.33301 55.5 -10s31.667 -15.667 44 -27s22 -24.833 29 -40.5s10.5 -32.5 10.5 -50.5s-3.5 -34.667 -10.5 -50s-16.667 -28.666 -29 -39.999
s-27 -20.333 -44 -27s-35.5 -10 -55.5 -10s-38.5 3.33301 -55.5 10s-31.667 15.667 -44 27s-22 24.666 -29 39.999s-10.5 32 -10.5 50zM577.997 1365c0 18 3.5 34.667 10.5 50s16.667 28.666 29 39.999s27 20.333 44 27s35.5 10 55.5 10s38.5 -3.33301 55.5 -10
s31.667 -15.667 44 -27s22 -24.666 29 -39.999s10.5 -32 10.5 -50s-3.5 -34.667 -10.5 -50s-16.667 -28.833 -29 -40.5s-27 -20.667 -44 -27s-35.5 -9.5 -55.5 -9.5s-38.5 3.16699 -55.5 9.5s-31.667 15.333 -44 27s-22 25.167 -29 40.5s-10.5 32 -10.5 50z" />
    <glyph glyph-name="uni0452" unicode="&#x452;" horiz-adv-x="1008" 
d="M579 1189l-200.002 -0.00292969v-202c29.333 36.667 62.833 65 100.5 85s79.5 30 125.5 30c44.667 0 85.667 -7.66699 123 -23s69.333 -39.666 96 -72.999s47.334 -76.666 62.001 -129.999s22 -118.333 22 -195v-715c0 -65.333 -7.66699 -123 -23 -173
s-37.5 -92 -66.5 -126s-64.167 -59.833 -105.5 -77.5s-88 -26.5 -140 -26.5c-22 0 -42.667 1.16699 -62 3.5s-40 6.83301 -62 13.5l12 230c13.333 -4 26.333 -7 39 -9s26.667 -3 42 -3c26.667 0 47.167 14.333 61.5 43s21.5 70.334 21.5 125.001v34h-1v683
c0 34.667 -2.66699 63.667 -8 87s-13.333 42 -24 56s-23.667 24 -39 30s-33.333 9 -54 9c-28 0 -51.667 -6.33301 -71 -19s-35.666 -30 -48.999 -52v-794h-283v1189h-124v183h124v164h283v-164h200v-183z" />
    <glyph glyph-name="uni0453" unicode="&#x453;" horiz-adv-x="759" 
d="M736 846h-351v-846h-283v1082h634v-236zM435 1531h318l-278 -310h-236z" />
    <glyph glyph-name="uni0454" unicode="&#x454;" 
d="M490 215c39.333 0 69.833 12.166 91.5 36.499s32.834 65.5 33.501 123.5h266c-0.666992 -61.333 -11 -116.5 -31 -165.5s-47.167 -90.5 -81.5 -124.5s-74.833 -60 -121.5 -78s-97 -27 -151 -27c-72.667 0 -136 11.667 -190 35s-98.833 57.166 -134.5 101.499
s-62.334 98.833 -80.001 163.5s-26.5 138.334 -26.5 221.001v78c0 82.667 8.83301 156.5 26.5 221.5s44.167 119.833 79.5 164.5s80 78.667 134 102s117 35 189 35c58 0 110.833 -9.16699 158.5 -27.5s88.334 -45.333 122.001 -81s59.667 -79.834 78 -132.501
s27.833 -113.667 28.5 -183h-266c-0.666992 60.667 -10.667 107.334 -30 140.001s-51.333 49 -96 49c-29.333 0 -53 -5.5 -71 -16.5s-32 -27 -42 -48s-16.833 -47 -20.5 -78s-5.83398 -66.833 -6.50098 -107.5h211v-177h-210c0.666992 -37.333 3.16699 -70.166 7.5 -98.499
s11.5 -51.833 21.5 -70.5s24 -32.667 42 -42s41 -14 69 -14z" />
    <glyph glyph-name="uni0455" unicode="&#x455;" 
d="M582 290c0 14 -3.49707 26.833 -10.4971 38.5s-18 23.334 -33 35.001s-34.5 23.5 -58.5 35.5s-52.667 25.333 -86 40c-49.333 20 -93 40.5 -131 61.5s-70 44.667 -96 71s-45.667 56 -59 89s-20 71.167 -20 114.5c0 45.333 8.5 87.833 25.5 127.5
s41.5 74.334 73.5 104.001s71.167 53 117.5 70s98.833 25.5 157.5 25.5c60.667 0 115.167 -8.16699 163.5 -24.5s89.5 -39.333 123.5 -69s60 -65.334 78 -107.001s27 -87.834 27 -138.501h-283c0 41.333 -8.33301 73.666 -25 96.999s-45 35 -85 35
c-30 0 -54.667 -9.33301 -74 -28s-29 -44.667 -29 -78c0 -14 3.16699 -26.5 9.5 -37.5s16.666 -21.833 30.999 -32.5s33.166 -21.667 56.499 -33s52 -24.333 86 -39c54 -20 100.833 -41 140.5 -63s72.5 -46.5 98.5 -73.5s45.333 -57.5 58 -91.5s19 -73.333 19 -118
c0 -48 -9.33301 -91.667 -28 -131s-45.167 -73 -79.5 -101s-75.833 -49.833 -124.5 -65.5s-103 -23.5 -163 -23.5c-66 0 -124.167 10.167 -174.5 30.5s-92.5 47.333 -126.5 81s-59.667 71.667 -77 114s-26 85.5 -26 129.5h269c0.666992 -29.333 4.66699 -53.5 12 -72.5
s17.166 -34.167 29.499 -45.5s27 -19.166 44 -23.499s35.5 -6.5 55.5 -6.5c76 0 114 34.333 114 103z" />
    <glyph glyph-name="uni0456" unicode="&#x456;" horiz-adv-x="516" 
d="M400 0h-284v1082h284v-1082zM103 1362c0 22 3.66699 42.167 11 60.5s17.666 34.166 30.999 47.499s29.5 23.666 48.5 30.999s40.167 11 63.5 11s44.5 -3.66699 63.5 -11s35.167 -17.666 48.5 -30.999s23.666 -29.166 30.999 -47.499s11 -38.5 11 -60.5
s-3.66699 -42.167 -11 -60.5s-17.666 -34.333 -30.999 -48s-29.5 -24.167 -48.5 -31.5s-40.167 -11 -63.5 -11s-44.5 3.66699 -63.5 11s-35.167 17.833 -48.5 31.5s-23.666 29.667 -30.999 48s-11 38.5 -11 60.5z" />
    <glyph glyph-name="uni0457" unicode="&#x457;" horiz-adv-x="537" 
d="M407 0h-283v1082h283v-1082zM-116 1350c0 18 3.5 34.833 10.5 50.5s16.667 29.167 29 40.5s27 20.333 44 27s35.5 10 55.5 10s38.5 -3.33301 55.5 -10s31.667 -15.667 44 -27s22 -24.833 29 -40.5s10.5 -32.5 10.5 -50.5s-3.5 -34.667 -10.5 -50
s-16.667 -28.666 -29 -39.999s-27 -20.333 -44 -27s-35.5 -10 -55.5 -10s-38.5 3.33301 -55.5 10s-31.667 15.667 -44 27s-22 24.666 -29 39.999s-10.5 32 -10.5 50zM373 1350c0 18 3.5 34.667 10.5 50s16.667 28.666 29 39.999s27 20.333 44 27s35.5 10 55.5 10
s38.5 -3.33301 55.5 -10s31.667 -15.667 44 -27s22 -24.666 29 -39.999s10.5 -32 10.5 -50s-3.5 -34.667 -10.5 -50s-16.667 -28.833 -29 -40.5s-27 -20.667 -44 -27s-35.5 -9.5 -55.5 -9.5s-38.5 3.16699 -55.5 9.5s-31.667 15.333 -44 27s-22 25.167 -29 40.5
s-10.5 32 -10.5 50z" />
    <glyph glyph-name="uni0458" unicode="&#x458;" horiz-adv-x="503" 
d="M401 1082l0.000976562 -1140c0 -123.333 -28.333 -217.333 -85 -282s-137 -97 -241 -97c-22 0 -43.333 1.33301 -64 4s-42 7 -64 13l-1 231c14 -2.66699 27.167 -4.83398 39.5 -6.50098s24.166 -2.5 35.499 -2.5c32 0 56 11.167 72 33.5s24 57.833 24 106.5v1140h284z
M98.001 1362c0 22 3.66699 42.167 11 60.5s17.666 34.166 30.999 47.499s29.5 23.666 48.5 30.999s40.167 11 63.5 11s44.5 -3.66699 63.5 -11s35.167 -17.666 48.5 -30.999s23.666 -29.166 30.999 -47.499s11 -38.5 11 -60.5s-3.66699 -42.167 -11 -60.5
s-17.666 -34.333 -30.999 -48s-29.5 -24.167 -48.5 -31.5s-40.167 -11 -63.5 -11s-44.5 3.66699 -63.5 11s-35.167 17.833 -48.5 31.5s-23.666 29.667 -30.999 48s-11 38.5 -11 60.5z" />
    <glyph glyph-name="uni0459" unicode="&#x459;" horiz-adv-x="1517" 
d="M912 1082v-340h148c64 0 121.167 -9.16699 171.5 -27.5s92.833 -43.833 127.5 -76.5s61.167 -71.667 79.5 -117s27.5 -95 27.5 -149c0 -54.667 -9.16699 -104.667 -27.5 -150s-44.833 -84.5 -79.5 -117.5s-77.167 -58.667 -127.5 -77s-107.5 -27.5 -171.5 -27.5h-432v846
h-145v-225c0 -103.333 -7.33301 -193.666 -22 -270.999s-38.167 -142 -70.5 -194s-74.333 -91 -126 -117s-114.167 -39 -187.5 -39h-40l-4 236l25 1c48.667 0 84.5 31.167 107.5 93.5s34.5 159.166 34.5 290.499v461h712zM912 508v-274.999h148
c22 0 40.833 3.83301 56.5 11.5s28.5 18 38.5 31s17.333 28 22 45s7 34.833 7 53.5c0 18 -2.33301 35.167 -7 51.5s-12 30.666 -22 42.999s-22.833 22 -38.5 29s-34.5 10.5 -56.5 10.5h-148z" />
    <glyph glyph-name="uni045A" unicode="&#x45a;" horiz-adv-x="1522" 
d="M386 664h249v418h283v-340h148c64 0 121.167 -9.16699 171.5 -27.5s92.833 -43.833 127.5 -76.5s61.167 -71.667 79.5 -117s27.5 -95 27.5 -149c0 -54.667 -9.16699 -104.667 -27.5 -150s-44.833 -84.5 -79.5 -117.5s-77.167 -58.667 -127.5 -77
s-107.5 -27.5 -171.5 -27.5h-431v430h-249v-430h-284v1082h284v-418zM918 508v-274.999h148c22 0 40.833 3.83301 56.5 11.5s28.5 18 38.5 31s17.333 28 22 45s7 34.833 7 53.5c0 18 -2.33301 35.167 -7 51.5s-12 30.666 -22 42.999s-22.833 22 -38.5 29
s-34.5 10.5 -56.5 10.5h-148z" />
    <glyph glyph-name="uni045B" unicode="&#x45b;" horiz-adv-x="1017" 
d="M593 1201l-214.002 -0.00195312v-214c29.333 36.667 62.833 65 100.5 85s79.5 30 125.5 30c44.667 0 85.667 -7.66699 123 -23s69.333 -39.666 96 -72.999s47.334 -76.666 62.001 -129.999s22 -118.333 22 -195v-681h-284v683c0 34.667 -2.66699 63.667 -8 87
s-13.333 42 -24 56s-23.667 24 -39 30s-33.333 9 -54 9c-28 0 -51.667 -6.33301 -71 -19s-35.666 -30 -48.999 -52v-794h-283v1201h-110v183h110v152h283v-152h214v-183z" />
    <glyph glyph-name="uni045C" unicode="&#x45c;" horiz-adv-x="1032" 
d="M479 397h-74v-397h-282v1082h282v-406h70l164 406h355l-285 -499l307 -583h-375zM571 1531h318l-278 -310h-236z" />
    <glyph glyph-name="uni045D" unicode="&#x45d;" horiz-adv-x="1023" 
d="M638 1082h282v-1082h-282v665l-252 -665h-284v1082h284v-664zM661 1221h-239l-276 310h317z" />
    <glyph glyph-name="uni045E" unicode="&#x45e;" horiz-adv-x="914" 
d="M450 471l143.998 611.003h302l-356 -1244c-8 -27.333 -18.833 -57 -32.5 -89s-32.167 -61.833 -55.5 -89.5s-52.333 -50.667 -87 -69s-76.667 -27.5 -126 -27.5c-12.667 0 -23.834 0.5 -33.501 1.5s-18.667 2.16699 -27 3.5s-16.833 3.16602 -25.5 5.49902l-30 8.5v221
c5.33301 -0.666992 10.833 -1 16.5 -1h16.5c22.667 0 42.334 2.16699 59.001 6.5s30.834 11.166 42.501 20.499s21.334 21.166 29.001 35.499s14.167 31.5 19.5 51.5l22 73l-312 1093h304zM805.998 1527c0 -44 -8.16699 -84.167 -24.5 -120.5s-39.5 -67.5 -69.5 -93.5
s-66.333 -46.333 -109 -61s-90.667 -22 -144 -22s-101.5 7.33301 -144.5 22s-79.5 35 -109.5 61s-53.167 57.167 -69.5 93.5s-24.5 76.5 -24.5 120.5h207c0 -17.333 2.5 -33.833 7.5 -49.5s13.167 -29.5 24.5 -41.5s25.833 -21.667 43.5 -29s39.5 -11 65.5 -11
c25.333 0 46.833 3.66699 64.5 11s32 17 43 29s19 25.833 24 41.5s7.5 32.167 7.5 49.5h208z" />
    <glyph glyph-name="uni045F" unicode="&#x45f;" horiz-adv-x="1023" 
d="M386 1082v-847h251v847h283v-1082h-268v-359h-282v359h-268v1082h284z" />
    <glyph glyph-name="uni0460" unicode="&#x460;" horiz-adv-x="1689" 
d="M1572 1456l0.000976562 -989c0 -80 -11 -150.333 -33 -211s-52.333 -111.5 -91 -152.5s-84.834 -72 -138.501 -93s-111.834 -31.5 -174.501 -31.5c-61.333 0 -117.166 12.333 -167.499 37s-92.833 62 -127.5 112c-35.333 -50 -78 -87.333 -128 -112
s-105.333 -37 -166 -37c-62.667 0 -120.834 10.5 -174.501 31.5s-100 52 -139 93s-69.5 91.833 -91.5 152.5s-33 131 -33 211v989h296v-989c0 -85.333 12.667 -147.333 38 -186s60 -58 104 -58c46.667 0 82.834 19.333 108.501 58s38.5 100.667 38.5 186v989h296v-989
c0 -85.333 13.167 -147.333 39.5 -186s61.833 -58 106.5 -58c45.333 0 80.5 19.333 105.5 58s37.5 100.667 37.5 186v989h294z" />
    <glyph glyph-name="uni0461" unicode="&#x461;" horiz-adv-x="1437" 
d="M1374 1082l-0.000976562 -634c0 -76.667 -9.33301 -144.167 -28 -202.5s-45 -107.333 -79 -147s-74.667 -69.5 -122 -89.5s-99.333 -30 -156 -30c-54 0 -102.5 10.833 -145.5 32.5s-79.5 54.5 -109.5 98.5c-32 -44 -70.167 -76.833 -114.5 -98.5
s-93.5 -32.5 -147.5 -32.5c-56 0 -107.5 10 -154.5 30s-87.333 49.833 -121 89.5s-60 88.667 -79 147s-28.5 125.833 -28.5 202.5v634h285v-634c0 -82 8.16699 -141.5 24.5 -178.5s40.833 -55.5 73.5 -55.5c40 0 70.333 18.5 91 55.5s31 96.5 31 178.5v634h284v-634
c0 -82 8.83301 -141.5 26.5 -178.5s45.834 -55.5 84.501 -55.5c34 0 59.5 18.5 76.5 55.5s25.5 96.5 25.5 178.5v634h283z" />
    <glyph glyph-name="uni0462" unicode="&#x462;" horiz-adv-x="1125" 
d="M580 1088l-169 0.000976562v-155h178c73.333 0 139.5 -11 198.5 -33s109.333 -53.167 151 -93.5s73.667 -88.833 96 -145.5s33.5 -119.667 33.5 -189c0 -70 -11.167 -133.833 -33.5 -191.5s-54.333 -107.334 -96 -149.001s-92 -74 -151 -97s-125.167 -34.5 -198.5 -34.5
h-473v1088h-143v183h143v185h295v-185h169v-183zM411 689.001v-445h178c30 0 56.667 6 80 18s42.666 28.5 57.999 49.5s27 45.5 35 73.5s12 57.667 12 89c0 30.667 -4 59 -12 85s-19.667 48.667 -35 68s-34.666 34.5 -57.999 45.5s-50 16.5 -80 16.5h-178z" />
    <glyph glyph-name="uni0463" unicode="&#x463;" horiz-adv-x="1010" 
d="M607 1082h-203v-290h148c64 0 121.167 -9.66699 171.5 -29s92.833 -46.5 127.5 -81.5s61.167 -76.667 79.5 -125s27.5 -101.5 27.5 -159.5s-9.16699 -111.333 -27.5 -160s-44.833 -90.5 -79.5 -125.5s-77.167 -62.333 -127.5 -82s-107.5 -29.5 -171.5 -29.5h-432v1082
h-122v184h122v295h284v-295h203v-184zM404 557v-324h148c22 0 40.833 4.33301 56.5 13s28.5 20.5 38.5 35.5s17.333 32.5 22 52.5s7 41 7 63c0 21.333 -2.33301 41.666 -7 60.999s-12 36.333 -22 51s-22.833 26.334 -38.5 35.001s-34.5 13 -56.5 13h-148z" />
    <glyph glyph-name="uni0464" unicode="&#x464;" horiz-adv-x="1576" 
d="M399 861l128.999 -0.00390625c0.666992 100 13 188.333 37 265s58.333 141 103 193s98.5 91.333 161.5 118s133.833 40 212.5 40c158.667 0 279.167 -44.333 361.5 -133s129.166 -216 140.499 -382h-295c-1.33301 52 -5.83301 95.5 -13.5 130.5s-19.5 62.833 -35.5 83.5
s-36.833 35.334 -62.5 44.001s-57.5 13 -95.5 13c-38.667 0 -71.834 -6.5 -99.501 -19.5s-50.334 -34.167 -68.001 -63.5s-30.667 -67.666 -39 -114.999s-12.5 -105.333 -12.5 -174h340v-236h-340v-21c0 -68 3.33301 -126 10 -174s18.334 -87.167 35.001 -117.5
s38.667 -52.5 66 -66.5s62 -21 104 -21c36 0 66.833 3.83301 92.5 11.5s46.834 21.167 63.501 40.5s29.334 46 38.001 80s14 77 16 129h294c-7.33301 -166 -54 -291.667 -140 -377s-207.333 -128 -364 -128c-80.667 0 -152.667 13.333 -216 40
s-116.666 66.334 -159.999 119.001s-76.5 117.834 -99.5 195.501s-34.5 167.167 -34.5 268.5v21h-129v-625h-294v1456h294v-595z" />
    <glyph glyph-name="uni0465" unicode="&#x465;" horiz-adv-x="1343" 
d="M390 635h81.9961c4 74 15.833 140 35.5 198s47.167 106.833 82.5 146.5s78.833 70 130.5 91s111.5 31.5 179.5 31.5c58 0 110.833 -9.16699 158.5 -27.5s88.334 -45.333 122.001 -81s59.667 -79.834 78 -132.501s27.833 -113.667 28.5 -183h-266
c-0.666992 60.667 -10.667 107.334 -30 140.001s-51.333 49 -96 49c-28 0 -50.833 -5 -68.5 -15s-31.667 -24.833 -42 -44.5s-17.666 -44 -21.999 -73s-6.83301 -62.167 -7.5 -99.5h245v-184h-245c0.666992 -39.333 3 -73.666 7 -102.999s11 -53.833 21 -73.5
s24 -34.5 42 -44.5s41.667 -15 71 -15c39.333 0 69.833 12.167 91.5 36.5s32.834 65.5 33.501 123.5h266c-0.666992 -61.333 -11 -116.5 -31 -165.5s-47.167 -90.5 -81.5 -124.5s-74.833 -60 -121.5 -78s-97 -27 -151 -27c-69.333 0 -130 10.5 -182 31.5
s-95.833 51.667 -131.5 92s-63.167 89.666 -82.5 147.999s-30.666 124.833 -33.999 199.5h-82v-451h-283v1082h283v-447z" />
    <glyph glyph-name="uni0466" unicode="&#x466;" horiz-adv-x="1200" 
d="M761 418h-38v-418h-242v418h-32l-112 -418h-308l426 1456h305l423 -1456h-309zM506 628h199l-100 370z" />
    <glyph glyph-name="uni0467" unicode="&#x467;" horiz-adv-x="1015" 
d="M625 268h-38v-268h-182v268h-28l-68 -268h-288l334 1082h292l335 -1082h-287zM426 457h150l-54 208l-22 106l-21 -106z" />
    <glyph glyph-name="uni0468" unicode="&#x468;" horiz-adv-x="1672" 
d="M419 627h254l243 829h305l423 -1456h-309l-113 418h-38v-418h-242v418h-32l-112 -418h-308l122 419h-193v-419h-294v1456h294v-829zM967 628h199l-100 370z" />
    <glyph glyph-name="uni0469" unicode="&#x469;" horiz-adv-x="1432" 
d="M394 457h186l193 625h292l335 -1082h-287l-70 268h-38v-268h-182v268h-28l-68 -268h-288l83 269h-128v-269h-283v1082h283v-625zM844 457h150l-54 208l-22 106l-21 -106z" />
    <glyph glyph-name="uni046A" unicode="&#x46a;" horiz-adv-x="1571" 
d="M1050 798c66 -4 125.002 -15.5 177.002 -34.5s96 -47 132 -84s63.333 -83.833 82 -140.5s28 -124.667 28 -204v-335h-293v335c0 42 -3.83301 77 -11.5 105s-19.167 50.333 -34.5 67s-34.333 28.5 -57 35.5s-49.334 10.5 -80.001 10.5h-47v-553h-294v553h-74
c-30.667 0 -57.334 -3.5 -80.001 -10.5s-41.667 -18.833 -57 -35.5s-26.833 -39 -34.5 -67s-11.5 -63 -11.5 -105v-335h-293v335c0 82.667 10.167 153.167 30.5 211.5s50 106 89 143s86.5 64.333 142.5 82s120 27.167 192 28.5l-313 656h1121zM804.002 890l134 318h-268z
" />
    <glyph glyph-name="uni046B" unicode="&#x46b;" horiz-adv-x="1319" 
d="M103 0v181.999c0 70 7.33301 130.5 22 181.5s36.167 93.667 64.5 128s63 61 104 80s87.833 31.5 140.5 37.5l-228 473h922l-229 -474c50 -7.33301 94.5 -20.666 133.5 -39.999s72 -46.333 99 -81s47.667 -77.167 62 -127.5s21.5 -109.5 21.5 -177.5v-182h-282v182
c0 40 -2.66699 73.333 -8 100s-13.333 48 -24 64s-24 27.5 -40 34.5s-34.667 10.5 -56 10.5v-391h-283v391h-5c-22 0 -41.333 -3.16699 -58 -9.5s-30.5 -17.5 -41.5 -33.5s-19.167 -37.5 -24.5 -64.5s-8 -60.833 -8 -101.5v-182h-282zM667 670.999l82 219h-165z" />
    <glyph glyph-name="uni046C" unicode="&#x46c;" horiz-adv-x="2084" 
d="M616 0l0.00195312 335c0 46 3.16699 88 9.5 126s15.833 73 28.5 105h-229v-566h-294v1456h294v-652h643l-311 652h1121l-314 -658c66 -4 125 -15.5 177 -34.5s96 -47 132 -84s63.333 -83.833 82 -140.5s28 -124.667 28 -204v-335h-293v335c0 42 -3.83301 77 -11.5 105
s-19.167 50.333 -34.5 67s-34.333 28.5 -57 35.5s-49.334 10.5 -80.001 10.5h-47v-553h-294v553h-74c-30.667 0 -57.334 -3.5 -80.001 -10.5s-41.667 -18.833 -57 -35.5s-26.833 -39 -34.5 -67s-11.5 -63 -11.5 -105v-335h-293zM1318 890l134 318h-268z" />
    <glyph glyph-name="uni046D" unicode="&#x46d;" horiz-adv-x="1815" 
d="M597 0v181.999c0 44 2.83301 83.833 8.5 119.5s14.167 68.5 25.5 98.5h-224v-400h-283v1082h283v-468h519l-226 468h922l-229 -474c50 -7.33301 94.5 -20.666 133.5 -39.999s72 -46.333 99 -81s47.667 -77.167 62 -127.5s21.5 -109.5 21.5 -177.5v-182h-282v182
c0 40 -2.66699 73.333 -8 100s-13.333 48 -24 64s-24 27.5 -40 34.5s-34.667 10.5 -56 10.5v-391h-283v391h-5c-22 0 -41.333 -3.16699 -58 -9.5s-30.5 -17.5 -41.5 -33.5s-19.167 -37.5 -24.5 -64.5s-8 -60.833 -8 -101.5v-182h-282zM1161 670.999l82 219h-165z" />
    <glyph glyph-name="uni046E" unicode="&#x46e;" horiz-adv-x="924" 
d="M330 867c26.667 0 49.668 4.67285 69.001 14.0059s35 22 47 38s20.833 35.167 26.5 57.5s8.5 46.5 8.5 72.5c0 50 -13 90 -39 120s-67 45 -123 45h-206v242h206c66.667 0 127.334 -7.33301 182.001 -22s101.5 -37.5 140.5 -68.5s69.167 -70.5 90.5 -118.5
s32 -104.667 32 -170c0 -82 -17.167 -150.333 -51.5 -205s-81.833 -96.334 -142.5 -125.001c75.333 -28 133.333 -70.5 174 -127.5s61 -127.5 61 -211.5c0 -68 -9.83301 -128.667 -29.5 -182s-47.834 -98.333 -84.501 -135s-80.834 -64.5 -132.501 -83.5
s-109.5 -28.5 -173.5 -28.5h-45c-29.333 0 -50.333 -8.66699 -63 -26s-19 -40 -19 -68c0 -22.667 4 -42.334 12 -59.001s17.833 -31.334 29.5 -44.001s24.167 -23.167 37.5 -31.5s25.333 -15.5 36 -21.5l-79 -177c-50 12 -93.333 29.333 -130 52s-67 50 -91 82
s-41.833 68.167 -53.5 108.5s-17.834 84.166 -18.501 131.499c0 50 7.66699 93.667 23 131s37 68.166 65 92.499s61.333 42.5 100 54.5s81.667 18 129 18h51c24.667 0 46.667 4.5 66 13.5s35.333 21.667 48 38s22.334 35.666 29.001 57.999s10 46.5 10 72.5
c0 72.667 -16.833 127.5 -50.5 164.5s-83.167 55.5 -148.5 55.5h-124v243h131zM414.001 1786.01l116 142h241v-11l-268 -281h-176l-268 283v9h240z" />
    <glyph glyph-name="uni046F" unicode="&#x46f;" horiz-adv-x="914" 
d="M359 628c22 0 40.5029 3.33398 55.5029 10.001s27.333 15.667 37 27s16.667 25 21 41s6.5 33.333 6.5 52c0 34 -12 61.167 -36 81.5s-61 30.5 -111 30.5h-215v212h215c64 0 122.5 -5.83301 175.5 -17.5s98.167 -29.667 135.5 -54s66.333 -55.166 87 -92.499
s31 -81.666 31 -132.999c0 -58.667 -13.333 -108.167 -40 -148.5s-64 -72.166 -112 -95.499c62.667 -22 110.5 -52.833 143.5 -92.5s49.5 -87.834 49.5 -144.501c0 -51.333 -9.16699 -97.166 -27.5 -137.499s-44.333 -74.333 -78 -102s-74.5 -48.834 -122.5 -63.501
s-101.667 -22 -161 -22h-42c-35.333 0 -60.5 -8.83301 -75.5 -26.5s-22.5 -40.167 -22.5 -67.5c0 -22.667 3.5 -42.334 10.5 -59.001s15.5 -31.334 25.5 -44.001s20.833 -23.167 32.5 -31.5s22.167 -15.5 31.5 -21.5l-80 -161c-38 13.333 -73 31.166 -105 53.499
s-59.667 48.833 -83 79.5s-41.5 64.834 -54.5 102.501s-19.833 78.5 -20.5 122.5c0 44.667 7 83.667 21 117s33.667 61 59 83s55.666 38.333 90.999 49s74.333 16 117 16h49c49.333 0 87.166 11.667 113.499 35s39.5 53 39.5 89c0 43.333 -14.333 76.166 -43 98.499
s-70.334 33.5 -125.001 33.5h-140v181h147zM421.003 1398l116 142h241v-11l-268 -281h-176l-268 283v9h240z" />
    <glyph glyph-name="uni0470" unicode="&#x470;" horiz-adv-x="1302" 
d="M801 642c54.667 17.333 94.168 55 118.501 113s36.5 138 36.5 240v461h295v-461c0 -88 -10.5 -167.167 -31.5 -237.5s-51 -131 -90 -182s-86.333 -91.833 -142 -122.5s-117.834 -50.667 -186.501 -60v-393h-294v391c-70 8 -133.5 27 -190.5 57s-105.5 70.5 -145.5 121.5
s-70.833 112.167 -92.5 183.5s-32.5 152 -32.5 242v461h294v-461c0 -99.333 14.333 -177.833 43 -235.5s70 -96.167 124 -115.5v812h294v-814z" />
    <glyph glyph-name="uni0471" unicode="&#x471;" horiz-adv-x="1347" 
d="M806 1082l0.00292969 -845.999c35.333 12.667 65.333 30.667 90 54s44.667 50.5 60 81.5s26.5 65.5 33.5 103.5s10.5 78.333 10.5 121c-1.33301 84 -9.83301 166.333 -25.5 247s-35.167 160.334 -58.5 239.001h260c29.333 -58.667 54.5 -128.334 75.5 -209.001
s31.5 -173 31.5 -277c0 -72 -8 -141.833 -24 -209.5s-42.667 -128.834 -80 -183.501s-86.5 -101 -147.5 -139s-136.167 -63.333 -225.5 -76v-466h-283v469c-70.667 11.333 -134.334 31.5 -191.001 60.5s-104.834 68 -144.501 117s-70.167 108.333 -91.5 178
s-32 150.5 -32 242.5v493h284v-496c0 -50.667 4.33301 -95.334 13 -134.001s20.667 -72.167 36 -100.5s33.666 -51.666 54.999 -69.999s45 -32.833 71 -43.5v844h283z" />
    <glyph glyph-name="uni0472" unicode="&#x472;" horiz-adv-x="1232" 
d="M1147 597c0 -102 -12.665 -191.667 -37.998 -269s-60.833 -141.666 -106.5 -192.999s-100.667 -90 -165 -116s-135.5 -39 -213.5 -39s-149.333 13 -214 39s-120.167 64.667 -166.5 116s-82.333 115.666 -108 192.999s-38.5 167 -38.5 269v242
c0 104.667 12.667 196.834 38 276.501s61 146.167 107 199.5s101.333 93.5 166 120.5s136 40.5 214 40.5s149.167 -13.5 213.5 -40.5s119.666 -67.167 165.999 -120.5s82.166 -119.833 107.499 -199.5s38 -171.834 38 -276.501v-242zM852.002 640h-460.998v-43
c0 -66 5 -122.5 15 -169.5s24.833 -85.5 44.5 -115.5s44 -52 73 -66s62.5 -21 100.5 -21c37.333 0 70.166 7 98.499 21s52.166 36 71.499 66s33.833 68.5 43.5 115.5s14.5 103.5 14.5 169.5v43zM391.004 824h461v17c0 69.333 -5 128.5 -15 177.5s-24.667 89.167 -44 120.5
s-43.333 54.333 -72 69s-61.667 22 -99 22c-38 0 -71.333 -7.33301 -100 -22s-52.667 -37.667 -72 -69s-34 -71.5 -44 -120.5s-15 -108.167 -15 -177.5v-17z" />
    <glyph glyph-name="uni0473" unicode="&#x473;" horiz-adv-x="1012" 
d="M68 576c0 84.667 10.332 159.667 30.999 225s50 120.333 88 165s83.833 78.5 137.5 101.5s113.834 34.5 180.501 34.5c67.333 0 128 -11.5 182 -34.5s100 -56.833 138 -101.5s67.333 -99.667 88 -165s31 -140.333 31 -225v-71c0 -85.333 -10.167 -160.5 -30.5 -225.5
s-49.5 -119.833 -87.5 -164.5s-84 -78.334 -138 -101.001s-114.333 -34 -181 -34c-67.333 0 -128 11.333 -182 34s-100 56.334 -138 101.001s-67.333 99.5 -88 164.5s-31 140.167 -31 225.5v71zM504.999 867c-43.333 0 -78.167 -19.5 -104.5 -58.5
s-42.166 -98.833 -47.499 -179.5h307c-5.33301 80.667 -21.333 140.5 -48 179.5s-62.334 58.5 -107.001 58.5zM506.998 215c46 0 81.832 18.332 107.499 54.999s40.834 95.334 45.501 176.001h-307c5.33301 -80 21.5 -138.5 48.5 -175.5s62.167 -55.5 105.5 -55.5z" />
    <glyph glyph-name="uni0474" unicode="&#x474;" horiz-adv-x="1160" 
d="M573 395l14.001 -71.999l13 68l150 729c15.333 56 32.666 106 51.999 150s42 81.167 68 111.5s55.833 53.333 89.5 69s72.5 23.5 116.5 23.5l39 -1l-3 -254h-27c-22.667 0 -40.5 -10.833 -53.5 -32.5s-21.5 -48.834 -25.5 -81.501l-267 -1105h-304l-410 1456h311z" />
    <glyph glyph-name="uni0475" unicode="&#x475;" horiz-adv-x="927" 
d="M439 415l10.999 -73.002l11 73l54 351c28.667 108 68.167 191 118.5 249s115.5 87 195.5 87c16 0 31.5 -1.16699 46.5 -3.5s29.5 -7.16602 43.5 -14.499l-22 -231c-2 1.33301 -7.66699 2.33301 -17 3s-16.666 1 -21.999 1c-22 0 -41.167 -10.167 -57.5 -30.5
s-26.5 -45.166 -30.5 -74.499l-183 -752h-271l-287 1082h296z" />
    <glyph glyph-name="uni0476" unicode="&#x476;" horiz-adv-x="1160" 
d="M573 395l14.001 -71.999l13 68l150 729c15.333 56 32.666 106 51.999 150s42 81.167 68 111.5s55.833 53.333 89.5 69s72.5 23.5 116.5 23.5l39 -1l-3 -254h-27c-22.667 0 -40.5 -10.833 -53.5 -32.5s-21.5 -48.834 -25.5 -81.501l-267 -1105h-304l-410 1456h311z
M550.001 1547h-229l-243 266h273zM856.001 1547h-225l-205 266h270z" />
    <glyph glyph-name="uni0477" unicode="&#x477;" horiz-adv-x="927" 
d="M439 415l10.999 -73.002l11 73l54 351c28.667 108 68.167 191 118.5 249s115.5 87 195.5 87c16 0 31.5 -1.16699 46.5 -3.5s29.5 -7.16602 43.5 -14.499l-22 -231c-2 1.33301 -7.66699 2.33301 -17 3s-16.666 1 -21.999 1c-22 0 -41.167 -10.167 -57.5 -30.5
s-26.5 -45.166 -30.5 -74.499l-183 -752h-271l-287 1082h296zM466.999 1241h-229l-243 266h273zM772.999 1241h-225l-205 266h270z" />
    <glyph glyph-name="uni0478" unicode="&#x478;" horiz-adv-x="2150" 
d="M1142 597c0 -102 -12.665 -191.667 -37.998 -269s-60.833 -141.666 -106.5 -192.999s-100.667 -90 -165 -116s-135.5 -39 -213.5 -39s-149.333 13 -214 39s-120.167 64.667 -166.5 116s-82.333 115.666 -108 192.999s-38.5 167 -38.5 269v242
c0 104.667 12.667 196.834 38 276.501s61 146.167 107 199.5s101.333 93.5 166 120.5s136 40.5 214 40.5s149.167 -13.5 213.5 -40.5s119.666 -67.167 165.999 -120.5s82.166 -119.833 107.499 -199.5s38 -171.834 38 -276.501v-242zM847.002 841
c0 69.333 -4.99805 128.5 -14.998 177.5s-24.667 89.167 -44 120.5s-43.333 54.333 -72 69s-61.667 22 -99 22c-38 0 -71.333 -7.33301 -100 -22s-52.667 -37.667 -72 -69s-34 -71.5 -44 -120.5s-15 -108.167 -15 -177.5v-244c0 -66 5 -122.5 15 -169.5
s24.833 -85.5 44.5 -115.5s44 -52 73 -66s62.5 -21 100.5 -21c37.333 0 70.166 7 98.499 21s52.166 36 71.499 66s33.833 68.5 43.5 115.5s14.5 103.5 14.5 169.5v244zM1686 471l143.998 611.003h302l-356 -1244c-8 -27.333 -18.833 -57 -32.5 -89
s-32.167 -61.833 -55.5 -89.5s-52.333 -50.667 -87 -69s-76.667 -27.5 -126 -27.5c-12.667 0 -23.834 0.5 -33.501 1.5s-18.667 2.16699 -27 3.5s-16.833 3.16602 -25.5 5.49902l-30 8.5v221c5.33301 -0.666992 10.833 -1 16.5 -1h16.5c22.667 0 42.334 2.16699 59.001 6.5
s30.834 11.166 42.501 20.499s21.334 21.166 29.001 35.499s14.167 31.5 19.5 51.5l22 73l-312 1093h304z" />
    <glyph glyph-name="uni0479" unicode="&#x479;" horiz-adv-x="1933" 
d="M70 576c0 84.667 10.332 159.667 30.999 225s50 120.333 88 165s83.833 78.5 137.5 101.5s113.834 34.5 180.501 34.5c67.333 0 128 -11.5 182 -34.5s100 -56.833 138 -101.5s67.333 -99.667 88 -165s31 -140.333 31 -225v-71c0 -85.333 -10.167 -160.5 -30.5 -225.5
s-49.5 -119.833 -87.5 -164.5s-84 -78.334 -138 -101.001s-114.333 -34 -181 -34c-67.333 0 -128 11.333 -182 34s-100 56.334 -138 101.001s-67.333 99.5 -88 164.5s-31 140.167 -31 225.5v71zM353.999 505c0 -100.667 13.667 -174.167 41 -220.5s65.333 -69.5 114 -69.5
c51.333 0 90 23.167 116 69.5s39 119.833 39 220.5v71c0 98.667 -13.667 171.834 -41 219.501s-66 71.5 -116 71.5c-48 0 -85.5 -23.833 -112.5 -71.5s-40.5 -120.834 -40.5 -219.501v-71zM1469 471l143.998 611.003h302l-356 -1244c-8 -27.333 -18.833 -57 -32.5 -89
s-32.167 -61.833 -55.5 -89.5s-52.333 -50.667 -87 -69s-76.667 -27.5 -126 -27.5c-12.667 0 -23.834 0.5 -33.501 1.5s-18.667 2.16699 -27 3.5s-16.833 3.16602 -25.5 5.49902l-30 8.5v221c5.33301 -0.666992 10.833 -1 16.5 -1h16.5c22.667 0 42.334 2.16699 59.001 6.5
s30.834 11.166 42.501 20.499s21.334 21.166 29.001 35.499s14.167 31.5 19.5 51.5l22 73l-312 1093h304z" />
    <glyph glyph-name="uni047A" unicode="&#x47a;" horiz-adv-x="1232" 
d="M709 1112h-187v463h187v-463zM711 -135h-187v474h187v-474zM1147 597c0 -102 -12.665 -191.667 -37.998 -269s-60.833 -141.666 -106.5 -192.999s-100.667 -90 -165 -116s-135.5 -39 -213.5 -39s-149.333 13 -214 39s-120.167 64.667 -166.5 116
s-82.333 115.666 -108 192.999s-38.5 167 -38.5 269v242c0 104.667 12.667 196.834 38 276.501s61 146.167 107 199.5s101.333 93.5 166 120.5s136 40.5 214 40.5s149.167 -13.5 213.5 -40.5s119.666 -67.167 165.999 -120.5s82.166 -119.833 107.499 -199.5
s38 -171.834 38 -276.501v-242zM852.002 841c0 69.333 -4.99805 128.5 -14.998 177.5s-24.667 89.167 -44 120.5s-43.333 54.333 -72 69s-61.667 22 -99 22c-38 0 -71.333 -7.33301 -100 -22s-52.667 -37.667 -72 -69s-34 -71.5 -44 -120.5s-15 -108.167 -15 -177.5v-244
c0 -66 5 -122.5 15 -169.5s24.833 -85.5 44.5 -115.5s44 -52 73 -66s62.5 -21 100.5 -21c37.333 0 70.166 7 98.499 21s52.166 36 71.499 66s33.833 68.5 43.5 115.5s14.5 103.5 14.5 169.5v244z" />
    <glyph glyph-name="uni047B" unicode="&#x47b;" horiz-adv-x="1017" 
d="M590 753h-157v451h157v-451zM584 -124h-156v466h156v-466zM70 576c0 84.667 10.332 159.667 30.999 225s50 120.333 88 165s83.833 78.5 137.5 101.5s113.834 34.5 180.501 34.5c67.333 0 128 -11.5 182 -34.5s100 -56.833 138 -101.5s67.333 -99.667 88 -165
s31 -140.333 31 -225v-71c0 -85.333 -10.167 -160.5 -30.5 -225.5s-49.5 -119.833 -87.5 -164.5s-84 -78.334 -138 -101.001s-114.333 -34 -181 -34c-67.333 0 -128 11.333 -182 34s-100 56.334 -138 101.001s-67.333 99.5 -88 164.5s-31 140.167 -31 225.5v71zM353.999 505
c0 -100.667 13.667 -174.167 41 -220.5s65.333 -69.5 114 -69.5c51.333 0 90 23.167 116 69.5s39 119.833 39 220.5v71c0 98.667 -13.667 171.834 -41 219.501s-66 71.5 -116 71.5c-48 0 -85.5 -23.833 -112.5 -71.5s-40.5 -120.834 -40.5 -219.501v-71z" />
    <glyph glyph-name="uni047C" unicode="&#x47c;" horiz-adv-x="1690" 
d="M1118 1456c62.667 0 120.669 -10.667 174.002 -32s99.5 -52.833 138.5 -94.5s69.5 -93.5 91.5 -155.5s33 -133.333 33 -214v-487c0 -80.667 -11 -151.834 -33 -213.501s-52.5 -113.167 -91.5 -154.5s-85.167 -72.666 -138.5 -93.999s-111.333 -32 -174 -32
c-58.667 0 -112.334 11.333 -161.001 34s-90.334 57 -125.001 103c-34.667 -46 -76.334 -80.333 -125.001 -103s-102.334 -34 -161.001 -34c-62.667 0 -120.834 10.667 -174.501 32s-100 52.666 -139 93.999s-69.5 92.833 -91.5 154.5s-33 132.834 -33 213.501v487
c0 80.667 11 152 33 214s52.5 113.833 91.5 155.5s85.333 73.167 139 94.5s111.834 32 174.501 32v-245c-44 0 -78.667 -20 -104 -60s-38 -103.667 -38 -191v-487c0 -87.333 12.667 -150.833 38 -190.5s60 -59.5 104 -59.5c46.667 0 82.834 19.333 108.501 58
s38.5 100.667 38.5 186v348h278v-348c0 -85.333 12.833 -147.333 38.5 -186s61.834 -58 108.501 -58c42.667 0 77 19.833 103 59.5s39 103.167 39 190.5v487c0 87.333 -12.833 151 -38.5 191s-60.167 60 -103.5 60v245zM1210 1708l0.000976562 -134h-18
c-47.333 0 -91.5 6.16699 -132.5 18.5s-79 26 -114 41l-94.5 41.5c-28 12.667 -52.667 19 -74 19c-20.667 0 -38.167 -8 -52.5 -24s-21.5 -42 -21.5 -78v-18h-123v37c0 74.667 17 129.5 51 164.5s81.333 52.5 142 52.5c32 0 63.667 -6.33301 95 -19s63.833 -26.5 97.5 -41.5
s69.167 -28.667 106.5 -41s77.666 -18.5 120.999 -18.5h17zM713.003 1335c18.667 28 32.834 53.833 42.501 77.5s14.5 48.167 14.5 73.5v95h160v-102c0 -19.333 -4.33301 -39 -13 -59s-19.834 -39 -33.501 -57s-28.667 -34.5 -45 -49.5s-31.833 -26.833 -46.5 -35.5z" />
    <glyph glyph-name="uni047D" unicode="&#x47d;" horiz-adv-x="1425" 
d="M915 1099c58 0 111.833 -10 161.5 -30s92.5 -49.5 128.5 -88.5s64.167 -87.5 84.5 -145.5s30.5 -125 30.5 -201v-191c0 -76 -9.5 -143 -28.5 -201s-45.167 -106.5 -78.5 -145.5s-72.833 -68.333 -118.5 -88s-95.5 -29.5 -149.5 -29.5c-48 0 -92 11.167 -132 33.5
s-74 55.833 -102 100.5c-28 -44.667 -61.833 -78.167 -101.5 -100.5s-83.5 -33.5 -131.5 -33.5c-54 0 -104 9.83301 -150 29.5s-85.667 49 -119 88s-59.333 87.5 -78 145.5s-28 125 -28 201v191c0 76 10.167 143 30.5 201s48.5 106.5 84.5 145.5s78.833 68.5 128.5 88.5
s103.5 30 161.5 30v-235c-37.333 0 -67 -18.333 -89 -55s-33 -95 -33 -175v-191c0 -80 8.33301 -138.167 25 -174.5s39 -54.5 67 -54.5c30.667 0 54.834 18.5 72.501 55.5s26.5 96.5 26.5 178.5v159h269v-159c0 -82 8.66699 -141.5 26 -178.5s41.666 -55.5 72.999 -55.5
c28 0 50.333 18.167 67 54.5s25 94.5 25 174.5v191c0 80 -11.167 138.333 -33.5 175s-51.833 55 -88.5 55v235zM1099 1370l0.000976562 -134h-20c-48 0 -92.5 6.16699 -133.5 18.5s-78.667 26 -113 41l-93.5 41.5c-28 12.667 -53 19 -75 19c-20 0 -37.167 -8 -51.5 -24
s-21.5 -42 -21.5 -78v-18h-124v37c0 74.667 17.333 129.5 52 164.5s82.334 52.5 143.001 52.5c31.333 0 62.5 -6.33301 93.5 -19l96.5 -41.5c33.333 -15 68.666 -28.667 105.999 -41s77.666 -18.5 120.999 -18.5h20zM611.001 1004c18.667 28 32.834 53.833 42.501 77.5
s14.5 48.167 14.5 73.5v95h160v-102c0 -19.333 -4.33301 -39 -13 -59s-19.834 -39 -33.501 -57s-28.667 -34.5 -45 -49.5s-31.833 -26.833 -46.5 -35.5z" />
    <glyph glyph-name="uni047E" unicode="&#x47e;" horiz-adv-x="1689" 
d="M456 1687v135h774l1 -135h-309v-127h-173v127h-293zM1572 1456l0.000976562 -989c0 -80 -11 -150.333 -33 -211s-52.333 -111.5 -91 -152.5s-84.834 -72 -138.501 -93s-111.834 -31.5 -174.501 -31.5c-61.333 0 -117.166 12.333 -167.499 37s-92.833 62 -127.5 112
c-35.333 -50 -78 -87.333 -128 -112s-105.333 -37 -166 -37c-62.667 0 -120.834 10.5 -174.501 31.5s-100 52 -139 93s-69.5 91.833 -91.5 152.5s-33 131 -33 211v989h296v-989c0 -85.333 12.667 -147.333 38 -186s60 -58 104 -58c46.667 0 82.834 19.333 108.501 58
s38.5 100.667 38.5 186v989h296v-989c0 -85.333 13.167 -147.333 39.5 -186s61.833 -58 106.5 -58c45.333 0 80.5 19.333 105.5 58s37.5 100.667 37.5 186v989h294z" />
    <glyph glyph-name="uni047F" unicode="&#x47f;" horiz-adv-x="1437" 
d="M378 1323v134h712l6 -134h-283v-127h-172v127h-263zM1374 1082l-0.000976562 -634c0 -76.667 -9.33301 -144.167 -28 -202.5s-45 -107.333 -79 -147s-74.667 -69.5 -122 -89.5s-99.333 -30 -156 -30c-54 0 -102.5 10.833 -145.5 32.5s-79.5 54.5 -109.5 98.5
c-32 -44 -70.167 -76.833 -114.5 -98.5s-93.5 -32.5 -147.5 -32.5c-56 0 -107.5 10 -154.5 30s-87.333 49.833 -121 89.5s-60 88.667 -79 147s-28.5 125.833 -28.5 202.5v634h285v-634c0 -82 8.16699 -141.5 24.5 -178.5s40.833 -55.5 73.5 -55.5c40 0 70.333 18.5 91 55.5
s31 96.5 31 178.5v634h284v-634c0 -82 8.83301 -141.5 26.5 -178.5s45.834 -55.5 84.501 -55.5c34 0 59.5 18.5 76.5 55.5s25.5 96.5 25.5 178.5v634h283z" />
    <glyph glyph-name="uni0480" unicode="&#x480;" horiz-adv-x="1108" 
d="M753 -360l-294.001 -0.00488281v351c-58 12.667 -110 35.834 -156 69.501s-85.167 76 -117.5 127s-57.166 109.5 -74.499 175.5s-26 137.667 -26 215v298c0 88 11.167 168.833 33.5 242.5s54.166 137 95.499 190s91.166 94.333 149.499 124s123.5 44.5 195.5 44.5
c74.667 0 141.167 -10.833 199.5 -32.5s107.5 -53.667 147.5 -96s70.167 -95.166 90.5 -158.499s30.166 -136.666 29.499 -219.999h-294c2.66699 91.333 -9.16602 157.833 -35.499 199.5s-72.166 62.5 -137.499 62.5c-31.333 0 -58.166 -8.83301 -80.499 -26.5
s-41 -42.167 -56 -73.5s-26 -68.666 -33 -111.999s-10.5 -90.666 -10.5 -141.999v-300c0 -51.333 3.66699 -98.666 11 -141.999s18.5 -80.833 33.5 -112.5s34 -56.334 57 -74.001s50.5 -26.5 82.5 -26.5h190v-583z" />
    <glyph glyph-name="uni0481" unicode="&#x481;" horiz-adv-x="967" 
d="M697 -364l-284.001 0.00195312v355c-54 12.667 -101.5 35.167 -142.5 67.5s-75.167 72 -102.5 119s-47.833 100.167 -61.5 159.5s-20.5 122.333 -20.5 189v28c0 76.667 9 148.334 27 215.001s44.833 124.667 80.5 174s80.167 88.166 133.5 116.499s115.333 42.5 186 42.5
c58 0 110.333 -9.83301 157 -29.5s86.667 -47.834 120 -84.501s59 -81.167 77 -133.5s27 -111.166 27 -176.499h-265c0 26 -2.16699 50.5 -6.5 73.5s-11.166 43 -20.499 60s-21.333 30.5 -36 40.5s-32.334 15 -53.001 15c-29.333 0 -53.166 -8.66699 -71.499 -26
s-33 -40.5 -44 -69.5s-18.5 -62.333 -22.5 -100s-6 -76.834 -6 -117.501v-28c0 -41.333 2 -80.833 6 -118.5s11.333 -70.834 22 -99.501s25.5 -51.5 44.5 -68.5s43.5 -25.5 73.5 -25.5h182v-578z" />
    <glyph glyph-name="uni0482" unicode="&#x482;" horiz-adv-x="1120" 
d="M532 449l243 -172l-66 -128l-244 170l-151 -319h-158l189 398l-243 171l65 128l246 -171l164 360l-243 171l66 130l245 -171l150 326h156l-188 -405l246 -171l-69 -127l-242 170z" />
    <glyph glyph-name="uni0483" unicode="&#x483;" horiz-adv-x="40" 
d="M-592 1312v-126l-168 1l1 238h469l-1 108l169 -1v-220h-470z" />
    <glyph glyph-name="uni0484" unicode="&#x484;" horiz-adv-x="40" 
d="M-723 1437c44.667 0 86.332 6.16699 124.999 18.5s75.167 26 109.5 41s67.666 28.833 99.999 41.5s64.5 19 96.5 19c62.667 0 111.834 -17.5 147.501 -52.5s53.5 -89.833 53.5 -164.5v-37h-128v18c0 36 -7.33301 62 -22 78s-32.667 24 -54 24
c-22 0 -47.5 -6.33301 -76.5 -19l-96.5 -41.5c-35.333 -15 -74.166 -28.667 -116.499 -41s-87.833 -18.5 -136.5 -18.5h-21v134h19z" />
    <glyph glyph-name="uni0485" unicode="&#x485;" horiz-adv-x="40" 
d="M-495 1500v144h175l-1 -162l47 -108l-75 -68z" />
    <glyph glyph-name="uni0486" unicode="&#x486;" horiz-adv-x="40" 
d="M-409 1306l-76 68l48 108l-1 162h174v-144z" />
    <glyph glyph-name="uni0488" unicode="&#x488;" horiz-adv-x="0" 
d="M-738 1267c0 27.333 4.83496 52.5 14.502 75.5s23.5 42.833 41.5 59.5s40 29.667 66 39s55.333 14 88 14s62 -4.66699 88 -14s48.167 -22.333 66.5 -39s32.333 -36.5 42 -59.5s14.5 -48.167 14.5 -75.5h-112c0 13.333 -1.83301 26 -5.5 38s-9.33398 22.667 -17.001 32
s-17.834 16.833 -30.501 22.5s-28 8.5 -46 8.5s-33.167 -2.83301 -45.5 -8.5s-22.333 -13.167 -30 -22.5s-13.167 -20 -16.5 -32s-5 -24.667 -5 -38h-113zM-146.998 990c0 27.333 4.83398 52.5 14.501 75.5s23.667 42.833 42 59.5s40.333 29.667 66 39s54.5 14 86.5 14
c32.667 0 62.167 -4.66699 88.5 -14s48.666 -22.333 66.999 -39s32.333 -36.5 42 -59.5s14.5 -48.167 14.5 -75.5h-113c0 13.333 -1.66699 26 -5 38s-9 22.667 -17 32s-18.333 16.833 -31 22.5s-28 8.5 -46 8.5c-17.333 0 -32 -2.83301 -44 -8.5
s-21.833 -13.167 -29.5 -22.5s-13.167 -20 -16.5 -32s-5 -24.667 -5 -38h-114zM39.0029 487c0 27.333 4.83301 52.5 14.5 75.5s23.667 42.833 42 59.5s40.5 29.667 66.5 39s55 14 87 14c32.667 0 62 -4.66699 88 -14s48.167 -22.333 66.5 -39s32.333 -36.5 42 -59.5
s14.5 -48.167 14.5 -75.5h-112c0 13.333 -1.66699 26 -5 38s-9 22.667 -17 32s-18.333 16.833 -31 22.5s-28 8.5 -46 8.5c-17.333 0 -32.166 -2.83301 -44.499 -8.5s-22.333 -13.167 -30 -22.5s-13.334 -20 -17.001 -32s-5.5 -24.667 -5.5 -38h-113zM-156.997 -32
c0 27.333 4.83398 52.5 14.501 75.5s23.667 42.833 42 59.5s40.333 29.667 66 39s54.5 14 86.5 14c32.667 0 62 -4.66699 88 -14s48.167 -22.333 66.5 -39s32.333 -36.5 42 -59.5s14.5 -48.167 14.5 -75.5h-112c0 13.333 -1.66699 26 -5 38s-9 22.667 -17 32
s-18.333 16.833 -31 22.5s-28 8.5 -46 8.5c-17.333 0 -32 -2.83301 -44 -8.5s-21.833 -13.167 -29.5 -22.5s-13.334 -20 -17.001 -32s-5.5 -24.667 -5.5 -38h-113zM-732.996 -316c0 27.333 4.83496 52.5 14.502 75.5s23.5 42.833 41.5 59.5s40 29.667 66 39s55.333 14 88 14
s62 -4.66699 88 -14s48.167 -22.333 66.5 -39s32.333 -36.5 42 -59.5s14.5 -48.167 14.5 -75.5h-112c0 13.333 -1.83301 26 -5.5 38s-9.33398 22.667 -17.001 32s-17.834 16.833 -30.501 22.5s-28 8.5 -46 8.5c-17.333 0 -32.166 -2.83301 -44.499 -8.5
s-22.333 -13.167 -30 -22.5s-13.334 -20 -17.001 -32s-5.5 -24.667 -5.5 -38h-113zM-1310.99 990c0 27.333 4.83496 52.5 14.502 75.5s23.667 42.833 42 59.5s40.5 29.667 66.5 39s55.333 14 88 14s62 -4.66699 88 -14s48.167 -22.333 66.5 -39s32.333 -36.5 42 -59.5
s14.5 -48.167 14.5 -75.5h-112c0 13.333 -1.83301 26 -5.5 38s-9.33398 22.667 -17.001 32s-17.834 16.833 -30.501 22.5s-28 8.5 -46 8.5s-33.167 -2.83301 -45.5 -8.5s-22.333 -13.167 -30 -22.5s-13.167 -20 -16.5 -32s-5 -24.667 -5 -38h-114zM-1486.99 487
c0 27.333 4.83301 52.5 14.5 75.5s23.667 42.833 42 59.5s40.5 29.667 66.5 39s55 14 87 14c32.667 0 62 -4.66699 88 -14s48.167 -22.333 66.5 -39s32.333 -36.5 42 -59.5s14.5 -48.167 14.5 -75.5h-112c0 13.333 -1.66699 26 -5 38s-9 22.667 -17 32
s-18.333 16.833 -31 22.5s-28 8.5 -46 8.5c-17.333 0 -32.166 -2.83301 -44.499 -8.5s-22.333 -13.167 -30 -22.5s-13.334 -20 -17.001 -32s-5.5 -24.667 -5.5 -38h-113zM-1320.99 -32c0 27.333 4.83301 52.5 14.5 75.5s23.667 42.833 42 59.5s40.5 29.667 66.5 39
s55 14 87 14c32.667 0 62.167 -4.66699 88.5 -14s48.666 -22.333 66.999 -39s32.333 -36.5 42 -59.5s14.5 -48.167 14.5 -75.5h-113c0 13.333 -1.66699 26 -5 38s-9 22.667 -17 32s-18.333 16.833 -31 22.5s-28 8.5 -46 8.5c-17.333 0 -32.166 -2.83301 -44.499 -8.5
s-22.333 -13.167 -30 -22.5s-13.167 -20 -16.5 -32s-5 -24.667 -5 -38h-114z" />
    <glyph glyph-name="uni0489" unicode="&#x489;" horiz-adv-x="-600" 
d="M-396 -60l11 -14l-122 -339h-96l70 353h137zM-591 1126l-12 14l122 338h96l-70 -352h-136zM87 631l13 12l333 -124v-98l-346 71v139zM-1077 433l-13 -12l-333 124v98l346 -71v-139zM-153 1002l2 16l321 153l68 -68l-294 -200zM-837 21l-2 -17l-320 -153l-69 69l294 200z
M-977 860l-17 2l-148 326l65 69l198 -299zM-15 161l17 -2l149 -325l-66 -71l-197 299z" />
    <glyph glyph-name="uni048A" unicode="&#x48a;" horiz-adv-x="1241" 
d="M830 1456h294v-1456h-294v964l-429 -964h-295v1456h295v-965zM964 1840c0 -44 -8.16699 -84.167 -24.5 -120.5s-39.5 -67.5 -69.5 -93.5s-66.333 -46.333 -109 -61s-90.667 -22 -144 -22s-101.5 7.33301 -144.5 22s-79.5 35 -109.5 61s-53.167 57.167 -69.5 93.5
s-24.5 76.5 -24.5 120.5h207c0 -17.333 2.5 -33.833 7.5 -49.5s13.167 -29.5 24.5 -41.5s25.833 -21.667 43.5 -29s39.5 -11 65.5 -11c25.333 0 46.833 3.66699 64.5 11s32 17 43 29s19 25.833 24 41.5s7.5 32.167 7.5 49.5h208zM1348 5
c0 -38 -5.00098 -76.333 -15.001 -115s-23.667 -76.167 -41 -112.5s-38.166 -70.5 -62.499 -102.5s-50.833 -60.333 -79.5 -85l-151 79l36.5 68c12.333 22.667 23.5 46.667 33.5 72s18.167 52.833 24.5 82.5s9.5 62.5 9.5 98.5v213h246z" />
    <glyph glyph-name="uni048B" unicode="&#x48b;" horiz-adv-x="1023" 
d="M638 1082h282v-1082h-282v665l-252 -665h-284v1082h284v-664zM865 1522c0 -44 -8.16699 -84.167 -24.5 -120.5s-39.5 -67.5 -69.5 -93.5s-66.333 -46.333 -109 -61s-90.667 -22 -144 -22s-101.5 7.33301 -144.5 22s-79.5 35 -109.5 61s-53.167 57.167 -69.5 93.5
s-24.5 76.5 -24.5 120.5h207c0 -17.333 2.5 -33.833 7.5 -49.5s13.167 -29.5 24.5 -41.5s25.833 -21.667 43.5 -29s39.5 -11 65.5 -11c25.333 0 46.833 3.66699 64.5 11s32 17 43 29s19 25.833 24 41.5s7.5 32.167 7.5 49.5h208zM1145 5
c0 -38 -5.00098 -76.333 -15.001 -115s-23.667 -76.167 -41 -112.5s-38.166 -70.5 -62.499 -102.5s-50.833 -60.333 -79.5 -85l-151 79l36.5 68c12.333 22.667 23.5 46.667 33.5 72s18.167 52.833 24.5 82.5s9.5 62.5 9.5 98.5v213h246z" />
    <glyph glyph-name="uni048C" unicode="&#x48c;" horiz-adv-x="1125" 
d="M580 1088l-169 0.000976562v-155h178c73.333 0 139.5 -11 198.5 -33s109.333 -53.167 151 -93.5s73.667 -88.833 96 -145.5s33.5 -119.667 33.5 -189c0 -70 -11.167 -133.833 -33.5 -191.5s-54.333 -107.334 -96 -149.001s-92 -74 -151 -97s-125.167 -34.5 -198.5 -34.5
h-473v1088h-143v183h143v185h295v-185h169v-183zM411 689.001v-445h178c30 0 56.667 6 80 18s42.666 28.5 57.999 49.5s27 45.5 35 73.5s12 57.667 12 89c0 30.667 -4 59 -12 85s-19.667 48.667 -35 68s-34.666 34.5 -57.999 45.5s-50 16.5 -80 16.5h-178z" />
    <glyph glyph-name="uni048D" unicode="&#x48d;" horiz-adv-x="1010" 
d="M607 1272h-203v-480h148c64 0 121.167 -9.66699 171.5 -29s92.833 -46.5 127.5 -81.5s61.167 -76.667 79.5 -125s27.5 -101.5 27.5 -159.5s-9.16699 -111.333 -27.5 -160s-44.833 -90.5 -79.5 -125.5s-77.167 -62.333 -127.5 -82s-107.5 -29.5 -171.5 -29.5h-432v1272
h-122v184h122v158h284v-158h203v-184zM404 557v-324h148c22 0 40.833 4.33301 56.5 13s28.5 20.5 38.5 35.5s17.333 32.5 22 52.5s7 41 7 63c0 21.333 -2.33301 41.666 -7 60.999s-12 36.333 -22 51s-22.833 26.334 -38.5 35.001s-34.5 13 -56.5 13h-148z" />
    <glyph glyph-name="uni048E" unicode="&#x48e;" horiz-adv-x="1123" 
d="M1071 511l-94 -90l-390 491l95 91zM412 512l0.000976562 -512h-294v1456h496c74 0 140.167 -12 198.5 -36s107.833 -57.5 148.5 -100.5s71.834 -94 93.501 -153s32.5 -123.167 32.5 -192.5c0 -70.667 -10.833 -134.5 -32.5 -191.5s-52.834 -105.5 -93.501 -145.5
s-90.334 -70.833 -149.001 -92.5s-124.667 -32.5 -198 -32.5h-202zM412.001 757l202 0.000976562c30.667 0 57.167 5.33301 79.5 16s40.666 25.5 54.999 44.5s24.833 41.667 31.5 68s10 55.166 10 86.499s-3.33301 61.333 -10 90s-17.167 54 -31.5 76
s-32.666 39.667 -54.999 53s-48.833 20 -79.5 20h-202v-454z" />
    <glyph glyph-name="uni048F" unicode="&#x48f;" horiz-adv-x="1010" 
d="M933 3l-97 -89l-345 465l97 89zM946 507c0 -170 -29.168 -300.333 -87.501 -391s-145.166 -136 -260.499 -136c-46 0 -86.5 9.33301 -121.5 28s-65.167 45 -90.5 79v-503h-283v1498h262l10 -99c26 38 57.167 67.333 93.5 88s78.833 31 127.5 31
c116.667 0 204.167 -43 262.5 -129s87.5 -217.667 87.5 -395v-71zM663.999 578c0 51.333 -2.66699 95.167 -8 131.5s-14 66 -26 89s-27.5 39.833 -46.5 50.5s-42.5 16 -70.5 16c-30 0 -55.5 -6.33301 -76.5 -19s-37.833 -30.667 -50.5 -54v-507
c12 -22 28.5 -39.167 49.5 -51.5s47.5 -18.5 79.5 -18.5c56 0 94.833 23.667 116.5 71s32.5 121 32.5 221v71z" />
    <glyph glyph-name="uni0490" unicode="&#x490;" horiz-adv-x="998" 
d="M946 1222h-13v-11h-523v-1211h-294v1456h547v374h283v-608z" />
    <glyph glyph-name="uni0491" unicode="&#x491;" horiz-adv-x="845" 
d="M775 847h-42v-1h-351v-846h-283v1082h394v316h282v-551z" />
    <glyph glyph-name="uni0492" unicode="&#x492;" horiz-adv-x="1001" 
d="M587 661h-173v-661h-294v661h-140v183h140v612h817v-245h-523v-367h173v-183z" />
    <glyph glyph-name="uni0493" unicode="&#x493;" horiz-adv-x="759" 
d="M569 452h-184v-452h-283v452h-140v183h140v447h634v-236h-351v-211h184v-183z" />
    <glyph glyph-name="uni0494" unicode="&#x494;" horiz-adv-x="1010" 
d="M937 1211l-522.997 0.00390625v-374h130c78 0 148.5 -12.167 211.5 -36.5s116.833 -60.833 161.5 -109.5s79.167 -109.834 103.5 -183.501s36.5 -159.834 36.5 -258.501c0 -47.333 -3.5 -95 -10.5 -143s-18.167 -93.833 -33.5 -137.5s-35.333 -84.334 -60 -122.001
s-54.5 -70.5 -89.5 -98.5s-75.833 -50 -122.5 -66s-99.334 -24 -158.001 -24v223c30.667 0 56.667 5.5 78 16.5s39.166 25.833 53.499 44.5s25.5 40 33.5 64s14 49 18 75s6.5 52.167 7.5 78.5s1.5 51.166 1.5 74.499c0 124 -18.833 215.833 -56.5 275.5
s-95.834 89.5 -174.501 89.5h-130v-599h-294v1456h817v-245z" />
    <glyph glyph-name="uni0495" unicode="&#x495;" horiz-adv-x="964" 
d="M733 846l-351 -0.000976562v-180h23c70.667 0 135.667 -10 195 -30s110.333 -50.167 153 -90.5s75.834 -91 99.501 -152s35.5 -132.5 35.5 -214.5c0.666992 -40 -5.16602 -82.5 -17.499 -127.5s-31.5 -88.833 -57.5 -131.5s-58.667 -82.167 -98 -118.5
s-86 -65.5 -140 -87.5l-120 194c22 14.667 42.167 30.834 60.5 48.501s34.166 37.5 47.499 59.5s23.666 46.333 30.999 73s11 56.667 11 90c-0.666992 84 -18.167 146.667 -52.5 188s-83.5 62 -147.5 62h-23v-429h-283v1082h634v-236z" />
    <glyph glyph-name="uni0496" unicode="&#x496;" horiz-adv-x="1809" 
d="M1205 591h-139v-591h-294v591h-144l-229 -591h-366l367 798l-351 658h366l237 -585h120v585h294v-585h116l229 585h365l-343 -655l359 -801h-366zM1922 -357h-283v564h283v-564z" />
    <glyph glyph-name="uni0497" unicode="&#x497;" horiz-adv-x="1542" 
d="M1013 400h-97v-400h-282v400h-96l-143 -400h-339l265 583l-272 499h350l155 -403h80v403h282v-403h80l157 403h350l-268 -492l267 -590h-347zM1620 -357h-283v564h283v-564z" />
    <glyph glyph-name="uni0498" unicode="&#x498;" horiz-adv-x="1109" 
d="M551 861c52.667 0 90.6709 17.5039 114.004 52.5039s35 82.167 35 141.5c0 23.333 -3.33301 45.666 -10 66.999s-16.667 40 -30 56s-30.5 28.833 -51.5 38.5s-45.5 14.5 -73.5 14.5c-21.333 0 -41.333 -3.83301 -60 -11.5s-34.834 -18.834 -48.501 -33.501
s-24.334 -32.5 -32.001 -53.5s-11.5 -44.833 -11.5 -71.5h-294c0 64.667 12 122.5 36 173.5s56.333 94.333 97 130s88 63 142 82s111 28.5 171 28.5c70 0 133.333 -8.83301 190 -26.5s105 -43.834 145 -78.501s70.833 -77.834 92.5 -129.501s32.5 -111.5 32.5 -179.5
c0 -66.667 -16.833 -127.5 -50.5 -182.5s-79.834 -98.5 -138.501 -130.5c66.667 -28 118 -70.5 154 -127.5s54 -127.833 54 -212.5c0 -68 -11.833 -128.5 -35.5 -181.5s-56.834 -97.667 -99.501 -134s-93.167 -64 -151.5 -83s-122.5 -28.5 -192.5 -28.5
c-56.667 0 -112.667 8 -168 24s-105 41.167 -149 75.5s-79.5 78.166 -106.5 131.499s-40.5 117.333 -40.5 192h295c0 -25.333 4.16699 -49 12.5 -71s19.833 -41.167 34.5 -57.5s32.334 -29.166 53.001 -38.499s43.667 -14 69 -14c28.667 0 54.5 4.83301 77.5 14.5
s42.333 23 58 40s27.667 37.167 36 60.5s12.5 48.333 12.5 75c0 75.333 -14.333 129.333 -43 162s-70.334 49 -125.001 49h-149v237h149zM688.004 -480.996h-283v564h283v-564z" />
    <glyph glyph-name="uni0499" unicode="&#x499;" horiz-adv-x="927" 
d="M472 647c32.667 0 56.002 10.6602 70.002 31.9932s21 49 21 83c0 14.667 -1.33301 29 -4 43s-7.33398 26.667 -14.001 38s-15.834 20.5 -27.501 27.5s-26.5 10.5 -44.5 10.5c-32.667 0 -58.334 -9.5 -77.001 -28.5s-28 -46.5 -28 -82.5h-283c0 52 9.66699 98.333 29 139
s45.833 75.334 79.5 104.001s73.167 50.5 118.5 65.5s94 22.5 146 22.5c58.667 0 111.834 -6.83301 159.501 -20.5s88.334 -33.667 122.001 -60s59.667 -59.166 78 -98.499s27.5 -84.666 27.5 -135.999c0 -48 -12.333 -92.167 -37 -132.5s-59 -72.5 -103 -96.5
c50.667 -21.333 89.334 -53.166 116.001 -95.499s40 -94.166 40 -155.499c0 -51.333 -10 -97.166 -30 -137.499s-47.833 -74.5 -83.5 -102.5s-78.334 -49.333 -128.001 -64s-103.834 -22 -162.501 -22c-48 0 -95.167 6.66699 -141.5 20s-87.5 33.833 -123.5 61.5
s-65.167 62.834 -87.5 105.501s-33.5 93.667 -33.5 153h283c0 -16 2.16699 -31.333 6.5 -46s11.333 -27.5 21 -38.5s22 -19.833 37 -26.5s33.167 -10 54.5 -10c20 0 36.833 3.66699 50.5 11s24.5 17 32.5 29s13.833 25.833 17.5 41.5s5.5 31.5 5.5 47.5
c0 46.667 -8.83301 80.167 -26.5 100.5s-44.5 30.5 -80.5 30.5h-133v188h133zM614.002 -480.007h-283v564h283v-564z" />
    <glyph glyph-name="uni049A" unicode="&#x49a;" horiz-adv-x="1155" 
d="M541 594h-128v-594h-294v1456h294v-582h99l253 582h358l-356 -678l396 -778h-350zM1282 -357h-283v564h283v-564z" />
    <glyph glyph-name="uni049B" unicode="&#x49b;" horiz-adv-x="1032" 
d="M479 397h-74v-397h-282v1082h282v-406h70l164 406h355l-285 -499l307 -583h-375zM1134 -357h-283v564h283v-564z" />
    <glyph glyph-name="uni049C" unicode="&#x49c;" horiz-adv-x="1201" 
d="M1187 1456l-311 -647l338 -809h-375l-187 589h-30v-227h-160v227h-51v-589h-295v1456h295v-587h51v257h160v-257h17l183 587h365z" />
    <glyph glyph-name="uni049D" unicode="&#x49d;" horiz-adv-x="1105" 
d="M1085 1082l-241 -500l247 -582h-360l-107 397h-25v-169h-143v169h-51v-397h-283v1082h283v-406h51v190h143v-190h27l103 406h356z" />
    <glyph glyph-name="uni049E" unicode="&#x49e;" horiz-adv-x="1175" 
d="M561 594h-128v-594h-294v1098h-148v183h148v175h294v-175h165v-183h-165v-224h99l253 582h358l-356 -678l396 -778h-350z" />
    <glyph glyph-name="uni049F" unicode="&#x49f;" horiz-adv-x="1000" 
d="M482 417l-76 -85v-332h-283v1207h-177v183h177v146h283v-146h147v-183h-147v-501l35 52l196 324h337l-314 -446l344 -636h-324z" />
    <glyph glyph-name="uni04A0" unicode="&#x4a0;" horiz-adv-x="1471" 
d="M858 594h-128v-594h-294v1220h-394v236h688v-582h99l253 582h358l-356 -678l396 -778h-350z" />
    <glyph glyph-name="uni04A1" unicode="&#x4a1;" horiz-adv-x="1299" 
d="M761 397h-74v-397h-282v846h-333v236h615v-406h70l164 406h355l-285 -499l307 -583h-375z" />
    <glyph glyph-name="uni04A2" unicode="&#x4a2;" horiz-adv-x="1257" 
d="M1138 0h-293v623h-434v-623h-294v1456h294v-589h434v589h293v-1456zM1349 -357h-283v564h283v-564z" />
    <glyph glyph-name="uni04A3" unicode="&#x4a3;" horiz-adv-x="1022" 
d="M918 0h-283v415h-249v-415h-284v1082h284v-433h249v433h283v-1082zM1131 -357h-283v564h283v-564z" />
    <glyph glyph-name="uni04A4" unicode="&#x4a4;" horiz-adv-x="1719" 
d="M412 867h434v589h786v-235h-493v-1221h-293v623h-434v-623h-294v1456h294v-589z" />
    <glyph glyph-name="uni04A5" unicode="&#x4a5;" horiz-adv-x="1245" 
d="M383 649h249v433h544v-235h-261v-847h-283v415h-249v-415h-284v1082h284v-433z" />
    <glyph glyph-name="uni04A6" unicode="&#x4a6;" horiz-adv-x="1848" 
d="M1142 834l115.003 0.00292969c78 0 148.5 -12.167 211.5 -36.5s116.833 -60.833 161.5 -109.5s79.167 -109.834 103.5 -183.501s36.5 -159.834 36.5 -258.501c0 -47.333 -3.5 -95 -10.5 -143s-18.167 -93.833 -33.5 -137.5s-35.333 -84.5 -60 -122.5
s-54.5 -70.833 -89.5 -98.5s-75.833 -49.5 -122.5 -65.5s-99.334 -24 -158.001 -24v223c30.667 0 56.667 5.5 78 16.5s39.166 25.833 53.499 44.5s25.5 40 33.5 64s14 49 18 75s6.5 52.167 7.5 78.5s1.5 51.166 1.5 74.499c0 124 -18.833 215.833 -56.5 275.5
s-95.834 89.5 -174.501 89.5h-115v-596h-294v1211h-432v-1211h-294v1456h1020v-622z" />
    <glyph glyph-name="uni04A7" unicode="&#x4a7;" horiz-adv-x="1540" 
d="M917 674l64 -0.000976562c74 0 141.833 -10 203.5 -30s114.667 -50.333 159 -91s78.833 -91.5 103.5 -152.5s37 -132.5 37 -214.5c0.666992 -40 -5.16602 -82.5 -17.499 -127.5s-31.5 -88.833 -57.5 -131.5s-58.667 -82 -98 -118s-86 -65.333 -140 -88l-120 194
c22 14.667 42.167 30.834 60.5 48.501s34 37.5 47 59.5s23.167 46.5 30.5 73.5s11 56.833 11 89.5c0 84.667 -18.833 147.5 -56.5 188.5s-91.834 61.5 -162.501 61.5h-64v-436h-283v846h-251v-846h-284v1082h818v-408z" />
    <glyph glyph-name="uni04A8" unicode="&#x4a8;" horiz-adv-x="1444" 
d="M1345 -13c-130 0 -246.666 22.332 -349.999 66.999c-44 -24 -90.833 -42.5 -140.5 -55.5s-102.5 -19.5 -158.5 -19.5c-89.333 0 -171 17.5 -245 52.5s-137.5 83 -190.5 144s-94.167 132.833 -123.5 215.5s-44 172 -44 268v213c0 85.333 10.833 164.833 32.5 238.5
s52.334 137.667 92.001 192s87.167 97 142.5 128s116.666 46.5 183.999 46.5l-1 -255c-22 0 -41.5 -8.83301 -58.5 -26.5s-31.5 -42 -43.5 -73s-21 -67.833 -27 -110.5s-9 -88.667 -9 -138v-215c0 -61.333 6.5 -118 19.5 -170s32 -97 57 -135s55.5 -67.667 91.5 -89
s77 -32 123 -32c16 0 31.667 1 47 3c-56.667 64.667 -100 138.834 -130 222.501s-45 175.5 -45 275.5v194c0 77.333 8.83301 149.5 26.5 216.5s42.667 125 75 174s71 87.5 116 115.5s95.167 42 150.5 42c60 0 114.5 -14.833 163.5 -44.5s91.167 -71 126.5 -124
s62.666 -116.167 81.999 -189.5s29 -154 29 -242v-165c0 -92 -12.167 -178 -36.5 -258s-58.833 -151.667 -103.5 -215c44.667 -12 94 -18 148 -18v-233zM845.001 731.999c0 -68.667 9.5 -132.168 28.5 -190.501s47.5 -110.166 85.5 -155.499
c26.667 42 47.167 90.5 61.5 145.5s21.5 114.833 21.5 179.5v201c0 59.333 -2.33301 108.833 -7 148.5s-11.5 71.5 -20.5 95.5s-20.167 41 -33.5 51s-28.333 15 -45 15c-14 0 -26.667 -5.33301 -38 -16s-21 -27.667 -29 -51s-14 -53.5 -18 -90.5s-6 -82.167 -6 -135.5v-197z
" />
    <glyph glyph-name="uni04A9" unicode="&#x4a9;" horiz-adv-x="1172" 
d="M1108 -27c-60 0 -114.998 4.5 -164.998 13.5s-96 21.833 -138 38.5c-34 -14.667 -69.833 -26 -107.5 -34s-77.5 -12 -119.5 -12c-74 0 -141.333 14 -202 42s-112.667 66.5 -156 115.5s-76.833 107 -100.5 174s-35.5 139.5 -35.5 217.5v99c0 68 9 130.833 27 188.5
s43.5 107.834 76.5 150.501s72.667 76 119 100s97.833 36 154.5 36v-243c-26.667 -5.33301 -46.334 -28.333 -59.001 -69s-19 -94.334 -19 -161.001v-101c0 -42 4.16699 -81 12.5 -117s20.166 -67.5 35.499 -94.5s34.333 -48.5 57 -64.5s48 -25.333 76 -28
c-26.667 44 -46.5 91.667 -59.5 143s-19.5 105.666 -19.5 162.999v156c0 58.667 7 113.334 21 164.001s34 94.5 60 131.5s57.333 66.167 94 87.5s77.334 32 122.001 32c47.333 0 90.166 -11.833 128.499 -35.5s71 -56.167 98 -97.5s47.833 -90 62.5 -146
s22 -116.667 22 -182v-149c0 -66 -10 -127.5 -30 -184.5s-49 -107.833 -87 -152.5c40 -10 84 -15 132 -15v-166zM692.002 516c0 -39.333 4.83301 -76.5 14.5 -111.5s24.167 -67.5 43.5 -97.5c19.333 25.333 34.333 55 45 89s16 71 16 111v151c0 28 -1.33301 54.167 -4 78.5
s-6.5 45.666 -11.5 63.999s-11.333 32.666 -19 42.999s-16.167 15.5 -25.5 15.5c-8.66699 0 -16.667 -4.83301 -24 -14.5s-13.5 -22.667 -18.5 -39s-9 -35.666 -12 -57.999s-4.5 -46.166 -4.5 -71.499v-160z" />
    <glyph glyph-name="uni04AA" unicode="&#x4aa;" horiz-adv-x="1168" 
d="M1104 485c-7.33301 -166 -54.0039 -291.67 -140.004 -377.003s-207.333 -128 -364 -128c-80.667 0 -152.667 13.333 -216 40s-116.666 66.334 -159.999 119.001s-76.5 117.834 -99.5 195.501s-34.5 167.167 -34.5 268.5v248c0 101.333 11.833 191 35.5 269
s57.834 143.333 102.501 196s98.667 92.5 162 119.5s134.666 40.5 213.999 40.5c158.667 0 279.167 -44.333 361.5 -133s129.166 -216 140.499 -382h-295c-1.33301 52 -5.83301 95.5 -13.5 130.5s-19.5 62.833 -35.5 83.5s-36.833 35.334 -62.5 44.001s-57.5 13 -95.5 13
c-39.333 0 -72.833 -6.66699 -100.5 -20s-50.167 -34.833 -67.5 -64.5s-30.166 -68.667 -38.499 -117s-12.5 -107.5 -12.5 -177.5v-250c0 -68 3.33301 -126 10 -174s18.334 -87.167 35.001 -117.5s38.667 -52.5 66 -66.5s62 -21 104 -21c36 0 66.833 3.83301 92.5 11.5
s46.834 21.167 63.501 40.5s29.334 46 38.001 80s14 77 16 129h294zM738.996 -473.003h-283v564h283v-564z" />
    <glyph glyph-name="uni04AB" unicode="&#x4ab;" horiz-adv-x="942" 
d="M494 215c39.333 0 69.8291 12.168 91.4961 36.501s32.834 65.5 33.501 123.5h266c-0.666992 -61.333 -11 -116.5 -31 -165.5s-47.167 -90.5 -81.5 -124.5s-74.833 -60 -121.5 -78s-97 -27 -151 -27c-72.667 0 -136 11.667 -190 35s-98.833 57.166 -134.5 101.499
s-62.334 98.833 -80.001 163.5s-26.5 138.334 -26.5 221.001v78c0 82.667 8.83301 156.5 26.5 221.5s44.167 119.833 79.5 164.5s80 78.667 134 102s117 35 189 35c58 0 110.833 -9.16699 158.5 -27.5s88.334 -45.333 122.001 -81s59.667 -79.834 78 -132.501
s27.833 -113.667 28.5 -183h-266c-0.666992 60.667 -10.667 107.334 -30 140.001s-51.333 49 -96 49c-31.333 0 -56.166 -6.33301 -74.499 -19s-32.333 -31.167 -42 -55.5s-16 -54.333 -19 -90s-4.5 -76.834 -4.5 -123.501v-78c0 -47.333 1.33301 -88.833 4 -124.5
s8.83398 -65.5 18.501 -89.5s23.834 -42 42.501 -54s44 -18 76 -18zM628.996 -472.999h-283v564h283v-564z" />
    <glyph glyph-name="uni04AC" unicode="&#x4ac;" horiz-adv-x="1112" 
d="M1060 1211h-360v-1211h-295v1211h-354v245h1009v-245zM881 -357h-283v564h283v-564z" />
    <glyph glyph-name="uni04AD" unicode="&#x4ad;" 
d="M882 849h-278v-849h-283v849h-276v233h837v-233zM817 -357h-283v564h283v-564z" />
    <glyph glyph-name="uni04AE" unicode="&#x4ae;" horiz-adv-x="1111" 
d="M556 802l219 654h320l-390 -928v-528h-298v528l-391 928h320z" />
    <glyph glyph-name="uni04AF" unicode="&#x4af;" 
d="M469 408l137 674h295l-296 -1068v-431h-282v442l-294 1057h296z" />
    <glyph glyph-name="uni04B0" unicode="&#x4b0;" horiz-adv-x="1111" 
d="M870 513h-165v-513h-298v513h-144v183h73l-320 760h320l220 -654l219 654h320l-320 -760h95v-183z" />
    <glyph glyph-name="uni04B1" unicode="&#x4b1;" 
d="M778 11h-173v-428h-282v428h-152v183h105l-247 888h296l144 -674l137 674h295l-246 -888h123v-183z" />
    <glyph glyph-name="uni04B2" unicode="&#x4b2;" horiz-adv-x="1146" 
d="M573 956l196 500h337l-342 -722l350 -734h-341l-200 509l-199 -509h-341l350 734l-343 722h337zM1183 -357h-283v564h283v-564z" />
    <glyph glyph-name="uni04B3" unicode="&#x4b3;" horiz-adv-x="927" 
d="M465 761l126 321h300l-247 -529l256 -553h-301l-133 339l-132 -339h-302l256 553l-245 529h301zM959 -357h-283v564h283v-564z" />
    <glyph glyph-name="uni04B4" unicode="&#x4b4;" horiz-adv-x="1598" 
d="M315 1220h-264v236h810v-236h-252v-976h431v1212h295v-1213h179l-20 -594h-274v351h-905v1220z" />
    <glyph glyph-name="uni04B5" unicode="&#x4b5;" horiz-adv-x="1239" 
d="M227 847h-165v235h594v-235h-145v-612h251v847h283v-849h148l-20 -554h-262v321h-684v847z" />
    <glyph glyph-name="uni04B6" unicode="&#x4b6;" horiz-adv-x="1252" 
d="M1133 1456l0.00195312 -1456h-294v549c-18 -4 -37 -7.66699 -57 -11s-39.833 -6 -59.5 -8s-38.5 -3.66699 -56.5 -5s-33.667 -2 -47 -2c-74.667 0 -142.334 9.33301 -203.001 28s-112.5 47.834 -155.5 87.501s-76.167 90 -99.5 151s-35 133.5 -35 217.5v449h295v-449
c0 -46.667 4 -85.5 12 -116.5s20.167 -55.667 36.5 -74s37 -31.166 62 -38.499s54.167 -11 87.5 -11c12.667 0 28 0.5 46 1.5s37 2.66699 57 5s40.167 5.16602 60.5 8.49902s39.166 7 56.499 11v663h294zM1340 -357.001h-283v564h283v-564z" />
    <glyph glyph-name="uni04B7" unicode="&#x4b7;" horiz-adv-x="1003" 
d="M902 0h-284.001v334c-16.667 -3.33301 -33.167 -5.83301 -49.5 -7.5s-32.166 -2.5 -47.499 -2.5c-66 0 -125.667 8 -179 24s-98.833 41 -136.5 75s-66.667 77.167 -87 129.5s-30.5 114.833 -30.5 187.5v342h284v-342c0 -35.333 2.83301 -64.666 8.5 -87.999
s14.5 -41.833 26.5 -55.5s27.5 -23.334 46.5 -29.001s41.5 -8.5 67.5 -8.5c17.333 0 33.833 1 49.5 3s31.5 4.66699 47.5 8v512h284v-1082zM1115 -357h-283v564h283v-564z" />
    <glyph glyph-name="uni04B8" unicode="&#x4b8;" horiz-adv-x="1222" 
d="M682 295h-158v765h158v-765zM1104 1456l0.00195312 -1456h-294v549c-18 -4 -37 -7.66699 -57 -11s-39.833 -6 -59.5 -8s-38.5 -3.66699 -56.5 -5s-33.667 -2 -47 -2c-74.667 0 -142.334 9.33301 -203.001 28s-112.5 47.834 -155.5 87.501s-76.167 90 -99.5 151
s-35 133.5 -35 217.5v449h295v-449c0 -46.667 4 -85.5 12 -116.5s20.167 -55.667 36.5 -74s37 -31.166 62 -38.499s54.167 -11 87.5 -11c12.667 0 28 0.5 46 1.5s37 2.66699 57 5s40.167 5.16602 60.5 8.49902s39.166 7 56.499 11v663h294z" />
    <glyph glyph-name="uni04B9" unicode="&#x4b9;" horiz-adv-x="1008" 
d="M576 177h-158v653h158v-653zM909 0h-284.001v334c-16.667 -3.33301 -33.167 -5.83301 -49.5 -7.5s-32.166 -2.5 -47.499 -2.5c-66 0 -125.667 8 -179 24s-98.833 41 -136.5 75s-66.667 77.167 -87 129.5s-30.5 114.833 -30.5 187.5v342h284v-342
c0 -35.333 2.83301 -64.666 8.5 -87.999s14.5 -41.833 26.5 -55.5s27.5 -23.334 46.5 -29.001s41.5 -8.5 67.5 -8.5c17.333 0 33.833 1 49.5 3s31.5 4.66699 47.5 8v512h284v-1082z" />
    <glyph glyph-name="uni04BA" unicode="&#x4ba;" horiz-adv-x="1261" 
d="M84 0l-0.000976562 1456h294v-550c17.333 4 36.166 7.66699 56.499 11s40.333 6.16602 60 8.49902s38.5 4.16602 56.5 5.49902s33.667 2 47 2c74.667 0 142.334 -9.33301 203.001 -28s112.5 -47.834 155.5 -87.501s76.167 -90 99.5 -151s35 -133.5 35 -217.5v-449h-295
v449c0 46.667 -4 85.5 -12 116.5s-20.167 55.667 -36.5 74s-37 31.166 -62 38.499s-54.167 11 -87.5 11c-13.333 0 -28.833 -0.666992 -46.5 -2s-36.5 -3 -56.5 -5s-40.167 -4.66699 -60.5 -8s-39.166 -7 -56.499 -11v-663h-294z" />
    <glyph glyph-name="uni04BB" unicode="&#x4bb;" horiz-adv-x="1008" 
d="M379 987c29.333 36.667 62.8311 64.998 100.498 84.998s79.5 30 125.5 30c44.667 0 85.667 -7.66699 123 -23s69.333 -39.666 96 -72.999s47.334 -76.666 62.001 -129.999s22 -118.333 22 -195v-681h-284v683c0 34.667 -2.66699 63.667 -8 87s-13.333 42 -24 56
s-23.667 24 -39 30s-33.333 9 -54 9c-28 0 -51.667 -6.33301 -71 -19s-35.666 -30 -48.999 -52v-794h-283v1536h283v-549z" />
    <glyph glyph-name="uni04BC" unicode="&#x4bc;" horiz-adv-x="1348" 
d="M836 -23c-95.333 0 -178.833 15.5039 -250.5 46.5039s-131.5 74.5 -179.5 130.5s-84 122.5 -108 199.5s-36 161.5 -36 253.5v44c-44 8.66699 -83.167 25 -117.5 49s-63 54.5 -86 91.5s-40.5 79.833 -52.5 128.5s-18 102.667 -18 162h193c0 -50 6.5 -92.5 19.5 -127.5
s33.5 -60.833 61.5 -77.5c1.33301 88 15.333 168.667 42 242s63 136.5 109 189.5s99.833 94.167 161.5 123.5s128.167 43.666 199.5 42.999c80 0 150 -16.167 210 -48.5s110.167 -78.333 150.5 -138s70.5 -131.834 90.5 -216.501s30 -179.334 30 -284.001v-162h-700v-19
c0 -50.667 4.66699 -98.167 14 -142.5s24.833 -83 46.5 -116s50.5 -59.167 86.5 -78.5s80.667 -29 134 -29c34.667 0 67 2 97 6s57.5 9.16699 82.5 15.5s47.333 13.166 67 20.499s36.5 14.333 50.5 21l45 -250c-7.33301 -5.33301 -20.333 -12.333 -39 -21
s-42.667 -17.167 -72 -25.5s-63.5 -15.5 -102.5 -21.5s-81.833 -9 -128.5 -9zM774 1209c-36.667 0 -68.667 -8.83203 -96 -26.499s-50 -41.834 -68 -72.501s-31.667 -66.5 -41 -107.5s-14 -84.833 -14 -131.5h406v31c0 42.667 -3 82.667 -9 120s-16.167 69.833 -30.5 97.5
s-33.5 49.5 -57.5 65.5s-54 24 -90 24z" />
    <glyph glyph-name="uni04BD" unicode="&#x4bd;" horiz-adv-x="1073" 
d="M668 -20c-73.333 0 -138.332 10.8311 -194.999 32.498s-104.5 53.334 -143.5 95.001s-69 92.5 -90 152.5s-32.167 128.333 -33.5 205c-83.333 19.333 -147 63.5 -191 132.5s-66 157.167 -66 264.5h173c0 -48 7.16699 -88.667 21.5 -122s36.5 -58.333 66.5 -75
c14 143.333 58.167 252 132.5 326s173.166 111 296.499 111c137.333 0 240.333 -44.333 309 -133s103 -220 103 -394v-129h-563c2 -43.333 7.83301 -79.666 17.5 -108.999s22.834 -53 39.501 -71s36.834 -31 60.501 -39s50.5 -12 80.5 -12c50 0 94.5 8.5 133.5 25.5
s73.5 40.833 103.5 71.5l111 -171c-14 -19.333 -32.333 -38.5 -55 -57.5s-49.334 -36.167 -80.001 -51.5s-65.334 -27.833 -104.001 -37.5s-81 -14.5 -127 -14.5zM637.001 866.998c-49.333 0 -85.167 -17.667 -107.5 -53s-35.5 -92 -39.5 -170h283v26
c-1.33301 64.667 -12 113.667 -32 147s-54.667 50 -104 50z" />
    <glyph glyph-name="uni04BE" unicode="&#x4be;" horiz-adv-x="1348" 
d="M836 -23c-95.333 0 -178.833 15.5039 -250.5 46.5039s-131.5 74.5 -179.5 130.5s-84 122.5 -108 199.5s-36 161.5 -36 253.5v44c-44 8.66699 -83.167 25 -117.5 49s-63 54.5 -86 91.5s-40.5 79.833 -52.5 128.5s-18 102.667 -18 162h193c0 -50 6.5 -92.5 19.5 -127.5
s33.5 -60.833 61.5 -77.5c1.33301 88 15.333 168.667 42 242s63 136.5 109 189.5s99.833 94.167 161.5 123.5s128.167 43.666 199.5 42.999c80 0 150 -16.167 210 -48.5s110.167 -78.333 150.5 -138s70.5 -131.834 90.5 -216.501s30 -179.334 30 -284.001v-162h-700v-19
c0 -50.667 4.66699 -98.167 14 -142.5s24.833 -83 46.5 -116s50.5 -59.167 86.5 -78.5s80.667 -29 134 -29c34.667 0 67 2 97 6s57.5 9.16699 82.5 15.5s47.333 13.166 67 20.499s36.5 14.333 50.5 21l45 -250c-7.33301 -5.33301 -20.333 -12.333 -39 -21
s-42.667 -17.167 -72 -25.5s-63.5 -15.5 -102.5 -21.5s-81.833 -9 -128.5 -9zM774 1209c-36.667 0 -68.667 -8.83203 -96 -26.499s-50 -41.834 -68 -72.501s-31.667 -66.5 -41 -107.5s-14 -84.833 -14 -131.5h406v31c0 42.667 -3 82.667 -9 120s-16.167 69.833 -30.5 97.5
s-33.5 49.5 -57.5 65.5s-54 24 -90 24zM962 -470.995h-283v564h283v-564z" />
    <glyph glyph-name="uni04BF" unicode="&#x4bf;" horiz-adv-x="1073" 
d="M668 -20c-73.333 0 -138.332 10.8311 -194.999 32.498s-104.5 53.334 -143.5 95.001s-69 92.5 -90 152.5s-32.167 128.333 -33.5 205c-83.333 19.333 -147 63.5 -191 132.5s-66 157.167 -66 264.5h173c0 -48 7.16699 -88.667 21.5 -122s36.5 -58.333 66.5 -75
c14 143.333 58.167 252 132.5 326s173.166 111 296.499 111c137.333 0 240.333 -44.333 309 -133s103 -220 103 -394v-129h-563c2 -43.333 7.83301 -79.666 17.5 -108.999s22.834 -53 39.501 -71s36.834 -31 60.501 -39s50.5 -12 80.5 -12c50 0 94.5 8.5 133.5 25.5
s73.5 40.833 103.5 71.5l111 -171c-14 -19.333 -32.333 -38.5 -55 -57.5s-49.334 -36.167 -80.001 -51.5s-65.334 -27.833 -104.001 -37.5s-81 -14.5 -127 -14.5zM637.001 866.998c-49.333 0 -85.167 -17.667 -107.5 -53s-35.5 -92 -39.5 -170h283v26
c-1.33301 64.667 -12 113.667 -32 147s-54.667 50 -104 50zM770 -462.002h-283v564h283v-564z" />
    <glyph glyph-name="uni04C0" unicode="&#x4c0;" horiz-adv-x="554" 
d="M424 0h-294v1456h294v-1456z" />
    <glyph glyph-name="uni04C1" unicode="&#x4c1;" horiz-adv-x="1809" 
d="M1205 591h-139v-591h-294v591h-144l-229 -591h-366l367 798l-351 658h366l237 -585h120v585h294v-585h116l229 585h365l-343 -655l359 -801h-366zM1256 1840c0 -44 -8.16699 -84.167 -24.5 -120.5s-39.5 -67.5 -69.5 -93.5s-66.333 -46.333 -109 -61
s-90.667 -22 -144 -22s-101.5 7.33301 -144.5 22s-79.5 35 -109.5 61s-53.167 57.167 -69.5 93.5s-24.5 76.5 -24.5 120.5h207c0 -17.333 2.5 -33.833 7.5 -49.5s13.167 -29.5 24.5 -41.5s25.833 -21.667 43.5 -29s39.5 -11 65.5 -11c25.333 0 46.833 3.66699 64.5 11
s32 17 43 29s19 25.833 24 41.5s7.5 32.167 7.5 49.5h208z" />
    <glyph glyph-name="uni04C2" unicode="&#x4c2;" horiz-adv-x="1542" 
d="M1013 400h-97v-400h-282v400h-96l-143 -400h-339l265 583l-272 499h350l155 -403h80v403h282v-403h80l157 403h350l-268 -492l267 -590h-347zM1144 1522c0 -44 -8.16699 -84.167 -24.5 -120.5s-39.5 -67.5 -69.5 -93.5s-66.333 -46.333 -109 -61s-90.667 -22 -144 -22
s-101.5 7.33301 -144.5 22s-79.5 35 -109.5 61s-53.167 57.167 -69.5 93.5s-24.5 76.5 -24.5 120.5h207c0 -17.333 2.5 -33.833 7.5 -49.5s13.167 -29.5 24.5 -41.5s25.833 -21.667 43.5 -29s39.5 -11 65.5 -11c25.333 0 46.833 3.66699 64.5 11s32 17 43 29
s19 25.833 24 41.5s7.5 32.167 7.5 49.5h208z" />
    <glyph glyph-name="uni04C3" unicode="&#x4c3;" horiz-adv-x="1175" 
d="M739 822c60 -11.333 113.999 -31.666 161.999 -60.999s88.833 -68 122.5 -116s59.667 -105.167 78 -171.5s27.5 -142.5 27.5 -228.5c0 -46 -3.5 -92.667 -10.5 -140s-18.167 -93 -33.5 -137s-35.5 -85.333 -60.5 -124s-55.333 -72.334 -91 -101.001
s-77.334 -51.334 -125.001 -68.001s-101.834 -25 -162.501 -25l-1 231c30.667 0 56.834 5.66699 78.501 17s39.5 26.333 53.5 45s24.833 40 32.5 64s13.334 49 17.001 75s5.83398 51.5 6.50098 76.5s1 48.167 1 69.5c0.666992 122.667 -17.333 213.334 -54 272.001
s-92 88 -166 88h-203v-588h-295v1456h295v-584h65l261 584h364z" />
    <glyph glyph-name="uni04C4" unicode="&#x4c4;" horiz-adv-x="1043" 
d="M710 597c42 -16 79.832 -36.999 113.499 -62.999s62.334 -57.333 86.001 -94s41.834 -78.667 54.501 -126s19 -100.333 19 -159c0.666992 -39.333 -5.16602 -81.166 -17.499 -125.499s-31.5 -87.5 -57.5 -129.5s-58.667 -80.833 -98 -116.5s-86 -64.5 -140 -86.5
l-120 194c22 14 42.167 29.667 60.5 47s34.166 36.666 47.499 57.999s23.666 45.166 30.999 71.499s11 55.5 11 87.5c-0.666992 78.667 -17.667 137.5 -51 176.5s-81.333 60.833 -144 65.5h-100v-397h-283v1082h283v-406h58l175 406h356z" />
    <glyph glyph-name="uni04C5" unicode="&#x4c5;" horiz-adv-x="1258" 
d="M1138 1456l0.000976562 -1456h-295v1211h-267l-14 -410c-5.33301 -148 -17.666 -272.833 -36.999 -374.5s-46.833 -184.167 -82.5 -247.5s-79.834 -109 -132.501 -137s-114.334 -42 -185.001 -42h-70v244h34c38.667 4.66699 69 16.667 91 36s39 50.166 51 92.499
s20.333 98.166 25 167.499s8.66699 156.333 12 261l21 655h849zM1359 5.00195c0 -38 -5.00098 -76.333 -15.001 -115s-23.667 -76.167 -41 -112.5s-38.166 -70.5 -62.499 -102.5s-50.833 -60.333 -79.5 -85l-151 79l36.5 68c12.333 22.667 23.5 46.667 33.5 72
s18.167 52.833 24.5 82.5s9.5 62.5 9.5 98.5v213h246z" />
    <glyph glyph-name="uni04C6" unicode="&#x4c6;" horiz-adv-x="1024" 
d="M921 1082l0.000976562 -1082h-283v846h-165l-8 -225c-4 -103.333 -12.833 -193.666 -26.5 -270.999s-35.167 -142 -64.5 -194s-68 -91 -116 -117s-108.667 -39 -182 -39h-41l-4 239h25c29.333 0 52 6.83301 68 20.5s27.667 35.5 35 65.5s12.166 69.333 14.499 118
s4.83301 108 7.5 178l17 461h723zM1146 4.99902c0 -38 -5.00098 -76.333 -15.001 -115s-23.667 -76.167 -41 -112.5s-38.166 -70.5 -62.499 -102.5s-50.833 -60.333 -79.5 -85l-151 79l36.5 68c12.333 22.667 23.5 46.667 33.5 72s18.167 52.833 24.5 82.5
s9.5 62.5 9.5 98.5v213h246z" />
    <glyph glyph-name="uni04C7" unicode="&#x4c7;" horiz-adv-x="1260" 
d="M414 1456l0.00195312 -618h430v618h296v-1482c0 -66 -7.83301 -124.667 -23.5 -176s-38.334 -94.333 -68.001 -129s-65.834 -61 -108.501 -79s-90.667 -27 -144 -27c-23.333 0 -45 1.16699 -65 3.5s-41.667 6.83301 -65 13.5l12 240c14 -4 27.333 -7 40 -9s27 -3 43 -3
c27.333 0 48 14.167 62 42.5s21 69.5 21 123.5v620h-430v-594h-294v1456h294z" />
    <glyph glyph-name="uni04C8" unicode="&#x4c8;" horiz-adv-x="1017" 
d="M383 1082l0.00195312 -433.001h249v433h283v-1115c0 -65.333 -7.66699 -123.166 -23 -173.499s-37.5 -92.5 -66.5 -126.5s-64.333 -59.833 -106 -77.5s-88.5 -26.5 -140.5 -26.5c-22.667 0 -43.834 1.16699 -63.501 3.5s-40.5 6.83301 -62.5 13.5l12 231
c13.333 -4 26.666 -7.16699 39.999 -9.5s27.666 -3.5 42.999 -3.5c26.667 0 47.334 14.333 62.001 43s22 70.667 22 126v448h-249v-415h-284v1082h284z" />
    <glyph glyph-name="uni04C9" unicode="&#x4c9;" horiz-adv-x="1257" 
d="M1138 0h-293v623h-434v-623h-294v1456h294v-589h434v589h293v-1456zM1361 5c0 -38 -5.00098 -76.333 -15.001 -115s-23.667 -76.167 -41 -112.5s-38.166 -70.5 -62.499 -102.5s-50.833 -60.333 -79.5 -85l-151 79l36.5 68c12.333 22.667 23.5 46.667 33.5 72
s18.167 52.833 24.5 82.5s9.5 62.5 9.5 98.5v213h246z" />
    <glyph glyph-name="uni04CA" unicode="&#x4ca;" horiz-adv-x="1022" 
d="M918 0h-283v415h-249v-415h-284v1082h284v-433h249v433h283v-1082zM1143 5c0 -38 -5.00098 -76.333 -15.001 -115s-23.667 -76.167 -41 -112.5s-38.166 -70.5 -62.499 -102.5s-50.833 -60.333 -79.5 -85l-151 79l36.5 68c12.333 22.667 23.5 46.667 33.5 72
s18.167 52.833 24.5 82.5s9.5 62.5 9.5 98.5v213h246z" />
    <glyph glyph-name="uni04CB" unicode="&#x4cb;" horiz-adv-x="1252" 
d="M1133 1456l0.00195312 -1456h-294v549c-18 -4 -37 -7.66699 -57 -11s-39.833 -6 -59.5 -8s-38.5 -3.66699 -56.5 -5s-33.667 -2 -47 -2c-74.667 0 -142.334 9.33301 -203.001 28s-112.5 47.834 -155.5 87.501s-76.167 90 -99.5 151s-35 133.5 -35 217.5v449h295v-449
c0 -46.667 4 -85.5 12 -116.5s20.167 -55.667 36.5 -74s37 -31.166 62 -38.499s54.167 -11 87.5 -11c12.667 0 28 0.5 46 1.5s37 2.66699 57 5s40.167 5.16602 60.5 8.49902s39.166 7 56.499 11v663h294zM905.002 -357.001h-283v564h283v-564z" />
    <glyph glyph-name="uni04CC" unicode="&#x4cc;" horiz-adv-x="1003" 
d="M902 0h-284.001v334c-16.667 -3.33301 -33.167 -5.83301 -49.5 -7.5s-32.166 -2.5 -47.499 -2.5c-66 0 -125.667 8 -179 24s-98.833 41 -136.5 75s-66.667 77.167 -87 129.5s-30.5 114.833 -30.5 187.5v342h284v-342c0 -35.333 2.83301 -64.666 8.5 -87.999
s14.5 -41.833 26.5 -55.5s27.5 -23.334 46.5 -29.001s41.5 -8.5 67.5 -8.5c17.333 0 33.833 1 49.5 3s31.5 4.66699 47.5 8v512h284v-1082zM678.999 -357h-283v564h283v-564z" />
    <glyph glyph-name="uni04CD" unicode="&#x4cd;" horiz-adv-x="1553" 
d="M501 1456l275 -1053l274 1053h384v-1456h-295v394l27 607l-291 -1001h-200l-291 1001l27 -607v-394h-294v1456h384zM1653 5c0 -38 -5.00098 -76.333 -15.001 -115s-23.667 -76.167 -41 -112.5s-38.166 -70.5 -62.499 -102.5s-50.833 -60.333 -79.5 -85l-151 79l36.5 68
c12.333 22.667 23.5 46.667 33.5 72s18.167 52.833 24.5 82.5s9.5 62.5 9.5 98.5v213h246z" />
    <glyph glyph-name="uni04CE" unicode="&#x4ce;" horiz-adv-x="1360" 
d="M670 344l203 738h355v-1082h-283v579l-180 -579h-189l-173 560v-560h-282v1082h349zM1453 5c0 -38 -5.00098 -76.333 -15.001 -115s-23.667 -76.167 -41 -112.5s-38.166 -70.5 -62.499 -102.5s-50.833 -60.333 -79.5 -85l-151 79l36.5 68
c12.333 22.667 23.5 46.667 33.5 72s18.167 52.833 24.5 82.5s9.5 62.5 9.5 98.5v213h246z" />
    <glyph glyph-name="uni04CF" unicode="&#x4cf;" horiz-adv-x="554" 
d="M424 0h-294v1456h294v-1456z" />
    <glyph glyph-name="uni04D0" unicode="&#x4d0;" horiz-adv-x="1223" 
d="M812 298h-401l-78 -298h-311l455 1456h269l458 -1456h-314zM475 543h272l-136 519zM962 1837c0 -44 -8.16699 -84.167 -24.5 -120.5s-39.5 -67.5 -69.5 -93.5s-66.333 -46.333 -109 -61s-90.667 -22 -144 -22s-101.5 7.33301 -144.5 22s-79.5 35 -109.5 61
s-53.167 57.167 -69.5 93.5s-24.5 76.5 -24.5 120.5h207c0 -17.333 2.5 -33.833 7.5 -49.5s13.167 -29.5 24.5 -41.5s25.833 -21.667 43.5 -29s39.5 -11 65.5 -11c25.333 0 46.833 3.66699 64.5 11s32 17 43 29s19 25.833 24 41.5s7.5 32.167 7.5 49.5h208z" />
    <glyph glyph-name="uni04D1" unicode="&#x4d1;" horiz-adv-x="964" 
d="M617 0c-5.33301 11.333 -9.83691 24.168 -13.5039 38.501s-7.16699 29.5 -10.5 45.5c-21.333 -29.333 -48.833 -54 -82.5 -74s-74.834 -30 -123.501 -30c-44 0 -85.167 7.66699 -123.5 23s-71.666 37 -99.999 65s-50.666 61.833 -66.999 101.5s-24.5 84.167 -24.5 133.5
c0 54.667 8.83301 104.167 26.5 148.5s44.334 82 80.001 113s80.334 54.833 134.001 71.5s116.834 25 189.501 25h77v87c0 48.667 -8.33301 83 -25 103s-41 30 -73 30c-36.667 0 -63.5 -10.833 -80.5 -32.5s-25.5 -52.167 -25.5 -91.5h-283
c0 47.333 9.16699 91.833 27.5 133.5s44.833 78.167 79.5 109.5s76.334 56.166 125.001 74.499s103.667 27.5 165 27.5c54 0 103.667 -6.83301 149 -20.5s84.666 -35 117.999 -64s59.333 -66 78 -111s28 -99.167 28 -162.5v-480c0 -31.333 0.833008 -59.166 2.5 -83.499
s4.16699 -46.333 7.5 -66s7.5 -37.334 12.5 -53.001s10.833 -30.5 17.5 -44.5v-17h-285zM449.996 202.002c31.333 0 58 6.33203 80 18.999s38.333 27.667 49 45v225h-67c-26.667 0 -49.667 -4.33301 -69 -13s-35.5 -20.667 -48.5 -36s-22.667 -33.333 -29 -54
s-9.5 -42.667 -9.5 -66c0 -39.333 8.16699 -69.166 24.5 -89.499s39.5 -30.5 69.5 -30.5zM825.996 1527c0 -44 -8.16699 -84.167 -24.5 -120.5s-39.5 -67.5 -69.5 -93.5s-66.333 -46.333 -109 -61s-90.667 -22 -144 -22s-101.5 7.33301 -144.5 22s-79.5 35 -109.5 61
s-53.167 57.167 -69.5 93.5s-24.5 76.5 -24.5 120.5h207c0 -17.333 2.5 -33.833 7.5 -49.5s13.167 -29.5 24.5 -41.5s25.833 -21.667 43.5 -29s39.5 -11 65.5 -11c25.333 0 46.833 3.66699 64.5 11s32 17 43 29s19 25.833 24 41.5s7.5 32.167 7.5 49.5h208z" />
    <glyph glyph-name="uni04D2" unicode="&#x4d2;" horiz-adv-x="1223" 
d="M812 298h-401l-78 -298h-311l455 1456h269l458 -1456h-314zM475 543h272l-136 519zM229 1675c0 18 3.5 34.833 10.5 50.5s16.667 29.167 29 40.5s27 20.333 44 27s35.5 10 55.5 10s38.5 -3.33301 55.5 -10s31.667 -15.667 44 -27s22 -24.833 29 -40.5
s10.5 -32.5 10.5 -50.5s-3.5 -34.667 -10.5 -50s-16.667 -28.666 -29 -39.999s-27 -20.333 -44 -27s-35.5 -10 -55.5 -10s-38.5 3.33301 -55.5 10s-31.667 15.667 -44 27s-22 24.666 -29 39.999s-10.5 32 -10.5 50zM718 1675c0 18 3.5 34.667 10.5 50
s16.667 28.666 29 39.999s27 20.333 44 27s35.5 10 55.5 10s38.5 -3.33301 55.5 -10s31.667 -15.667 44 -27s22 -24.666 29 -39.999s10.5 -32 10.5 -50s-3.5 -34.667 -10.5 -50s-16.667 -28.833 -29 -40.5s-27 -20.667 -44 -27s-35.5 -9.5 -55.5 -9.5
s-38.5 3.16699 -55.5 9.5s-31.667 15.333 -44 27s-22 25.167 -29 40.5s-10.5 32 -10.5 50z" />
    <glyph glyph-name="uni04D3" unicode="&#x4d3;" horiz-adv-x="964" 
d="M617 0c-5.33301 11.333 -9.83691 24.168 -13.5039 38.501s-7.16699 29.5 -10.5 45.5c-21.333 -29.333 -48.833 -54 -82.5 -74s-74.834 -30 -123.501 -30c-44 0 -85.167 7.66699 -123.5 23s-71.666 37 -99.999 65s-50.666 61.833 -66.999 101.5s-24.5 84.167 -24.5 133.5
c0 54.667 8.83301 104.167 26.5 148.5s44.334 82 80.001 113s80.334 54.833 134.001 71.5s116.834 25 189.501 25h77v87c0 48.667 -8.33301 83 -25 103s-41 30 -73 30c-36.667 0 -63.5 -10.833 -80.5 -32.5s-25.5 -52.167 -25.5 -91.5h-283
c0 47.333 9.16699 91.833 27.5 133.5s44.833 78.167 79.5 109.5s76.334 56.166 125.001 74.499s103.667 27.5 165 27.5c54 0 103.667 -6.83301 149 -20.5s84.666 -35 117.999 -64s59.333 -66 78 -111s28 -99.167 28 -162.5v-480c0 -31.333 0.833008 -59.166 2.5 -83.499
s4.16699 -46.333 7.5 -66s7.5 -37.334 12.5 -53.001s10.833 -30.5 17.5 -44.5v-17h-285zM449.996 202.002c31.333 0 58 6.33203 80 18.999s38.333 27.667 49 45v225h-67c-26.667 0 -49.667 -4.33301 -69 -13s-35.5 -20.667 -48.5 -36s-22.667 -33.333 -29 -54
s-9.5 -42.667 -9.5 -66c0 -39.333 8.16699 -69.166 24.5 -89.499s39.5 -30.5 69.5 -30.5zM92.9961 1365c0 18 3.5 34.833 10.5 50.5s16.667 29.167 29 40.5s27 20.333 44 27s35.5 10 55.5 10s38.5 -3.33301 55.5 -10s31.667 -15.667 44 -27s22 -24.833 29 -40.5
s10.5 -32.5 10.5 -50.5s-3.5 -34.667 -10.5 -50s-16.667 -28.666 -29 -39.999s-27 -20.333 -44 -27s-35.5 -10 -55.5 -10s-38.5 3.33301 -55.5 10s-31.667 15.667 -44 27s-22 24.666 -29 39.999s-10.5 32 -10.5 50zM581.996 1365c0 18 3.5 34.667 10.5 50
s16.667 28.666 29 39.999s27 20.333 44 27s35.5 10 55.5 10s38.5 -3.33301 55.5 -10s31.667 -15.667 44 -27s22 -24.666 29 -39.999s10.5 -32 10.5 -50s-3.5 -34.667 -10.5 -50s-16.667 -28.833 -29 -40.5s-27 -20.667 -44 -27s-35.5 -9.5 -55.5 -9.5
s-38.5 3.16699 -55.5 9.5s-31.667 15.333 -44 27s-22 25.167 -29 40.5s-10.5 32 -10.5 50z" />
    <glyph glyph-name="uni04D4" unicode="&#x4d4;" horiz-adv-x="1674" 
d="M1602 0h-778l-12 333h-333l-132 -333h-332l643 1456h892v-238h-485l13 -352h404v-238h-396l13 -390h503v-238zM577 582h226l-18 524z" />
    <glyph glyph-name="uni04D5" unicode="&#x4d5;" horiz-adv-x="1491" 
d="M1063 -20c-70.667 0 -132.831 11.833 -186.498 35.5s-99.5 57.167 -137.5 100.5c-15.333 -18 -33.666 -35.333 -54.999 -52s-45.5 -31.167 -72.5 -43.5s-56.833 -22.166 -89.5 -29.499s-68.334 -11 -107.001 -11c-55.333 0 -104.5 8 -147.5 24s-79 38.667 -108 68
s-51 65 -66 107s-22.5 88.667 -22.5 140c0 106 36 187.667 108 245s178.667 86 320 86h116v55c0 50.667 -9.66699 90.334 -29 119.001s-46.333 43 -81 43c-38 0 -67.667 -12 -89 -36s-32 -53 -32 -87l-282 19c0 48.667 9.66699 93.834 29 135.501s46.666 77.5 81.999 107.5
s78 53.5 128 70.5s105.667 25.5 167 25.5c56 0 106.667 -7.83301 152 -23.5s84.666 -39.167 117.999 -70.5c34 30.667 73 54.167 117 70.5s93.333 24.166 148 23.499c60.667 0 115.167 -11.333 163.5 -34s89.166 -55.334 122.499 -98.001s58.833 -94.167 76.5 -154.5
s26.5 -128.166 26.5 -203.499v-163h-540c2.66699 -34 8.5 -65.5 17.5 -94.5s21.667 -53.833 38 -74.5s36.5 -36.834 60.5 -48.501s52.667 -17.5 86 -17.5c28.667 0 54.334 2.16699 77.001 6.5s43.5 10.166 62.5 17.499s36.667 15.5 53 24.5s32.5 18.5 48.5 28.5l72 -191
c-14 -14 -32.667 -28 -56 -42s-49.833 -26.833 -79.5 -38.5s-62.167 -21.167 -97.5 -28.5s-72.333 -11 -111 -11zM471.003 193c23.333 0 48.168 6.50098 74.501 19.501s49.5 28.833 69.5 47.5v200h-114c-24 0 -45 -4 -63 -12s-33.333 -18.667 -46 -32
s-22.167 -28.833 -28.5 -46.5s-9.5 -35.834 -9.5 -54.501c0 -36.667 9.16699 -66.167 27.5 -88.5s48.166 -33.5 89.499 -33.5zM1043 867.001c-24.667 0 -45.832 -5.5 -63.499 -16.5s-32.5 -26.333 -44.5 -46s-21.333 -43.167 -28 -70.5s-11.334 -57.333 -14.001 -90h262v28
c0 58 -8.83301 105 -26.5 141s-46.167 54 -85.5 54z" />
    <glyph glyph-name="uni04D6" unicode="&#x4d6;" horiz-adv-x="1005" 
d="M869 630h-458v-386h542v-244h-836v1456h834v-245h-540v-344h458v-237zM904 1840c0 -44 -8.16699 -84.167 -24.5 -120.5s-39.5 -67.5 -69.5 -93.5s-66.333 -46.333 -109 -61s-90.667 -22 -144 -22s-101.5 7.33301 -144.5 22s-79.5 35 -109.5 61s-53.167 57.167 -69.5 93.5
s-24.5 76.5 -24.5 120.5h207c0 -17.333 2.5 -33.833 7.5 -49.5s13.167 -29.5 24.5 -41.5s25.833 -21.667 43.5 -29s39.5 -11 65.5 -11c25.333 0 46.833 3.66699 64.5 11s32 17 43 29s19 25.833 24 41.5s7.5 32.167 7.5 49.5h208z" />
    <glyph glyph-name="uni04D7" unicode="&#x4d7;" horiz-adv-x="980" 
d="M540 -20c-74 0 -139.669 11.3291 -197.002 33.9961s-105.666 55.334 -144.999 98.001s-69.166 94.834 -89.499 156.501s-30.5 131.834 -30.5 210.501v89c0 88 9.83301 165.167 29.5 231.5s48 122 85 167s82.333 78.833 136 101.5s114.5 34 182.5 34
c137.333 0 240.333 -44.333 309 -133s103 -220 103 -394v-129h-563c2 -43.333 7.83301 -79.666 17.5 -108.999s22.834 -53 39.501 -71s36.834 -31 60.501 -39s50.5 -12 80.5 -12c50 0 94.5 8.5 133.5 25.5s73.5 40.833 103.5 71.5l111 -171
c-14 -19.333 -32.333 -38.5 -55 -57.5s-49.334 -36.167 -80.001 -51.5s-65.334 -27.833 -104.001 -37.5s-81 -14.5 -127 -14.5zM508.998 866.996c-49.333 0 -85.167 -17.667 -107.5 -53s-35.5 -92 -39.5 -170h283v26c-1.33301 64.667 -12 113.667 -32 147
s-54.667 50 -104 50zM820.997 1527c0 -44 -8.16699 -84.167 -24.5 -120.5s-39.5 -67.5 -69.5 -93.5s-66.333 -46.333 -109 -61s-90.667 -22 -144 -22s-101.5 7.33301 -144.5 22s-79.5 35 -109.5 61s-53.167 57.167 -69.5 93.5s-24.5 76.5 -24.5 120.5h207
c0 -17.333 2.5 -33.833 7.5 -49.5s13.167 -29.5 24.5 -41.5s25.833 -21.667 43.5 -29s39.5 -11 65.5 -11c25.333 0 46.833 3.66699 64.5 11s32 17 43 29s19 25.833 24 41.5s7.5 32.167 7.5 49.5h208z" />
    <glyph glyph-name="uni04D8" unicode="&#x4d8;" horiz-adv-x="1231" 
d="M523 1476c101.333 0 190.169 -16.6641 266.502 -49.9971s140.166 -79.833 191.499 -139.5s89.833 -131 115.5 -214s38.5 -173.833 38.5 -272.5v-150c0 -66 -6.16699 -128.333 -18.5 -187s-30 -112.834 -53 -162.501s-50.667 -94.334 -83 -134.001
s-68.333 -73.334 -108 -101.001s-82.334 -49 -128.001 -64s-93.5 -22.167 -143.5 -21.5c-88 0 -165.167 16 -231.5 48s-121.666 77.667 -165.999 137s-77.666 131.166 -99.999 215.499s-33.5 178.833 -33.5 283.5v164h769c-1.33301 53.333 -7.83301 103.333 -19.5 150
s-29.834 87.167 -54.501 121.5s-56.834 61.5 -96.501 81.5s-88.167 30 -145.5 30c-36.667 0 -70.834 -2 -102.501 -6s-60.667 -9.16699 -87 -15.5s-50 -13.166 -71 -20.499s-39.167 -14.333 -54.5 -21l-44 250c7.33301 5.33301 21 12.5 41 21.5s45.333 17.667 76 26
s66.334 15.5 107.001 21.5s85.667 9 135 9zM601.003 244.003c36 0 67.832 8.66699 95.499 26s51.334 41 71.001 71s35.334 65.667 47.001 107s19.167 86 22.5 134h-474v-31c0 -42.667 3.83301 -82.667 11.5 -120s20.667 -69.833 39 -97.5s42.666 -49.5 72.999 -65.5
s68.5 -24 114.5 -24z" />
    <glyph glyph-name="uni04D9" unicode="&#x4d9;" horiz-adv-x="959" 
d="M452 1103c70 0 132.499 -13.668 187.499 -41.001s101.333 -64.666 139 -111.999s66.334 -103.333 86.001 -168s29.5 -134.334 29.5 -209.001v-39c0 -79.333 -9.33301 -152.833 -28 -220.5s-45.834 -126.167 -81.501 -175.5s-79.167 -88 -130.5 -116
s-110 -41.667 -176 -41c-65.333 0 -122.5 11.5 -171.5 34.5s-90.167 55.833 -123.5 98.5s-58.333 94.167 -75 154.5s-25 127.5 -25 201.5v164h525c-3.33301 32.667 -9.33301 63.167 -18 91.5s-20.5 53 -35.5 74s-33.5 37.667 -55.5 50s-48 18.5 -78 18.5
c-29.333 0 -55.166 -2 -77.499 -6s-43 -9.5 -62 -16.5s-37 -15.167 -54 -24.5s-34.167 -19.333 -51.5 -30l-75 188c16 16 35.833 31.333 59.5 46s50.5 27.834 80.5 39.501s62.667 21 98 28s73 10.5 113 10.5zM477.999 215.999c20 0 37.5 5.5 52.5 16.5
s27.667 26.167 38 45.5s18.5 42.5 24.5 69.5s10.667 56.167 14 87.5h-247v-25c0 -28.667 2 -55 6 -79s10.667 -44.5 20 -61.5s21.5 -30.167 36.5 -39.5s33.5 -14 55.5 -14z" />
    <glyph glyph-name="uni04DA" unicode="&#x4da;" horiz-adv-x="1231" 
d="M523 1476c101.333 0 190.169 -16.6641 266.502 -49.9971s140.166 -79.833 191.499 -139.5s89.833 -131 115.5 -214s38.5 -173.833 38.5 -272.5v-150c0 -66 -6.16699 -128.333 -18.5 -187s-30 -112.834 -53 -162.501s-50.667 -94.334 -83 -134.001
s-68.333 -73.334 -108 -101.001s-82.334 -49 -128.001 -64s-93.5 -22.167 -143.5 -21.5c-88 0 -165.167 16 -231.5 48s-121.666 77.667 -165.999 137s-77.666 131.166 -99.999 215.499s-33.5 178.833 -33.5 283.5v164h769c-1.33301 53.333 -7.83301 103.333 -19.5 150
s-29.834 87.167 -54.501 121.5s-56.834 61.5 -96.501 81.5s-88.167 30 -145.5 30c-36.667 0 -70.834 -2 -102.501 -6s-60.667 -9.16699 -87 -15.5s-50 -13.166 -71 -20.499s-39.167 -14.333 -54.5 -21l-44 250c7.33301 5.33301 21 12.5 41 21.5s45.333 17.667 76 26
s66.334 15.5 107.001 21.5s85.667 9 135 9zM601.003 244.003c36 0 67.832 8.66699 95.499 26s51.334 41 71.001 71s35.334 65.667 47.001 107s19.167 86 22.5 134h-474v-31c0 -42.667 3.83301 -82.667 11.5 -120s20.667 -69.833 39 -97.5s42.666 -49.5 72.999 -65.5
s68.5 -24 114.5 -24zM180.002 1631c0 18 3.5 34.833 10.5 50.5s16.667 29.167 29 40.5s27 20.333 44 27s35.5 10 55.5 10s38.5 -3.33301 55.5 -10s31.667 -15.667 44 -27s22 -24.833 29 -40.5s10.5 -32.5 10.5 -50.5s-3.5 -34.667 -10.5 -50s-16.667 -28.666 -29 -39.999
s-27 -20.333 -44 -27s-35.5 -10 -55.5 -10s-38.5 3.33301 -55.5 10s-31.667 15.667 -44 27s-22 24.666 -29 39.999s-10.5 32 -10.5 50zM669.002 1631c0 18 3.5 34.667 10.5 50s16.667 28.666 29 39.999s27 20.333 44 27s35.5 10 55.5 10s38.5 -3.33301 55.5 -10
s31.667 -15.667 44 -27s22 -24.666 29 -39.999s10.5 -32 10.5 -50s-3.5 -34.667 -10.5 -50s-16.667 -28.833 -29 -40.5s-27 -20.667 -44 -27s-35.5 -9.5 -55.5 -9.5s-38.5 3.16699 -55.5 9.5s-31.667 15.333 -44 27s-22 25.167 -29 40.5s-10.5 32 -10.5 50z" />
    <glyph glyph-name="uni04DB" unicode="&#x4db;" horiz-adv-x="959" 
d="M452 1103c70 0 132.499 -13.668 187.499 -41.001s101.333 -64.666 139 -111.999s66.334 -103.333 86.001 -168s29.5 -134.334 29.5 -209.001v-39c0 -79.333 -9.33301 -152.833 -28 -220.5s-45.834 -126.167 -81.501 -175.5s-79.167 -88 -130.5 -116
s-110 -41.667 -176 -41c-65.333 0 -122.5 11.5 -171.5 34.5s-90.167 55.833 -123.5 98.5s-58.333 94.167 -75 154.5s-25 127.5 -25 201.5v164h525c-3.33301 32.667 -9.33301 63.167 -18 91.5s-20.5 53 -35.5 74s-33.5 37.667 -55.5 50s-48 18.5 -78 18.5
c-29.333 0 -55.166 -2 -77.499 -6s-43 -9.5 -62 -16.5s-37 -15.167 -54 -24.5s-34.167 -19.333 -51.5 -30l-75 188c16 16 35.833 31.333 59.5 46s50.5 27.834 80.5 39.501s62.667 21 98 28s73 10.5 113 10.5zM477.999 215.999c20 0 37.5 5.5 52.5 16.5
s27.667 26.167 38 45.5s18.5 42.5 24.5 69.5s10.667 56.167 14 87.5h-247v-25c0 -28.667 2 -55 6 -79s10.667 -44.5 20 -61.5s21.5 -30.167 36.5 -39.5s33.5 -14 55.5 -14zM90.999 1366c0 18 3.5 34.833 10.5 50.5s16.667 29.167 29 40.5s27 20.333 44 27s35.5 10 55.5 10
s38.5 -3.33301 55.5 -10s31.667 -15.667 44 -27s22 -24.833 29 -40.5s10.5 -32.5 10.5 -50.5s-3.5 -34.667 -10.5 -50s-16.667 -28.666 -29 -39.999s-27 -20.333 -44 -27s-35.5 -10 -55.5 -10s-38.5 3.33301 -55.5 10s-31.667 15.667 -44 27s-22 24.666 -29 39.999
s-10.5 32 -10.5 50zM579.999 1366c0 18 3.5 34.667 10.5 50s16.667 28.666 29 39.999s27 20.333 44 27s35.5 10 55.5 10s38.5 -3.33301 55.5 -10s31.667 -15.667 44 -27s22 -24.666 29 -39.999s10.5 -32 10.5 -50s-3.5 -34.667 -10.5 -50s-16.667 -28.833 -29 -40.5
s-27 -20.667 -44 -27s-35.5 -9.5 -55.5 -9.5s-38.5 3.16699 -55.5 9.5s-31.667 15.333 -44 27s-22 25.167 -29 40.5s-10.5 32 -10.5 50z" />
    <glyph glyph-name="uni04DC" unicode="&#x4dc;" horiz-adv-x="1809" 
d="M1205 591h-139v-591h-294v591h-144l-229 -591h-366l367 798l-351 658h366l237 -585h120v585h294v-585h116l229 585h365l-343 -655l359 -801h-366zM523 1678c0 18 3.5 34.833 10.5 50.5s16.667 29.167 29 40.5s27 20.333 44 27s35.5 10 55.5 10s38.5 -3.33301 55.5 -10
s31.667 -15.667 44 -27s22 -24.833 29 -40.5s10.5 -32.5 10.5 -50.5s-3.5 -34.667 -10.5 -50s-16.667 -28.666 -29 -39.999s-27 -20.333 -44 -27s-35.5 -10 -55.5 -10s-38.5 3.33301 -55.5 10s-31.667 15.667 -44 27s-22 24.666 -29 39.999s-10.5 32 -10.5 50zM1012 1678
c0 18 3.5 34.667 10.5 50s16.667 28.666 29 39.999s27 20.333 44 27s35.5 10 55.5 10s38.5 -3.33301 55.5 -10s31.667 -15.667 44 -27s22 -24.666 29 -39.999s10.5 -32 10.5 -50s-3.5 -34.667 -10.5 -50s-16.667 -28.833 -29 -40.5s-27 -20.667 -44 -27
s-35.5 -9.5 -55.5 -9.5s-38.5 3.16699 -55.5 9.5s-31.667 15.333 -44 27s-22 25.167 -29 40.5s-10.5 32 -10.5 50z" />
    <glyph glyph-name="uni04DD" unicode="&#x4dd;" horiz-adv-x="1542" 
d="M1013 400h-97v-400h-282v400h-96l-143 -400h-339l265 583l-272 499h350l155 -403h80v403h282v-403h80l157 403h350l-268 -492l267 -590h-347zM411 1360c0 18 3.5 34.833 10.5 50.5s16.667 29.167 29 40.5s27 20.333 44 27s35.5 10 55.5 10s38.5 -3.33301 55.5 -10
s31.667 -15.667 44 -27s22 -24.833 29 -40.5s10.5 -32.5 10.5 -50.5s-3.5 -34.667 -10.5 -50s-16.667 -28.666 -29 -39.999s-27 -20.333 -44 -27s-35.5 -10 -55.5 -10s-38.5 3.33301 -55.5 10s-31.667 15.667 -44 27s-22 24.666 -29 39.999s-10.5 32 -10.5 50zM900 1360
c0 18 3.5 34.667 10.5 50s16.667 28.666 29 39.999s27 20.333 44 27s35.5 10 55.5 10s38.5 -3.33301 55.5 -10s31.667 -15.667 44 -27s22 -24.666 29 -39.999s10.5 -32 10.5 -50s-3.5 -34.667 -10.5 -50s-16.667 -28.833 -29 -40.5s-27 -20.667 -44 -27
s-35.5 -9.5 -55.5 -9.5s-38.5 3.16699 -55.5 9.5s-31.667 15.333 -44 27s-22 25.167 -29 40.5s-10.5 32 -10.5 50z" />
    <glyph glyph-name="uni04DE" unicode="&#x4de;" horiz-adv-x="1109" 
d="M551 861c52.667 0 90.6709 17.5039 114.004 52.5039s35 82.167 35 141.5c0 23.333 -3.33301 45.666 -10 66.999s-16.667 40 -30 56s-30.5 28.833 -51.5 38.5s-45.5 14.5 -73.5 14.5c-21.333 0 -41.333 -3.83301 -60 -11.5s-34.834 -18.834 -48.501 -33.501
s-24.334 -32.5 -32.001 -53.5s-11.5 -44.833 -11.5 -71.5h-294c0 64.667 12 122.5 36 173.5s56.333 94.333 97 130s88 63 142 82s111 28.5 171 28.5c70 0 133.333 -8.83301 190 -26.5s105 -43.834 145 -78.501s70.833 -77.834 92.5 -129.501s32.5 -111.5 32.5 -179.5
c0 -66.667 -16.833 -127.5 -50.5 -182.5s-79.834 -98.5 -138.501 -130.5c66.667 -28 118 -70.5 154 -127.5s54 -127.833 54 -212.5c0 -68 -11.833 -128.5 -35.5 -181.5s-56.834 -97.667 -99.501 -134s-93.167 -64 -151.5 -83s-122.5 -28.5 -192.5 -28.5
c-56.667 0 -112.667 8 -168 24s-105 41.167 -149 75.5s-79.5 78.166 -106.5 131.499s-40.5 117.333 -40.5 192h295c0 -25.333 4.16699 -49 12.5 -71s19.833 -41.167 34.5 -57.5s32.334 -29.166 53.001 -38.499s43.667 -14 69 -14c28.667 0 54.5 4.83301 77.5 14.5
s42.333 23 58 40s27.667 37.167 36 60.5s12.5 48.333 12.5 75c0 75.333 -14.333 129.333 -43 162s-70.334 49 -125.001 49h-149v237h149zM154.004 1683c0 18 3.5 34.833 10.5 50.5s16.667 29.167 29 40.5s27 20.333 44 27s35.5 10 55.5 10s38.5 -3.33301 55.5 -10
s31.667 -15.667 44 -27s22 -24.833 29 -40.5s10.5 -32.5 10.5 -50.5s-3.5 -34.667 -10.5 -50s-16.667 -28.666 -29 -39.999s-27 -20.333 -44 -27s-35.5 -10 -55.5 -10s-38.5 3.33301 -55.5 10s-31.667 15.667 -44 27s-22 24.666 -29 39.999s-10.5 32 -10.5 50zM643.004 1683
c0 18 3.5 34.667 10.5 50s16.667 28.666 29 39.999s27 20.333 44 27s35.5 10 55.5 10s38.5 -3.33301 55.5 -10s31.667 -15.667 44 -27s22 -24.666 29 -39.999s10.5 -32 10.5 -50s-3.5 -34.667 -10.5 -50s-16.667 -28.833 -29 -40.5s-27 -20.667 -44 -27
s-35.5 -9.5 -55.5 -9.5s-38.5 3.16699 -55.5 9.5s-31.667 15.333 -44 27s-22 25.167 -29 40.5s-10.5 32 -10.5 50z" />
    <glyph glyph-name="uni04DF" unicode="&#x4df;" horiz-adv-x="927" 
d="M472 647c32.667 0 56.002 10.6602 70.002 31.9932s21 49 21 83c0 14.667 -1.33301 29 -4 43s-7.33398 26.667 -14.001 38s-15.834 20.5 -27.501 27.5s-26.5 10.5 -44.5 10.5c-32.667 0 -58.334 -9.5 -77.001 -28.5s-28 -46.5 -28 -82.5h-283c0 52 9.66699 98.333 29 139
s45.833 75.334 79.5 104.001s73.167 50.5 118.5 65.5s94 22.5 146 22.5c58.667 0 111.834 -6.83301 159.501 -20.5s88.334 -33.667 122.001 -60s59.667 -59.166 78 -98.499s27.5 -84.666 27.5 -135.999c0 -48 -12.333 -92.167 -37 -132.5s-59 -72.5 -103 -96.5
c50.667 -21.333 89.334 -53.166 116.001 -95.499s40 -94.166 40 -155.499c0 -51.333 -10 -97.166 -30 -137.499s-47.833 -74.5 -83.5 -102.5s-78.334 -49.333 -128.001 -64s-103.834 -22 -162.501 -22c-48 0 -95.167 6.66699 -141.5 20s-87.5 33.833 -123.5 61.5
s-65.167 62.834 -87.5 105.501s-33.5 93.667 -33.5 153h283c0 -16 2.16699 -31.333 6.5 -46s11.333 -27.5 21 -38.5s22 -19.833 37 -26.5s33.167 -10 54.5 -10c20 0 36.833 3.66699 50.5 11s24.5 17 32.5 29s13.833 25.833 17.5 41.5s5.5 31.5 5.5 47.5
c0 46.667 -8.83301 80.167 -26.5 100.5s-44.5 30.5 -80.5 30.5h-133v188h133zM88.002 1364.99c0 18 3.5 34.833 10.5 50.5s16.667 29.167 29 40.5s27 20.333 44 27s35.5 10 55.5 10s38.5 -3.33301 55.5 -10s31.667 -15.667 44 -27s22 -24.833 29 -40.5
s10.5 -32.5 10.5 -50.5s-3.5 -34.667 -10.5 -50s-16.667 -28.666 -29 -39.999s-27 -20.333 -44 -27s-35.5 -10 -55.5 -10s-38.5 3.33301 -55.5 10s-31.667 15.667 -44 27s-22 24.666 -29 39.999s-10.5 32 -10.5 50zM577.002 1364.99c0 18 3.5 34.667 10.5 50
s16.667 28.666 29 39.999s27 20.333 44 27s35.5 10 55.5 10s38.5 -3.33301 55.5 -10s31.667 -15.667 44 -27s22 -24.666 29 -39.999s10.5 -32 10.5 -50s-3.5 -34.667 -10.5 -50s-16.667 -28.833 -29 -40.5s-27 -20.667 -44 -27s-35.5 -9.5 -55.5 -9.5
s-38.5 3.16699 -55.5 9.5s-31.667 15.333 -44 27s-22 25.167 -29 40.5s-10.5 32 -10.5 50z" />
    <glyph glyph-name="uni04E0" unicode="&#x4e0;" horiz-adv-x="1037" 
d="M619 1211l-479.001 -0.000976562v245h816l1 -201l-298 -387c103.333 -23.333 183.5 -73.833 240.5 -151.5s85.5 -180.5 85.5 -308.5c0 -68 -11.5 -128.667 -34.5 -182s-55.333 -98.333 -97 -135s-91 -64.5 -148 -83.5s-119.5 -28.5 -187.5 -28.5
c-54 0 -107.167 8.16699 -159.5 24.5s-99.166 41.666 -140.499 75.999s-74.833 78.333 -100.5 132s-38.5 117.834 -38.5 192.501h295c0 -25.333 3.33301 -49 10 -71s16.167 -41.167 28.5 -57.5s27.5 -29.166 45.5 -38.499s38 -14 60 -14c27.333 0 51.833 4.83301 73.5 14.5
s40 23 55 40s26.333 37.167 34 60.5s11.5 48.333 11.5 75c0 96 -18.333 164.833 -55 206.5s-90 62.5 -160 62.5h-117v188z" />
    <glyph glyph-name="uni04E1" unicode="&#x4e1;" horiz-adv-x="1039" 
d="M948 1082l1.00195 -192.998l-299 -397c105.333 -22 186.666 -71.833 243.999 -149.5s86 -180.834 86 -309.501c0 -68 -11.5 -128.5 -34.5 -181.5s-55 -97.833 -96 -134.5s-89.833 -64.5 -146.5 -83.5s-118.667 -28.5 -186 -28.5c-53.333 0 -106 8.16699 -158 24.5
s-98.5 41.666 -139.5 75.999s-74.167 78.333 -99.5 132s-38 117.5 -38 191.5h284c0 -26 3.5 -50.5 10.5 -73.5s17 -43 30 -60s28.833 -30.5 47.5 -40.5s39.667 -15 63 -15c28.667 0 54.167 5.16699 76.5 15.5s41.166 24.333 56.499 42s27 38.5 35 62.5s12 50 12 78
c0 96.667 -17.833 166 -53.5 208s-89.167 63 -160.5 63h-124v184l258 353h-483v236h814z" />
    <glyph glyph-name="uni04E2" unicode="&#x4e2;" horiz-adv-x="1241" 
d="M830 1456h294v-1456h-294v964l-429 -964h-295v1456h295v-965zM934 1601h-631v167h631v-167z" />
    <glyph glyph-name="uni04E3" unicode="&#x4e3;" horiz-adv-x="1023" 
d="M638 1082h282v-1082h-282v665l-252 -665h-284v1082h284v-664zM835 1283h-631v167h631v-167z" />
    <glyph glyph-name="uni04E4" unicode="&#x4e4;" horiz-adv-x="1241" 
d="M830 1456h294v-1456h-294v964l-429 -964h-295v1456h295v-965zM231 1678c0 18 3.5 34.833 10.5 50.5s16.667 29.167 29 40.5s27 20.333 44 27s35.5 10 55.5 10s38.5 -3.33301 55.5 -10s31.667 -15.667 44 -27s22 -24.833 29 -40.5s10.5 -32.5 10.5 -50.5
s-3.5 -34.667 -10.5 -50s-16.667 -28.666 -29 -39.999s-27 -20.333 -44 -27s-35.5 -10 -55.5 -10s-38.5 3.33301 -55.5 10s-31.667 15.667 -44 27s-22 24.666 -29 39.999s-10.5 32 -10.5 50zM720 1678c0 18 3.5 34.667 10.5 50s16.667 28.666 29 39.999s27 20.333 44 27
s35.5 10 55.5 10s38.5 -3.33301 55.5 -10s31.667 -15.667 44 -27s22 -24.666 29 -39.999s10.5 -32 10.5 -50s-3.5 -34.667 -10.5 -50s-16.667 -28.833 -29 -40.5s-27 -20.667 -44 -27s-35.5 -9.5 -55.5 -9.5s-38.5 3.16699 -55.5 9.5s-31.667 15.333 -44 27
s-22 25.167 -29 40.5s-10.5 32 -10.5 50z" />
    <glyph glyph-name="uni04E5" unicode="&#x4e5;" horiz-adv-x="1023" 
d="M638 1082h282v-1082h-282v665l-252 -665h-284v1082h284v-664zM132 1360c0 18 3.5 34.833 10.5 50.5s16.667 29.167 29 40.5s27 20.333 44 27s35.5 10 55.5 10s38.5 -3.33301 55.5 -10s31.667 -15.667 44 -27s22 -24.833 29 -40.5s10.5 -32.5 10.5 -50.5
s-3.5 -34.667 -10.5 -50s-16.667 -28.666 -29 -39.999s-27 -20.333 -44 -27s-35.5 -10 -55.5 -10s-38.5 3.33301 -55.5 10s-31.667 15.667 -44 27s-22 24.666 -29 39.999s-10.5 32 -10.5 50zM621 1360c0 18 3.5 34.667 10.5 50s16.667 28.666 29 39.999s27 20.333 44 27
s35.5 10 55.5 10s38.5 -3.33301 55.5 -10s31.667 -15.667 44 -27s22 -24.666 29 -39.999s10.5 -32 10.5 -50s-3.5 -34.667 -10.5 -50s-16.667 -28.833 -29 -40.5s-27 -20.667 -44 -27s-35.5 -9.5 -55.5 -9.5s-38.5 3.16699 -55.5 9.5s-31.667 15.333 -44 27
s-22 25.167 -29 40.5s-10.5 32 -10.5 50z" />
    <glyph glyph-name="uni04E6" unicode="&#x4e6;" horiz-adv-x="1236" 
d="M1142 597c0 -102 -12.665 -191.667 -37.998 -269s-60.833 -141.666 -106.5 -192.999s-100.667 -90 -165 -116s-135.5 -39 -213.5 -39s-149.333 13 -214 39s-120.167 64.667 -166.5 116s-82.333 115.666 -108 192.999s-38.5 167 -38.5 269v242
c0 104.667 12.667 196.834 38 276.501s61 146.167 107 199.5s101.333 93.5 166 120.5s136 40.5 214 40.5s149.167 -13.5 213.5 -40.5s119.666 -67.167 165.999 -120.5s82.166 -119.833 107.499 -199.5s38 -171.834 38 -276.501v-242zM847.002 841
c0 69.333 -4.99805 128.5 -14.998 177.5s-24.667 89.167 -44 120.5s-43.333 54.333 -72 69s-61.667 22 -99 22c-38 0 -71.333 -7.33301 -100 -22s-52.667 -37.667 -72 -69s-34 -71.5 -44 -120.5s-15 -108.167 -15 -177.5v-244c0 -66 5 -122.5 15 -169.5
s24.833 -85.5 44.5 -115.5s44 -52 73 -66s62.5 -21 100.5 -21c37.333 0 70.166 7 98.499 21s52.166 36 71.499 66s33.833 68.5 43.5 115.5s14.5 103.5 14.5 169.5v244zM233.004 1675c0 18 3.5 34.833 10.5 50.5s16.667 29.167 29 40.5s27 20.333 44 27s35.5 10 55.5 10
s38.5 -3.33301 55.5 -10s31.667 -15.667 44 -27s22 -24.833 29 -40.5s10.5 -32.5 10.5 -50.5s-3.5 -34.667 -10.5 -50s-16.667 -28.666 -29 -39.999s-27 -20.333 -44 -27s-35.5 -10 -55.5 -10s-38.5 3.33301 -55.5 10s-31.667 15.667 -44 27s-22 24.666 -29 39.999
s-10.5 32 -10.5 50zM722.004 1675c0 18 3.5 34.667 10.5 50s16.667 28.666 29 39.999s27 20.333 44 27s35.5 10 55.5 10s38.5 -3.33301 55.5 -10s31.667 -15.667 44 -27s22 -24.666 29 -39.999s10.5 -32 10.5 -50s-3.5 -34.667 -10.5 -50s-16.667 -28.833 -29 -40.5
s-27 -20.667 -44 -27s-35.5 -9.5 -55.5 -9.5s-38.5 3.16699 -55.5 9.5s-31.667 15.333 -44 27s-22 25.167 -29 40.5s-10.5 32 -10.5 50z" />
    <glyph glyph-name="uni04E7" unicode="&#x4e7;" horiz-adv-x="1019" 
d="M70 576c0 84.667 10.332 159.667 30.999 225s50 120.333 88 165s83.833 78.5 137.5 101.5s113.834 34.5 180.501 34.5c67.333 0 128 -11.5 182 -34.5s100 -56.833 138 -101.5s67.333 -99.667 88 -165s31 -140.333 31 -225v-71c0 -85.333 -10.167 -160.5 -30.5 -225.5
s-49.5 -119.833 -87.5 -164.5s-84 -78.334 -138 -101.001s-114.333 -34 -181 -34c-67.333 0 -128 11.333 -182 34s-100 56.334 -138 101.001s-67.333 99.5 -88 164.5s-31 140.167 -31 225.5v71zM353.999 505c0 -100.667 13.667 -174.167 41 -220.5s65.333 -69.5 114 -69.5
c51.333 0 90 23.167 116 69.5s39 119.833 39 220.5v71c0 98.667 -13.667 171.834 -41 219.501s-66 71.5 -116 71.5c-48 0 -85.5 -23.833 -112.5 -71.5s-40.5 -120.834 -40.5 -219.501v-71zM116.999 1365c0 18 3.5 34.833 10.5 50.5s16.667 29.167 29 40.5s27 20.333 44 27
s35.5 10 55.5 10s38.5 -3.33301 55.5 -10s31.667 -15.667 44 -27s22 -24.833 29 -40.5s10.5 -32.5 10.5 -50.5s-3.5 -34.667 -10.5 -50s-16.667 -28.666 -29 -39.999s-27 -20.333 -44 -27s-35.5 -10 -55.5 -10s-38.5 3.33301 -55.5 10s-31.667 15.667 -44 27
s-22 24.666 -29 39.999s-10.5 32 -10.5 50zM605.999 1365c0 18 3.5 34.667 10.5 50s16.667 28.666 29 39.999s27 20.333 44 27s35.5 10 55.5 10s38.5 -3.33301 55.5 -10s31.667 -15.667 44 -27s22 -24.666 29 -39.999s10.5 -32 10.5 -50s-3.5 -34.667 -10.5 -50
s-16.667 -28.833 -29 -40.5s-27 -20.667 -44 -27s-35.5 -9.5 -55.5 -9.5s-38.5 3.16699 -55.5 9.5s-31.667 15.333 -44 27s-22 25.167 -29 40.5s-10.5 32 -10.5 50z" />
    <glyph glyph-name="uni04E8" unicode="&#x4e8;" horiz-adv-x="1232" 
d="M1147 597c0 -102 -12.665 -191.667 -37.998 -269s-60.833 -141.666 -106.5 -192.999s-100.667 -90 -165 -116s-135.5 -39 -213.5 -39s-149.333 13 -214 39s-120.167 64.667 -166.5 116s-82.333 115.666 -108 192.999s-38.5 167 -38.5 269v242
c0 104.667 12.667 196.834 38 276.501s61 146.167 107 199.5s101.333 93.5 166 120.5s136 40.5 214 40.5s149.167 -13.5 213.5 -40.5s119.666 -67.167 165.999 -120.5s82.166 -119.833 107.499 -199.5s38 -171.834 38 -276.501v-242zM852.002 640h-460.998v-43
c0 -66 5 -122.5 15 -169.5s24.833 -85.5 44.5 -115.5s44 -52 73 -66s62.5 -21 100.5 -21c37.333 0 70.166 7 98.499 21s52.166 36 71.499 66s33.833 68.5 43.5 115.5s14.5 103.5 14.5 169.5v43zM391.004 824h461v17c0 69.333 -5 128.5 -15 177.5s-24.667 89.167 -44 120.5
s-43.333 54.333 -72 69s-61.667 22 -99 22c-38 0 -71.333 -7.33301 -100 -22s-52.667 -37.667 -72 -69s-34 -71.5 -44 -120.5s-15 -108.167 -15 -177.5v-17z" />
    <glyph glyph-name="uni04E9" unicode="&#x4e9;" horiz-adv-x="1012" 
d="M68 576c0 84.667 10.332 159.667 30.999 225s50 120.333 88 165s83.833 78.5 137.5 101.5s113.834 34.5 180.501 34.5c67.333 0 128 -11.5 182 -34.5s100 -56.833 138 -101.5s67.333 -99.667 88 -165s31 -140.333 31 -225v-71c0 -85.333 -10.167 -160.5 -30.5 -225.5
s-49.5 -119.833 -87.5 -164.5s-84 -78.334 -138 -101.001s-114.333 -34 -181 -34c-67.333 0 -128 11.333 -182 34s-100 56.334 -138 101.001s-67.333 99.5 -88 164.5s-31 140.167 -31 225.5v71zM504.999 867c-43.333 0 -78.167 -19.5 -104.5 -58.5
s-42.166 -98.833 -47.499 -179.5h307c-5.33301 80.667 -21.333 140.5 -48 179.5s-62.334 58.5 -107.001 58.5zM506.998 215c46 0 81.832 18.332 107.499 54.999s40.834 95.334 45.501 176.001h-307c5.33301 -80 21.5 -138.5 48.5 -175.5s62.167 -55.5 105.5 -55.5z" />
    <glyph glyph-name="uni04EA" unicode="&#x4ea;" horiz-adv-x="1232" 
d="M1147 597c0 -102 -12.665 -191.667 -37.998 -269s-60.833 -141.666 -106.5 -192.999s-100.667 -90 -165 -116s-135.5 -39 -213.5 -39s-149.333 13 -214 39s-120.167 64.667 -166.5 116s-82.333 115.666 -108 192.999s-38.5 167 -38.5 269v242
c0 104.667 12.667 196.834 38 276.501s61 146.167 107 199.5s101.333 93.5 166 120.5s136 40.5 214 40.5s149.167 -13.5 213.5 -40.5s119.666 -67.167 165.999 -120.5s82.166 -119.833 107.499 -199.5s38 -171.834 38 -276.501v-242zM852.002 640h-460.998v-43
c0 -66 5 -122.5 15 -169.5s24.833 -85.5 44.5 -115.5s44 -52 73 -66s62.5 -21 100.5 -21c37.333 0 70.166 7 98.499 21s52.166 36 71.499 66s33.833 68.5 43.5 115.5s14.5 103.5 14.5 169.5v43zM391.004 824h461v17c0 69.333 -5 128.5 -15 177.5s-24.667 89.167 -44 120.5
s-43.333 54.333 -72 69s-61.667 22 -99 22c-38 0 -71.333 -7.33301 -100 -22s-52.667 -37.667 -72 -69s-34 -71.5 -44 -120.5s-15 -108.167 -15 -177.5v-17zM246.004 1677c0 18 3.5 34.833 10.5 50.5s16.667 29.167 29 40.5s27 20.333 44 27s35.5 10 55.5 10
s38.5 -3.33301 55.5 -10s31.667 -15.667 44 -27s22 -24.833 29 -40.5s10.5 -32.5 10.5 -50.5s-3.5 -34.667 -10.5 -50s-16.667 -28.666 -29 -39.999s-27 -20.333 -44 -27s-35.5 -10 -55.5 -10s-38.5 3.33301 -55.5 10s-31.667 15.667 -44 27s-22 24.666 -29 39.999
s-10.5 32 -10.5 50zM735.004 1677c0 18 3.5 34.667 10.5 50s16.667 28.666 29 39.999s27 20.333 44 27s35.5 10 55.5 10s38.5 -3.33301 55.5 -10s31.667 -15.667 44 -27s22 -24.666 29 -39.999s10.5 -32 10.5 -50s-3.5 -34.667 -10.5 -50s-16.667 -28.833 -29 -40.5
s-27 -20.667 -44 -27s-35.5 -9.5 -55.5 -9.5s-38.5 3.16699 -55.5 9.5s-31.667 15.333 -44 27s-22 25.167 -29 40.5s-10.5 32 -10.5 50z" />
    <glyph glyph-name="uni04EB" unicode="&#x4eb;" horiz-adv-x="1012" 
d="M68 576c0 84.667 10.332 159.667 30.999 225s50 120.333 88 165s83.833 78.5 137.5 101.5s113.834 34.5 180.501 34.5c67.333 0 128 -11.5 182 -34.5s100 -56.833 138 -101.5s67.333 -99.667 88 -165s31 -140.333 31 -225v-71c0 -85.333 -10.167 -160.5 -30.5 -225.5
s-49.5 -119.833 -87.5 -164.5s-84 -78.334 -138 -101.001s-114.333 -34 -181 -34c-67.333 0 -128 11.333 -182 34s-100 56.334 -138 101.001s-67.333 99.5 -88 164.5s-31 140.167 -31 225.5v71zM504.999 867c-43.333 0 -78.167 -19.5 -104.5 -58.5
s-42.166 -98.833 -47.499 -179.5h307c-5.33301 80.667 -21.333 140.5 -48 179.5s-62.334 58.5 -107.001 58.5zM506.998 215c46 0 81.832 18.332 107.499 54.999s40.834 95.334 45.501 176.001h-307c5.33301 -80 21.5 -138.5 48.5 -175.5s62.167 -55.5 105.5 -55.5z
M112.997 1372c0 18 3.5 34.833 10.5 50.5s16.667 29.167 29 40.5s27 20.333 44 27s35.5 10 55.5 10s38.5 -3.33301 55.5 -10s31.667 -15.667 44 -27s22 -24.833 29 -40.5s10.5 -32.5 10.5 -50.5s-3.5 -34.667 -10.5 -50s-16.667 -28.666 -29 -39.999s-27 -20.333 -44 -27
s-35.5 -10 -55.5 -10s-38.5 3.33301 -55.5 10s-31.667 15.667 -44 27s-22 24.666 -29 39.999s-10.5 32 -10.5 50zM601.997 1372c0 18 3.5 34.667 10.5 50s16.667 28.666 29 39.999s27 20.333 44 27s35.5 10 55.5 10s38.5 -3.33301 55.5 -10s31.667 -15.667 44 -27
s22 -24.666 29 -39.999s10.5 -32 10.5 -50s-3.5 -34.667 -10.5 -50s-16.667 -28.833 -29 -40.5s-27 -20.667 -44 -27s-35.5 -9.5 -55.5 -9.5s-38.5 3.16699 -55.5 9.5s-31.667 15.333 -44 27s-22 25.167 -29 40.5s-10.5 32 -10.5 50z" />
    <glyph glyph-name="uni04EC" unicode="&#x4ec;" horiz-adv-x="1158" 
d="M353 485c4.66699 -86.667 22.834 -152.169 54.501 -196.502s83.5 -66.5 155.5 -66.5c76.667 0 131.834 32.167 165.501 96.5s52.834 159.833 57.501 286.5h-355v245h354c-5.33301 128.667 -26.666 224.334 -63.999 287.001s-91.333 94 -162 94
c-38 0 -69.833 -6 -95.5 -18s-46.334 -29.5 -62.001 -52.5s-27.334 -51.333 -35.001 -85s-12.5 -72.167 -14.5 -115.5h-295c6 74.667 20.667 143.5 44 206.5s55.833 117.5 97.5 163.5s92.334 81.833 152.001 107.5s129.167 38.5 208.5 38.5s151.166 -16.5 215.499 -49.5
s119.166 -80 164.499 -141s80.333 -134.833 105 -221.5s37 -184 37 -292v-93c0 -108 -11.833 -205 -35.5 -291s-57.834 -159.333 -102.501 -220s-99 -107.167 -163 -139.5s-136.333 -48.5 -217 -48.5c-78 0 -147.333 12.333 -208 37s-112.167 59.334 -154.5 104.001
s-75.5 98 -99.5 160s-38 130 -42 204h294zM178 1683c0 18 3.5 34.833 10.5 50.5s16.667 29.167 29 40.5s27 20.333 44 27s35.5 10 55.5 10s38.5 -3.33301 55.5 -10s31.667 -15.667 44 -27s22 -24.833 29 -40.5s10.5 -32.5 10.5 -50.5s-3.5 -34.667 -10.5 -50
s-16.667 -28.666 -29 -39.999s-27 -20.333 -44 -27s-35.5 -10 -55.5 -10s-38.5 3.33301 -55.5 10s-31.667 15.667 -44 27s-22 24.666 -29 39.999s-10.5 32 -10.5 50zM667 1683c0 18 3.5 34.667 10.5 50s16.667 28.666 29 39.999s27 20.333 44 27s35.5 10 55.5 10
s38.5 -3.33301 55.5 -10s31.667 -15.667 44 -27s22 -24.666 29 -39.999s10.5 -32 10.5 -50s-3.5 -34.667 -10.5 -50s-16.667 -28.833 -29 -40.5s-27 -20.667 -44 -27s-35.5 -9.5 -55.5 -9.5s-38.5 3.16699 -55.5 9.5s-31.667 15.333 -44 27s-22 25.167 -29 40.5
s-10.5 32 -10.5 50z" />
    <glyph glyph-name="uni04ED" unicode="&#x4ed;" 
d="M443 867c-39.333 0 -68.333 -14.498 -87 -43.498s-28 -67.833 -28 -116.5h-266c0 57.333 9.66699 110.166 29 158.499s46 90 80 125s74.333 62.333 121 82s97 29.5 151 29.5c70.667 0 132.667 -14.167 186 -42.5s98 -67.166 134 -116.499s63 -107.333 81 -174
s27 -138.334 27 -215.001v-28c0 -76.667 -9 -148.167 -27 -214.5s-45 -124 -81 -173s-80.667 -87.667 -134 -116s-115.333 -42.5 -186 -42.5c-57.333 0 -109.333 9.66699 -156 29s-86.667 47.333 -120 84s-59.166 81.167 -77.499 133.5s-27.5 111.166 -27.5 176.499h266
c0 -26 2.16699 -50.5 6.5 -73.5s11.333 -43 21 -60s21.667 -30.5 36 -40.5s31.5 -15 51.5 -15c24.667 0 45.667 6.33301 63 19s31.666 30 42.999 52s19.833 47.667 25.5 77s9.5 60.666 11.5 93.999h-197v177h196c-2 32.667 -5.83301 63.334 -11.5 92.001s-14 53.5 -25 74.5
s-25.167 37.5 -42.5 49.5s-38.333 18 -63 18zM71 1365c0 18 3.5 34.833 10.5 50.5s16.667 29.167 29 40.5s27 20.333 44 27s35.5 10 55.5 10s38.5 -3.33301 55.5 -10s31.667 -15.667 44 -27s22 -24.833 29 -40.5s10.5 -32.5 10.5 -50.5s-3.5 -34.667 -10.5 -50
s-16.667 -28.666 -29 -39.999s-27 -20.333 -44 -27s-35.5 -10 -55.5 -10s-38.5 3.33301 -55.5 10s-31.667 15.667 -44 27s-22 24.666 -29 39.999s-10.5 32 -10.5 50zM560 1365c0 18 3.5 34.667 10.5 50s16.667 28.666 29 39.999s27 20.333 44 27s35.5 10 55.5 10
s38.5 -3.33301 55.5 -10s31.667 -15.667 44 -27s22 -24.666 29 -39.999s10.5 -32 10.5 -50s-3.5 -34.667 -10.5 -50s-16.667 -28.833 -29 -40.5s-27 -20.667 -44 -27s-35.5 -9.5 -55.5 -9.5s-38.5 3.16699 -55.5 9.5s-31.667 15.333 -44 27s-22 25.167 -29 40.5
s-10.5 32 -10.5 50z" />
    <glyph glyph-name="uni04EE" unicode="&#x4ee;" horiz-adv-x="1128" 
d="M577 809l196 646.997h316l-399 -1170c-16 -40.667 -33.5 -79.5 -52.5 -116.5s-41.833 -69.667 -68.5 -98s-58.167 -50.833 -94.5 -67.5s-79.5 -25 -129.5 -25h-22.5c-8.33301 0 -16.833 0.166992 -25.5 0.5s-16.834 0.833008 -24.501 1.5s-14.167 1.33398 -19.5 2.00098
l-5 244c3.33301 -1.33301 8 -2.16602 14 -2.49902s12.333 -0.666016 19 -0.999023s12.834 -0.5 18.501 -0.5h13.5c23.333 0 42.5 3 57.5 9s27.167 14.833 36.5 26.5s17 26 23 43s11.667 36.5 17 58.5l14 53l-416 1043h315zM904 1601h-631v167h631v-167z" />
    <glyph glyph-name="uni04EF" unicode="&#x4ef;" horiz-adv-x="914" 
d="M450 471l143.998 611.003h302l-356 -1244c-8 -27.333 -18.833 -57 -32.5 -89s-32.167 -61.833 -55.5 -89.5s-52.333 -50.667 -87 -69s-76.667 -27.5 -126 -27.5c-12.667 0 -23.834 0.5 -33.501 1.5s-18.667 2.16699 -27 3.5s-16.833 3.16602 -25.5 5.49902l-30 8.5v221
c5.33301 -0.666992 10.833 -1 16.5 -1h16.5c22.667 0 42.334 2.16699 59.001 6.5s30.834 11.166 42.501 20.499s21.334 21.166 29.001 35.499s14.167 31.5 19.5 51.5l22 73l-312 1093h304zM776.998 1289h-631v167h631v-167z" />
    <glyph glyph-name="uni04F0" unicode="&#x4f0;" horiz-adv-x="1128" 
d="M577 809l196 646.997h316l-399 -1170c-16 -40.667 -33.5 -79.5 -52.5 -116.5s-41.833 -69.667 -68.5 -98s-58.167 -50.833 -94.5 -67.5s-79.5 -25 -129.5 -25h-22.5c-8.33301 0 -16.833 0.166992 -25.5 0.5s-16.834 0.833008 -24.501 1.5s-14.167 1.33398 -19.5 2.00098
l-5 244c3.33301 -1.33301 8 -2.16602 14 -2.49902s12.333 -0.666016 19 -0.999023s12.834 -0.5 18.501 -0.5h13.5c23.333 0 42.5 3 57.5 9s27.167 14.833 36.5 26.5s17 26 23 43s11.667 36.5 17 58.5l14 53l-416 1043h315zM201 1678c0 18 3.5 34.833 10.5 50.5
s16.667 29.167 29 40.5s27 20.333 44 27s35.5 10 55.5 10s38.5 -3.33301 55.5 -10s31.667 -15.667 44 -27s22 -24.833 29 -40.5s10.5 -32.5 10.5 -50.5s-3.5 -34.667 -10.5 -50s-16.667 -28.666 -29 -39.999s-27 -20.333 -44 -27s-35.5 -10 -55.5 -10
s-38.5 3.33301 -55.5 10s-31.667 15.667 -44 27s-22 24.666 -29 39.999s-10.5 32 -10.5 50zM690 1678c0 18 3.5 34.667 10.5 50s16.667 28.666 29 39.999s27 20.333 44 27s35.5 10 55.5 10s38.5 -3.33301 55.5 -10s31.667 -15.667 44 -27s22 -24.666 29 -39.999
s10.5 -32 10.5 -50s-3.5 -34.667 -10.5 -50s-16.667 -28.833 -29 -40.5s-27 -20.667 -44 -27s-35.5 -9.5 -55.5 -9.5s-38.5 3.16699 -55.5 9.5s-31.667 15.333 -44 27s-22 25.167 -29 40.5s-10.5 32 -10.5 50z" />
    <glyph glyph-name="uni04F1" unicode="&#x4f1;" horiz-adv-x="914" 
d="M450 471l143.998 611.003h302l-356 -1244c-8 -27.333 -18.833 -57 -32.5 -89s-32.167 -61.833 -55.5 -89.5s-52.333 -50.667 -87 -69s-76.667 -27.5 -126 -27.5c-12.667 0 -23.834 0.5 -33.501 1.5s-18.667 2.16699 -27 3.5s-16.833 3.16602 -25.5 5.49902l-30 8.5v221
c5.33301 -0.666992 10.833 -1 16.5 -1h16.5c22.667 0 42.334 2.16699 59.001 6.5s30.834 11.166 42.501 20.499s21.334 21.166 29.001 35.499s14.167 31.5 19.5 51.5l22 73l-312 1093h304zM73.998 1365c0 18 3.5 34.833 10.5 50.5s16.667 29.167 29 40.5s27 20.333 44 27
s35.5 10 55.5 10s38.5 -3.33301 55.5 -10s31.667 -15.667 44 -27s22 -24.833 29 -40.5s10.5 -32.5 10.5 -50.5s-3.5 -34.667 -10.5 -50s-16.667 -28.666 -29 -39.999s-27 -20.333 -44 -27s-35.5 -10 -55.5 -10s-38.5 3.33301 -55.5 10s-31.667 15.667 -44 27
s-22 24.666 -29 39.999s-10.5 32 -10.5 50zM562.998 1365c0 18 3.5 34.667 10.5 50s16.667 28.666 29 39.999s27 20.333 44 27s35.5 10 55.5 10s38.5 -3.33301 55.5 -10s31.667 -15.667 44 -27s22 -24.666 29 -39.999s10.5 -32 10.5 -50s-3.5 -34.667 -10.5 -50
s-16.667 -28.833 -29 -40.5s-27 -20.667 -44 -27s-35.5 -9.5 -55.5 -9.5s-38.5 3.16699 -55.5 9.5s-31.667 15.333 -44 27s-22 25.167 -29 40.5s-10.5 32 -10.5 50z" />
    <glyph glyph-name="uni04F2" unicode="&#x4f2;" horiz-adv-x="1128" 
d="M577 809l196 646.997h316l-399 -1170c-16 -40.667 -33.5 -79.5 -52.5 -116.5s-41.833 -69.667 -68.5 -98s-58.167 -50.833 -94.5 -67.5s-79.5 -25 -129.5 -25h-22.5c-8.33301 0 -16.833 0.166992 -25.5 0.5s-16.834 0.833008 -24.501 1.5s-14.167 1.33398 -19.5 2.00098
l-5 244c3.33301 -1.33301 8 -2.16602 14 -2.49902s12.333 -0.666016 19 -0.999023s12.834 -0.5 18.501 -0.5h13.5c23.333 0 42.5 3 57.5 9s27.167 14.833 36.5 26.5s17 26 23 43s11.667 36.5 17 58.5l14 53l-416 1043h315zM805 1848h247l-220 -301h-207zM458 1848h244
l-191 -301h-202z" />
    <glyph glyph-name="uni04F3" unicode="&#x4f3;" horiz-adv-x="914" 
d="M450 471l143.998 611.003h302l-356 -1244c-8 -27.333 -18.833 -57 -32.5 -89s-32.167 -61.833 -55.5 -89.5s-52.333 -50.667 -87 -69s-76.667 -27.5 -126 -27.5c-12.667 0 -23.834 0.5 -33.501 1.5s-18.667 2.16699 -27 3.5s-16.833 3.16602 -25.5 5.49902l-30 8.5v221
c5.33301 -0.666992 10.833 -1 16.5 -1h16.5c22.667 0 42.334 2.16699 59.001 6.5s30.834 11.166 42.501 20.499s21.334 21.166 29.001 35.499s14.167 31.5 19.5 51.5l22 73l-312 1093h304zM676.998 1535h247l-220 -301h-207zM329.998 1535h244l-191 -301h-202z" />
    </font>
</defs>
</svg>
