<?xml version="1.0" standalone="no"?>
<!DOCTYPE svg PUBLIC "-//W3C//DTD SVG 1.1//EN" "http://www.w3.org/Graphics/SVG/1.1/DTD/svg11.dtd" >
<svg>
<metadata>
Created by FontForge 20090914 at Mon Jul 11 08:46:16 2016
 By www-data
Font data copyright Google 2014
</metadata>
<defs>
<font id="Roboto-Italic" horiz-adv-x="1426" >
  <font-face 
    font-family="Roboto"
    font-weight="400"
    font-style="italic"
    font-stretch="normal"
    units-per-em="2048"
    panose-1="0 0 0 0 0 0 0 0 0 0"
    ascent="1536"
    descent="-512"
    x-height="1082"
    cap-height="1456"
    bbox="-1370 -471.998 2380 1927.99"
    underline-thickness="100"
    underline-position="-100"
    unicode-range="U+0002-U+04FF"
  />
<missing-glyph horiz-adv-x="502" 
 />
    <glyph glyph-name="fi" unicode="fi" horiz-adv-x="1110" 
d="M91 0l163 939.003h-166l25 143l166 1l13 93c8 60 23.833 113.833 47.5 161.5s54.167 88 91.5 121s81.166 58.167 131.499 75.5s106.166 25.666 167.499 24.999c48 -1.33301 94.5 -8 139.5 -20s89.833 -25.667 134.5 -41l-44 -158c-35.333 16 -71.666 28.667 -108.999 38
s-75.666 14.333 -114.999 15c-74 1.33301 -133.333 -16.334 -178 -53.001s-72.667 -91.334 -84 -164.001l-14 -94h215l-25 -143h-214l-163 -939h-182zM841 0.00292969h-182l188 1082h182z" />
    <glyph glyph-name=".notdef" horiz-adv-x="502" 
 />
    <glyph glyph-name="NULL" horiz-adv-x="0" 
 />
    <glyph glyph-name="NULL" horiz-adv-x="0" 
 />
    <glyph glyph-name="uni0002" horiz-adv-x="10" 
 />
    <glyph glyph-name="uni0009" unicode="&#x9;" horiz-adv-x="10" 
 />
    <glyph glyph-name="nonmarkingreturn" unicode="&#xd;" horiz-adv-x="502" 
 />
    <glyph glyph-name="space" unicode=" " horiz-adv-x="502" 
 />
    <glyph glyph-name="exclam" unicode="!" horiz-adv-x="521" 
d="M305 411h-164l169 1045h190zM67 90c0.666992 31.333 10.667 57.168 30 77.501s45 31.166 77 32.499c15.333 0.666992 29.5 -1.5 42.5 -6.5s24.167 -12.167 33.5 -21.5s16.666 -20.5 21.999 -33.5s8 -27.167 8 -42.5c0 -31.333 -10 -56.833 -30 -76.5
s-45.667 -30.167 -77 -31.5c-15.333 -0.666992 -29.5 1.33301 -42.5 6s-24.167 11.5 -33.5 20.5s-16.666 20 -21.999 33s-8 27.167 -8 42.5z" />
    <glyph glyph-name="quotedbl" unicode="&#x22;" horiz-adv-x="645" 
d="M393 1390l-83 -348l-110 -1l61 382l19 121l136 -9zM655 1390l-83 -348h-110l62 388l18 114l136 -9z" />
    <glyph glyph-name="numbersign" unicode="#" horiz-adv-x="1247" 
d="M659 410h-250l-149 -410h-145l149 410h-230l25 137h254l129 354h-249l25 139h273l153 416h144l-152 -416h250l153 416h145l-152 -416h196l-25 -139h-221l-129 -354h217l-25 -137h-240l-150 -410h-145zM457 547h251l128 354h-250z" />
    <glyph glyph-name="dollar" unicode="$" horiz-adv-x="1126" 
d="M795 382c4 36 0.335938 67.8359 -10.9971 95.5029s-27.666 51.834 -48.999 72.501s-46.166 38.667 -74.499 54s-57.5 28.666 -87.5 39.999c-49.333 18.667 -95.5 40.667 -138.5 66s-79.833 55 -110.5 89s-53.834 73.333 -69.501 118s-21.5 96 -17.5 154
s16.833 110.167 38.5 156.5s50.167 86.5 85.5 120.5s76.666 61.5 123.999 82.5s99 35.167 155 42.5l39 219h146l-40 -222c57.333 -11.333 104.833 -31.833 142.5 -61.5s67.167 -65.334 88.5 -107.001s35.5 -87.834 42.5 -138.501s8.5 -102.334 4.5 -155.001h-179
c2 34.667 1 70 -3 106s-13.333 68.667 -28 98s-35.167 53.5 -61.5 72.5s-60.5 29.167 -102.5 30.5c-37.333 0.666992 -71.833 -4.5 -103.5 -15.5s-59.334 -27 -83.001 -48s-42.834 -46.5 -57.501 -76.5s-24 -63.333 -28 -100c-4 -38 -0.5 -71 10.5 -99s27 -52.167 48 -72.5
s46 -38 75 -53s59.5 -28.833 91.5 -41.5c49.333 -19.333 95.333 -41.5 138 -66.5s79.167 -54.333 109.5 -88s53.166 -72.667 68.499 -117s21 -95.5 17 -153.5c-4.66699 -61.333 -18.834 -115.5 -42.501 -162.5s-54.667 -87.167 -93 -120.5s-82.666 -59.833 -132.999 -79.5
s-104.5 -32.5 -162.5 -38.5l-34 -191h-145l35 193c-59.333 8.66699 -110 26 -152 52s-76.167 58.667 -102.5 98s-44.833 84 -55.5 134s-14.334 103.333 -11.001 160h181c-3.33301 -39.333 -1.5 -76.5 5.5 -111.5s19.5 -65.5 37.5 -91.5s41.833 -46.667 71.5 -62
s66.167 -23.333 109.5 -24c38.667 -0.666992 75.667 4 111 14s67 25.167 95 45.5s51.333 45.833 70 76.5s30.334 66 35.001 106z" />
    <glyph glyph-name="percent" unicode="%" horiz-adv-x="1465" 
d="M198 1175c4.66699 42.667 15.6699 82.667 33.0029 120s40.166 69.666 68.499 96.999s61.166 48.666 98.499 63.999s78.333 22.666 123 21.999c42 -1.33301 79.5 -10.166 112.5 -26.499s60.667 -38.166 83 -65.499s38.666 -59 48.999 -95s14.166 -74.333 11.499 -115
l-6 -77c-4.66699 -42 -15.667 -81.5 -33 -118.5s-40 -69.167 -68 -96.5s-60.667 -48.666 -98 -63.999s-78 -22.333 -122 -21c-42 0.666992 -79.667 9.16699 -113 25.5s-61.166 38 -83.499 65s-39 58.5 -50 94.5s-15.167 74.333 -12.5 115zM326.003 1097
c-1.33301 -22 -0.164062 -43.501 3.50293 -64.501s10.5 -39.667 20.5 -56s23.5 -29.833 40.5 -40.5s38.167 -16.334 63.5 -17.001c26 -0.666992 49.333 4 70 14s38.667 23.333 54 40s27.666 35.834 36.999 57.501s15.666 44.5 18.999 68.5l9 78c2 22 1.16699 43.5 -2.5 64.5
s-10.334 40 -20.001 57s-23 30.833 -40 41.5s-38.167 16.334 -63.5 17.001c-26 0.666992 -49.5 -4 -70.5 -14s-39.167 -23.333 -54.5 -40s-27.833 -36 -37.5 -58s-16.167 -45 -19.5 -69zM744.005 355.999c4 42.667 14.835 82.668 32.502 120.001s40.5 69.666 68.5 96.999
s60.833 48.5 98.5 63.5s78.5 22.167 122.5 21.5c42 -1.33301 79.667 -10 113 -26s61.166 -37.667 83.499 -65s38.833 -59 49.5 -95s14.667 -74.333 12 -115l-7 -78c-4.66699 -42.667 -15.667 -82.5 -33 -119.5s-40 -69.167 -68 -96.5s-60.667 -48.666 -98 -63.999
s-78 -22.333 -122 -21c-42.667 0.666992 -80.5 9.16699 -113.5 25.5s-60.833 38.166 -83.5 65.499s-39.334 59 -50.001 95s-14.667 74.333 -12 115zM872.007 277c-1.33301 -22 -0.165039 -43.666 3.50195 -64.999s10.5 -40.333 20.5 -57s23.5 -30.167 40.5 -40.5
s38.167 -15.833 63.5 -16.5c26 -0.666992 49.333 3.83301 70 13.5s38.667 23 54 40s27.666 36.5 36.999 58.5s15.666 45 18.999 69l9 79c2 22 1.16699 43.5 -2.5 64.5s-10.5 40 -20.5 57s-23.5 30.667 -40.5 41s-37.833 15.833 -62.5 16.5
c-26 0.666992 -49.5 -3.83301 -70.5 -13.5s-39.167 -22.834 -54.5 -39.501s-27.833 -36 -37.5 -58s-16.167 -45 -19.5 -69zM356.008 112.001l-99 72l881 1128l99 -71z" />
    <glyph glyph-name="ampersand" unicode="&#x26;" horiz-adv-x="1245" 
d="M65 384c4 49.333 16.502 93.8311 37.502 133.498s47.167 75.667 78.5 108s66.333 62.166 105 89.499s77 53 115 77l-42 75.5c-14 25.667 -26.167 51.667 -36.5 78s-18.166 53.5 -23.499 81.5s-7 57 -5 87c4 54.667 16.333 104.5 37 149.5s48.167 83.5 82.5 115.5
s74.5 56.5 120.5 73.5s96.667 24.833 152 23.5c42.667 -0.666992 83 -8.33398 121 -23.001s70.833 -35 98.5 -61s49.167 -57.333 64.5 -94s21.666 -77.334 18.999 -122.001c-2 -36.667 -9.66699 -70.667 -23 -102s-30.5 -60.166 -51.5 -86.499s-44.667 -50.833 -71 -73.5
s-53.833 -43.667 -82.5 -63l-132 -88l249 -381c30 44.667 54.5 90.834 73.5 138.501s32.5 98.167 40.5 151.5h161c-8.66699 -80.667 -27.334 -156.667 -56.001 -228s-70.334 -137.666 -125.001 -198.999l157 -245h-202l-73 113c-55.333 -43.333 -115.333 -76.5 -180 -99.5
s-132.334 -33.833 -203.001 -32.5c-59.333 0.666992 -114.666 10.334 -165.999 29.001s-95.5 45.334 -132.5 80.001s-65.333 76.667 -85 126s-27.167 105.333 -22.5 168zM477.002 130.998c26.667 -0.666992 52.6699 2 78.0029 8s49.833 14.167 73.5 24.5
s46.5 22.333 68.5 36s43.333 28.5 64 44.5l-271 424l-46 -32c-21.333 -15.333 -42.833 -32 -64.5 -50s-41.5 -37.5 -59.5 -58.5s-33.333 -43.5 -46 -67.5s-21 -49.667 -25 -77c-5.33301 -38 -3.33301 -72.333 6 -103s24.166 -57 44.499 -79s45.666 -39 75.999 -51
s64.166 -18.333 101.499 -19zM472.005 1121c-2 -21.333 -1.16504 -41.9971 2.50195 -61.9971s9.16699 -39.833 16.5 -59.5s16.166 -38.667 26.499 -57l30.5 -53.5l110 73c20 13.333 39.167 27.166 57.5 41.499s34.833 30.166 49.5 47.499s26.667 36.333 36 57
s15.333 43.667 18 69c2 22 -0.333008 42.167 -7 60.5s-16.5 34 -29.5 47s-28.833 23 -47.5 30s-38.667 10.5 -60 10.5c-28.667 0 -54.834 -5.5 -78.501 -16.5s-44.167 -26 -61.5 -45s-31.5 -40.833 -42.5 -65.5s-17.833 -50.334 -20.5 -77.001z" />
    <glyph glyph-name="quotesingle" unicode="'" horiz-adv-x="356" 
d="M374 1418l-76 -361h-128l61 377l16 102h146z" />
    <glyph glyph-name="parenleft" unicode="(" horiz-adv-x="689" 
d="M128 587c9.33301 65.333 22.8291 132.498 40.4961 201.498s39.334 137.5 65.001 205.5s55.667 134.167 90 198.5s73.333 124.833 117 181.5s92 108 145 154s111.167 84.667 174.5 116l27 -124c-73.333 -54.667 -136.833 -117.5 -190.5 -188.5s-99.5 -146.667 -137.5 -227
s-69 -164 -93 -251s-42.667 -174.167 -56 -261.5l-2 -15c-7.33301 -48 -13.166 -99.333 -17.499 -154s-6.33301 -110.667 -6 -168s4 -114.666 11 -171.999s18.5 -112.666 34.5 -165.999s37.167 -103.5 63.5 -150.5s59.5 -88.5 99.5 -124.5l-45 -112
c-52.667 36.667 -98.167 80 -136.5 130s-70.833 104 -97.5 162s-47.667 119.167 -63 183.5s-26.166 129 -32.499 194s-8.66602 129.5 -6.99902 193.5s6.5 125 14.5 183z" />
    <glyph glyph-name="parenright" unicode=")" horiz-adv-x="701" 
d="M547 585c-9.33301 -65.333 -22.665 -132.508 -39.998 -201.508s-39 -137.333 -65 -205s-56.167 -133.667 -90.5 -198s-73.333 -124.666 -117 -180.999s-92.167 -107.666 -145.5 -153.999s-111.333 -85.166 -174 -116.499l-28 115c72.667 54.667 136 117.834 190 189.501
s100 148.167 138 229.5s69 166 93 254s42.667 175.667 56 263l2 15c6.66699 47.333 12.334 98.333 17.001 153s6.66699 110.667 6 168s-4.5 115 -11.5 173s-18.5 113.833 -34.5 167.5s-37.167 103.834 -63.5 150.501s-59.166 88 -98.499 124l47 112
c52.667 -36.667 98.167 -79.834 136.5 -129.501s70.666 -103.667 96.999 -162s47.166 -119.666 62.499 -183.999s26.166 -129.166 32.499 -194.499s8.66602 -130.166 6.99902 -194.499s-6.5 -125.166 -14.5 -182.499z" />
    <glyph glyph-name="asterisk" unicode="*" horiz-adv-x="866" 
d="M377 987l-278 90l66 145l279 -113l45 347h151l-65 -344l302 107l21 -158l-313 -91l152 -274l-128 -89l-136 289l-217 -279l-115 97z" />
    <glyph glyph-name="plus" unicode="+" horiz-adv-x="1136" 
d="M682 781h394l-31 -175h-393l-80 -460h-182l80 460h-394l31 175h393l74 425h182z" />
    <glyph glyph-name="comma" unicode="," horiz-adv-x="400" 
d="M211 72c-11.333 -72.667 -36.667 -140.167 -76 -202.5s-87.333 -115.833 -144 -160.5l-104 75c34.667 42.667 64.667 87.167 90 133.5s43.333 96.5 54 150.5l26 151h177z" />
    <glyph glyph-name="hyphen" unicode="-" horiz-adv-x="558" 
d="M500 543h-475l27 151h475z" />
    <glyph glyph-name="period" unicode="." horiz-adv-x="533" 
d="M53 94c0 32.667 10.334 59.834 31.001 81.501s47.334 33.167 80.001 34.5c32.667 0.666992 59.667 -9.33301 81 -30s31.666 -47.334 30.999 -80.001s-11.667 -59.167 -33 -79.5s-48 -31.166 -80 -32.499c-16 -0.666992 -30.833 1.5 -44.5 6.5
s-25.334 12.167 -35.001 21.5s-17.167 20.666 -22.5 33.999s-8 28 -8 44z" />
    <glyph glyph-name="slash" unicode="/" horiz-adv-x="829" 
d="M51 -125h-164l864 1581h163z" />
    <glyph glyph-name="zero" unicode="0" horiz-adv-x="1126" 
d="M1010 622c-8 -52.667 -18.3359 -105.17 -31.0029 -157.503s-28.667 -102.666 -48 -150.999s-42.666 -93 -69.999 -134s-59.833 -76.667 -97.5 -107s-81 -53.666 -130 -69.999s-104.5 -23.833 -166.5 -22.5c-59.333 1.33301 -110 11.5 -152 30.5s-77 44.333 -105 76
s-49.667 68.334 -65 110.001s-26 86 -32 133s-8.16699 95.333 -6.5 145s5.5 98.5 11.5 146.5l33 222c7.33301 52.667 17.333 105 30 157s28.834 101.833 48.501 149.5s43.334 91.667 71.001 132s60.334 75.166 98.001 104.499s80.667 52 129 68s103.5 23.333 165.5 22
c59.333 -1.33301 110.166 -11.166 152.499 -29.499s77.5 -43 105.5 -74s49.667 -67 65 -108s26 -84.667 32 -131s8.16699 -94.333 6.5 -144s-5.5 -98.5 -11.5 -146.5zM867.997 875.997c3.33301 28 6.49902 58.166 9.49902 90.499s4.16699 64.833 3.5 97.5
s-4.16699 64.334 -10.5 95.001s-16.833 58.167 -31.5 82.5s-34.5 44 -59.5 59s-56.833 23.167 -95.5 24.5c-41.333 1.33301 -78 -4.16699 -110 -16.5s-60 -29.666 -84 -51.999s-44.667 -48.5 -62 -78.5s-32 -62 -44 -96s-21.833 -68.833 -29.5 -104.5
s-13.834 -70.167 -18.501 -103.5l-42 -283c-3.33301 -26.667 -6.5 -56.5 -9.5 -89.5s-4.16699 -66.333 -3.5 -100s4.16699 -66.334 10.5 -98.001s16.833 -60.167 31.5 -85.5s34.334 -46 59.001 -62s56.334 -24.667 95.001 -26c42 -2 79 3.66699 111 17s60 31.5 84 54.5
s44.667 50.167 62 81.5s32 64.5 44 99.5s21.667 70.5 29 106.5s13.333 70.333 18 103z" />
    <glyph glyph-name="one" unicode="1" horiz-adv-x="1126" 
d="M604 0h-182l214 1228l-387 -136l31 176l540 195h32z" />
    <glyph glyph-name="two" unicode="2" horiz-adv-x="1126" 
d="M950 0h-927.001l22 141l538 523l87.5 86.5c31 30.333 60.167 62.5 87.5 96.5s51 69.667 71 107s32.667 76.666 38 117.999c4 34 2.66699 66.167 -4 96.5s-18.667 56.833 -36 79.5s-39.5 40.834 -66.5 54.501s-58.5 21.167 -94.5 22.5
c-46.667 1.33301 -88.667 -5.16699 -126 -19.5s-69.833 -34.666 -97.5 -60.999s-50.167 -58 -67.5 -95s-29 -77.5 -35 -121.5l-179 -1c6.66699 68 24.167 130 52.5 186s65.166 103.667 110.499 143s97.833 69.5 157.5 90.5s123.5 30.833 191.5 29.5
c56.667 -1.33301 109.167 -10.833 157.5 -28.5s89.833 -42.834 124.5 -75.501s60.834 -72.5 78.501 -119.5s23.834 -100.167 18.501 -159.5c-4.66699 -52 -18 -101.833 -40 -149.5s-49 -93.167 -81 -136.5s-66.833 -84.333 -104.5 -123l-109.5 -109l-446 -424h703z" />
    <glyph glyph-name="three" unicode="3" horiz-adv-x="1126" 
d="M416 818l119 -0.996094c40.667 0 79.834 5.33301 117.501 16s71.5 26.834 101.5 48.501s54.833 48.667 74.5 81s32.167 70.166 37.5 113.499c4 36.667 3 70.167 -3 100.5s-17.333 56.5 -34 78.5s-38.667 39.167 -66 51.5s-60 18.833 -98 19.5
c-39.333 0.666992 -75.666 -4.83301 -108.999 -16.5s-62.833 -28.667 -88.5 -51s-46.834 -49 -63.501 -80s-28.334 -65.5 -35.001 -103.5l-179 -1c6.66699 62 24.167 118 52.5 168s64.333 92.667 108 128s93.334 62.166 149.001 80.499s113.834 27.166 174.501 26.499
c60 -1.33301 114.167 -11.666 162.5 -30.999s89 -46.5 122 -81.5s57.333 -77.333 73 -127s20.834 -104.834 15.501 -165.501c-3.33301 -40 -13.333 -76.833 -30 -110.5s-37.5 -64.334 -62.5 -92.001s-53.5 -52 -85.5 -73s-65.333 -39.167 -100 -54.5
c34 -14 63.167 -32.333 87.5 -55s44.166 -48.167 59.499 -76.5s25.833 -59.166 31.5 -92.499s7.16699 -68 4.5 -104c-6 -67.333 -23.167 -128 -51.5 -182s-65 -100 -110 -138s-96.833 -66.833 -155.5 -86.5s-121 -28.834 -187 -27.501
c-60 1.33301 -114.833 11.666 -164.5 30.999s-92.334 46.5 -128.001 81.5s-62.667 77.167 -81 126.5s-25.833 104.666 -22.5 165.999l181 -1c-2.66699 -37.333 0.5 -71.333 9.5 -102s23 -57 42 -79s43 -39.167 72 -51.5s62.5 -19.166 100.5 -20.499
c44 -1.33301 84.167 4.5 120.5 17.5s68.166 31.667 95.499 56s49.5 54 66.5 89s27.833 73.833 32.5 116.5c4.66699 42 2 78.833 -8 110.5s-25.667 58 -47 79s-48 37 -80 48s-68 17.167 -108 18.5l-140 1z" />
    <glyph glyph-name="four" unicode="4" horiz-adv-x="1126" 
d="M857 489h196l-27 -151h-195l-59 -338h-182l59 338h-644l21 119l800 999h198zM243 489h432l130 716l-29 -42z" />
    <glyph glyph-name="five" unicode="5" horiz-adv-x="1126" 
d="M221 733l197.999 723.001h726l-31 -171h-569l-120 -398c36 21.333 74.333 37.333 115 48s82 15.667 124 15c66.667 -0.666992 123.5 -14.667 170.5 -42s84.833 -63.333 113.5 -108s48.334 -95.5 59.001 -152.5s13 -115.5 7 -175.5
c-6.66699 -70.667 -23.334 -136.5 -50.001 -197.5s-62.167 -113.667 -106.5 -158s-96.666 -78.833 -156.999 -103.5s-127.5 -36 -201.5 -34c-60.667 1.33301 -114.667 12.166 -162 32.499s-87.5 48.333 -120.5 84s-58.5 78 -76.5 127s-27.667 102.833 -29 161.5h169
c1.33301 -36 6.83301 -69.167 16.5 -99.5s23.667 -56.833 42 -79.5s41.5 -40.667 69.5 -54s61.333 -20.333 100 -21c48.667 -1.33301 92 7.33398 130 26.001s70.667 44 98 76s49 68.833 65 110.5s26.333 84.5 31 128.5c4.66699 38.667 4 76.5 -2 113.5s-17.667 70 -35 99
s-41 52.667 -71 71s-67 28.166 -111 29.499c-48.667 1.33301 -92 -6.16699 -130 -22.5s-75.667 -38.833 -113 -67.5z" />
    <glyph glyph-name="six" unicode="6" horiz-adv-x="1125" 
d="M951 1458l-16.0029 -157.001h-14c-78.667 0.666992 -148.834 -10.833 -210.501 -34.5s-116.167 -56.667 -163.5 -99s-88.166 -92.833 -122.499 -151.5s-63.166 -123 -86.499 -193c44 44 92.333 77.333 145 100s110.334 33.334 173.001 32.001
c65.333 -2 121 -16.833 167 -44.5s83 -63.5 111 -107.5s47.333 -94 58 -150s13.334 -113 8.00098 -171c-6 -68 -21.833 -132.667 -47.5 -194s-59.834 -115.166 -102.501 -161.499s-93.334 -82.833 -152.001 -109.5s-124.334 -39 -197.001 -37
c-49.333 1.33301 -93.666 10 -132.999 26s-74.166 37.5 -104.499 64.5s-55.833 58.333 -76.5 94s-36.834 74 -48.501 115s-19.167 83.5 -22.5 127.5s-2.33301 87.667 3 131l11 87c10.667 75.333 26.334 148.166 47.001 218.499s46.667 136.333 78 198s68.5 118 111.5 169
s92.333 94.833 148 131.5s117.834 65.167 186.501 85.5s144.667 30.5 228 30.5h22zM617.997 801.999c-33.333 0.666992 -65.333 -4.00098 -96 -14.001s-59.167 -24 -85.5 -42s-50.333 -39.5 -72 -64.5s-39.834 -51.5 -54.501 -79.5l-9 -70
c-2.66699 -24.667 -4 -51.5 -4 -80.5s2.33301 -58.167 7 -87.5s11.834 -57.666 21.501 -84.999s22.5 -51.5 38.5 -72.5s36 -38.167 60 -51.5s52.333 -20.666 85 -21.999c47.333 -2 89.333 6.83301 126 26.5s68 45.667 94 78s46.667 69.166 62 110.499s25.333 83 30 125
c4 36 3.83301 73.167 -0.5 111.5s-14.333 73.5 -30 105.5s-37.5 58.333 -65.5 79s-63.667 31.667 -107 33z" />
    <glyph glyph-name="seven" unicode="7" horiz-adv-x="1126" 
d="M1146 1342l-791 -1342h-198l787 1304h-760l24 152h956z" />
    <glyph glyph-name="eight" unicode="8" horiz-adv-x="1126" 
d="M1057 1085c-3.33301 -40.667 -12.5 -78.1719 -27.5 -112.505s-34.167 -65.5 -57.5 -93.5s-50.333 -53.333 -81 -76s-63.334 -42.334 -98.001 -59.001c62.667 -36 109.167 -84.167 139.5 -144.5s42.833 -126.166 37.5 -197.499
c-5.33301 -67.333 -22.333 -127.333 -51 -180s-65.834 -97.167 -111.501 -133.5s-97.667 -63.833 -156 -82.5s-119.833 -27.334 -184.5 -26.001c-59.333 1.33301 -114.166 11.5 -164.499 30.5s-93.333 46 -129 81s-62.667 77.167 -81 126.5s-24.833 105 -19.5 167
c4 45.333 14.167 86.833 30.5 124.5s37.833 71.834 64.5 102.501s57.167 57.834 91.5 81.501s71.5 44.167 111.5 61.5c-52 36 -90.5 81.333 -115.5 136s-34.833 113.334 -29.5 176.001c4.66699 62.667 20 119.667 46 171s59.833 94.833 101.5 130.5
s89.834 62.834 144.501 81.501s113 27.334 175 26.001c56.667 -1.33301 108.5 -11.666 155.5 -30.999s86.667 -46 119 -80s56.5 -74.667 72.5 -122s21.667 -100 17 -158zM791 405.995c4 36.667 1.83008 71.167 -6.50293 103.5s-22 60.5 -41 84.5s-43.333 43 -73 57
s-63.5 21.667 -101.5 23c-42 0.666992 -81.167 -6 -117.5 -20s-68.333 -33.833 -96 -59.5s-50.167 -56.167 -67.5 -91.5s-28.333 -73.666 -33 -114.999c-4 -38 -2 -72.5 6 -103.5s21.5 -57.833 40.5 -80.5s43.167 -40.5 72.5 -53.5s63 -19.833 101 -20.5
c42 -1.33301 81.333 4.5 118 17.5s68.834 31.667 96.501 56s50.334 53.666 68.001 87.999s28.834 72.5 33.501 114.5zM874.997 1082c3.33301 32 1.66406 62.3359 -5.00293 91.0029s-18.167 54.167 -34.5 76.5s-37.166 40.166 -62.499 53.499s-55 20.666 -89 21.999
c-38 0.666992 -73.333 -5.5 -106 -18.5s-61.167 -31.333 -85.5 -55s-44 -51.667 -59 -84s-24.5 -66.833 -28.5 -103.5c-3.33301 -32.667 -1.66602 -63.334 5.00098 -92.001s18.167 -53.834 34.5 -75.501s37.333 -39 63 -52s55.834 -19.833 90.501 -20.5
c38 -0.666992 73 5.5 105 18.5s60.167 31.167 84.5 54.5s44 50.833 59 82.5s24.5 65.834 28.5 102.501z" />
    <glyph glyph-name="nine" unicode="9" horiz-adv-x="1126" 
d="M236 154c83.333 -0.666992 156.665 10.1689 219.998 32.502s118.333 54.5 165 96.5s86 93.167 118 153.5s58.667 128.166 80 203.499c-21.333 -22.667 -44.166 -43.5 -68.499 -62.5s-50 -35.167 -77 -48.5s-55.167 -23.833 -84.5 -31.5s-60 -11.167 -92 -10.5
c-65.333 1.33301 -120.833 16.166 -166.5 44.499s-82.334 65 -110.001 110s-46.667 95.833 -57 152.5s-12.833 113.667 -7.5 171c6 68 21.833 133.167 47.5 195.5s59.667 117.166 102 164.499s93 84.833 152 112.5s125.167 40.5 198.5 38.5
c53.333 -1.33301 100.333 -10.5 141 -27.5s75.667 -39.833 105 -68.5s53.5 -62.167 72.5 -100.5s33.5 -79.166 43.5 -122.499s15.833 -88 17.5 -134s-0.166016 -91.333 -5.49902 -136l-9 -67c-16 -115.333 -42.5 -222.833 -79.5 -322.5s-87.167 -186.5 -150.5 -260.5
s-141.166 -132.333 -233.499 -175s-201.833 -64 -328.5 -64h-23l16 156h14zM534.999 640.003c34 -1.33301 66.3301 3.16602 96.9971 13.499s59.334 24.833 86.001 43.5s51 40.334 73 65.001s41 51 57 79l8 73c2 24.667 2.83301 51.667 2.5 81s-2.66602 59 -6.99902 89
s-11.166 59 -20.499 87s-22 53 -38 75s-35.833 39.833 -59.5 53.5s-52.167 21.167 -85.5 22.5c-48 2 -90.5 -7.16699 -127.5 -27.5s-68.5 -47.166 -94.5 -80.499s-46.667 -71 -62 -113s-25 -84 -29 -126c-4 -35.333 -3.83301 -72.5 0.5 -111.5s14 -74.833 29 -107.5
s36.333 -59.834 64 -81.501s63.167 -33.167 106.5 -34.5z" />
    <glyph glyph-name="colon" unicode=":" horiz-adv-x="491" 
d="M43 94c0 32.667 10.334 59.834 31.001 81.501s47.334 33.167 80.001 34.5c32.667 0.666992 59.667 -9.33301 81 -30s31.666 -47.334 30.999 -80.001s-11.667 -59.167 -33 -79.5s-48 -31.166 -80 -32.499c-16 -0.666992 -30.833 1.5 -44.5 6.5
s-25.334 12.167 -35.001 21.5s-17.167 20.666 -22.5 33.999s-8 28 -8 44zM196.001 977c0 32.667 10.334 59.834 31.001 81.501s47.334 33.167 80.001 34.5c32.667 0.666992 59.667 -9.33301 81 -30s31.666 -47.334 30.999 -80.001s-11.667 -59.167 -33 -79.5
s-48 -31.166 -80 -32.499c-16 -0.666992 -30.833 1.5 -44.5 6.5s-25.334 12.167 -35.001 21.5s-17.167 20.666 -22.5 33.999s-8 28 -8 44z" />
    <glyph glyph-name="semicolon" unicode=";" horiz-adv-x="430" 
d="M173 977c0 32.667 10.334 59.834 31.001 81.501s47.334 33.167 80.001 34.5c32.667 0.666992 59.667 -9.33301 81 -30s31.666 -47.334 30.999 -80.001s-11.667 -59.167 -33 -79.5s-48 -31.166 -80 -32.499c-16 -0.666992 -30.833 1.5 -44.5 6.5
s-25.334 12.167 -35.001 21.5s-17.167 20.666 -22.5 33.999s-8 28 -8 44zM223.001 72c-11.333 -72.667 -36.667 -140.167 -76 -202.5s-87.333 -115.833 -144 -160.5l-104 75c34.667 42.667 64.667 87.167 90 133.5s43.333 96.5 54 150.5l26 151h177z" />
    <glyph glyph-name="less" unicode="&#x3c;" horiz-adv-x="1020" 
d="M263 640l565 -253l-33 -187l-730 379l26 146l861 378l-36 -205z" />
    <glyph glyph-name="equal" unicode="=" horiz-adv-x="1100" 
d="M994 814h-810l28 161h811zM922 399h-810l28 160h811z" />
    <glyph glyph-name="greater" unicode="&#x3e;" horiz-adv-x="1048" 
d="M781 654l-598 259l33 182l764 -379l-26 -145l-896 -380l36 201z" />
    <glyph glyph-name="question" unicode="?" horiz-adv-x="948" 
d="M321 409c4.66699 42.667 12.667 81.501 24 116.501s26 67.833 44 98.5s39.333 59.834 64 87.501s53 55.834 85 84.501l73 64c24.667 21.333 47.167 44 67.5 68s37.833 50 52.5 78s24.334 59.333 29.001 94c4 30 3.5 57.833 -1.5 83.5s-14.333 48.167 -28 67.5
s-31.667 34.666 -54 45.999s-49.5 17.666 -81.5 18.999c-32 0.666992 -62 -3.33301 -90 -12s-52.667 -21.834 -74 -39.501s-39.5 -39 -54.5 -64s-25.5 -53.167 -31.5 -84.5l-180 -1c6.66699 57.333 22.834 108.666 48.501 153.999s58.167 83.5 97.5 114.5
s84.166 54.5 134.499 70.5s103.833 23.667 160.5 23c55.333 -1.33301 105 -11 149 -29s80.833 -43.167 110.5 -75.5s51.5 -71.166 65.5 -116.499s18.667 -96 14 -152c-4.66699 -48.667 -16.834 -93.667 -36.501 -135s-44 -79.833 -73 -115.5s-61 -69.167 -96 -100.5
l-105.5 -90c-40.667 -34 -71.5 -71.833 -92.5 -113.5s-35.5 -88.167 -43.5 -139.5zM250 90.001c0.666992 31.333 10.667 57.168 30 77.501s45 31.166 77 32.499c30.667 0.666992 56.167 -8.83301 76.5 -28.5s30.166 -45.167 29.499 -76.5c0 -30.667 -10 -56 -30 -76
s-45.667 -30.333 -77 -31c-15.333 -0.666992 -29.5 1.33301 -42.5 6s-24.167 11.5 -33.5 20.5s-16.666 20 -21.999 33s-8 27.167 -8 42.5z" />
    <glyph glyph-name="at" unicode="@" horiz-adv-x="1794" 
d="M1671 507c-6.66699 -40.667 -16.501 -82.1621 -29.501 -124.495s-29 -83.333 -48 -123s-41.333 -76.667 -67 -111s-54.834 -64.166 -87.501 -89.499s-69 -45.166 -109 -59.499s-84 -20.833 -132 -19.5c-27.333 0.666992 -52.833 4.5 -76.5 11.5s-44.667 17.5 -63 31.5
s-33.666 31.5 -45.999 52.5s-20.833 45.167 -25.5 72.5c-17.333 -22 -36 -43.333 -56 -64s-41.5 -38.834 -64.5 -54.501s-47.667 -28.167 -74 -37.5s-54.5 -13.666 -84.5 -12.999c-38 0.666992 -70.167 8 -96.5 22s-47.833 32.167 -64.5 54.5s-29.334 48.166 -38.001 77.499
s-14.334 59.666 -17.001 90.999s-2.83398 63 -0.500977 95s6.16602 62 11.499 90c7.33301 40 18 82.333 32 127s31.5 88.834 52.5 132.501s45.333 85 73 124s58.834 73.333 93.501 103s72.834 53 114.501 70s86.834 25.167 135.501 24.5
c54 -1.33301 102.333 -11.166 145 -29.499s85 -43.5 127 -75.5l-133 -558l-6.5 -44c-2.33301 -16 -3.66602 -32.5 -3.99902 -49.5s0.666992 -33.5 3 -49.5s6.83301 -30.333 13.5 -43s16.167 -23.167 28.5 -31.5s28.166 -12.833 47.499 -13.5
c34 -1.33301 64.833 4.16699 92.5 16.5s52.667 29.333 75 51s41.833 46.834 58.5 75.501s31.167 58.5 43.5 89.5s22.5 61.833 30.5 92.5s14.333 59.334 19 86.001c11.333 65.333 18.333 130.166 21 194.499s-0.666016 125.666 -9.99902 183.999s-25.333 112.5 -48 162.5
s-53.667 93.333 -93 130s-87.666 65.667 -144.999 87s-125 32.666 -203 33.999c-77.333 1.33301 -149.666 -8.66699 -216.999 -30s-129.833 -51 -187.5 -89s-109.834 -83.333 -156.501 -136s-88.167 -109.834 -124.5 -171.501s-66.833 -126.5 -91.5 -194.5
s-43.667 -136.667 -57 -206c-12 -62 -19.333 -124.667 -22 -188s0.666016 -124.5 9.99902 -183.5s25.333 -114.333 48 -166s53.167 -96.834 91.5 -135.501s85.333 -69.167 141 -91.5s121.5 -33.833 197.5 -34.5c59.333 -1.33301 117.5 5 174.5 19s111.833 33.667 164.5 59
l27 -117c-26.667 -16.667 -55 -30.5 -85 -41.5s-60.833 -20 -92.5 -27s-63.667 -11.833 -96 -14.5s-63.833 -4 -94.5 -4c-88 0.666992 -166 13.5 -234 38.5s-126.667 59.167 -176 102.5s-90 94.166 -122 152.499s-55.833 121.666 -71.5 189.999s-23.667 140 -24 215
s6.5 150.833 20.5 227.5c14.667 80.667 36.667 160.5 66 239.5s65.5 154.333 108.5 226s92.5 137.667 148.5 198s118 112.666 186 156.999s141.5 78.666 220.5 102.999s162.833 35.833 251.5 34.5c88 -1.33301 165.833 -14.5 233.5 -39.5s125.834 -59 174.501 -102
s88.5 -93.667 119.5 -152s54.167 -121.5 69.5 -189.5s23 -139.5 23 -214.5s-6.33301 -150.5 -19 -226.5zM661.999 409.005c-2.66699 -16 -5.49805 -34.0068 -8.49805 -54.0068s-4.83301 -40.5 -5.5 -61.5s0.333008 -41.667 3 -62s8.16699 -38.666 16.5 -54.999
s19.833 -29.666 34.5 -39.999s34 -15.833 58 -16.5c28 -1.33301 53.5 4.33398 76.5 17.001s44.167 28.834 63.5 48.501s36.5 41.334 51.5 65.001l40.5 66.5c0 4.66699 0.333008 8.33398 1 11.001l133 506c-34.667 18.667 -70.334 28.334 -107.001 29.001
c-37.333 1.33301 -71.5 -4.83398 -102.5 -18.501s-58.667 -32.5 -83 -56.5s-46 -51.667 -65 -83s-35.333 -64.166 -49 -98.499s-25.334 -68.5 -35.001 -102.5s-17.167 -65.667 -22.5 -95z" />
    <glyph glyph-name="A" unicode="A" horiz-adv-x="1306" 
d="M909 380h-590l-199 -380h-201l791 1456h165l288 -1456h-185zM402 538h479l-121 679z" />
    <glyph glyph-name="B" unicode="B" horiz-adv-x="1247" 
d="M59 0l252.999 1456l450 -1c60 -1.33301 116 -9.33301 168 -24s96.667 -37.334 134 -68.001s65.666 -69.667 84.999 -117s26.333 -104 21 -170c-3.33301 -39.333 -12.5 -75 -27.5 -107s-34.333 -61 -58 -87s-50.667 -49 -81 -69s-62.5 -37.333 -96.5 -52
c34.667 -13.333 64.334 -31.5 89.001 -54.5s44.5 -49.333 59.5 -79s25.667 -61.667 32 -96s8.16602 -68.833 5.49902 -103.5c-5.33301 -72 -23.166 -134.833 -53.499 -188.5s-69.333 -98.334 -117 -134.001s-102.167 -62.334 -163.5 -80.001
s-125.666 -26.167 -192.999 -25.5h-507zM364.999 681.003l-90.998 -524.002l297 -1c42.667 0 83 5.83301 121 17.5s72 28.834 102 51.501s54.833 50.834 74.5 84.501s32.167 72.5 37.5 116.5c9.33301 78.667 -4.33398 140 -41.001 184s-94.334 67.333 -173.001 70z
M392.001 835.001l271 -0.996094c38 0 75 5 111 15s68.5 25.167 97.5 45.5s53 45.666 72 75.999s31.167 66.166 36.5 107.499c4.66699 39.333 2.66699 72.666 -6 99.999s-23 49.666 -43 66.999s-44.833 30 -74.5 38s-62.5 12.667 -98.5 14l-286 1z" />
    <glyph glyph-name="C" unicode="C" horiz-adv-x="1303" 
d="M1169 464c-14 -75.333 -38.498 -143.169 -73.498 -203.502s-78.167 -111.5 -129.5 -153.5s-110.166 -74.167 -176.499 -96.5s-137.833 -32.5 -214.5 -30.5c-61.333 1.33301 -116 11.5 -164 30.5s-89.833 44.5 -125.5 76.5s-65.167 69.667 -88.5 113
s-41.5 89.666 -54.5 138.999s-20.667 100.833 -23 154.5s0.166992 107.167 7.5 160.5l21 146c13.333 88.667 37.5 174 72.5 256s80.667 154.5 137 217.5s123.166 113 200.499 150s165 54.5 263 52.5c73.333 -1.33301 137.833 -14.5 193.5 -39.5s102.334 -59 140.001 -102
s66.334 -94.167 86.001 -153.5s30.5 -124 32.5 -194h-187c-2 46 -7.83301 88.833 -17.5 128.5s-25 74.334 -46 104.001s-48.5 53.334 -82.5 71.001s-76.333 27.167 -127 28.5c-48.667 1.33301 -93.334 -4.66699 -134.001 -18s-77.5 -32.166 -110.5 -56.499
s-62.333 -53.166 -88 -86.499s-48 -69.333 -67 -108s-34.833 -79.167 -47.5 -121.5s-22.334 -84.5 -29.001 -126.5l-22 -149c-4.66699 -35.333 -7.66699 -72.333 -9 -111s0.5 -76.834 5.5 -114.501s13.5 -73.667 25.5 -108s28.667 -64.833 50 -91.5
s48.166 -48.167 80.499 -64.5s71.166 -25.166 116.499 -26.499c56 -2 105.667 4.16699 149 18.5s81.333 35.666 114 63.999s60.5 63 83.5 104s41.833 86.833 56.5 137.5z" />
    <glyph glyph-name="D" unicode="D" horiz-adv-x="1313" 
d="M59 0l253 1456l387 -1c97.333 -2 181 -22.167 251 -60.5s126.333 -88.833 169 -151.5s71.834 -134.834 87.501 -216.501s18.167 -167.167 7.5 -256.5l-12 -86c-14 -99.333 -41.667 -190.833 -83 -274.5s-94 -155.834 -158 -216.501s-138.833 -108 -224.5 -142
s-179.834 -51 -282.501 -51h-395zM472 1298l-198.001 -1141l185 -1c79.333 0 150.833 13.5 214.5 40.5s119 64 166 111s85.333 102.667 115 167s50.167 134.166 61.5 209.499l13 90c8.66699 64 10.167 127 4.5 189s-21.167 117.333 -46.5 166
s-61.666 88.334 -108.999 119.001s-108.333 47 -183 49z" />
    <glyph glyph-name="E" unicode="E" horiz-adv-x="1139" 
d="M976 673h-612l-90 -516h712l-28 -157h-899l253 1456h889l-28 -158h-701l-81 -468h612z" />
    <glyph glyph-name="F" unicode="F" horiz-adv-x="1108" 
d="M951 643h-592l-112 -643h-188l253 1456h876l-28 -158h-688l-86 -498h593z" />
    <glyph glyph-name="G" unicode="G" horiz-adv-x="1363" 
d="M1145 192c-29.333 -41.333 -64.668 -75.668 -106.001 -103.001s-85.5 -49.166 -132.5 -65.499s-95.5 -27.833 -145.5 -34.5s-99 -9.66699 -147 -9c-64 1.33301 -121.333 11.333 -172 30s-95.167 44.167 -133.5 76.5s-70.333 70.333 -96 114s-45.667 90.834 -60 141.501
s-23.166 104 -26.499 160s-1.33301 112.333 6 169l17 114c13.333 91.333 36.833 179.166 70.5 263.499s78.167 158.5 133.5 222.5s122 114.667 200 152s168 55 270 53c69.333 -1.33301 131.5 -12.666 186.5 -33.999s102 -51.333 141 -90s69.667 -85.334 92 -140.001
s36.166 -116 41.499 -184h-186c-3.33301 42.667 -11.5 81.667 -24.5 117s-31 65.5 -54 90.5s-51.5 44.667 -85.5 59s-73.333 22.166 -118 23.499c-76 2.66699 -141.833 -11.333 -197.5 -42s-102.667 -71.334 -141 -122.001s-68.666 -108.167 -90.999 -172.5
s-38.5 -129.166 -48.5 -194.499l-17 -117c-5.33301 -38 -8 -77.333 -8 -118s3.16699 -80.5 9.5 -119.5s16.5 -76.167 30.5 -111.5s33 -66.333 57 -93s53.333 -48.167 88 -64.5s75.667 -24.833 123 -25.5c62 -1.33301 121.5 5.33398 178.5 20.001s109.167 42.667 156.5 84
l60 327h-328l28 156h512z" />
    <glyph glyph-name="H" unicode="H" 
d="M1146 0h-188l117 673h-711l-117 -673h-188l253 1456h188l-109 -626h710l109 626h189z" />
    <glyph glyph-name="I" unicode="I" horiz-adv-x="550" 
d="M260 0h-187l253 1456h187z" />
    <glyph glyph-name="J" unicode="J" horiz-adv-x="1106" 
d="M904 1456l188.001 0.00683594l-175 -1031c-9.33301 -67.333 -28.166 -128.833 -56.499 -184.5s-64.5 -103.167 -108.5 -142.5s-95.167 -69.5 -153.5 -90.5s-122.5 -30.833 -192.5 -29.5c-64.667 1.33301 -122.167 12.166 -172.5 32.499s-92.333 48.666 -126 84.999
s-58.334 80.5 -74.001 132.5s-21.5 110 -17.5 174h187c-3.33301 -38 -1.5 -72.833 5.5 -104.5s19.167 -59.334 36.5 -83.001s40.166 -42.334 68.499 -56.001s62.5 -20.834 102.5 -21.501c44 -1.33301 83.667 5.16699 119 19.5s66.333 34.666 93 60.999
s48.5 57.166 65.5 92.499s28.5 73.333 34.5 114z" />
    <glyph glyph-name="K" unicode="K" horiz-adv-x="1255" 
d="M544 675l-213 -191l-84 -484h-188l253 1456h188l-124 -709l174 165l568 544h242l-677 -652l453 -804h-209z" />
    <glyph glyph-name="L" unicode="L" horiz-adv-x="1079" 
d="M275 157h670l-28 -157h-858l253 1456h189z" />
    <glyph glyph-name="M" unicode="M" horiz-adv-x="1744" 
d="M549 1456l255 -1186l668 1186h247l-253 -1456h-187l100 576l119 586l-660 -1162h-144l-260 1185l-90 -628l-97 -557h-188l253 1456h237z" />
    <glyph glyph-name="N" unicode="N" 
d="M1146 0h-182l-520 1130l-196 -1130h-189l253 1456h182l521 -1135l197 1135h187z" />
    <glyph glyph-name="O" unicode="O" horiz-adv-x="1376" 
d="M1267 682c-13.333 -90 -37.167 -177.502 -71.5 -262.502s-79.5 -160.5 -135.5 -226.5s-123.167 -118.5 -201.5 -157.5s-167.5 -57.5 -267.5 -55.5c-64 1.33301 -120.833 11.833 -170.5 31.5s-92.667 46.334 -129 80.001s-66.5 73 -90.5 118s-42.5 93.167 -55.5 144.5
s-20.667 104.833 -23 160.5s0.166992 111.167 7.5 166.5l13 92c8.66699 59.333 22.167 118 40.5 176s41.5 113.333 69.5 166s60.833 101.334 98.5 146.001s80 83.167 127 115.5s99 57.333 156 75s118.5 25.834 184.5 24.501c64.667 -1.33301 122 -11.833 172 -31.5
s93.167 -46.334 129.5 -80.001s66.5 -73 90.5 -118s42.167 -93.333 54.5 -145s19.5 -105.5 21.5 -161.5s-0.666992 -111.667 -8 -167zM1093 775.998c4.66699 37.333 7.66406 76.501 8.99707 117.501s-0.5 81 -5.5 120s-13.667 76.333 -26 112s-29.833 67 -52.5 94
s-51 48.833 -85 65.5s-75 25.667 -123 27c-50 1.33301 -95.5 -5 -136.5 -19s-78.333 -33.833 -112 -59.5s-63.334 -56 -89.001 -91s-48 -72.667 -67 -113s-34.833 -82.166 -47.5 -125.499s-22 -86.333 -28 -129l-13 -95c-4.66699 -36.667 -7.5 -75.334 -8.5 -116.001
s1 -80.667 6 -120s13.833 -76.833 26.5 -112.5s30.334 -67.334 53.001 -95.001s50.834 -50 84.501 -67s74.167 -26.167 121.5 -27.5c50.667 -1.33301 96.834 5 138.501 19s79.167 33.667 112.5 59s62.833 55.5 88.5 90.5s47.834 72.667 66.501 113s34 82.5 46 126.5
s21.333 87.667 28 131z" />
    <glyph glyph-name="P" unicode="P" horiz-adv-x="1263" 
d="M346 570l-98.999 -569.998h-188l253 1456l509 -1c65.333 -1.33301 125.666 -12 180.999 -32s102.333 -48.5 141 -85.5s67.667 -82.333 87 -136s26 -114.834 20 -183.501c-6.66699 -76.667 -26 -143.334 -58 -200.001s-73 -103.5 -123 -140.5s-107.333 -64.333 -172 -82
s-133 -26.5 -205 -26.5zM373.001 727.002l324 -0.999023c46.667 0 91 6 133 18s79.167 30 111.5 54s59.166 54.167 80.499 90.5s35 79.166 41 128.499c5.33301 42 3.33301 80 -6 114s-24.666 63 -45.999 87s-48.5 42.833 -81.5 56.5s-70.5 21.167 -112.5 22.5l-345 1z" />
    <glyph glyph-name="Q" unicode="Q" horiz-adv-x="1376" 
d="M1259 682c-8.66699 -61.333 -21.835 -121.004 -39.502 -179.004s-40.834 -113.167 -69.501 -165.5s-63.167 -100.666 -103.5 -144.999s-87.5 -83.166 -141.5 -116.499l217 -209l-139 -113l-254 243c-24.667 -5.33301 -49.167 -9.33301 -73.5 -12s-49.166 -4 -74.499 -4
c-64 0.666992 -120.833 11 -170.5 31s-92.667 46.833 -129 80.5s-66.333 73 -90 118s-41.834 93.167 -54.501 144.5s-20.167 104.833 -22.5 160.5s-0.166016 110.834 6.50098 165.501l13 92c8.66699 59.333 22.167 118 40.5 176s41.5 113.333 69.5 166
s60.833 101.334 98.5 146.001s80 83.167 127 115.5s99 57.333 156 75s118.5 25.834 184.5 24.501c64.667 -1.33301 122 -11.833 172 -31.5s93.333 -46.334 130 -80.001s66.834 -73 90.501 -118s41.834 -93.333 54.501 -145s20 -105.5 22 -161.5s-0.333008 -111.667 -7 -167z
M1084 775.996c4.66699 38 7.66797 77.334 9.00098 118.001s-0.333984 80.667 -5.00098 120s-13.167 76.666 -25.5 111.999s-29.833 66.5 -52.5 93.5s-51 48.833 -85 65.5s-75 25.667 -123 27c-49.333 1.33301 -94.666 -5 -135.999 -19s-78.833 -33.833 -112.5 -59.5
s-63.334 -56 -89.001 -91s-48 -72.667 -67 -113s-34.833 -82.166 -47.5 -125.499s-22 -86.333 -28 -129l-13 -95c-4.66699 -36.667 -7.5 -75.334 -8.5 -116.001s1.16699 -80.5 6.5 -119.5s14.166 -76.5 26.499 -112.5s29.833 -67.833 52.5 -95.5s50.834 -50 84.501 -67
s74.167 -26.167 121.5 -27.5c50.667 -2 96.667 4 138 18s78.666 33.833 111.999 59.5s62.833 56 88.5 91s47.834 72.667 66.501 113s34 82.5 46 126.5s21.333 87.667 28 131z" />
    <glyph glyph-name="R" unicode="R" horiz-adv-x="1233" 
d="M685 589l-335.999 -0.00195312l-102 -589h-189l253 1456l456 -1c66.667 -1.33301 127.834 -11.166 183.501 -29.499s103 -45.333 142 -81s68.167 -80 87.5 -133s25.666 -114.833 18.999 -185.5c-4 -50 -15.333 -95.667 -34 -137s-42.834 -78.666 -72.501 -111.999
s-64 -62.5 -103 -87.5s-80.833 -45.5 -125.5 -61.5l226 -615l-1 -13h-200zM376.001 745.998l276 -0.999023c44 0 86.333 6 127 18s77.167 29.833 109.5 53.5s59.333 53 81 88s35.5 75.5 41.5 121.5c5.33301 43.333 3.33301 81.666 -6 114.999s-24.833 61.333 -46.5 84
s-49.167 40 -82.5 52s-71 18.667 -113 20l-291 1z" />
    <glyph glyph-name="S" unicode="S" horiz-adv-x="1189" 
d="M880 375c5.33301 44 0.166016 80.8359 -15.501 110.503s-37.5 54.667 -65.5 75s-59.833 37.333 -95.5 51s-70.834 26.167 -105.501 37.5c-50 16.667 -99.667 36.667 -149 60s-93.333 51.833 -132 85.5s-69.167 73 -91.5 118s-31.5 98.167 -27.5 159.5
c4.66699 66.667 23.167 125.5 55.5 176.5s73.166 93.5 122.499 127.5s104.5 59.333 165.5 76s122.167 24.667 183.5 24c64.667 -1.33301 124.834 -12.5 180.501 -33.5s103.834 -50.5 144.501 -88.5s71.834 -84 93.501 -138s31.167 -114.333 28.5 -181h-188
c5.33301 88.667 -15.334 157.667 -62.001 207s-114.667 74.666 -204 75.999c-39.333 0.666992 -77.666 -3.66602 -114.999 -12.999s-71.166 -24 -101.499 -44s-55.833 -45.333 -76.5 -76s-33.334 -67.334 -38.001 -110.001c-4.66699 -40 1.5 -74 18.5 -102
s39.5 -52 67.5 -72s59.167 -36.5 93.5 -49.5s66.833 -24.5 97.5 -34.5c54 -18 106.167 -39 156.5 -63s94.666 -53.167 132.999 -87.5s68.166 -75.166 89.499 -122.499s29.666 -103 24.999 -167c-5.33301 -69.333 -24.666 -129.166 -57.999 -179.499
s-75.166 -91.833 -125.499 -124.5s-106.5 -56.667 -168.5 -72s-124.333 -22.333 -187 -21c-65.333 0.666992 -127.666 11.167 -186.999 31.5s-111.333 49.333 -156 87s-79.667 83.667 -105 138s-36.333 116.5 -33 186.5l188 -1c-3.33301 -47.333 2.16699 -88.5 16.5 -123.5
s35 -64.333 62 -88s59.5 -41.667 97.5 -54s79.333 -18.833 124 -19.5c38.667 -0.666992 77.5 3.16602 116.5 11.499s74.5 22.166 106.5 41.499s58.833 44.166 80.5 74.499s35.167 67.166 40.5 110.499z" />
    <glyph glyph-name="T" unicode="T" horiz-adv-x="1195" 
d="M1261 1298h-453l-225 -1298h-187l225 1298h-453l28 158h1093z" />
    <glyph glyph-name="U" unicode="U" horiz-adv-x="1298" 
d="M1308 1456l-168.002 -985c-11.333 -76 -33.833 -144.5 -67.5 -205.5s-76.334 -113 -128.001 -156s-110.667 -75.833 -177 -98.5s-137.833 -33.334 -214.5 -32.001c-72 1.33301 -137 14 -195 38s-106.333 57.5 -145 100.5s-66.667 94.333 -84 154
s-21.666 125.834 -12.999 198.501l168 986h185l-167 -987c-5.33301 -47.333 -4.16602 -91 3.50098 -131s22.334 -74.667 44.001 -104s50.167 -52.5 85.5 -69.5s78 -26.167 128 -27.5c52.667 -2 101.167 4.66699 145.5 20s83 37.5 116 66.5s60.333 64.333 82 106
s36.5 88.167 44.5 139.5l168 987h189z" />
    <glyph glyph-name="V" unicode="V" horiz-adv-x="1274" 
d="M574 257l591 1199h212l-752 -1456h-166l-295 1456h197z" />
    <glyph glyph-name="W" unicode="W" horiz-adv-x="1772" 
d="M446 449l-4 -176l68 172l435 1011h159l115 -1024l10 -166l63 201l372 989h193l-570 -1456h-171l-126 1069l-4 100l-42 -116l-464 -1053h-171l-114 1456h183z" />
    <glyph glyph-name="X" unicode="X" horiz-adv-x="1255" 
d="M666 899l425 557h232l-567 -731l339 -725h-211l-258 567l-438 -567h-232l579 743l-330 713h208z" />
    <glyph glyph-name="Y" unicode="Y" horiz-adv-x="1203" 
d="M611 726l495 730h224l-653 -923l-93 -533h-187l96 554l-325 902h204z" />
    <glyph glyph-name="Z" unicode="Z" horiz-adv-x="1199" 
d="M241 157h803l-25 -157h-1030l24 153l947 1145h-756l26 158h985l-23 -150z" />
    <glyph glyph-name="bracketleft" unicode="[" horiz-adv-x="537" 
d="M650 1512h-185l-261 -1672h186l-24 -152h-367l308 1976h368z" />
    <glyph glyph-name="backslash" unicode="\" horiz-adv-x="825" 
d="M191 1456h164l315 -1581h-163z" />
    <glyph glyph-name="bracketright" unicode="]" horiz-adv-x="537" 
d="M175 1664h368l-309 -1976h-368l24 152h187l261 1672h-188z" />
    <glyph glyph-name="asciicircum" unicode="^" horiz-adv-x="840" 
d="M524 1209l-268 -480h-177l417 727h124l163 -727h-158z" />
    <glyph glyph-name="underscore" unicode="_" horiz-adv-x="906" 
d="M763 -151h-890l27 151h890z" />
    <glyph glyph-name="grave" unicode="`" horiz-adv-x="624" 
d="M555 1240h-143l-205 294h205z" />
    <glyph glyph-name="a" unicode="a" horiz-adv-x="1091" 
d="M689 0c-4.66699 19.333 -7.00195 38.333 -7.00195 57s1 37.667 3 57c-44 -40.667 -92.333 -73.5 -145 -98.5s-109.667 -36.833 -171 -35.5c-45.333 0.666992 -87.666 8.5 -126.999 23.5s-73.333 36.167 -102 63.5s-50.667 60 -66 98s-21.666 80.333 -18.999 127
c4 68.667 22.167 126.334 54.5 173.001s73.166 84.167 122.499 112.5s104 48.666 164 60.999s119.667 18.5 179 18.5l189 -1l12 86c3.33301 31.333 2 59.833 -4 85.5s-16.667 47.834 -32 66.501s-35.166 33.167 -59.499 43.5s-52.5 15.833 -84.5 16.5
c-28 0.666992 -55.667 -2.5 -83 -9.5s-52.5 -17.667 -75.5 -32s-42.833 -32.333 -59.5 -54s-28 -46.834 -34 -75.501l-182 -1c5.33301 54 22.833 101.167 52.5 141.5s66 74 109 101s90.167 47 141.5 60s101 19.167 149 18.5c54.667 -1.33301 104.167 -10.5 148.5 -27.5
s81.833 -41.167 112.5 -72.5s53.167 -69.166 67.5 -113.499s18.833 -94.5 13.5 -150.5l-83 -503c-6 -36.667 -9.5 -73.334 -10.5 -110.001s3.16699 -73 12.5 -109l-2 -17h-184zM404.998 140c30.667 -0.666992 60.166 2.83301 88.499 10.5s55.166 18.834 80.499 33.501
s48.833 32 70.5 52s41.167 42 58.5 66l39 223l-137 1c-36 0 -74.333 -2.5 -115 -7.5s-78.667 -15 -114 -30s-65.5 -36 -90.5 -63s-40.167 -62.5 -45.5 -106.5c-3.33301 -27.333 -1.5 -51.833 5.5 -73.5s17.833 -40.334 32.5 -56.001s32.834 -27.667 54.501 -36
s45.834 -12.833 72.501 -13.5z" />
    <glyph glyph-name="b" unicode="b" horiz-adv-x="1125" 
d="M1013 536c-5.33301 -44 -14.001 -88.499 -26.001 -133.499s-27.667 -88.333 -47 -130s-42.166 -80.5 -68.499 -116.5s-56.5 -67.333 -90.5 -94s-72.333 -47.5 -115 -62.5s-89.334 -21.833 -140.001 -20.5c-59.333 1.33301 -114.333 13.666 -165 36.999
s-92.667 60 -126 110l-37 -126h-167l267 1536h181l-109 -574c42 46.667 89.333 82 142 106s110.667 35.333 174 34c48.667 -1.33301 91.334 -10 128.001 -26s68 -37.5 94 -64.5s47 -58.333 63 -94s28 -73.5 36 -113.5s12.5 -81.167 13.5 -123.5s-0.833008 -83.5 -5.5 -123.5
zM834.999 557.001c3.33301 26.667 5.33203 54.665 5.99902 83.998s-0.666016 58.333 -3.99902 87s-9.33301 55.834 -18 81.501s-21 48.5 -37 68.5s-36.167 36 -60.5 48s-53.833 18.667 -88.5 20c-32 0.666992 -61.667 -3.16602 -89 -11.499s-52.833 -20 -76.5 -35
s-45.5 -33.167 -65.5 -54.5s-38.333 -44.333 -55 -69l-81 -471c18.667 -51.333 46.667 -92 84 -122s84.333 -45.667 141 -47c55.333 -2 103 9 143 33s73.667 55.333 101 94s48.833 82.167 64.5 130.5s26.5 95.833 32.5 142.5z" />
    <glyph glyph-name="c" unicode="c" horiz-adv-x="1050" 
d="M475 130c32.667 -0.666992 64.168 4.00098 94.501 14.001s57.833 24.167 82.5 42.5s45.834 40.666 63.501 66.999s30.834 55.166 39.501 86.499l171 1c-8 -54 -26.5 -103.5 -55.5 -148.5s-64.5 -83.5 -106.5 -115.5s-88.833 -56.667 -140.5 -74
s-104.167 -25.333 -157.5 -24c-76 2 -140.333 18.333 -193 49s-94.5 71 -125.5 121s-52.167 106.833 -63.5 170.5s-13.333 129.5 -6 197.5l5 43c8.66699 72.667 27 142.167 55 208.5s65.167 124.5 111.5 174.5s101 89.5 164 118.5s133.833 42.5 212.5 40.5
c56.667 -1.33301 107.834 -12 153.501 -32s84.5 -47.5 116.5 -82.5s56.667 -76.167 74 -123.5s25.666 -99 24.999 -155h-169c0 32.667 -4.33301 63.334 -13 92.001s-21.834 54 -39.501 76s-39.5 39.5 -65.5 52.5s-56.333 20.167 -91 21.5
c-55.333 2 -103.833 -8.33301 -145.5 -31s-77 -52.667 -106 -90s-52 -79.666 -69 -126.999s-28.833 -95 -35.5 -143l-5 -42c-4.66699 -42.667 -6 -86.5 -4 -131.5s10.667 -86.333 26 -124s38.666 -68.834 69.999 -93.501s73.666 -37.667 126.999 -39z" />
    <glyph glyph-name="d" unicode="d" horiz-adv-x="1130" 
d="M83 543c5.33301 44.667 14.168 89.666 26.501 134.999s28.333 88.833 48 130.5s43 80.667 70 117s58 67.833 93 94.5s73.833 47.5 116.5 62.5s89.667 21.833 141 20.5c55.333 -1.33301 107 -12.5 155 -33.5s89 -53.833 123 -98.5l104 565h181l-266 -1536h-165l19 116
c-42 -46 -89.333 -80.5 -142 -103.5s-110.667 -33.833 -174 -32.5c-47.333 1.33301 -88.833 10.166 -124.5 26.499s-66.5 38.166 -92.5 65.499s-47.5 58.833 -64.5 94.5s-29.833 73.334 -38.5 113.001s-13.834 80.334 -15.501 122.001s-0.5 81.834 3.5 120.501z
M262.002 521.999c-3.33301 -26 -5.16797 -53.667 -5.50098 -83s1.33398 -58 5.00098 -86s10 -55 19 -81s21.5 -48.833 37.5 -68.5s36.167 -35.667 60.5 -48s53.5 -18.833 87.5 -19.5c30.667 -1.33301 59.167 1.83398 85.5 9.50098s51 18.5 74 32.5s44.333 31 64 51
s38.167 41.667 55.5 65l86 500c-19.333 47.333 -47.5 84.166 -84.5 110.499s-81.5 40.166 -133.5 41.499c-56 1.33301 -104.333 -10 -145 -34s-75 -55.333 -103 -94s-50.167 -82.167 -66.5 -130.5s-27.5 -96.166 -33.5 -143.499z" />
    <glyph glyph-name="e" unicode="e" horiz-adv-x="1062" 
d="M480 -20c-74 1.33301 -137.83 16.501 -191.497 45.501s-97.167 67.5 -130.5 115.5s-56.833 103 -70.5 165s-17.5 126.667 -11.5 194l5 43c5.33301 46 15.166 92 29.499 138s32.833 90 55.5 132s49.5 80.833 80.5 116.5s65.667 66.5 104 92.5s80 46.167 125 60.5
s93.167 20.833 144.5 19.5c74.667 -2 136.667 -18.5 186 -49.5s87.833 -71.333 115.5 -121s45.5 -105.834 53.5 -168.501s7.66699 -126.667 -1 -192l-12 -83h-706c-6 -42 -6 -84 0 -126s18.5 -79.833 37.5 -113.5s45.167 -61.334 78.5 -83.001s74.333 -33.167 123 -34.5
c61.333 -1.33301 116.333 11.5 165 38.5s93 62.167 133 105.5l104 -88c-24 -34.667 -51.333 -65 -82 -91s-63.834 -47.833 -99.501 -65.5s-73.334 -30.667 -113.001 -39s-80.5 -12.166 -122.5 -11.499zM610.003 951.001c-46 2 -86.832 -6 -122.499 -24
s-67 -41.833 -94 -71.5s-50.167 -63.334 -69.5 -101.001s-35.333 -75.834 -48 -114.501l526 -2l4 18c5.33301 35.333 5.66602 70.333 0.999023 105s-15 65.834 -31 93.501s-37.667 50.334 -65 68.001s-61 27.167 -101 28.5z" />
    <glyph glyph-name="f" unicode="f" horiz-adv-x="700" 
d="M119 0l164.001 939h-167l25 143h166l16 114c7.33301 54.667 21.333 104.5 42 149.5s47.834 83.5 81.501 115.5s73.167 56.5 118.5 73.5s96.666 25.167 153.999 24.5c22 0 43.667 -1.66699 65 -5s42.666 -7.33301 63.999 -12l-22 -151c-16 3.33301 -32 6 -48 8
s-32.333 3.33301 -49 4c-32 0 -60.667 -5 -86 -15s-47.333 -24.333 -66 -43s-34.167 -40.667 -46.5 -66s-20.833 -53 -25.5 -83l-17 -114h224l-25 -143h-224l-163 -939h-181z" />
    <glyph glyph-name="g" unicode="g" horiz-adv-x="1125" 
d="M84 543c6 44.667 14.9971 89.665 26.9971 134.998s27.833 89 47.5 131s42.834 81.167 69.501 117.5s57.334 67.666 92.001 93.999s73.5 47 116.5 62s90.167 21.833 141.5 20.5c58 -1.33301 111.5 -13.333 160.5 -36s90.167 -58 123.5 -106l36 121h166l-180 -1059
c-9.33301 -67.333 -28.166 -129 -56.499 -185s-64.5 -104 -108.5 -144s-95.167 -70.667 -153.5 -92s-122.5 -31 -192.5 -29c-36 0.666992 -71.667 5.33398 -107 14.001s-69 20.834 -101 36.501s-61.833 35.167 -89.5 58.5s-51.5 50 -71.5 80l103 111
c30.667 -45.333 67.5 -81.166 110.5 -107.499s92.5 -40.166 148.5 -41.499c46 -1.33301 87.833 4.83398 125.5 18.501s70.667 33.167 99 58.5s52 56 71 92s32.833 75.667 41.5 119l20 96c-42.667 -42.667 -89.667 -75 -141 -97s-107.333 -32.333 -168 -31
c-47.333 1.33301 -89.166 10.166 -125.499 26.499s-67.5 38 -93.5 65s-47.333 58.333 -64 94s-29.334 73.5 -38.001 113.5s-13.667 80.667 -15 122s0 81.666 4 120.999zM263.997 521.998c-3.33301 -26 -5.16992 -53.501 -5.50293 -82.501s1.33398 -57.667 5.00098 -86
s9.83398 -55.333 18.501 -81s21 -48.5 37 -68.5s36.167 -36 60.5 -48s53.5 -18.667 87.5 -20c60.667 -1.33301 113.834 13 159.501 43s85.5 68.667 119.5 116l85 497c-19.333 48 -47.333 85.167 -84 111.5s-81 40.5 -133 42.5c-56 1.33301 -104.333 -10 -145 -34
s-75 -55.5 -103 -94.5s-50 -82.667 -66 -131s-27 -96.166 -33 -143.499z" />
    <glyph glyph-name="h" unicode="h" horiz-adv-x="1104" 
d="M369 950c43.333 47.333 92.3301 84.667 146.997 112s114.667 40.333 180 39c58 -0.666992 106.167 -11.667 144.5 -33s68.5 -49.833 90.5 -85.5s36.333 -77.167 43 -124.5s7.33398 -97 2.00098 -149l-118 -709h-181l119 712c4 32.667 4.33301 63 1 91
s-11.166 52.5 -23.499 73.5s-30 37.667 -53 50s-52.5 18.833 -88.5 19.5c-31.333 0.666992 -60.666 -3.33301 -87.999 -12s-52.833 -21 -76.5 -37s-45.667 -34.667 -66 -56s-38.833 -44.333 -55.5 -69l-134 -772h-181l267 1536h181z" />
    <glyph glyph-name="i" unicode="i" horiz-adv-x="492" 
d="M227 0h-180l188 1082h180zM270 1366c0.666992 31.333 10.6689 57.334 30.002 78.001s44.666 31.667 75.999 33c16 0.666992 30.5 -1.5 43.5 -6.5s24.333 -12.333 34 -22s17 -21 22 -34s7.5 -27.167 7.5 -42.5c-0.666992 -31.333 -10.834 -57 -30.501 -77
s-45.167 -30.667 -76.5 -32s-57 7.66699 -77 27s-29.667 44.666 -29 75.999z" />
    <glyph glyph-name="j" unicode="j" horiz-adv-x="484" 
d="M406 1082l-204.999 -1211c-6 -45.333 -16.667 -87.166 -32 -125.499s-36 -71.333 -62 -99s-57.667 -49.167 -95 -64.5s-80.333 -22.666 -129 -21.999c-20.667 0.666992 -40.834 2.83398 -60.501 6.50098s-39.167 8.16699 -58.5 13.5l16 148
c14 -3.33301 27.833 -5.83301 41.5 -7.5s27.5 -2.83398 41.5 -3.50098c24 0 45 3.83301 63 11.5s33.167 18.334 45.5 32.001s22.333 30 30 49s13.167 39.5 16.5 61.5l207 1211h181zM256.001 1366c0.666992 31.333 10.499 57.333 29.499 78s44.5 31.667 76.5 33
c15.333 0.666992 29.5 -1.5 42.5 -6.5s24.333 -12.333 34 -22s17.167 -21 22.5 -34s8 -27.167 8 -42.5c-0.666992 -31.333 -11 -57 -31 -77s-45.667 -30.667 -77 -32c-15.333 -0.666992 -29.333 1.5 -42 6.5s-23.667 12.167 -33 21.5s-16.666 20.333 -21.999 33
s-8 26.667 -8 42z" />
    <glyph glyph-name="k" unicode="k" horiz-adv-x="1017" 
d="M419 499l-142 -127l-64 -372h-181l267 1536h181l-160 -918l111 112l384 352h235l-497 -461l342 -621h-198z" />
    <glyph glyph-name="l" unicode="l" horiz-adv-x="492" 
d="M227 0h-180l266 1536h181z" />
    <glyph glyph-name="m" unicode="m" horiz-adv-x="1751" 
d="M388 1083l-22.999 -121c44 46.667 93.5 82 148.5 106s115.167 35.333 180.5 34c30 -0.666992 59.167 -4.33398 87.5 -11.001s54.666 -17 78.999 -31s45.666 -32 63.999 -54s32.5 -48 42.5 -78c46.667 54.667 99.667 97.667 159 129s126 46.333 200 45
c58.667 -1.33301 108.167 -12.333 148.5 -33s72.333 -48.5 96 -83.5s39.667 -76 48 -123s9.5 -97.5 3.5 -151.5l-119 -711h-180l118 713c4 34.667 4 66.334 0 95.001s-13 53.167 -27 73.5s-33.333 36.166 -58 47.499s-55.667 17.333 -93 18
c-34 0.666992 -66.5 -4.66602 -97.5 -15.999s-59 -27 -84 -47s-46.333 -44.167 -64 -72.5s-30.167 -59.166 -37.5 -92.499l-123 -719h-182l120 712c4 33.333 3.66699 64.166 -1 92.499s-14.167 52.666 -28.5 72.999s-33.666 36.5 -57.999 48.5s-54.5 18.333 -90.5 19
c-60 1.33301 -112 -11.667 -156 -39s-81.667 -65.666 -113 -114.999l-137 -791h-181l188 1082z" />
    <glyph glyph-name="n" unicode="n" horiz-adv-x="1106" 
d="M390 1083l-26.0029 -137.001c44 48 93.667 86.333 149 115s116.333 42.334 183 41.001c58 -1.33301 106.167 -12.666 144.5 -33.999s68.5 -49.833 90.5 -85.5s36.333 -77.167 43 -124.5s7.33398 -97 2.00098 -149l-118 -709h-181l119 712c4 32.667 4.33301 63 1 91
s-11.166 52.5 -23.499 73.5s-30 37.667 -53 50s-52.5 18.833 -88.5 19.5c-31.333 0.666992 -60.666 -3.5 -87.999 -12.5s-52.833 -21.333 -76.5 -37s-45.667 -34.334 -66 -56.001s-38.833 -44.5 -55.5 -68.5l-134 -772h-181l188 1082z" />
    <glyph glyph-name="o" unicode="o" horiz-adv-x="1143" 
d="M80 544c6 48.667 16.5049 96.499 31.5049 143.499s34.167 91.333 57.5 133s50.833 80 82.5 115s67 65 106 90s81.667 44.333 128 58s96.166 19.834 149.499 18.501c76 -2 141 -18.833 195 -50.5s97.333 -73 130 -124s55.167 -109 67.5 -174s14.833 -131.5 7.5 -199.5
l-2 -23c-9.33301 -73.333 -28.833 -143.5 -58.5 -210.5s-68.334 -126.167 -116.001 -177.5s-103.667 -91.833 -168 -121.5s-135.833 -43.5 -214.5 -41.5c-75.333 2 -139.833 18.5 -193.5 49.5s-96.834 71.833 -129.501 122.5s-55.334 108 -68.001 172
s-15.334 130 -8.00098 198zM259.005 521.999c-3.33301 -28 -4.83496 -56.999 -4.50195 -86.999s3 -59.333 8 -88s12.833 -55.834 23.5 -81.501s24.834 -48.334 42.501 -68.001s39.334 -35.5 65.001 -47.5s55.834 -18.667 90.501 -20c55.333 -2 104.333 8.83301 147 32.5
s79.167 54.834 109.5 93.501s54.666 82.167 72.999 130.5s30.833 96.5 37.5 144.5l3 22c3.33301 28 4.83301 57.167 4.5 87.5s-3 60 -8 89s-12.833 56.667 -23.5 83s-25 49.5 -43 69.5s-40 36.167 -66 48.5s-56.333 19.166 -91 20.499c-56 2 -105.167 -9.16699 -147.5 -33.5
s-78.5 -56.166 -108.5 -95.499s-54 -83.5 -72 -132.5s-30.333 -97.5 -37 -145.5z" />
    <glyph glyph-name="p" unicode="p" horiz-adv-x="1125" 
d="M1011 536c-5.33301 -44 -14.002 -88.5 -26.002 -133.5s-27.5 -88.333 -46.5 -130s-41.667 -80.5 -68 -116.5s-56.666 -67.333 -90.999 -94s-72.666 -47.5 -114.999 -62.5s-88.833 -21.833 -139.5 -20.5c-56.667 1.33301 -109.834 11.833 -159.501 31.5
s-92.5 51.5 -128.5 95.5l-97 -522h-181l260 1498l164 1l-20 -121c43.333 46.667 91.5 82 144.5 106s111.833 35.333 176.5 34c48.667 -1.33301 91.334 -10 128.001 -26s68 -37.5 94 -64.5s47 -58.333 63 -94s28 -73.5 36 -113.5s12.5 -81.167 13.5 -123.5
s-0.5 -83.5 -4.5 -123.5zM832.998 557c2.66699 26.667 4.16895 54.668 4.50195 84.001s-1.5 58.333 -5.5 87s-10.833 55.834 -20.5 81.501s-22.834 48.5 -39.501 68.5s-37.334 36 -62.001 48s-54 18.667 -88 20c-58.667 1.33301 -110 -11.834 -154 -39.501
s-83 -64.167 -117 -109.5l-91 -519c20 -47.333 48.5 -83.5 85.5 -108.5s81.5 -38.167 133.5 -39.5c55.333 -1.33301 103.5 10.167 144.5 34.5s75.833 56.166 104.5 95.499s51.167 83.333 67.5 132s27.833 96.667 34.5 144z" />
    <glyph glyph-name="q" unicode="q" horiz-adv-x="1139" 
d="M83 544c5.33301 45.333 14.332 90.833 26.999 136.5s28.834 89.334 48.501 131.001s43 80.5 70 116.5s58 67.167 93 93.5s74.167 46.833 117.5 61.5s91 21.334 143 20.001c56 -1.33301 108 -12.333 156 -33s89 -53.334 123 -98.001l33 110h167l-260 -1498h-180l98 516
c-42 -40 -88.167 -70.333 -138.5 -91s-104.833 -30.334 -163.5 -29.001c-48 0.666992 -90.333 9.16699 -127 25.5s-68.167 38 -94.5 65s-48 58.167 -65 93.5s-30 73 -39 113s-14.333 80.833 -16 122.5s-0.166992 82.5 4.5 122.5zM261.999 522
c-2.66699 -26.667 -4.33203 -54.667 -4.99902 -84s1 -58.333 5 -87s10.5 -56.167 19.5 -82.5s21.667 -49.5 38 -69.5s36.666 -36.333 60.999 -49s53.833 -19.334 88.5 -20.001c28.667 -0.666992 55.667 2.5 81 9.5s49.166 17 71.499 30s43.333 28.5 63 46.5
s38.167 38 55.5 60l94 532c-21.333 44.667 -50.166 79.334 -86.499 104.001s-79.5 37.667 -129.5 39c-56 1.33301 -104.667 -10.167 -146 -34.5s-76.333 -56.333 -105 -96s-51.167 -84 -67.5 -133s-27.833 -97.167 -34.5 -144.5z" />
    <glyph glyph-name="r" unicode="r" horiz-adv-x="682" 
d="M704 917c-28 4.66699 -56.333 7.66699 -85 9c-60.667 0 -113.5 -13.667 -158.5 -41s-83.5 -66 -115.5 -116l-133 -769h-181l188 1082l175 1l-27 -126c34 44.667 73 80.667 117 108s95.333 40.333 154 39c15.333 0 30 -1.5 44 -4.5s28 -6.5 42 -10.5z" />
    <glyph glyph-name="s" unicode="s" horiz-adv-x="1034" 
d="M699 293c4 30.667 0.334961 56.167 -10.998 76.5s-27.333 37.333 -48 51s-43.834 24.5 -69.501 32.5s-50.5 15 -74.5 21c-40 10 -80.5 22.333 -121.5 37s-77.833 33.5 -110.5 56.5s-59 51.5 -79 85.5s-29 75.667 -27 125c2.66699 53.333 17 100.333 43 141
s59 74.667 99 102s84.5 47.833 133.5 61.5s97.5 20.167 145.5 19.5c50.667 -0.666992 98.5 -8.66699 143.5 -24s84.167 -37.5 117.5 -66.5s59.333 -64.333 78 -106s27.334 -89.167 26.001 -142.5l-180 1c0.666992 28 -3.66602 53.333 -12.999 76s-22.666 42 -39.999 58
s-37.833 28.333 -61.5 37s-49.5 13.334 -77.5 14.001c-26 0.666992 -52.167 -2.16602 -78.5 -8.49902s-50.5 -16.333 -72.5 -30s-40.5 -30.834 -55.5 -51.501s-24.5 -45.334 -28.5 -74.001c-2.66699 -19.333 -1.33398 -36.166 3.99902 -50.499s13.333 -27 24 -38
s23.167 -20.167 37.5 -27.5s29.666 -13.833 45.999 -19.5s32.666 -10.5 48.999 -14.5s31.5 -8 45.5 -12c41.333 -10.667 82.5 -23.834 123.5 -39.501s77.833 -35.667 110.5 -60s58.5 -54 77.5 -89s27.167 -77.5 24.5 -127.5c-3.33301 -56.667 -18.5 -105.834 -45.5 -147.501
s-61.167 -76 -102.5 -103s-87.5 -46.833 -138.5 -59.5s-101.833 -18.334 -152.5 -17.001c-52.667 0.666992 -102.834 9 -150.501 25s-89.667 39 -126 69s-65 66.667 -86 110s-30.833 93.333 -29.5 150l181 -1c0 -32.667 5.5 -61.5 16.5 -86.5s26 -46 45 -63
s41.667 -29.833 68 -38.5s55.5 -13 87.5 -13c26.667 -0.666992 54 1.83301 82 7.5s54 14.834 78 27.501s44.5 29.334 61.5 50.001s27.5 46 31.5 76z" />
    <glyph glyph-name="t" unicode="t" horiz-adv-x="659" 
d="M509 1344l-46.002 -261.999h197l-25 -143h-196l-113 -673c-2 -17.333 -2.33301 -33.5 -1 -48.5s5 -28.333 11 -40s15 -20.834 27 -27.501s27.667 -10 47 -10c14.667 0 29.334 1 44.001 3s29.334 4.33301 44.001 7l-14 -151c-43.333 -12 -87.333 -18 -132 -18
c-41.333 0.666992 -75.833 9.16699 -103.5 25.5s-49.5 37.833 -65.5 64.5s-26.667 57.167 -32 91.5s-6.33301 69.833 -3 106.5l110 670h-191l25 143h191l46 262h180z" />
    <glyph glyph-name="u" unicode="u" horiz-adv-x="1105" 
d="M707 107c-44 -45.333 -93.1689 -78.166 -147.502 -98.499s-112.833 -29.833 -175.5 -28.5c-58.667 1.33301 -107.5 13.166 -146.5 35.499s-69.667 52 -92 89s-37 79.5 -44 127.5s-7.83301 98.333 -2.5 151l116 699h181l-117 -702c-3.33301 -29.333 -4 -58.166 -2 -86.499
s8.33301 -53.833 19 -76.5s26.334 -41.334 47.001 -56.001s48.334 -22.667 83.001 -24c64.667 -2 122.167 10.333 172.5 37s92.833 66.667 127.5 120l136 788h181l-188 -1082h-171z" />
    <glyph glyph-name="v" unicode="v" horiz-adv-x="972" 
d="M424 253l390 829h191l-545 -1082h-138l-212 1082h178z" />
    <glyph glyph-name="w" unicode="w" horiz-adv-x="1503" 
d="M1002 256l345 826h187l-493 -1082h-147l-112 818l-390 -818h-147l-117 1082h173l66 -806l384 806h146z" />
    <glyph glyph-name="x" unicode="x" horiz-adv-x="995" 
d="M496 688l294 394h222l-434 -544l264 -538h-197l-179 404l-305 -404h-221l447 556l-256 526h198z" />
    <glyph glyph-name="y" unicode="y" horiz-adv-x="950" 
d="M419 273l384.999 808.999h200l-636 -1250c-17.333 -35.333 -37.166 -69.5 -59.499 -102.5s-47.833 -62.167 -76.5 -87.5s-60.834 -45.5 -96.501 -60.5s-74.834 -22.167 -117.501 -21.5c-18.667 0.666992 -37.167 2.83398 -55.5 6.50098s-36.166 7.5 -53.499 11.5l16 150
c7.33301 -1.33301 15 -2.5 23 -3.5s16 -1.5 24 -1.5c32.667 -1.33301 62 2 88 10s49.333 19.833 70 35.5s39.334 34.667 56.001 57s32 47.5 46 75.5l64 122l-187 1059h189z" />
    <glyph glyph-name="z" unicode="z" horiz-adv-x="995" 
d="M241 151h609l-25 -151h-834l23 144l695 785h-564l24 153h797l-22 -139z" />
    <glyph glyph-name="braceleft" unicode="{" horiz-adv-x="682" 
d="M478 -365c-54 18 -100.495 41.8262 -139.495 71.4932s-70.5 64.334 -94.5 104.001s-40.333 83.834 -49 132.501s-10 100.667 -4 156l28 207c4 32.667 4.33301 62.834 1 90.501s-11.333 51.834 -24 72.501s-30.334 37.334 -53.001 50.001s-51.667 20 -87 22l16 145
c74.667 3.33301 132.167 26 172.5 68s65.5 99 75.5 171l28 207c17.333 124 60.666 224.167 129.999 300.5s164 131.833 284 166.5l27 -117c-40.667 -13.333 -75.834 -31.5 -105.501 -54.5s-54.834 -49.667 -75.501 -80s-37.334 -63.666 -50.001 -99.999
s-22 -74.833 -28 -115.5l-29 -207c-9.33301 -72 -31.333 -133.833 -66 -185.5s-84 -94.5 -148 -128.5c24 -18 44 -38.667 60 -62s28.333 -48.166 37 -74.499s14 -54 16 -83s1.66699 -57.833 -1 -86.5l-27 -207c-4.66699 -36 -6.66699 -71.667 -6 -107
s6.16699 -68.5 16.5 -99.5s26.333 -59 48 -84s51.167 -44.833 88.5 -59.5z" />
    <glyph glyph-name="bar" unicode="|" horiz-adv-x="494" 
d="M179 -270h-146l270 1726h146z" />
    <glyph glyph-name="braceright" unicode="}" horiz-adv-x="682" 
d="M-116 -251c40.667 13.333 76.0068 31.501 106.007 54.501s55.5 49.667 76.5 80s37.833 63.666 50.5 99.999s22 74.833 28 115.5l28 206c9.33301 74.667 32.666 137.667 69.999 189s90 93.333 158 126c-27.333 16.667 -49.666 36.334 -66.999 59.001
s-30.833 47.167 -40.5 73.5s-15.834 54.166 -18.501 83.499s-2.33398 59 0.999023 89l27 208c4.66699 36 6.66699 71.667 6 107s-6 68.5 -16 99.5s-25.833 58.833 -47.5 83.5s-51.167 44.334 -88.5 59.001l45 113c53.333 -18 99.166 -41.833 137.499 -71.5
s69.166 -64.334 92.499 -104.001s39.166 -83.834 47.499 -132.501s9.5 -100.334 3.5 -155.001l-27 -208c-4 -33.333 -4.33301 -63.666 -1 -90.999s11.166 -51.333 23.499 -72s29.833 -37.167 52.5 -49.5s51.667 -19.5 87 -21.5l-15 -145
c-74.667 -3.33301 -132.167 -26.166 -172.5 -68.499s-65.833 -99.5 -76.5 -171.5l-28 -206c-16.667 -124.667 -59.834 -225 -129.501 -301s-164.5 -131.333 -284.5 -166z" />
    <glyph glyph-name="asciitilde" unicode="~" horiz-adv-x="1361" 
d="M1245 778c-4 -47.333 -14.6709 -93.8359 -32.0039 -139.503s-40.666 -86.167 -69.999 -121.5s-64.666 -63.833 -105.999 -85.5s-88.333 -32.167 -141 -31.5c-28 0.666992 -54.5 4.83398 -79.5 12.501s-48.833 17.834 -71.5 30.501s-44.334 27.334 -65.001 44.001
s-40.667 34.667 -60 54l-37 35.5c-12.667 11.667 -26 22.167 -40 31.5s-28.667 17 -44 23s-32 9 -50 9c-30 0.666992 -55.833 -4.66602 -77.5 -15.999s-40 -26.5 -55 -45.5s-27 -40.667 -36 -65s-15.5 -49.166 -19.5 -74.499l-156 -3
c4.66699 47.333 15.834 93.333 33.501 138s41.334 84.167 71.001 118.5s65.334 61.666 107.001 81.999s88.5 29.833 140.5 28.5c28 -0.666992 54.5 -4.66699 79.5 -12s48.833 -17.333 71.5 -30s44.167 -27.5 64.5 -44.5s40.166 -34.833 59.499 -53.5l37 -35.5
c12.667 -11.667 26 -22.334 40 -32.001s28.833 -17.5 44.5 -23.5s32.5 -9 50.5 -9c30 0 56.5 6.16699 79.5 18.5s42.5 28.5 58.5 48.5s28.833 42.667 38.5 68s16.834 51 21.501 77z" />
    <glyph glyph-name="uni0400" unicode="&#x400;" horiz-adv-x="1139" 
d="M976 673h-612l-90 -516h712l-28 -157h-899l253 1456h889l-28 -158h-701l-81 -468h612zM866 1562h-143l-205 294h205z" />
    <glyph glyph-name="uni0401" unicode="&#x401;" horiz-adv-x="1139" 
d="M976 673h-612l-90 -516h712l-28 -157h-899l253 1456h889l-28 -158h-701l-81 -468h612zM476 1691c0.666992 30.667 10.6699 56.1699 30.0029 76.5029s44.666 31.166 75.999 32.499c31.333 0.666992 57.166 -8.83301 77.499 -28.5s30.166 -45.167 29.499 -76.5
c0 -30.667 -10 -56 -30 -76s-45.667 -30.667 -77 -32c-31.333 -0.666992 -56.833 8.66602 -76.5 27.999s-29.5 44.666 -29.5 75.999zM893.003 1689c0.666992 30.667 10.667 56.335 30 77.002s44.666 31.667 75.999 33c32 0.666992 58 -8.83301 78 -28.5
s29.667 -45.5 29 -77.5c0 -31.333 -10 -56.833 -30 -76.5s-45.667 -30.167 -77 -31.5c-30.667 -0.666992 -56.167 8.66602 -76.5 27.999s-30.166 44.666 -29.499 75.999z" />
    <glyph glyph-name="uni0402" unicode="&#x402;" horiz-adv-x="1499" 
d="M1258 1298l-505.002 -0.00585938l-86 -456c45.333 14 91.5 25.667 138.5 35s94.5 13.333 142.5 12c68.667 -0.666992 131.167 -11.167 187.5 -31.5s104 -49.5 143 -87.5s68 -84.667 87 -140s25.5 -118.666 19.5 -189.999c-6.66699 -78 -25.5 -145.167 -56.5 -201.5
s-71 -103 -120 -140s-105.5 -64.667 -169.5 -83s-132.333 -28.166 -205 -29.499l11 152c48.667 0.666992 93.167 7.5 133.5 20.5s75.833 32.167 106.5 57.5s55.5 56.666 74.5 93.999s31.167 81 36.5 131c4.66699 44.667 2.33398 84.334 -6.99902 119.001
s-25.166 63.834 -47.499 87.501s-50.5 41.834 -84.5 54.501s-73 19.334 -117 20.001c-50 1.33301 -99 -2.16699 -147 -10.5s-96 -19.166 -144 -32.499l-122 -679h-188l225 1298h-403l28 158h1097z" />
    <glyph glyph-name="uni0403" unicode="&#x403;" horiz-adv-x="1115" 
d="M1161 1298h-680l-225 -1298h-189l253 1456h869zM902 1856h230l-306 -294h-158z" />
    <glyph glyph-name="uni0404" unicode="&#x404;" horiz-adv-x="1349" 
d="M1173 464c-14 -75.333 -38.5059 -143.173 -73.5059 -203.506s-78.167 -111.5 -129.5 -153.5s-110.166 -74.167 -176.499 -96.5s-137.833 -32.5 -214.5 -30.5c-61.333 1.33301 -116 11.5 -164 30.5s-89.833 44.667 -125.5 77s-65.167 70 -88.5 113
s-41.5 89.167 -54.5 138.5s-20.667 100.833 -23 154.5s0.166992 107.167 7.5 160.5l21 145c8.66699 59.333 22.334 117.333 41.001 174s42 110.334 70 161.001s60.833 97.167 98.5 139.5s79.834 78.666 126.501 108.999s98.167 53.833 154.5 70.5
s117.166 24.334 182.499 23.001c73.333 -1.33301 137.833 -14.5 193.5 -39.5s102.334 -59 140.001 -102s66.334 -94.167 86.001 -153.5s30.5 -124 32.5 -194h-186c-2 46 -7.83301 88.833 -17.5 128.5s-25 74.334 -46 104.001s-48.667 53.334 -83 71.001
s-76.833 27.167 -127.5 28.5c-73.333 2 -137 -11.667 -191 -41s-100 -68.166 -138 -116.499s-69 -103.166 -93 -164.499s-43 -122.666 -57 -183.999h560l-28 -157l-547 5l-2 -10c-8 -34.667 -13 -71.334 -15 -110.001s-0.333008 -76.834 5 -114.501s14.5 -73.667 27.5 -108
s30.5 -64.666 52.5 -90.999s49.167 -47.666 81.5 -63.999s70.5 -25.166 114.5 -26.499c56 -2 105.833 4.16699 149.5 18.5s81.834 35.666 114.501 63.999s60.334 62.833 83.001 103.5s41.667 86.667 57 138z" />
    <glyph glyph-name="uni0405" unicode="&#x405;" horiz-adv-x="1189" 
d="M880 375c5.33301 44 0.166016 80.8359 -15.501 110.503s-37.5 54.667 -65.5 75s-59.833 37.333 -95.5 51s-70.834 26.167 -105.501 37.5c-50 16.667 -99.667 36.667 -149 60s-93.333 51.833 -132 85.5s-69.167 73 -91.5 118s-31.5 98.167 -27.5 159.5
c4.66699 66.667 23.167 125.5 55.5 176.5s73.166 93.5 122.499 127.5s104.5 59.333 165.5 76s122.167 24.667 183.5 24c64.667 -1.33301 124.834 -12.5 180.501 -33.5s103.834 -50.5 144.501 -88.5s71.834 -84 93.501 -138s31.167 -114.333 28.5 -181h-188
c5.33301 88.667 -15.334 157.667 -62.001 207s-114.667 74.666 -204 75.999c-39.333 0.666992 -77.666 -3.66602 -114.999 -12.999s-71.166 -24 -101.499 -44s-55.833 -45.333 -76.5 -76s-33.334 -67.334 -38.001 -110.001c-4.66699 -40 1.5 -74 18.5 -102
s39.5 -52 67.5 -72s59.167 -36.5 93.5 -49.5s66.833 -24.5 97.5 -34.5c54 -18 106.167 -39 156.5 -63s94.666 -53.167 132.999 -87.5s68.166 -75.166 89.499 -122.499s29.666 -103 24.999 -167c-5.33301 -69.333 -24.666 -129.166 -57.999 -179.499
s-75.166 -91.833 -125.499 -124.5s-106.5 -56.667 -168.5 -72s-124.333 -22.333 -187 -21c-65.333 0.666992 -127.666 11.167 -186.999 31.5s-111.333 49.333 -156 87s-79.667 83.667 -105 138s-36.333 116.5 -33 186.5l188 -1c-3.33301 -47.333 2.16699 -88.5 16.5 -123.5
s35 -64.333 62 -88s59.5 -41.667 97.5 -54s79.333 -18.833 124 -19.5c38.667 -0.666992 77.5 3.16602 116.5 11.499s74.5 22.166 106.5 41.499s58.833 44.166 80.5 74.499s35.167 67.166 40.5 110.499z" />
    <glyph glyph-name="uni0406" unicode="&#x406;" horiz-adv-x="550" 
d="M260 0h-187l253 1456h187z" />
    <glyph glyph-name="uni0407" unicode="&#x407;" horiz-adv-x="550" 
d="M260 0h-187l253 1456h187zM147 1691c0.666992 30.667 10.6699 56.1699 30.0029 76.5029s44.666 31.166 75.999 32.499c31.333 0.666992 57.166 -8.83301 77.499 -28.5s30.166 -45.167 29.499 -76.5c0 -30.667 -10 -56 -30 -76s-45.667 -30.667 -77 -32
c-31.333 -0.666992 -56.833 8.66602 -76.5 27.999s-29.5 44.666 -29.5 75.999zM564.003 1689c0.666992 30.667 10.667 56.335 30 77.002s44.666 31.667 75.999 33c32 0.666992 58 -8.83301 78 -28.5s29.667 -45.5 29 -77.5c0 -31.333 -10 -56.833 -30 -76.5
s-45.667 -30.167 -77 -31.5c-30.667 -0.666992 -56.167 8.66602 -76.5 27.999s-30.166 44.666 -29.499 75.999z" />
    <glyph glyph-name="uni0408" unicode="&#x408;" horiz-adv-x="1106" 
d="M904 1456l188.001 0.00683594l-175 -1031c-9.33301 -67.333 -28.166 -128.833 -56.499 -184.5s-64.5 -103.167 -108.5 -142.5s-95.167 -69.5 -153.5 -90.5s-122.5 -30.833 -192.5 -29.5c-64.667 1.33301 -122.167 12.166 -172.5 32.499s-92.333 48.666 -126 84.999
s-58.334 80.5 -74.001 132.5s-21.5 110 -17.5 174h187c-3.33301 -38 -1.5 -72.833 5.5 -104.5s19.167 -59.334 36.5 -83.001s40.166 -42.334 68.499 -56.001s62.5 -20.834 102.5 -21.501c44 -1.33301 83.667 5.16699 119 19.5s66.333 34.666 93 60.999
s48.5 57.166 65.5 92.499s28.5 73.333 34.5 114z" />
    <glyph glyph-name="uni0409" unicode="&#x409;" horiz-adv-x="2145" 
d="M1381 1456l-98.002 -564.998l328 -1c64.667 -2 123.834 -13.333 177.501 -34s99 -49.834 136 -87.501s64.5 -83.167 82.5 -136.5s24 -113.333 18 -180c-6.66699 -72.667 -25.667 -137.334 -57 -194.001s-71.5 -104.167 -120.5 -142.5s-105 -67.333 -168 -87
s-129.5 -29.167 -199.5 -28.5h-539l225 1298h-488l-93 -524c-9.33301 -58 -20.333 -117.333 -33 -178s-28.667 -119.834 -48 -177.501s-43 -111.834 -71 -162.501s-62 -95 -102 -133s-87 -68.167 -141 -90.5s-116.667 -33.166 -188 -32.499h-54l18 156h35
c51.333 -0.666992 96 8.83301 134 28.5s70.833 46 98.5 79s50.667 71 69 114s33.833 87.333 46.5 133s22.834 91.334 30.501 137.001l20.5 126.5l120 682h861zM1256 733.002l-99.999 -576l329 -2c46 0.666992 89 8 129 22s75.667 34 107 60s57.166 57.5 77.499 94.5
s33.5 78.5 39.5 124.5c4.66699 40 3 76.667 -5 110s-22 62 -42 86s-45.5 43 -76.5 57s-66.833 21.667 -107.5 23z" />
    <glyph glyph-name="uni040A" unicode="&#x40a;" horiz-adv-x="2156" 
d="M399 825l694.999 -0.00390625l110 631h187l-106 -610l328 -1c62 -1.33301 119.5 -11.166 172.5 -29.499s98.667 -44.666 137 -78.999s67.333 -76.5 87 -126.5s26.834 -108 21.501 -174c-6 -72 -24.833 -135.5 -56.5 -190.5s-72 -100.667 -121 -137
s-104.833 -63.666 -167.5 -81.999s-128 -27.166 -196 -26.499h-539l116 668h-695l-116 -668h-189l253 1456h188zM1258 688.996l-91 -523l329 -1c42.667 0 83.834 5.83301 123.501 17.5s75.167 29 106.5 52s57.333 51.5 78 85.5s34 73.667 40 119
c5.33301 40 3.16602 75.167 -6.50098 105.5s-25 56 -46 77s-47.167 37 -78.5 48s-66 17.167 -104 18.5z" />
    <glyph glyph-name="uni040B" unicode="&#x40b;" horiz-adv-x="1626" 
d="M1276 1298l-511.998 0.000976562l-81 -433c53.333 14 107 24.167 161 30.5s108.667 9.16602 164 8.49902c70.667 -1.33301 133.5 -11.666 188.5 -30.999s100.167 -47.833 135.5 -85.5s60.666 -84.334 75.999 -140.001s19 -119.834 11 -192.501l-75 -455h-189l76 456
c5.33301 46 5.33301 86.833 0 122.5s-17 65.834 -35 90.501s-43 43.334 -75 56.001s-72 19.667 -120 21c-56.667 1.33301 -112.834 -1.83398 -168.501 -9.50098s-111.167 -17.5 -166.5 -29.5l-127 -707h-188l226 1298h-397l28 158h1096z" />
    <glyph glyph-name="uni040C" unicode="&#x40c;" horiz-adv-x="1255" 
d="M544 675l-213 -191l-84 -484h-188l253 1456h188l-124 -709l174 165l568 544h242l-677 -652l453 -804h-209zM879 1838h230l-306 -294h-158z" />
    <glyph glyph-name="uni040D" unicode="&#x40d;" 
d="M1196 1456h194l-253 -1456h-187l193 1110l-881 -1110h-195l253 1456h188l-193 -1110zM977 1562h-143l-205 294h205z" />
    <glyph glyph-name="uni040E" unicode="&#x40e;" horiz-adv-x="1258" 
d="M646 612l471.998 844.001h226l-707 -1214c-22 -40 -45.167 -76.333 -69.5 -109s-51.666 -60.834 -81.999 -84.501s-64.5 -41.834 -102.5 -54.501s-81 -18.667 -129 -18c-17.333 0.666992 -35 1.83398 -53 3.50098s-36 4.16699 -54 7.5l22 152l45 -4
c14.667 -1.33301 29.334 -2 44.001 -2c26 0 49 4.33301 69 13s38 20.167 54 34.5s30.5 30.833 43.5 49.5s25.5 38 37.5 58l58 102l-293 1066h201zM1121 1818c-4 -42 -14.501 -79.8311 -31.501 -113.498s-39.167 -62.167 -66.5 -85.5s-59.166 -41 -95.499 -53
s-75.5 -17.333 -117.5 -16c-40.667 0.666992 -77.667 7.5 -111 20.5s-61.666 31 -84.999 54s-41.333 51 -54 84s-18.667 69.833 -18 110.5l147 -1c-2 -42.667 6.16699 -78 24.5 -106s50.833 -42.667 97.5 -44c47.333 -0.666992 84.666 13.166 111.999 41.499
s45 64.166 53 107.499z" />
    <glyph glyph-name="uni040F" unicode="&#x40f;" 
d="M319 1456h188l-225 -1299h695l226 1299h187l-253 -1456h-434l-62 -359h-189l63 359h-449z" />
    <glyph glyph-name="uni0410" unicode="&#x410;" horiz-adv-x="1306" 
d="M909 380h-590l-199 -380h-201l791 1456h165l288 -1456h-185zM402 538h479l-121 679z" />
    <glyph glyph-name="uni0411" unicode="&#x411;" horiz-adv-x="1262" 
d="M1146 1298l-680.001 -0.000976562l-75 -436l327 -1c64 -1.33301 122.833 -11.333 176.5 -30s99.334 -45.5 137.001 -80.5s66 -78.333 85 -130s25.5 -110.834 19.5 -177.501c-6 -73.333 -24.833 -137.666 -56.5 -192.999s-72 -101.666 -121 -138.999
s-105 -65.333 -168 -84s-128.833 -27.667 -197.5 -27h-541l253 1456h869zM363.999 703.999l-96 -547.001l330 -1c44.667 0 87 6.5 127 19.5s75.5 31.833 106.5 56.5s56.667 54.834 77 90.501s33.5 76.5 39.5 122.5c4.66699 40.667 2.66699 76.667 -6 108
s-23.334 58 -44.001 80s-46.667 38.833 -78 50.5s-66.666 18.167 -105.999 19.5z" />
    <glyph glyph-name="uni0412" unicode="&#x412;" horiz-adv-x="1247" 
d="M59 0l252.999 1456l450 -1c60 -1.33301 116 -9.33301 168 -24s96.667 -37.334 134 -68.001s65.666 -69.667 84.999 -117s26.333 -104 21 -170c-3.33301 -39.333 -12.5 -75 -27.5 -107s-34.333 -61 -58 -87s-50.667 -49 -81 -69s-62.5 -37.333 -96.5 -52
c34.667 -13.333 64.334 -31.5 89.001 -54.5s44.5 -49.333 59.5 -79s25.667 -61.667 32 -96s8.16602 -68.833 5.49902 -103.5c-5.33301 -72 -23.166 -134.833 -53.499 -188.5s-69.333 -98.334 -117 -134.001s-102.167 -62.334 -163.5 -80.001
s-125.666 -26.167 -192.999 -25.5h-507zM364.999 681.003l-90.998 -524.002l297 -1c42.667 0 83 5.83301 121 17.5s72 28.834 102 51.501s54.833 50.834 74.5 84.501s32.167 72.5 37.5 116.5c9.33301 78.667 -4.33398 140 -41.001 184s-94.334 67.333 -173.001 70z
M392.001 835.001l271 -0.996094c38 0 75 5 111 15s68.5 25.167 97.5 45.5s53 45.666 72 75.999s31.167 66.166 36.5 107.499c4.66699 39.333 2.66699 72.666 -6 99.999s-23 49.666 -43 66.999s-44.833 30 -74.5 38s-62.5 12.667 -98.5 14l-286 1z" />
    <glyph glyph-name="uni0413" unicode="&#x413;" horiz-adv-x="1115" 
d="M1161 1298h-680l-225 -1298h-189l253 1456h869z" />
    <glyph glyph-name="uni0414" unicode="&#x414;" horiz-adv-x="1504" 
d="M1270 -357h-186.998l62 357h-1012l-63 -358h-187l89 515l107 -3c53.333 44 98.666 93.833 135.999 149.5s69.333 114.667 96 177s48.667 126.5 66 192.5s32.666 131.667 45.999 197l132 586h847l-226 -1299h185zM614.002 870c-13.333 -64 -28.498 -128.333 -45.498 -193
s-37.833 -127.667 -62.5 -189s-53.834 -120.333 -87.501 -177s-73.834 -109 -120.501 -157l690 3l198 1141h-477z" />
    <glyph glyph-name="uni0415" unicode="&#x415;" horiz-adv-x="1139" 
d="M976 673h-612l-90 -516h712l-28 -157h-899l253 1456h889l-28 -158h-701l-81 -468h612z" />
    <glyph glyph-name="uni0416" unicode="&#x416;" horiz-adv-x="1813" 
d="M1173 664h-156l-115 -664h-188l116 664h-153l-515 -664h-246l616 778l-315 678h209l266 -632h165l110 632h187l-110 -632h146l486 632h233l-567 -697l338 -759h-220z" />
    <glyph glyph-name="uni0417" unicode="&#x417;" horiz-adv-x="1189" 
d="M617 820c42 0 82.833 4.66504 122.5 13.998s75.5 24 107.5 44s58.833 46 80.5 78s35.167 71 40.5 117c4.66699 42 0.833984 78.333 -11.499 109s-31 56 -56 76s-54.5 35.167 -88.5 45.5s-70 15.833 -108 16.5c-38.667 0.666992 -76.5 -4.33301 -113.5 -15
s-70.5 -26.5 -100.5 -47.5s-55.5 -46.833 -76.5 -77.5s-35.167 -66 -42.5 -106l-186 -1c6.66699 66.667 26.167 125.334 58.5 176.001s72.833 93 121.5 127s103.167 59.5 163.5 76.5s121.833 25.167 184.5 24.5c62 -1.33301 121.167 -10.333 177.5 -27s105 -41.667 146 -75
s72.667 -75.333 95 -126s30.5 -110.334 24.5 -179.001c-3.33301 -41.333 -13.333 -78.666 -30 -111.999s-38 -63.5 -64 -90.5s-55.333 -50.833 -88 -71.5s-66.667 -38.667 -102 -54c68.667 -30 118.834 -73.667 150.501 -131s44.834 -123 39.501 -197
c-4 -50 -14.667 -95.5 -32 -136.5s-39.833 -77.667 -67.5 -110s-59.667 -60.5 -96 -84.5s-75.166 -43.667 -116.499 -59s-84.666 -26.666 -129.999 -33.999s-90.666 -10.666 -135.999 -9.99902c-64 1.33301 -123.667 11.5 -179 30.5s-103 46.5 -143 82.5
s-70.833 80.167 -92.5 132.5s-30.834 112.166 -27.501 179.499l186 -1c-2.66699 -40.667 2.16602 -77.334 14.499 -110.001s30.5 -60.5 54.5 -83.5s52.667 -40.833 86 -53.5s69.666 -19.667 108.999 -21c43.333 -1.33301 86.666 3.5 129.999 14.5
s82.666 27.833 117.999 50.5s65.166 51.334 89.499 86.001s39.5 75.667 45.5 123c5.33301 44.667 2.33301 82.834 -9 114.501s-29 57.5 -53 77.5s-53.5 34.667 -88.5 44s-72.833 14.666 -113.5 15.999l-173 1l28 158z" />
    <glyph glyph-name="uni0418" unicode="&#x418;" 
d="M1196 1456h194l-253 -1456h-187l193 1110l-881 -1110h-195l253 1456h188l-193 -1110z" />
    <glyph glyph-name="uni0419" unicode="&#x419;" 
d="M1196 1456h194l-253 -1456h-187l193 1110l-881 -1110h-195l253 1456h188l-193 -1110zM1206 1818c-4 -42 -14.501 -79.8311 -31.501 -113.498s-39.167 -62.167 -66.5 -85.5s-59.166 -41 -95.499 -53s-75.5 -17.333 -117.5 -16c-40.667 0.666992 -77.667 7.5 -111 20.5
s-61.666 31 -84.999 54s-41.333 51 -54 84s-18.667 69.833 -18 110.5l147 -1c-2 -42.667 6.16699 -78 24.5 -106s50.833 -42.667 97.5 -44c47.333 -0.666992 84.666 13.166 111.999 41.499s45 64.166 53 107.499z" />
    <glyph glyph-name="uni041A" unicode="&#x41a;" horiz-adv-x="1287" 
d="M547 654h-178l-113 -654h-188l253 1456h187l-111 -642h137l605 642h247l-671 -715l444 -741h-214z" />
    <glyph glyph-name="uni041B" unicode="&#x41b;" horiz-adv-x="1416" 
d="M1381 1456l-251.997 -1456h-188l225 1298h-502l-107 -524l-33 -170c-12 -59.333 -27 -117.833 -45 -175.5s-40 -112.667 -66 -165s-57.833 -98.166 -95.5 -137.499s-82.334 -70.5 -134.001 -93.5s-111.834 -33.833 -180.501 -32.5h-57l18 156h36
c48.667 0 90.667 10.333 126 31s65.833 48 91.5 82s47 72.833 64 116.5s31.167 88.334 42.5 134.001s20.666 90.667 27.999 135l20 119.5l138 682h871z" />
    <glyph glyph-name="uni041C" unicode="&#x41c;" horiz-adv-x="1744" 
d="M549 1456l255 -1186l668 1186h247l-253 -1456h-187l100 576l119 586l-660 -1162h-144l-260 1185l-90 -628l-97 -557h-188l253 1456h237z" />
    <glyph glyph-name="uni041D" unicode="&#x41d;" 
d="M1146 0h-188l117 673h-711l-117 -673h-188l253 1456h188l-109 -626h710l109 626h189z" />
    <glyph glyph-name="uni041E" unicode="&#x41e;" horiz-adv-x="1376" 
d="M1267 682c-13.333 -90 -37.167 -177.502 -71.5 -262.502s-79.5 -160.5 -135.5 -226.5s-123.167 -118.5 -201.5 -157.5s-167.5 -57.5 -267.5 -55.5c-64 1.33301 -120.833 11.833 -170.5 31.5s-92.667 46.334 -129 80.001s-66.5 73 -90.5 118s-42.5 93.167 -55.5 144.5
s-20.667 104.833 -23 160.5s0.166992 111.167 7.5 166.5l13 92c8.66699 59.333 22.167 118 40.5 176s41.5 113.333 69.5 166s60.833 101.334 98.5 146.001s80 83.167 127 115.5s99 57.333 156 75s118.5 25.834 184.5 24.501c64.667 -1.33301 122 -11.833 172 -31.5
s93.167 -46.334 129.5 -80.001s66.5 -73 90.5 -118s42.167 -93.333 54.5 -145s19.5 -105.5 21.5 -161.5s-0.666992 -111.667 -8 -167zM1093 775.998c4.66699 37.333 7.66406 76.501 8.99707 117.501s-0.5 81 -5.5 120s-13.667 76.333 -26 112s-29.833 67 -52.5 94
s-51 48.833 -85 65.5s-75 25.667 -123 27c-50 1.33301 -95.5 -5 -136.5 -19s-78.333 -33.833 -112 -59.5s-63.334 -56 -89.001 -91s-48 -72.667 -67 -113s-34.833 -82.166 -47.5 -125.499s-22 -86.333 -28 -129l-13 -95c-4.66699 -36.667 -7.5 -75.334 -8.5 -116.001
s1 -80.667 6 -120s13.833 -76.833 26.5 -112.5s30.334 -67.334 53.001 -95.001s50.834 -50 84.501 -67s74.167 -26.167 121.5 -27.5c50.667 -1.33301 96.834 5 138.501 19s79.167 33.667 112.5 59s62.833 55.5 88.5 90.5s47.834 72.667 66.501 113s34 82.5 46 126.5
s21.333 87.667 28 131z" />
    <glyph glyph-name="uni041F" unicode="&#x41f;" horiz-adv-x="1427" 
d="M1139 0h-188l225 1298h-695l-225 -1298h-188l253 1456h1071z" />
    <glyph glyph-name="uni0420" unicode="&#x420;" horiz-adv-x="1263" 
d="M346 570l-98.999 -569.998h-188l253 1456l509 -1c65.333 -1.33301 125.666 -12 180.999 -32s102.333 -48.5 141 -85.5s67.667 -82.333 87 -136s26 -114.834 20 -183.501c-6.66699 -76.667 -26 -143.334 -58 -200.001s-73 -103.5 -123 -140.5s-107.333 -64.333 -172 -82
s-133 -26.5 -205 -26.5zM373.001 727.002l324 -0.999023c46.667 0 91 6 133 18s79.167 30 111.5 54s59.166 54.167 80.499 90.5s35 79.166 41 128.499c5.33301 42 3.33301 80 -6 114s-24.666 63 -45.999 87s-48.5 42.833 -81.5 56.5s-70.5 21.167 -112.5 22.5l-345 1z" />
    <glyph glyph-name="uni0421" unicode="&#x421;" horiz-adv-x="1303" 
d="M1169 464c-14 -75.333 -38.498 -143.169 -73.498 -203.502s-78.167 -111.5 -129.5 -153.5s-110.166 -74.167 -176.499 -96.5s-137.833 -32.5 -214.5 -30.5c-61.333 1.33301 -116 11.5 -164 30.5s-89.833 44.5 -125.5 76.5s-65.167 69.667 -88.5 113
s-41.5 89.666 -54.5 138.999s-20.667 100.833 -23 154.5s0.166992 107.167 7.5 160.5l21 146c13.333 88.667 37.5 174 72.5 256s80.667 154.5 137 217.5s123.166 113 200.499 150s165 54.5 263 52.5c73.333 -1.33301 137.833 -14.5 193.5 -39.5s102.334 -59 140.001 -102
s66.334 -94.167 86.001 -153.5s30.5 -124 32.5 -194h-187c-2 46 -7.83301 88.833 -17.5 128.5s-25 74.334 -46 104.001s-48.5 53.334 -82.5 71.001s-76.333 27.167 -127 28.5c-48.667 1.33301 -93.334 -4.66699 -134.001 -18s-77.5 -32.166 -110.5 -56.499
s-62.333 -53.166 -88 -86.499s-48 -69.333 -67 -108s-34.833 -79.167 -47.5 -121.5s-22.334 -84.5 -29.001 -126.5l-22 -149c-4.66699 -35.333 -7.66699 -72.333 -9 -111s0.5 -76.834 5.5 -114.501s13.5 -73.667 25.5 -108s28.667 -64.833 50 -91.5
s48.166 -48.167 80.499 -64.5s71.166 -25.166 116.499 -26.499c56 -2 105.667 4.16699 149 18.5s81.333 35.666 114 63.999s60.5 63 83.5 104s41.833 86.833 56.5 137.5z" />
    <glyph glyph-name="uni0422" unicode="&#x422;" horiz-adv-x="1195" 
d="M1261 1298h-453l-225 -1298h-187l225 1298h-453l28 158h1093z" />
    <glyph glyph-name="uni0423" unicode="&#x423;" horiz-adv-x="1258" 
d="M646 612l471.998 844.001h226l-707 -1214c-22 -40 -45.167 -76.333 -69.5 -109s-51.666 -60.834 -81.999 -84.501s-64.5 -41.834 -102.5 -54.501s-81 -18.667 -129 -18c-17.333 0.666992 -35 1.83398 -53 3.50098s-36 4.16699 -54 7.5l22 152l45 -4
c14.667 -1.33301 29.334 -2 44.001 -2c26 0 49 4.33301 69 13s38 20.167 54 34.5s30.5 30.833 43.5 49.5s25.5 38 37.5 58l58 102l-293 1066h201z" />
    <glyph glyph-name="uni0424" unicode="&#x424;" horiz-adv-x="1544" 
d="M980 1309l21.001 -0.000976562c80 -1.33301 151.667 -17.5 215 -48.5s116.166 -72.667 158.499 -125s73 -113.166 92 -182.499s24.5 -142.666 16.5 -219.999c-9.33301 -86 -33 -165.5 -71 -238.5s-86.667 -136.167 -146 -189.5s-127.333 -94.833 -204 -124.5
s-158 -44.167 -244 -43.5h-31l-39 -197h-181l40 198h-23c-80.667 1.33301 -152.667 17.5 -216 48.5s-116 72.667 -158 125s-72.333 113.166 -91 182.499s-24 143 -16 221c8.66699 86 32 165.5 70 238.5s86.667 136 146 189s127.333 94.5 204 124.5s158 44.667 244 44h32
l42 205h175zM759.001 1161c-66.667 0 -127.332 -11.167 -181.999 -33.5s-102.5 -53.333 -143.5 -93s-74.5 -86.667 -100.5 -141s-43 -113.833 -51 -178.5c-7.33301 -56.667 -6.83301 -110.334 1.5 -161.001s25.166 -95.167 50.499 -133.5s59.333 -69.166 102 -92.499
s94.667 -36.333 156 -39l31 -1l159 873h-23zM964.003 1159l-158.001 -873.002h22c66.667 0 127.334 11.333 182.001 34s102.5 53.834 143.5 93.501s74.333 86.834 100 141.501s42.5 114 50.5 178c7.33301 56.667 6.83301 110.334 -1.5 161.001s-25 95.167 -50 133.5
s-58.833 69.166 -101.5 92.499s-94.667 36.333 -156 39h-31z" />
    <glyph glyph-name="uni0425" unicode="&#x425;" horiz-adv-x="1255" 
d="M666 899l425 557h232l-567 -731l339 -725h-211l-258 567l-438 -567h-232l579 743l-330 713h208z" />
    <glyph glyph-name="uni0426" unicode="&#x426;" horiz-adv-x="1462" 
d="M318 1456h188l-225 -1299h695l226 1299h187l-225 -1295h149l-106 -512h-170l62 351h-1034z" />
    <glyph glyph-name="uni0427" unicode="&#x427;" horiz-adv-x="1370" 
d="M1337 1456l-252.998 -1456h-188l111 604c-62 -19.333 -124.333 -33.166 -187 -41.499s-126.334 -12.166 -191.001 -11.499c-71.333 0.666992 -134.5 10.834 -189.5 30.501s-100.167 48.5 -135.5 86.5s-60.5 84.667 -75.5 140s-18.5 119.666 -10.5 192.999l76 455h188
l-75 -456c-5.33301 -46 -5.33301 -86.833 0 -122.5s17.166 -65.834 35.499 -90.501s43.5 -43.5 75.5 -56.5s72 -19.833 120 -20.5c65.333 -1.33301 130 3 194 13s127.667 22.667 191 38l125 695h189z" />
    <glyph glyph-name="uni0428" unicode="&#x428;" horiz-adv-x="1879" 
d="M507 1456l-225 -1299h485l225 1299h187l-226 -1299h482l225 1299h188l-253 -1456h-1529l253 1456h188z" />
    <glyph glyph-name="uni0429" unicode="&#x429;" horiz-adv-x="1934" 
d="M507 1456l-225 -1299h485l225 1299h187l-226 -1299h482l225 1299h188l-227 -1304h145l-105 -503h-163l61 351h-1493l253 1456h188z" />
    <glyph glyph-name="uni042A" unicode="&#x42a;" horiz-adv-x="1517" 
d="M165 1456l583.999 -0.000976562l-103 -594l327 -1c64 -1.33301 122.833 -11.333 176.5 -30s99.334 -45.5 137.001 -80.5s66 -78.333 85 -130s25.5 -110.834 19.5 -177.501c-6 -73.333 -24.833 -137.666 -56.5 -192.999s-72 -101.666 -121 -138.999s-105 -65.333 -168 -84
s-128.833 -27.667 -197.5 -27h-539l225 1304h-396zM618.999 703.999l-96 -547.001l330 -1c44.667 0 87 6.5 127 19.5s75.5 31.833 106.5 56.5s56.667 54.834 77 90.501s33.5 76.5 39.5 122.5c4.66699 40.667 2.66699 76.667 -6 108s-23.334 58 -44.001 80
s-46.667 38.833 -78 50.5s-66.666 18.167 -105.999 19.5z" />
    <glyph glyph-name="uni042B" unicode="&#x42b;" horiz-adv-x="1728" 
d="M406 862l326.999 -1.00098c64 -1.33301 122.833 -11.333 176.5 -30s99.334 -45.5 137.001 -80.5s66 -78.333 85 -130s25.5 -110.834 19.5 -177.501c-6 -73.333 -24.833 -137.666 -56.5 -192.999s-72 -101.666 -121 -138.999s-105 -65.333 -168 -84
s-128.833 -27.667 -197.5 -27h-539l252 1456h188zM378.999 703.999l-96 -547.001l330 -1c44.667 0 87 6.5 127 19.5s75.5 31.833 106.5 56.5s56.667 54.834 77 90.501s33.5 76.5 39.5 122.5c4.66699 40.667 2.66699 76.667 -6 108s-23.334 58 -44.001 80
s-46.667 38.833 -78 50.5s-66.666 18.167 -105.999 19.5zM1433 -0.00195312h-187l253 1456h187z" />
    <glyph glyph-name="uni042C" unicode="&#x42c;" horiz-adv-x="1256" 
d="M391 862l326.999 -1.00098c64 -1.33301 122.833 -11.333 176.5 -30s99.334 -45.5 137.001 -80.5s66 -78.333 85 -130s25.5 -110.834 19.5 -177.501c-6 -73.333 -24.833 -137.666 -56.5 -192.999s-72 -101.666 -121 -138.999s-105 -65.333 -168 -84
s-128.833 -27.667 -197.5 -27h-539l252 1456h188zM363.999 703.999l-96 -547.001l330 -1c44.667 0 87 6.5 127 19.5s75.5 31.833 106.5 56.5s56.667 54.834 77 90.501s33.5 76.5 39.5 122.5c4.66699 40.667 2.66699 76.667 -6 108s-23.334 58 -44.001 80
s-46.667 38.833 -78 50.5s-66.666 18.167 -105.999 19.5z" />
    <glyph glyph-name="uni042D" unicode="&#x42d;" horiz-adv-x="1349" 
d="M304 463c2 -49.333 8.33301 -93.8301 19 -133.497s27.334 -73.667 50.001 -102s52 -50.333 88 -66s80.333 -24.167 133 -25.5c48 -1.33301 91.5 5 130.5 19s74.167 33.167 105.5 57.5s59.166 53.333 83.499 87s45.666 69.667 63.999 108s34 78 47 119
s23.833 81.5 32.5 121.5l-563 -1l28 158h553c6 37.333 9.5 75.666 10.5 114.999s-1.33301 77.666 -7 114.999s-15.167 72.833 -28.5 106.5s-31.5 63.5 -54.5 89.5s-51.333 46.833 -85 62.5s-73.5 24.167 -119.5 25.5c-54 2 -102.167 -5 -144.5 -21
s-79.333 -38.833 -111 -68.5s-58.334 -65 -80.001 -106s-39.5 -85.833 -53.5 -134.5l-187 -1c14.667 73.333 38.834 140.333 72.501 201s75.5 112.5 125.5 155.5s107.5 76.167 172.5 99.5s135.833 34 212.5 32c62.667 -1.33301 118.667 -11.166 168 -29.499
s92.5 -43.5 129.5 -75.5s67.833 -69.333 92.5 -112s43.834 -89 57.501 -139s21.834 -102.167 24.501 -156.5s0.333984 -109.166 -6.99902 -164.499l-21 -145c-8.66699 -57.333 -22 -113.833 -40 -169.5s-40.667 -108.834 -68 -159.501s-59.333 -97.334 -96 -140.001
s-77.834 -79.334 -123.501 -110.001s-95.834 -54.5 -150.501 -71.5s-114 -24.833 -178 -23.5c-74 1.33301 -139.667 13.833 -197 37.5s-105.833 56.5 -145.5 98.5s-70.167 92.333 -91.5 151s-33.333 124 -36 196h188z" />
    <glyph glyph-name="uni042E" unicode="&#x42e;" horiz-adv-x="1786" 
d="M1718 682c-13.333 -90 -37.167 -177.497 -71.5 -262.497s-79.5 -160.5 -135.5 -226.5s-123.167 -118.5 -201.5 -157.5s-167.5 -57.5 -267.5 -55.5c-61.333 1.33301 -116 11.166 -164 29.499s-90 42.833 -126 73.5s-66.167 66.834 -90.5 108.501s-43.5 86.667 -57.5 135
s-23.333 98.833 -28 151.5s-4.66699 105.667 0 159h-206l-110 -637h-187l253 1456h187l-116 -668h199c9.33301 58 23.333 115.667 42 173s42 111.666 70 162.999s60.833 98.833 98.5 142.5s80 81.167 127 112.5s98.5 55.666 154.5 72.999s116.667 25.333 182 24
c64.667 -1.33301 122 -11.833 172 -31.5s93.167 -46.334 129.5 -80.001s66.5 -73 90.5 -118s42.167 -93.333 54.5 -145s19.5 -105.5 21.5 -161.5s-0.666992 -111.667 -8 -167zM1544 776.003c4.66699 37.333 7.66309 76.501 8.99609 117.501s-0.5 81 -5.5 120
s-13.667 76.333 -26 112s-29.833 67 -52.5 94s-51 48.833 -85 65.5s-75 25.667 -123 27c-49.333 1.33301 -94.666 -5 -135.999 -19s-78.833 -33.833 -112.5 -59.5s-63.334 -56 -89.001 -91s-48 -72.667 -67 -113s-34.833 -82.166 -47.5 -125.499s-22 -86.333 -28 -129
l-13 -95c-4.66699 -36.667 -7.5 -75.334 -8.5 -116.001s1 -80.667 6 -120s13.833 -76.833 26.5 -112.5s30.334 -67.334 53.001 -95.001s50.834 -50 84.501 -67s74.167 -26.167 121.5 -27.5c50.667 -1.33301 96.834 5 138.501 19s79.167 33.667 112.5 59
s62.833 55.5 88.5 90.5s47.834 72.667 66.501 113s34 82.5 46 126.5s21.333 87.667 28 131z" />
    <glyph glyph-name="uni042F" unicode="&#x42f;" horiz-adv-x="1275" 
d="M798 0l99 566.998h-319l-391 -567h-211l444 624c-76 38.667 -131.333 91.334 -166 158.001s-48.334 142.334 -41.001 227.001c6.66699 76 26.334 142 59.001 198s74.5 102.5 125.5 139.5s108.833 64.667 173.5 83s132.667 27.5 204 27.5l465 -1l-253 -1456h-189z
M401 1010c-5.33301 -42 -3.5 -80.168 5.5 -114.501s24 -63.833 45 -88.5s47.667 -44.167 80 -58.5s69.5 -22.166 111.5 -23.499l281 -1l100 574l-254 1c-46.667 0 -91 -5.83301 -133 -17.5s-79.5 -29.5 -112.5 -53.5s-60.333 -54.167 -82 -90.5s-35.5 -78.833 -41.5 -127.5z
" />
    <glyph glyph-name="uni0430" unicode="&#x430;" horiz-adv-x="1091" 
d="M689 0c-4.66699 19.333 -7.00195 38.333 -7.00195 57s1 37.667 3 57c-44 -40.667 -92.333 -73.5 -145 -98.5s-109.667 -36.833 -171 -35.5c-45.333 0.666992 -87.666 8.5 -126.999 23.5s-73.333 36.167 -102 63.5s-50.667 60 -66 98s-21.666 80.333 -18.999 127
c4 68.667 22.167 126.334 54.5 173.001s73.166 84.167 122.499 112.5s104 48.666 164 60.999s119.667 18.5 179 18.5l189 -1l12 86c3.33301 31.333 2 59.833 -4 85.5s-16.667 47.834 -32 66.501s-35.166 33.167 -59.499 43.5s-52.5 15.833 -84.5 16.5
c-28 0.666992 -55.667 -2.5 -83 -9.5s-52.5 -17.667 -75.5 -32s-42.833 -32.333 -59.5 -54s-28 -46.834 -34 -75.501l-182 -1c5.33301 54 22.833 101.167 52.5 141.5s66 74 109 101s90.167 47 141.5 60s101 19.167 149 18.5c54.667 -1.33301 104.167 -10.5 148.5 -27.5
s81.833 -41.167 112.5 -72.5s53.167 -69.166 67.5 -113.499s18.833 -94.5 13.5 -150.5l-83 -503c-6 -36.667 -9.5 -73.334 -10.5 -110.001s3.16699 -73 12.5 -109l-2 -17h-184zM404.998 140c30.667 -0.666992 60.166 2.83301 88.499 10.5s55.166 18.834 80.499 33.501
s48.833 32 70.5 52s41.167 42 58.5 66l39 223l-137 1c-36 0 -74.333 -2.5 -115 -7.5s-78.667 -15 -114 -30s-65.5 -36 -90.5 -63s-40.167 -62.5 -45.5 -106.5c-3.33301 -27.333 -1.5 -51.833 5.5 -73.5s17.833 -40.334 32.5 -56.001s32.834 -27.667 54.501 -36
s45.834 -12.833 72.501 -13.5z" />
    <glyph glyph-name="uni0431" unicode="&#x431;" horiz-adv-x="1108" 
d="M648 1020c68 -1.33301 126.671 -15.8311 176.004 -43.498s89.5 -64 120.5 -109s52.833 -96.5 65.5 -154.5s16.334 -118 11.001 -180l-3 -24c-8 -72 -26 -140.333 -54 -205s-65 -121.334 -111 -170.001s-100.167 -87 -162.5 -115s-131.833 -41 -208.5 -39
c-73.333 1.33301 -136.833 17 -190.5 47s-97.334 69.167 -131.001 117.5s-57.167 104 -70.5 167s-16.333 128.167 -9 195.5l3 23l1 7l8 69c7.33301 58.667 18.166 117.167 32.499 175.5s32.666 114.666 54.999 168.999s49 105.666 80 153.999s67 91.833 108 130.5
s87.5 71.5 139.5 98.5s110 46.167 174 57.5c27.333 4.66699 55.666 9.83398 84.999 15.501s56.666 14 81.999 25s47.5 26 66.5 45s32.167 44.5 39.5 76.5h149c-6 -60 -19.833 -108.5 -41.5 -145.5s-49.834 -66.833 -84.501 -89.5s-74.334 -40.167 -119.001 -52.5
s-93 -23.5 -145 -33.5c-56 -11.333 -106.333 -27.666 -151 -48.999s-84.5 -48 -119.5 -80s-65.833 -69.167 -92.5 -111.5s-50 -89.5 -70 -141.5c24.667 25.333 50.834 48.5 78.501 69.5s56.834 39 87.501 54s62.667 26.667 96 35s68.333 12.166 105 11.499zM604.004 869.002
c-49.333 1.33301 -93.835 -7.16699 -133.502 -25.5s-73.834 -43.333 -102.501 -75s-51.667 -68.334 -69 -110.001s-29 -85.167 -35 -130.5l-3 -23c-2.66699 -28 -3.66699 -56.5 -3 -85.5s3.83398 -57.333 9.50098 -85s14.167 -53.667 25.5 -78s25.833 -45.833 43.5 -64.5
s39.167 -33.667 64.5 -45s55 -17.333 89 -18c53.333 -1.33301 100.333 8.83398 141 30.501s75.334 50.667 104.001 87s51.334 77.5 68.001 123.5s28 92.333 34 139l3 23c4 42 3 82.833 -3 122.5s-18.333 75.167 -37 106.5s-44 56.833 -76 76.5s-72 30.167 -120 31.5z" />
    <glyph glyph-name="uni0432" unicode="&#x432;" horiz-adv-x="1145" 
d="M48 0l188.001 1082l397 -1c30.667 -0.666992 62 -2.83398 94 -6.50098s63 -10 93 -19s58.167 -20.5 84.5 -34.5s49 -31.667 68 -53s33.5 -46.333 43.5 -75s13.667 -62 11 -100c-2 -31.333 -9.16699 -59.5 -21.5 -84.5s-28.166 -47.167 -47.499 -66.5
s-41.333 -36.333 -66 -51s-50.334 -27.667 -77.001 -39c26.667 -8 50.667 -19.667 72 -35s39.166 -33.333 53.499 -54s25 -43.5 32 -68.5s9.83301 -51.5 8.5 -79.5c-2.66699 -60 -17.667 -110.167 -45 -150.5s-62 -72.833 -104 -97.5s-88.833 -42.167 -140.5 -52.5
s-103.167 -15.166 -154.5 -14.499h-489zM311.001 475l-56.998 -325.999l286 -1c28.667 0 57.667 2.83301 87 8.5s56.166 15.167 80.499 28.5s45 30.833 62 52.5s27.833 49.167 32.5 82.5c4 29.333 1.33301 53.666 -8 72.999s-23 34.833 -41 46.5s-38.833 20.167 -62.5 25.5
s-47.834 8.33301 -72.501 9zM336.003 623.001l222 -1c28 0 57.833 2 89.5 6s61.5 11.667 89.5 23s52 27.5 72 48.5s32.333 48.5 37 82.5c4.66699 32 0.666992 57.667 -12 77s-30 34.166 -52 44.499s-46.667 17.333 -74 21s-53 5.83398 -77 6.50098l-241 1z" />
    <glyph glyph-name="uni0433" unicode="&#x433;" horiz-adv-x="843" 
d="M871 929h-483l-161 -929h-182l188 1082h666z" />
    <glyph glyph-name="uni0434" unicode="&#x434;" horiz-adv-x="1209" 
d="M45 148c40 36.667 74.999 74.832 104.999 114.499s56 81.334 78 125.001s40.833 89.5 56.5 137.5s28.834 98.333 39.501 151l84 406h678l-162 -931h135l-82 -469h-180l55 318h-731l-55 -318h-181l83 469zM504.999 675.998c-10 -48.667 -21.6689 -96.833 -35.002 -144.5
s-29.666 -94 -48.999 -139s-42.166 -88 -68.499 -129s-57.5 -79.5 -93.5 -115.5l484 3l132 760h-321z" />
    <glyph glyph-name="uni0435" unicode="&#x435;" horiz-adv-x="1062" 
d="M480 -20c-74 1.33301 -137.83 16.501 -191.497 45.501s-97.167 67.5 -130.5 115.5s-56.833 103 -70.5 165s-17.5 126.667 -11.5 194l5 43c5.33301 46 15.166 92 29.499 138s32.833 90 55.5 132s49.5 80.833 80.5 116.5s65.667 66.5 104 92.5s80 46.167 125 60.5
s93.167 20.833 144.5 19.5c74.667 -2 136.667 -18.5 186 -49.5s87.833 -71.333 115.5 -121s45.5 -105.834 53.5 -168.501s7.66699 -126.667 -1 -192l-12 -83h-706c-6 -42 -6 -84 0 -126s18.5 -79.833 37.5 -113.5s45.167 -61.334 78.5 -83.001s74.333 -33.167 123 -34.5
c61.333 -1.33301 116.333 11.5 165 38.5s93 62.167 133 105.5l104 -88c-24 -34.667 -51.333 -65 -82 -91s-63.834 -47.833 -99.501 -65.5s-73.334 -30.667 -113.001 -39s-80.5 -12.166 -122.5 -11.499zM610.003 951.001c-46 2 -86.832 -6 -122.499 -24
s-67 -41.833 -94 -71.5s-50.167 -63.334 -69.5 -101.001s-35.333 -75.834 -48 -114.501l526 -2l4 18c5.33301 35.333 5.66602 70.333 0.999023 105s-15 65.834 -31 93.501s-37.667 50.334 -65 68.001s-61 27.167 -101 28.5z" />
    <glyph glyph-name="uni0436" unicode="&#x436;" horiz-adv-x="1531" 
d="M956 470h-131l-81 -470h-181l82 470h-119l-376 -470h-241l482 570l-245 512h206l193 -448h128l78 448h181l-79 -448h115l351 448h231l-440 -533l274 -549h-215z" />
    <glyph glyph-name="uni0437" unicode="&#x437;" horiz-adv-x="1019" 
d="M510 629c28 0 55.166 2.83105 81.499 8.49805s50.166 14.834 71.499 27.501s39.166 29.5 53.499 50.5s23.166 47.167 26.499 78.5c3.33301 28 0.5 51.833 -8.5 71.5s-21.833 36 -38.5 49s-36.5 22.667 -59.5 29s-46.833 9.5 -71.5 9.5
c-28 0.666992 -55.5 -2.66602 -82.5 -9.99902s-51.833 -18.333 -74.5 -33s-42.167 -32.834 -58.5 -54.501s-27.5 -46.5 -33.5 -74.5l-180 -1c6 54.667 22.5 102.334 49.5 143.001s60.833 74.334 101.5 101.001s85.834 46.5 135.501 59.5s99.834 19.167 150.501 18.5
c47.333 -0.666992 93 -7 137 -19s82.5 -30.333 115.5 -55s58.833 -56.167 77.5 -94.5s26 -84.166 22 -137.499c-2 -30.667 -9 -58.334 -21 -83.001s-27.333 -47 -46 -67s-39.667 -37.833 -63 -53.5s-48 -29.5 -74 -41.5c50 -22 86.5 -53.833 109.5 -95.5
s32.833 -89.5 29.5 -143.5c-3.33301 -58.667 -18.666 -109.167 -45.999 -151.5s-62.166 -77 -104.499 -104s-89.5 -46.667 -141.5 -59s-104 -17.833 -156 -16.5c-51.333 0.666992 -100.166 8.5 -146.499 23.5s-86.833 36.667 -121.5 65s-61.834 63.5 -81.501 105.5
s-28.5 90.667 -26.5 146l177 -1c-1.33301 -30 3.33398 -56.667 14.001 -80s25.5 -43.166 44.5 -59.499s41.333 -28.833 67 -37.5s52.834 -13.334 81.501 -14.001s57.667 2.5 87 9.5s56.166 18 80.499 33s45 34.167 62 57.5s27.5 50.666 31.5 81.999
c4 30.667 2.16699 56.334 -5.5 77.001s-19.834 37.167 -36.501 49.5s-36.667 21.166 -60 26.499s-48.333 8.33301 -75 9l-192 1l28 156z" />
    <glyph glyph-name="uni0438" unicode="&#x438;" horiz-adv-x="1157" 
d="M892 1082h187l-188 -1082h-181l136 777l-612 -777h-187l188 1082h180l-135 -778z" />
    <glyph glyph-name="uni0439" unicode="&#x439;" horiz-adv-x="1157" 
d="M892 1082h187l-188 -1082h-181l136 777l-612 -777h-187l188 1082h180l-135 -778zM1008 1476c-4 -42 -14.501 -79.8311 -31.501 -113.498s-39.167 -62.167 -66.5 -85.5s-59.166 -41 -95.499 -53s-75.5 -17.333 -117.5 -16c-40.667 0.666992 -77.667 7.5 -111 20.5
s-61.666 31 -84.999 54s-41.333 51 -54 84s-18.667 69.833 -18 110.5l147 -1c-2 -42.667 6.16699 -78 24.5 -106s50.833 -42.667 97.5 -44c47.333 -0.666992 84.666 13.166 111.999 41.499s45 64.166 53 107.499z" />
    <glyph glyph-name="uni043A" unicode="&#x43a;" horiz-adv-x="1083" 
d="M446 461h-137l-81 -461h-181l188 1082h181l-80 -458h110l432 458h233l-514 -529l347 -553h-214z" />
    <glyph glyph-name="uni043B" unicode="&#x43b;" horiz-adv-x="1158" 
d="M1081 1082l-187.998 -1082h-182l162 929h-354l-66 -310l-28 -139.5c-10 -48.333 -22.333 -95.5 -37 -141.5s-32.667 -89.667 -54 -131s-47.5 -77.5 -78.5 -108.5s-67.667 -55.333 -110 -73s-91.833 -26.167 -148.5 -25.5h-56l21 164h37c36.667 0 68.167 7.66699 94.5 23
s48.833 35.333 67.5 60s34.167 52.667 46.5 84s22.666 63.833 30.999 97.5s15.166 66.834 20.499 99.501l15 90l96 464h711z" />
    <glyph glyph-name="uni043C" unicode="&#x43c;" horiz-adv-x="1483" 
d="M674 247l502 835h230l-188 -1082h-181l135 773l-468 -773h-126l-208 812l-142 -812h-180l188 1082h229z" />
    <glyph glyph-name="uni043D" unicode="&#x43d;" horiz-adv-x="1156" 
d="M890 0h-181l81 462h-481l-81 -462h-181l188 1082h181l-81 -469h480l82 469h181z" />
    <glyph glyph-name="uni043E" unicode="&#x43e;" horiz-adv-x="1143" 
d="M80 544c6 48.667 16.5049 96.499 31.5049 143.499s34.167 91.333 57.5 133s50.833 80 82.5 115s67 65 106 90s81.667 44.333 128 58s96.166 19.834 149.499 18.501c76 -2 141 -18.833 195 -50.5s97.333 -73 130 -124s55.167 -109 67.5 -174s14.833 -131.5 7.5 -199.5
l-2 -23c-9.33301 -73.333 -28.833 -143.5 -58.5 -210.5s-68.334 -126.167 -116.001 -177.5s-103.667 -91.833 -168 -121.5s-135.833 -43.5 -214.5 -41.5c-75.333 2 -139.833 18.5 -193.5 49.5s-96.834 71.833 -129.501 122.5s-55.334 108 -68.001 172
s-15.334 130 -8.00098 198zM259.005 521.999c-3.33301 -28 -4.83496 -56.999 -4.50195 -86.999s3 -59.333 8 -88s12.833 -55.834 23.5 -81.501s24.834 -48.334 42.501 -68.001s39.334 -35.5 65.001 -47.5s55.834 -18.667 90.501 -20c55.333 -2 104.333 8.83301 147 32.5
s79.167 54.834 109.5 93.501s54.666 82.167 72.999 130.5s30.833 96.5 37.5 144.5l3 22c3.33301 28 4.83301 57.167 4.5 87.5s-3 60 -8 89s-12.833 56.667 -23.5 83s-25 49.5 -43 69.5s-40 36.167 -66 48.5s-56.333 19.166 -91 20.499c-56 2 -105.167 -9.16699 -147.5 -33.5
s-78.5 -56.166 -108.5 -95.499s-54 -83.5 -72 -132.5s-30.333 -97.5 -37 -145.5z" />
    <glyph glyph-name="uni043F" unicode="&#x43f;" horiz-adv-x="1157" 
d="M891 0h-181l162 929h-482l-162 -929h-181l188 1082h844z" />
    <glyph glyph-name="uni0440" unicode="&#x440;" horiz-adv-x="1125" 
d="M1011 536c-5.33301 -44 -14.002 -88.5 -26.002 -133.5s-27.5 -88.333 -46.5 -130s-41.667 -80.5 -68 -116.5s-56.666 -67.333 -90.999 -94s-72.666 -47.5 -114.999 -62.5s-88.833 -21.833 -139.5 -20.5c-56.667 1.33301 -109.834 11.833 -159.501 31.5
s-92.5 51.5 -128.5 95.5l-97 -522h-181l260 1498l164 1l-20 -121c43.333 46.667 91.5 82 144.5 106s111.833 35.333 176.5 34c48.667 -1.33301 91.334 -10 128.001 -26s68 -37.5 94 -64.5s47 -58.333 63 -94s28 -73.5 36 -113.5s12.5 -81.167 13.5 -123.5
s-0.5 -83.5 -4.5 -123.5zM832.998 557c2.66699 26.667 4.16895 54.668 4.50195 84.001s-1.5 58.333 -5.5 87s-10.833 55.834 -20.5 81.501s-22.834 48.5 -39.501 68.5s-37.334 36 -62.001 48s-54 18.667 -88 20c-58.667 1.33301 -110 -11.834 -154 -39.501
s-83 -64.167 -117 -109.5l-91 -519c20 -47.333 48.5 -83.5 85.5 -108.5s81.5 -38.167 133.5 -39.5c55.333 -1.33301 103.5 10.167 144.5 34.5s75.833 56.166 104.5 95.499s51.167 83.333 67.5 132s27.833 96.667 34.5 144z" />
    <glyph glyph-name="uni0441" unicode="&#x441;" horiz-adv-x="1050" 
d="M475 130c32.667 -0.666992 64.168 4.00098 94.501 14.001s57.833 24.167 82.5 42.5s45.834 40.666 63.501 66.999s30.834 55.166 39.501 86.499l171 1c-8 -54 -26.5 -103.5 -55.5 -148.5s-64.5 -83.5 -106.5 -115.5s-88.833 -56.667 -140.5 -74
s-104.167 -25.333 -157.5 -24c-76 2 -140.333 18.333 -193 49s-94.5 71 -125.5 121s-52.167 106.833 -63.5 170.5s-13.333 129.5 -6 197.5l5 43c8.66699 72.667 27 142.167 55 208.5s65.167 124.5 111.5 174.5s101 89.5 164 118.5s133.833 42.5 212.5 40.5
c56.667 -1.33301 107.834 -12 153.501 -32s84.5 -47.5 116.5 -82.5s56.667 -76.167 74 -123.5s25.666 -99 24.999 -155h-169c0 32.667 -4.33301 63.334 -13 92.001s-21.834 54 -39.501 76s-39.5 39.5 -65.5 52.5s-56.333 20.167 -91 21.5
c-55.333 2 -103.833 -8.33301 -145.5 -31s-77 -52.667 -106 -90s-52 -79.666 -69 -126.999s-28.833 -95 -35.5 -143l-5 -42c-4.66699 -42.667 -6 -86.5 -4 -131.5s10.667 -86.333 26 -124s38.666 -68.834 69.999 -93.501s73.666 -37.667 126.999 -39z" />
    <glyph glyph-name="uni0442" unicode="&#x442;" horiz-adv-x="964" 
d="M974 932h-352l-162 -932h-180l161 932h-345l26 150h878z" />
    <glyph glyph-name="uni0443" unicode="&#x443;" horiz-adv-x="950" 
d="M419 273l384.999 808.999h200l-636 -1250c-17.333 -35.333 -37.166 -69.5 -59.499 -102.5s-47.833 -62.167 -76.5 -87.5s-60.834 -45.5 -96.501 -60.5s-74.834 -22.167 -117.501 -21.5c-18.667 0.666992 -37.167 2.83398 -55.5 6.50098s-36.166 7.5 -53.499 11.5l16 150
c7.33301 -1.33301 15 -2.5 23 -3.5s16 -1.5 24 -1.5c32.667 -1.33301 62 2 88 10s49.333 19.833 70 35.5s39.334 34.667 56.001 57s32 47.5 46 75.5l64 122l-187 1059h189z" />
    <glyph glyph-name="uni0444" unicode="&#x444;" horiz-adv-x="1450" 
d="M85 515c5.33301 43.333 13.333 88 24 134s24.5 90.833 41.5 134.5s37.667 85.167 62 124.5s52.833 73.666 85.5 102.999s69.834 52.333 111.501 69s88.834 24.667 141.501 24c25.333 -0.666992 50.333 -3.5 75 -8.5s48.667 -12.833 72 -23.5l87 464h181l-89 -470
c51.333 23.333 104 34.666 158 33.999c49.333 -0.666992 91.5 -10.167 126.5 -28.5s64.167 -42.666 87.5 -72.999s41.5 -65.333 54.5 -105s22.333 -80.667 28 -123s8 -85 7 -128s-3.5 -82.833 -7.5 -119.5l-3 -22c-5.33301 -42 -13.666 -84.167 -24.999 -126.5
s-25.833 -83 -43.5 -122s-38.834 -75.5 -63.501 -109.5s-53 -63.333 -85 -88s-68 -44 -108 -58s-84.333 -20.667 -133 -20c-58 1.33301 -112.333 13 -163 35l-80 -428h-181l81 425c-48.667 -19.333 -96.667 -28.666 -144 -27.999c-46 0 -86 7.66699 -120 23
s-62.667 36 -86 62s-42.333 56 -57 90s-25.334 69.833 -32.001 107.5s-10.334 76.167 -11.001 115.5s1 77.333 5 114zM1150 527c2.66699 23.333 4.99902 50 6.99902 80s2.16699 60.333 0.5 91s-5.66699 60.667 -12 90s-16.5 55.666 -30.5 78.999s-32.167 42.333 -54.5 57
s-50.5 22.667 -84.5 24c-19.333 0.666992 -38.166 -0.666016 -56.499 -3.99902s-36.833 -8 -55.5 -14l-142 -785c16.667 -6 33.667 -10.333 51 -13s34.666 -4.33398 51.999 -5.00098c52 -0.666992 97 10.333 135 33s69.833 52.334 95.5 89.001s45.834 77.5 60.501 122.5
s25 89.833 31 134.5zM262.999 493c-4 -35.333 -6.16504 -73.666 -6.49805 -114.999s4.83398 -80 15.501 -116s28.667 -66.167 54 -90.5s61.666 -37.5 108.999 -39.5c18 -0.666992 35.667 0.5 53 3.5s34.666 7.16699 51.999 12.5l142 787
c-15.333 5.33301 -30.833 9.66602 -46.5 12.999s-31.5 5 -47.5 5c-38 0.666992 -71.833 -5.5 -101.5 -18.5s-55.834 -30.667 -78.501 -53s-42 -48.5 -58 -78.5s-29.667 -61.333 -41 -94s-20.333 -65.667 -27 -99s-12 -65 -16 -95z" />
    <glyph glyph-name="uni0445" unicode="&#x445;" horiz-adv-x="995" 
d="M496 688l294 394h222l-434 -544l264 -538h-197l-179 404l-305 -404h-221l447 556l-256 526h198z" />
    <glyph glyph-name="uni0446" unicode="&#x446;" horiz-adv-x="1187" 
d="M235 1082h181l-161 -931h481l162 931h181l-162 -931h126l-100 -472h-162l56 321h-790z" />
    <glyph glyph-name="uni0447" unicode="&#x447;" horiz-adv-x="1090" 
d="M825 0l-182 -0.000976562l75 393c-40 -10.667 -80 -18.667 -120 -24s-80.333 -7.66602 -121 -6.99902c-61.333 0.666992 -115 11 -161 31s-83.667 47.667 -113 83s-50 77.666 -62 126.999s-14.667 104 -8 164l50 316h181l-51 -317c-4 -34.667 -4.33301 -67 -1 -97
s11.5 -56.167 24.5 -78.5s31.667 -40.166 56 -53.499s55.5 -20.666 93.5 -21.999c42 -1.33301 83.5 0.666992 124.5 6s81.833 12.666 122.5 21.999l98 539h182z" />
    <glyph glyph-name="uni0448" unicode="&#x448;" horiz-adv-x="1616" 
d="M416 1082l-161 -931h383l161 931h181l-162 -931h382l162 931h182l-188 -1082h-1309l188 1082h181z" />
    <glyph glyph-name="uni0449" unicode="&#x449;" horiz-adv-x="1654" 
d="M405 1082l-161 -931h383l161 931h181l-162 -931h382l162 931h182l-162 -930h149l-100 -473h-162l56 321h-1278l188 1082h181z" />
    <glyph glyph-name="uni044A" unicode="&#x44a;" horiz-adv-x="1243" 
d="M539 709l253.997 -2.00098c50.667 -1.33301 97.834 -9.66602 141.501 -24.999s81 -37.333 112 -66s54.667 -64 71 -106s22.5 -90 18.5 -144c-4 -59.333 -18.667 -112 -44 -158s-58.166 -84.5 -98.499 -115.5s-86.166 -54.333 -137.499 -70s-105 -23.167 -161 -22.5h-459
l161 930h-311l27 152h492zM513.997 557.999l-71 -407.002l256 -1c32.667 0.666992 63.5 5.5 92.5 14.5s54.667 22.333 77 40s41 39.334 56 65.001s24.833 55.5 29.5 89.5c7.33301 58 -3.5 104.833 -32.5 140.5s-72.5 54.834 -130.5 57.501z" />
    <glyph glyph-name="uni044B" unicode="&#x44b;" horiz-adv-x="1552" 
d="M351 709l253.997 -2.00098c50.667 -1.33301 97.834 -9.66602 141.501 -24.999s81 -37.333 112 -66s54.667 -64 71 -106s22.5 -90 18.5 -144c-4 -59.333 -18.667 -112 -44 -158s-58.166 -84.5 -98.499 -115.5s-86.166 -54.333 -137.499 -70s-105 -23.167 -161 -22.5h-459
l188 1082h181zM325.997 557.999l-71 -407.002l256 -1c32.667 0.666992 63.5 5.5 92.5 14.5s54.667 22.333 77 40s41 39.334 56 65.001s24.833 55.5 29.5 89.5c7.33301 58 -3.5 104.833 -32.5 140.5s-72.5 54.834 -130.5 57.501zM1261 -0.00292969h-181l188 1082h181z" />
    <glyph glyph-name="uni044C" unicode="&#x44c;" horiz-adv-x="1089" 
d="M351 709l253.997 -2.00098c50.667 -1.33301 97.834 -9.66602 141.501 -24.999s81 -37.333 112 -66s54.667 -64 71 -106s22.5 -90 18.5 -144c-4 -59.333 -18.667 -112 -44 -158s-58.166 -84.5 -98.499 -115.5s-86.166 -54.333 -137.499 -70s-105 -23.167 -161 -22.5h-459
l188 1082h181zM325.997 557.999l-71 -407.002l256 -1c32.667 0.666992 63.5 5.5 92.5 14.5s54.667 22.333 77 40s41 39.334 56 65.001s24.833 55.5 29.5 89.5c7.33301 58 -3.5 104.833 -32.5 140.5s-72.5 54.834 -130.5 57.501z" />
    <glyph glyph-name="uni044D" unicode="&#x44d;" horiz-adv-x="1078" 
d="M567 951c-32.667 0.666992 -63.8311 -4 -93.498 -14s-56.667 -24.5 -81 -43.5s-44.833 -41.667 -61.5 -68s-28.334 -55.166 -35.001 -86.499l-171 -1c5.33301 54 22 103.5 50 148.5s62.833 83.833 104.5 116.5s88.167 57.667 139.5 75s103.333 25.666 156 24.999
c49.333 -1.33301 93.5 -9.5 132.5 -24.5s73.167 -35.167 102.5 -60.5s54.166 -55.166 74.499 -89.499s36.333 -71.166 48 -110.499s19.167 -80.5 22.5 -123.5s3 -86.167 -1 -129.5l-5 -43c-8.66699 -70 -27 -137.833 -55 -203.5s-64.833 -124 -110.5 -175
s-99.5 -91.5 -161.5 -121.5s-131 -44 -207 -42c-56 1.33301 -106.667 12.166 -152 32.499s-83.833 48 -115.5 83s-55.5 76 -71.5 123s-22.667 98.167 -20 153.5l171 -1c-2 -31.333 0.833008 -61.333 8.5 -90s19.667 -54 36 -76s37.333 -39.833 63 -53.5
s55.5 -21.167 89.5 -22.5c49.333 -2 92.666 7.33301 129.999 28s69.666 47.667 96.999 81s50.333 71 69 113s33.667 83.333 45 124h-400l27 152h388c2 36 0.166992 73 -5.5 111s-16.667 72.5 -33 103.5s-38.666 56.667 -66.999 77s-64.166 31.166 -107.499 32.499z" />
    <glyph glyph-name="uni044E" unicode="&#x44e;" horiz-adv-x="1632" 
d="M337 623l249.002 0.00195312c14.667 64.667 37.5 126.5 68.5 185.5s69.5 110.5 115.5 154.5s99 78.667 159 104s126 37 198 35c76 -2 141 -18.833 195 -50.5s97.333 -73 130 -124s55.167 -109 67.5 -174s14.833 -131.5 7.5 -199.5l-2 -23
c-9.33301 -73.333 -28.833 -143.5 -58.5 -210.5s-68.334 -126.167 -116.001 -177.5s-103.667 -91.833 -168 -121.5s-135.833 -43.5 -214.5 -41.5c-70.667 2 -131.834 16.833 -183.501 44.5s-94 64.167 -127 109.5s-57 97.166 -72 155.499s-21.5 119.166 -19.5 182.499h-255
l-82 -472h-181l188 1082h181zM751.002 522.002c-3.33301 -28 -4.83496 -56.999 -4.50195 -86.999s3 -59.333 8 -88s12.833 -55.834 23.5 -81.501s24.834 -48.334 42.501 -68.001s39.334 -35.5 65.001 -47.5s55.834 -18.667 90.501 -20c55.333 -2 104.333 8.83301 147 32.5
s79.167 54.834 109.5 93.501s54.666 82.167 72.999 130.5s30.833 96.5 37.5 144.5l3 22c3.33301 28 4.83301 57.167 4.5 87.5s-3 60 -8 89s-12.833 56.667 -23.5 83s-25 49.5 -43 69.5s-40 36.167 -66 48.5s-56.333 19.166 -91 20.499c-56 2 -105.167 -9.16699 -147.5 -33.5
s-78.5 -56.166 -108.5 -95.499s-54 -83.5 -72 -132.5s-30.333 -97.5 -37 -145.5z" />
    <glyph glyph-name="uni044F" unicode="&#x44f;" horiz-adv-x="1100" 
d="M1023 1082l-188 -1082h-182l73 421h-263l-321 -421h-207l351 453c-56.667 28 -98.334 68 -125.001 120s-38 109 -34 171c4 58.667 19.5 109.167 46.5 151.5s61.167 77.333 102.5 105s87.833 48.334 139.5 62.001s103.834 20.5 156.501 20.5zM308 742.999
c-3.33301 -26 -1.99902 -49.3301 4.00098 -69.9971s16 -38 30 -52s31.167 -25 51.5 -33s43.166 -12.667 68.499 -14l290 -1l63 359l-247 1c-30 -0.666992 -59.5 -4.83398 -88.5 -12.501s-55.5 -19.334 -79.5 -35.001s-44.167 -35.334 -60.5 -59.001
s-26.833 -51.5 -31.5 -83.5z" />
    <glyph glyph-name="uni0450" unicode="&#x450;" horiz-adv-x="1062" 
d="M480 -20c-74 1.33301 -137.83 16.501 -191.497 45.501s-97.167 67.5 -130.5 115.5s-56.833 103 -70.5 165s-17.5 126.667 -11.5 194l5 43c5.33301 46 15.166 92 29.499 138s32.833 90 55.5 132s49.5 80.833 80.5 116.5s65.667 66.5 104 92.5s80 46.167 125 60.5
s93.167 20.833 144.5 19.5c74.667 -2 136.667 -18.5 186 -49.5s87.833 -71.333 115.5 -121s45.5 -105.834 53.5 -168.501s7.66699 -126.667 -1 -192l-12 -83h-706c-6 -42 -6 -84 0 -126s18.5 -79.833 37.5 -113.5s45.167 -61.334 78.5 -83.001s74.333 -33.167 123 -34.5
c61.333 -1.33301 116.333 11.5 165 38.5s93 62.167 133 105.5l104 -88c-24 -34.667 -51.333 -65 -82 -91s-63.834 -47.833 -99.501 -65.5s-73.334 -30.667 -113.001 -39s-80.5 -12.166 -122.5 -11.499zM610.003 951.001c-46 2 -86.832 -6 -122.499 -24
s-67 -41.833 -94 -71.5s-50.167 -63.334 -69.5 -101.001s-35.333 -75.834 -48 -114.501l526 -2l4 18c5.33301 35.333 5.66602 70.333 0.999023 105s-15 65.834 -31 93.501s-37.667 50.334 -65 68.001s-61 27.167 -101 28.5zM758.004 1240h-143l-205 294h205z" />
    <glyph glyph-name="uni0451" unicode="&#x451;" horiz-adv-x="1062" 
d="M480 -20c-74 1.33301 -137.83 16.501 -191.497 45.501s-97.167 67.5 -130.5 115.5s-56.833 103 -70.5 165s-17.5 126.667 -11.5 194l5 43c5.33301 46 15.166 92 29.499 138s32.833 90 55.5 132s49.5 80.833 80.5 116.5s65.667 66.5 104 92.5s80 46.167 125 60.5
s93.167 20.833 144.5 19.5c74.667 -2 136.667 -18.5 186 -49.5s87.833 -71.333 115.5 -121s45.5 -105.834 53.5 -168.501s7.66699 -126.667 -1 -192l-12 -83h-706c-6 -42 -6 -84 0 -126s18.5 -79.833 37.5 -113.5s45.167 -61.334 78.5 -83.001s74.333 -33.167 123 -34.5
c61.333 -1.33301 116.333 11.5 165 38.5s93 62.167 133 105.5l104 -88c-24 -34.667 -51.333 -65 -82 -91s-63.834 -47.833 -99.501 -65.5s-73.334 -30.667 -113.001 -39s-80.5 -12.166 -122.5 -11.499zM610.003 951.001c-46 2 -86.832 -6 -122.499 -24
s-67 -41.833 -94 -71.5s-50.167 -63.334 -69.5 -101.001s-35.333 -75.834 -48 -114.501l526 -2l4 18c5.33301 35.333 5.66602 70.333 0.999023 105s-15 65.834 -31 93.501s-37.667 50.334 -65 68.001s-61 27.167 -101 28.5zM368.004 1369
c0.666992 30.667 10.6699 56.1699 30.0029 76.5029s44.666 31.166 75.999 32.499c31.333 0.666992 57.166 -8.83301 77.499 -28.5s30.166 -45.167 29.499 -76.5c0 -30.667 -10 -56 -30 -76s-45.667 -30.667 -77 -32c-31.333 -0.666992 -56.833 8.66602 -76.5 27.999
s-29.5 44.666 -29.5 75.999zM785.007 1367c0.666992 30.667 10.667 56.335 30 77.002s44.666 31.667 75.999 33c32 0.666992 58 -8.83301 78 -28.5s29.667 -45.5 29 -77.5c0 -31.333 -10 -56.833 -30 -76.5s-45.667 -30.167 -77 -31.5
c-30.667 -0.666992 -56.167 8.66602 -76.5 27.999s-30.166 44.666 -29.499 75.999z" />
    <glyph glyph-name="uni0452" unicode="&#x452;" horiz-adv-x="1104" 
d="M698 1209l-281.002 0.000976562l-48 -259c43.333 47.333 92.333 84.666 147 111.999s114.667 40.333 180 39c58 -0.666992 106.167 -11.667 144.5 -33s68.5 -49.833 90.5 -85.5s36.333 -77.167 43 -124.5s7.33398 -97 2.00098 -149l-43 -255h5l-90 -543
c-6.66699 -50.667 -19.167 -97.5 -37.5 -140.5s-42.5 -80.167 -72.5 -111.5s-66.167 -55.833 -108.5 -73.5s-90.5 -26.167 -144.5 -25.5c-20.667 0.666992 -40.834 2.66699 -60.501 6s-39.5 8 -59.5 14l31 147c15.333 -5.33301 31.5 -9.33301 48.5 -12s33.833 -4 50.5 -4
c27.333 0 51 6 71 18s36.667 27.5 50 46.5s24 40.5 32 64.5s13.667 47.667 17 71l15 89h-3l119 712c4 32.667 4.33301 63 1 91s-11.166 52.5 -23.499 73.5s-30 37.667 -53 50s-52.5 18.833 -88.5 19.5c-31.333 0.666992 -60.666 -3.33301 -87.999 -12s-52.833 -21 -76.5 -37
s-45.667 -34.667 -66 -56s-38.833 -44.333 -55.5 -69l-134 -772h-181l210 1209h-161l27 151h160l31 176h181l-33 -176h279z" />
    <glyph glyph-name="uni0453" unicode="&#x453;" horiz-adv-x="843" 
d="M871 929h-483l-161 -929h-182l188 1082h666zM654 1514h230l-306 -294h-158z" />
    <glyph glyph-name="uni0454" unicode="&#x454;" horiz-adv-x="1079" 
d="M486 130c32.667 -0.666992 64.167 3.99902 94.5 13.999s57.833 24.167 82.5 42.5s45.834 40.666 63.501 66.999s30.834 55.166 39.501 86.499l171 1c-8 -54 -26.5 -103.5 -55.5 -148.5s-64.5 -83.5 -106.5 -115.5s-88.833 -56.667 -140.5 -74
s-104.167 -25.333 -157.5 -24c-76 2 -140.333 18.333 -193 49s-94.5 71 -125.5 121s-52.167 106.833 -63.5 170.5s-13.333 129.5 -6 197.5l5 43c8.66699 72.667 27 142.167 55 208.5s65.167 124.5 111.5 174.5s101 89.5 164 118.5s133.833 42.5 212.5 40.5
c56.667 -1.33301 107.834 -12 153.501 -32s84.5 -47.5 116.5 -82.5s56.667 -76.167 74 -123.5s25.666 -99 24.999 -155h-169c0 32.667 -4.33301 63.334 -13 92.001s-21.834 54 -39.501 76s-39.5 39.5 -65.5 52.5s-56.333 20.167 -91 21.5
c-50 1.33301 -94.333 -7.16699 -133 -25.5s-72.167 -43.166 -100.5 -74.499s-51.833 -67.5 -70.5 -108.5s-32.667 -83.167 -42 -126.5h396l-27 -152h-389c-2 -39.333 -0.333008 -78.666 5 -117.999s16.166 -74.833 32.499 -106.5s39.5 -57.5 69.5 -77.5s69 -30.667 117 -32z
" />
    <glyph glyph-name="uni0455" unicode="&#x455;" horiz-adv-x="1034" 
d="M699 293c4 30.667 0.334961 56.167 -10.998 76.5s-27.333 37.333 -48 51s-43.834 24.5 -69.501 32.5s-50.5 15 -74.5 21c-40 10 -80.5 22.333 -121.5 37s-77.833 33.5 -110.5 56.5s-59 51.5 -79 85.5s-29 75.667 -27 125c2.66699 53.333 17 100.333 43 141
s59 74.667 99 102s84.5 47.833 133.5 61.5s97.5 20.167 145.5 19.5c50.667 -0.666992 98.5 -8.66699 143.5 -24s84.167 -37.5 117.5 -66.5s59.333 -64.333 78 -106s27.334 -89.167 26.001 -142.5l-180 1c0.666992 28 -3.66602 53.333 -12.999 76s-22.666 42 -39.999 58
s-37.833 28.333 -61.5 37s-49.5 13.334 -77.5 14.001c-26 0.666992 -52.167 -2.16602 -78.5 -8.49902s-50.5 -16.333 -72.5 -30s-40.5 -30.834 -55.5 -51.501s-24.5 -45.334 -28.5 -74.001c-2.66699 -19.333 -1.33398 -36.166 3.99902 -50.499s13.333 -27 24 -38
s23.167 -20.167 37.5 -27.5s29.666 -13.833 45.999 -19.5s32.666 -10.5 48.999 -14.5s31.5 -8 45.5 -12c41.333 -10.667 82.5 -23.834 123.5 -39.501s77.833 -35.667 110.5 -60s58.5 -54 77.5 -89s27.167 -77.5 24.5 -127.5c-3.33301 -56.667 -18.5 -105.834 -45.5 -147.501
s-61.167 -76 -102.5 -103s-87.5 -46.833 -138.5 -59.5s-101.833 -18.334 -152.5 -17.001c-52.667 0.666992 -102.834 9 -150.501 25s-89.667 39 -126 69s-65 66.667 -86 110s-30.833 93.333 -29.5 150l181 -1c0 -32.667 5.5 -61.5 16.5 -86.5s26 -46 45 -63
s41.667 -29.833 68 -38.5s55.5 -13 87.5 -13c26.667 -0.666992 54 1.83301 82 7.5s54 14.834 78 27.501s44.5 29.334 61.5 50.001s27.5 46 31.5 76z" />
    <glyph glyph-name="uni0456" unicode="&#x456;" horiz-adv-x="492" 
d="M227 0h-180l188 1082h180zM270 1366c0.666992 31.333 10.6689 57.334 30.002 78.001s44.666 31.667 75.999 33c16 0.666992 30.5 -1.5 43.5 -6.5s24.333 -12.333 34 -22s17 -21 22 -34s7.5 -27.167 7.5 -42.5c-0.666992 -31.333 -10.834 -57 -30.501 -77
s-45.167 -30.667 -76.5 -32s-57 7.66699 -77 27s-29.667 44.666 -29 75.999z" />
    <glyph glyph-name="uni0457" unicode="&#x457;" horiz-adv-x="501" 
d="M227 0h-181l188 1082h181zM65 1368c0.666992 30.667 10.6699 56.1699 30.0029 76.5029s44.666 31.166 75.999 32.499c31.333 0.666992 57.166 -8.83301 77.499 -28.5s30.166 -45.167 29.499 -76.5c0 -30.667 -10 -56 -30 -76s-45.667 -30.667 -77 -32
c-31.333 -0.666992 -56.833 8.66602 -76.5 27.999s-29.5 44.666 -29.5 75.999zM482.003 1366c0.666992 30.667 10.667 56.335 30 77.002s44.666 31.667 75.999 33c32 0.666992 58 -8.83301 78 -28.5s29.667 -45.5 29 -77.5c0 -31.333 -10 -56.833 -30 -76.5
s-45.667 -30.167 -77 -31.5c-30.667 -0.666992 -56.167 8.66602 -76.5 27.999s-30.166 44.666 -29.499 75.999z" />
    <glyph glyph-name="uni0458" unicode="&#x458;" horiz-adv-x="484" 
d="M406 1082l-204.999 -1211c-6 -45.333 -16.667 -87.166 -32 -125.499s-36 -71.333 -62 -99s-57.667 -49.167 -95 -64.5s-80.333 -22.666 -129 -21.999c-20.667 0.666992 -40.834 2.83398 -60.501 6.50098s-39.167 8.16699 -58.5 13.5l16 148
c14 -3.33301 27.833 -5.83301 41.5 -7.5s27.5 -2.83398 41.5 -3.50098c24 0 45 3.83301 63 11.5s33.167 18.334 45.5 32.001s22.333 30 30 49s13.167 39.5 16.5 61.5l207 1211h181zM256.001 1366c0.666992 31.333 10.499 57.333 29.499 78s44.5 31.667 76.5 33
c15.333 0.666992 29.5 -1.5 42.5 -6.5s24.333 -12.333 34 -22s17.167 -21 22.5 -34s8 -27.167 8 -42.5c-0.666992 -31.333 -11 -57 -31 -77s-45.667 -30.667 -77 -32c-15.333 -0.666992 -29.333 1.5 -42 6.5s-23.667 12.167 -33 21.5s-16.666 20.333 -21.999 33
s-8 26.667 -8 42z" />
    <glyph glyph-name="uni0459" unicode="&#x459;" horiz-adv-x="1695" 
d="M1046 1082l-72 -412l254 -1c48.667 -1.33301 94.667 -9 138 -23s81 -34.333 113 -61s56.667 -60 74 -100s24.333 -86.333 21 -139c-3.33301 -58 -18 -108.833 -44 -152.5s-59.333 -79.834 -100 -108.501s-86.5 -50.167 -137.5 -64.5s-103.167 -21.166 -156.5 -20.499
h-460l162 929h-325l-52 -310c-6.66699 -46.667 -14.834 -94.5 -24.501 -143.5s-22.167 -96.5 -37.5 -142.5s-34.166 -89.5 -56.499 -130.5s-49.5 -76.5 -81.5 -106.5s-69.833 -53.667 -113.5 -71s-94.167 -25.666 -151.5 -24.999h-56l19 154h37
c37.333 0 69.833 7.66699 97.5 23s51.5 35.5 71.5 60.5s36.5 53.667 49.5 86s23.833 65.666 32.5 99.999s15.667 68.5 21 102.5s10 65 14 93l77 463h687zM948 518l-64.001 -369.004l256 -1c30.667 0.666992 60.334 5.33398 89.001 14.001s54.5 21.334 77.5 38.001
s42.167 37.334 57.5 62.001s25 53.334 29 86.001c4 28 2.33301 52.333 -5 73s-18.833 38 -34.5 52s-34.5 24.5 -56.5 31.5s-46 11.167 -72 12.5z" />
    <glyph glyph-name="uni045A" unicode="&#x45a;" horiz-adv-x="1721" 
d="M345 673l481 0.00195312l71 409h181l-72 -413l254 -1c48.667 -1.33301 94.667 -9 138 -23s81 -34.333 113 -61s56.667 -59.834 74 -99.501s24.333 -85.834 21 -138.501c-3.33301 -58 -18 -108.833 -44 -152.5s-59.333 -80 -100 -109s-86.5 -50.5 -137.5 -64.5
s-103.167 -20.667 -156.5 -20h-459l91 522h-481l-91 -522h-181l188 1082h181zM980 518.002l-64.0039 -369.004l256 -1c30.667 0.666992 60.334 5.33398 89.001 14.001s54.334 21.334 77.001 38.001s41.667 37.334 57 62.001s25.333 53.334 30 86.001
c4 28 2.33301 52.5 -5 73.5s-18.666 38.333 -33.999 52s-34.166 24 -56.499 31s-46.5 11.167 -72.5 12.5z" />
    <glyph glyph-name="uni045B" unicode="&#x45b;" horiz-adv-x="1136" 
d="M721 1214l-303.003 0.000976562l-49 -264c43.333 47.333 92.333 84.666 147 111.999s114.667 40.333 180 39c58 -0.666992 106.167 -11.667 144.5 -33s68.5 -49.833 90.5 -85.5s36.333 -77.167 43 -124.5s7.33398 -97 2.00098 -149l-118 -709h-181l119 712
c4 32.667 4.33301 63 1 91s-11.166 52.5 -23.499 73.5s-30 37.667 -53 50s-52.5 18.833 -88.5 19.5c-31.333 0.666992 -60.666 -3.33301 -87.999 -12s-52.833 -21 -76.5 -37s-45.667 -34.667 -66 -56s-38.833 -44.333 -55.5 -69l-134 -772h-181l211 1214h-139l27 151h138
l30 171h181l-32 -171h301z" />
    <glyph glyph-name="uni045C" unicode="&#x45c;" horiz-adv-x="1083" 
d="M446 461h-137l-81 -461h-181l188 1082h181l-80 -458h110l432 458h233l-514 -529l347 -553h-214zM760 1513h230l-306 -294h-158z" />
    <glyph glyph-name="uni045D" unicode="&#x45d;" horiz-adv-x="1157" 
d="M892 1082h187l-188 -1082h-181l136 777l-612 -777h-187l188 1082h180l-135 -778zM779 1220h-143l-205 294h205z" />
    <glyph glyph-name="uni045E" unicode="&#x45e;" horiz-adv-x="950" 
d="M419 273l384.999 808.999h200l-636 -1250c-17.333 -35.333 -37.166 -69.5 -59.499 -102.5s-47.833 -62.167 -76.5 -87.5s-60.834 -45.5 -96.501 -60.5s-74.834 -22.167 -117.501 -21.5c-18.667 0.666992 -37.167 2.83398 -55.5 6.50098s-36.166 7.5 -53.499 11.5l16 150
c7.33301 -1.33301 15 -2.5 23 -3.5s16 -1.5 24 -1.5c32.667 -1.33301 62 2 88 10s49.333 19.833 70 35.5s39.334 34.667 56.001 57s32 47.5 46 75.5l64 122l-187 1059h189zM931.999 1496c-4 -42 -14.501 -79.8311 -31.501 -113.498s-39.167 -62.167 -66.5 -85.5
s-59.166 -41 -95.499 -53s-75.5 -17.333 -117.5 -16c-40.667 0.666992 -77.667 7.5 -111 20.5s-61.666 31 -84.999 54s-41.333 51 -54 84s-18.667 69.833 -18 110.5l147 -1c-2 -42.667 6.16699 -78 24.5 -106s50.833 -42.667 97.5 -44
c47.333 -0.666992 84.666 13.166 111.999 41.499s45 64.166 53 107.499z" />
    <glyph glyph-name="uni045F" unicode="&#x45f;" horiz-adv-x="1157" 
d="M416 1082l-161 -931h481l162 931h181l-188 -1082h-328l-63 -356h-180l62 356h-335l188 1082h181z" />
    <glyph glyph-name="uni0460" unicode="&#x460;" horiz-adv-x="1756" 
d="M1753 1456l-180.001 -1059c-8.66699 -62 -25.667 -119 -51 -171s-58 -96.5 -98 -133.5s-86.833 -65.667 -140.5 -86s-112.834 -29.833 -177.501 -28.5c-31.333 0.666992 -62 4.66699 -92 12s-57.833 18.166 -83.5 32.499s-48.834 32.5 -69.501 54.5s-37 48 -49 78
c-44.667 -58.667 -97 -103.334 -157 -134.001s-127.667 -45 -203 -43c-60 2 -112.167 14.167 -156.5 36.5s-80.5 52.333 -108.5 90s-47.667 81.5 -59 131.5s-14 103.667 -8 161l180 1059h188l-179 -1060c-3.33301 -30 -3.66602 -60.167 -0.999023 -90.5
s9.83398 -57.833 21.501 -82.5s28.5 -45.167 50.5 -61.5s50.667 -25.166 86 -26.499c40 -2 76.167 3.66699 108.5 17s60.5 31.833 84.5 55.5s43.5 51.667 58.5 84s25.167 67.166 30.5 104.499l181 1060h194l-179 -1060c-3.33301 -32 -3 -63.5 1 -94.5
s12.833 -58.5 26.5 -82.5s32.5 -43.667 56.5 -59s54.667 -23.666 92 -24.999c38.667 -1.33301 73.334 5 104.001 19s57 33 79 57s39.833 52 53.5 84s23.167 65.667 28.5 101l180 1060h188z" />
    <glyph glyph-name="uni0461" unicode="&#x461;" horiz-adv-x="1542" 
d="M1494 1082l-121.999 -727.998c-8 -56.667 -23.167 -108.334 -45.5 -155.001s-51.166 -86.667 -86.499 -120s-77.166 -58.833 -125.499 -76.5s-101.833 -25.834 -160.5 -24.501c-27.333 0.666992 -53.833 4 -79.5 10s-49.834 15 -72.501 27s-43 27.167 -61 45.5
s-32.667 40.166 -44 65.499c-40 -49.333 -86 -86.666 -138 -111.999s-110.333 -37.333 -175 -36c-54 1.33301 -100.833 12 -140.5 32s-72 46.833 -97 80.5s-42.5 73 -52.5 118s-12.333 93.167 -7 144.5l122 729h180l-122 -730c-2.66699 -25.333 -3.16699 -50.833 -1.5 -76.5
s7.33398 -49.167 17.001 -70.5s23.667 -39 42 -53s42.5 -21.667 72.5 -23c34 -1.33301 64.667 3.66699 92 15s51.166 27.166 71.499 47.499s37 44.333 50 72s21.833 57.167 26.5 88.5l123 730h182l-122 -730c-2.66699 -27.333 -2.33398 -54.166 0.999023 -80.499
s10.666 -49.833 21.999 -70.5s27.166 -37.667 47.499 -51s46.166 -20.333 77.499 -21c32.667 -1.33301 61.834 4 87.501 16s47.834 28.333 66.501 49s33.667 44.667 45 72s19.333 56 24 86l122 730h181z" />
    <glyph glyph-name="uni0462" unicode="&#x462;" horiz-adv-x="1256" 
d="M661 1104l-228.001 -0.000976562l-42 -242l327 -1c64 -1.33301 122.833 -11.333 176.5 -30s99.334 -45.5 137.001 -80.5s66 -78.333 85 -130s25.5 -110.834 19.5 -177.501c-6 -73.333 -24.833 -137.666 -56.5 -192.999s-72 -101.666 -121 -138.999s-105 -65.333 -168 -84
s-128.833 -27.667 -197.5 -27h-539l191 1104h-202l27 151h201l35 201h188l-35 -201h229zM363.999 703.999l-96 -547.001l330 -1c44.667 0 87 6.5 127 19.5s75.5 31.833 106.5 56.5s56.667 54.834 77 90.501s33.5 76.5 39.5 122.5c4.66699 40.667 2.66699 76.667 -6 108
s-23.334 58 -44.001 80s-46.667 38.833 -78 50.5s-66.666 18.167 -105.999 19.5z" />
    <glyph glyph-name="uni0463" unicode="&#x463;" horiz-adv-x="1087" 
d="M726 1082h-311.002l-58 -336l253 -1c52.667 -2 100.834 -11.5 144.501 -28.5s80.834 -41 111.501 -72s53.5 -68.333 68.5 -112s20.5 -92.834 16.5 -147.501c-4.66699 -60.667 -19.5 -115 -44.5 -163s-57.5 -88.667 -97.5 -122s-86 -58.666 -138 -75.999
s-107.333 -25.333 -166 -24h-459l188 1082h-186l27 151h184l57 325h182l-57 -325h312zM330.998 594l-77.001 -443.001l255 -2c34.667 0.666992 66.834 6.5 96.501 17.5s55.834 26.333 78.501 46s41.167 43.5 55.5 71.5s23.5 59.667 27.5 95c4 28.667 3.5 55.834 -1.5 81.501
s-14.167 48 -27.5 67s-30.833 34.333 -52.5 46s-47.834 18.167 -78.501 19.5z" />
    <glyph glyph-name="uni0464" unicode="&#x464;" horiz-adv-x="1791" 
d="M406 833h189c10 56.667 24.833 112.167 44.5 166.5s43.667 105.666 72 153.999s61.166 92.5 98.499 132.5s79 74.5 125 103.5s96.333 51.167 151 66.5s113.667 22.333 177 21c73.333 -1.33301 137.833 -14.5 193.5 -39.5s102.334 -59 140.001 -102
s66.334 -94.167 86.001 -153.5s30.5 -124 32.5 -194h-187c-2 46 -7.83301 88.833 -17.5 128.5s-25 74.334 -46 104.001s-48.5 53.334 -82.5 71.001s-76.333 27.167 -127 28.5c-70 2 -131.833 -10.833 -185.5 -38.5s-99.667 -64.5 -138 -110.5s-69.5 -98.667 -93.5 -158
s-42 -119.333 -54 -180h528l-27 -152h-524l-4 -27c-4.66699 -35.333 -7.66699 -72.333 -9 -111s0.5 -76.834 5.5 -114.501s13.5 -73.667 25.5 -108s28.667 -64.833 50 -91.5s48.166 -48.167 80.499 -64.5s71.166 -25.166 116.499 -26.499c56 -2 105.667 4.16699 149 18.5
s81.333 35.666 114 63.999s60.5 63 83.5 104s41.833 86.833 56.5 137.5l182 3c-14 -75.333 -38.5 -143.166 -73.5 -203.499s-78.167 -111.5 -129.5 -153.5s-110.166 -74.167 -176.499 -96.5s-137.833 -32.5 -214.5 -30.5c-61.333 1.33301 -116 11.5 -164 30.5
s-89.833 44.5 -125.5 76.5s-65.167 69.667 -88.5 113s-41.5 89.666 -54.5 138.999s-20.667 100.833 -23 154.5s0.166992 107.167 7.5 160.5l3 26h-193l-118 -681h-187l253 1456h187z" />
    <glyph glyph-name="uni0465" unicode="&#x465;" horiz-adv-x="1493" 
d="M332 616l183.998 -0.00390625c12.667 66.667 33.834 129.834 63.501 189.501s67.167 111.667 112.5 156s98 79.333 158 105s126.667 37.5 200 35.5c56.667 -1.33301 107.834 -12 153.501 -32s84.5 -47.5 116.5 -82.5s56.667 -76.167 74 -123.5s25.666 -99 24.999 -155
h-169c0 32.667 -4.33301 63.334 -13 92.001s-21.834 54 -39.501 76s-39.5 39.5 -65.5 52.5s-56.333 20.167 -91 21.5c-50 1.33301 -94.333 -7.16699 -133 -25.5s-72.167 -43.166 -100.5 -74.499s-51.833 -67.5 -70.5 -108.5s-32.667 -83.167 -42 -126.5h428l-27 -152h-421
c-2 -39.333 -0.333008 -78.666 5 -117.999s16.166 -74.833 32.499 -106.5s39.5 -57.5 69.5 -77.5s69 -30.667 117 -32c32.667 -0.666992 64.167 4 94.5 14s57.833 24.167 82.5 42.5s45.834 40.666 63.501 66.999s30.834 55.166 39.501 86.499l171 1
c-8 -54 -26.5 -103.5 -55.5 -148.5s-64.5 -83.5 -106.5 -115.5s-88.833 -56.667 -140.5 -74s-104.167 -25.333 -157.5 -24c-71.333 2 -132.166 16.5 -182.499 43.5s-91.5 62.833 -123.5 107.5s-54.833 95.834 -68.5 153.501s-19.5 117.834 -17.5 180.501h-193l-80 -464h-181
l188 1082h181z" />
    <glyph glyph-name="uni0466" unicode="&#x466;" horiz-adv-x="1207" 
d="M853 438h-167l-76 -438h-184l77 438h-150l-222 -438h-201l762 1456h167l248 -1456h-184zM437 602h390l-91 583z" />
    <glyph glyph-name="uni0467" unicode="&#x467;" horiz-adv-x="1071" 
d="M678 297h-116l-52 -297h-181l52 297h-114l-168 -297h-193l616 1082h156l244 -1082h-177zM351 449h293l-72 326l-5 76l-40 -91z" />
    <glyph glyph-name="uni0468" unicode="&#x468;" horiz-adv-x="1760" 
d="M382 602h376l447 854h167l248 -1456h-184l-70 438h-167l-76 -438h-184l77 438h-150l-222 -438h-201l231 441h-320l-76 -441h-187l253 1456h187zM950 602h390l-91 583z" />
    <glyph glyph-name="uni0469" unicode="&#x469;" horiz-adv-x="1512" 
d="M337 449h258l361 633h156l244 -1082h-177l-67 297h-116l-52 -297h-181l52 297h-114l-168 -297h-193l169 297h-199l-51 -297h-181l188 1082h181zM785 449h293l-72 326l-5 76l-40 -91z" />
    <glyph glyph-name="uni046A" unicode="&#x46a;" horiz-adv-x="1703" 
d="M625 1449l1.00195 7.99902l966 -1l-502 -649h17c70 0 131.667 -9.5 185 -28.5s97.333 -47 132 -84s59.334 -82.833 74.001 -137.5s18 -117.334 10 -188.001l-60 -369h-189l61 370c5.33301 44.667 5.66602 84.334 0.999023 119.001s-15.5 63.834 -32.5 87.501
s-40.833 41.834 -71.5 54.501s-69.334 19.667 -116.001 21l-121 2l-30 -37l-109 -617h-189l114 632l-6 19l-128 3c-50 0.666992 -94.833 -4.33301 -134.5 -15s-73.834 -27.667 -102.501 -51s-52 -53 -70 -89s-31 -79.333 -39 -130l-60 -369h-188l61 369
c10.667 77.333 30.667 143.666 60 198.999s67 101 113 137s99.833 62.5 161.5 79.5s130.5 25.833 206.5 26.5h45l-260 645l197 -1zM875.002 809.999h15l360 488l-555 -1z" />
    <glyph glyph-name="uni046B" unicode="&#x46b;" horiz-adv-x="1470" 
d="M41 0l25.0029 162.995c19.333 142.667 68.666 250.334 147.999 323.001s190.666 112 333.999 118l-188 478h931l-371 -482c62.667 -4 115.667 -18 159 -42s77.666 -55.167 102.999 -93.5s42.333 -83.166 51 -134.499s9.66699 -106.666 3 -165.999l-25 -164h-182l25 165
c4.66699 40.667 6.16699 78 4.5 112s-9.16699 63.667 -22.5 89s-33.5 45.5 -60.5 60.5s-62.833 23.5 -107.5 25.5l-53 2l-17 -22l-79 -432h-181l84 444l-3 9l-58 1c-49.333 0.666992 -92 -5.33301 -128 -18s-66.667 -31.167 -92 -55.5s-45.5 -54.666 -60.5 -90.999
s-25.833 -78.166 -32.5 -125.499l-25 -164h-182zM724.003 603.995l9 -1l235 327h-353z" />
    <glyph glyph-name="uni046C" unicode="&#x46c;" horiz-adv-x="2250" 
d="M1171 1449l1.00195 7.99805l966 -1l-502 -649h17c70 0 131.667 -9.5 185 -28.5s97.333 -47 132 -84s59.334 -82.833 74.001 -137.5s18 -117.334 10 -188.001l-60 -369h-189l61 370c5.33301 44.667 5.66602 84.334 0.999023 119.001s-15.5 63.834 -32.5 87.501
s-40.833 41.834 -71.5 54.501s-69.334 19.667 -116.001 21l-121 2l-30 -37l-109 -617h-189l114 632l-6 19l-128 3c-50 0.666992 -94.833 -4.33301 -134.5 -15s-73.834 -27.667 -102.501 -51s-52 -53 -70 -89s-31 -79.333 -39 -130l-60 -369h-188l61 369
c18 124 59.667 221.333 125 292h-395l-115 -661h-187l253 1456h187l-112 -644h829l-259 644l197 -1zM1421 809.998h15l360 488l-555 -1z" />
    <glyph glyph-name="uni046D" unicode="&#x46d;" horiz-adv-x="1951" 
d="M522 0l25 162.997c17.333 123.333 56 220 116 290h-358l-78 -453h-181l188 1082h181l-83 -478h697l-188 478h931l-371 -482c62.667 -4 115.667 -18 159 -42s77.666 -55.167 102.999 -93.5s42.333 -83.166 51 -134.499s9.66699 -106.666 3 -165.999l-25 -164h-182l25 165
c4.66699 40.667 6.16699 78 4.5 112s-9.16699 63.667 -22.5 89s-33.5 45.5 -60.5 60.5s-62.833 23.5 -107.5 25.5l-53 2l-17 -22l-79 -432h-181l84 444l-3 9h-94c-85.333 -5.33301 -149.666 -32.666 -192.999 -81.999s-71.333 -118.333 -84 -207l-25 -164h-182z
M1205 603.997h7v-1h2l235 327h-353z" />
    <glyph glyph-name="uni046E" unicode="&#x46e;" horiz-adv-x="1038" 
d="M434 822c42 0 83.001 4.49121 123.001 13.4912s76.167 23.5 108.5 43.5s59.333 46.167 81 78.5s35.5 71.5 41.5 117.5c4.66699 38 1.83398 71 -8.49902 99s-26 51.333 -47 70s-46.667 32.834 -77 42.501s-62.833 15.167 -97.5 16.5l-309 1l27 152l286 -1
c56.667 -1.33301 110.667 -10.333 162 -27s96 -41 134 -73s67.333 -71.667 88 -119s28.667 -102 24 -164c-3.33301 -42 -13.666 -80 -30.999 -114s-39.5 -64.167 -66.5 -90.5s-57.333 -49.5 -91 -69.5s-68.834 -37.333 -105.501 -52
c71.333 -29.333 123.666 -73 156.999 -131s47.333 -125 42 -201c-5.33301 -70.667 -23.166 -133 -53.499 -187s-69.5 -99.333 -117.5 -136s-102.5 -64.334 -163.5 -83.001s-124.833 -28 -191.5 -28l-53 1c-20 -0.666992 -39.833 -3.16699 -59.5 -7.5
s-37.667 -11.166 -54 -20.499s-30.166 -21.666 -41.499 -36.999s-18.333 -34 -21 -56c-3.33301 -22.667 -2 -43.167 4 -61.5s15 -34.666 27 -48.999s26.333 -27.166 43 -38.499s34 -21.666 52 -30.999l-81 -120c-30 14.667 -58.167 32.5 -84.5 53.5s-49.333 44.5 -69 70.5
s-34.834 54.333 -45.501 85s-15.334 63.667 -14.001 99c2 50 13.5 91.833 34.5 125.5s48 60.834 81 81.501s70.5 35.334 112.5 44.001s84.667 13 128 13l45 -1c42.667 0 83.5 6.33301 122.5 19s73.833 30.834 104.5 54.501s56.167 52.834 76.5 87.501s33.166 74 38.499 118
c5.33301 45.333 2.33301 84.333 -9 117s-29 59.5 -53 80.5s-53.5 36.5 -88.5 46.5s-73.5 15.667 -115.5 17l-149 1l27 151zM719.001 1756.99l177 168l159 3l1 -13l-286 -273h-110l-206 272v14l150 -2z" />
    <glyph glyph-name="uni046F" unicode="&#x46f;" horiz-adv-x="967" 
d="M391 616c28.667 0 59.4971 2.16406 92.4971 6.49707s64 12.5 93 24.5s53.833 29 74.5 51s33.334 50.667 38.001 86c4 29.333 -0.166992 53.166 -12.5 71.499s-29 32.833 -50 43.5s-44.167 18 -69.5 22s-49 6.33301 -71 7l-305 1l28 153l280 -1
c44.667 -1.33301 90.167 -7.5 136.5 -18.5s88.166 -28.333 125.499 -52s67.166 -54.334 89.499 -92.001s31.833 -83.167 28.5 -136.5c-2 -32 -10 -60.5 -24 -85.5s-31.5 -47.167 -52.5 -66.5s-44.667 -36.333 -71 -51s-52.833 -27.667 -79.5 -39
c25.333 -10 48.5 -22.167 69.5 -36.5s38.833 -31 53.5 -50s25.834 -40.333 33.501 -64s10.834 -49.5 9.50098 -77.5c-3.33301 -60.667 -19.666 -112 -48.999 -154s-66.5 -76.167 -111.5 -102.5s-94.5 -45.5 -148.5 -57.5s-107 -18 -159 -18l-47 1
c-20 -0.666992 -40 -3 -60 -7s-38 -10.833 -54 -20.5s-29.667 -22 -41 -37s-18.333 -33.833 -21 -56.5c-3.33301 -22.667 -2 -43.167 4 -61.5s15 -34.666 27 -48.999s26.167 -27.166 42.5 -38.499s33.5 -21.666 51.5 -30.999l-81 -120c-29.333 14.667 -57.333 32.5 -84 53.5
s-49.667 44.5 -69 70.5s-34.5 54.333 -45.5 85s-15.833 63.667 -14.5 99c2 49.333 13.5 91 34.5 125s48 61.333 81 82s70.333 35.334 112 44.001s84.167 13 127.5 13h41c28.667 0 58.667 2.83301 90 8.5s60.5 15.167 87.5 28.5s50.167 31.333 69.5 54s31.333 50.667 36 84
c4.66699 34.667 -0.333008 62.334 -15 83.001s-34.5 36.5 -59.5 47.5s-52.667 18.167 -83 21.5s-58.166 5.33301 -83.499 6l-149 1l27 151zM580.997 1415l177 168l159 3l1 -13l-286 -273h-110l-206 272v14l150 -2z" />
    <glyph glyph-name="uni0470" unicode="&#x470;" horiz-adv-x="1384" 
d="M753 520c54.667 8.66699 104.335 24.8301 149.002 48.4971s83.5 53.334 116.5 89.001s60.167 76.5 81.5 122.5s36.333 96 45 150l90 526h188l-89 -526c-12.667 -82 -35.834 -156.167 -69.501 -222.5s-76.334 -123.666 -128.001 -171.999s-111.667 -87.333 -180 -117
s-143.5 -48.5 -225.5 -56.5l-68 -362h-189l69 364c-73.333 10.667 -136.833 32.834 -190.5 66.501s-97.167 75.667 -130.5 126s-56.333 107.333 -69 171s-14.667 131.167 -6 202.5l88 526h188l-89 -527c-6 -46 -6.83301 -90.833 -2.5 -134.5s15.333 -83.5 33 -119.5
s42.5 -67.167 74.5 -93.5s72.667 -45.5 122 -57.5l166 932h189z" />
    <glyph glyph-name="uni0471" unicode="&#x471;" horiz-adv-x="1401" 
d="M857 1082l-164.997 -948.998c58 10 111.5 27.5 160.5 52.5s92.167 56.5 129.5 94.5s68 81.833 92 131.5s40.667 103.5 50 161.5c13.333 85.333 16.166 171.333 8.49902 258s-23.834 171 -48.501 253l181 -2c26 -82 41.667 -166.167 47 -252.5
s2.33301 -172.166 -9 -257.499c-11.333 -87.333 -34.333 -165.833 -69 -235.5s-79.334 -129.5 -134.001 -179.5s-118.167 -89.833 -190.5 -119.5s-151.833 -47.834 -238.5 -54.501l-84 -455h-181l85 459c-81.333 11.333 -149.5 35.166 -204.5 71.499
s-98.333 81.666 -130 135.999s-52.5 115.833 -62.5 184.5s-10 141 0 217l82 486h181l-82 -489c-6.66699 -50.667 -8.83398 -100.5 -6.50098 -149.5s11.833 -94.167 28.5 -135.5s41.834 -77 75.501 -107s78.5 -51.333 134.5 -64l169 945h181z" />
    <glyph glyph-name="uni0472" unicode="&#x472;" horiz-adv-x="1362" 
d="M1252 682c-13.333 -90 -37.167 -177.502 -71.5 -262.502s-79.5 -160.5 -135.5 -226.5s-123.167 -118.5 -201.5 -157.5s-167.5 -57.5 -267.5 -55.5c-64 1.33301 -120.833 11.833 -170.5 31.5s-92.667 46.334 -129 80.001s-66.5 73 -90.5 118s-42.5 93.167 -55.5 144.5
s-20.667 104.833 -23 160.5s0.166992 111.167 7.5 166.5l13 92c8.66699 59.333 22.167 118 40.5 176s41.5 113.333 69.5 166s60.833 101.334 98.5 146.001s80 83.167 127 115.5s99 57.333 156 75s118.5 25.834 184.5 24.501c64.667 -1.33301 122 -11.833 172 -31.5
s93.167 -46.334 129.5 -80.001s66.5 -73 90.5 -118s42.167 -93.333 54.5 -145s19.5 -105.5 21.5 -161.5s-0.666992 -111.667 -8 -167zM794.999 1312c-72.667 2 -136.33 -11.999 -190.997 -41.999s-101.5 -69.833 -140.5 -119.5s-70.333 -105.667 -94 -168
s-40.834 -124.833 -51.501 -187.5h762c4 37.333 6.33301 75.666 7 114.999s-1.83301 78 -7.5 116s-14.834 74 -27.501 108s-30.167 63.833 -52.5 89.5s-50.333 46.5 -84 62.5s-73.834 24.667 -120.501 26zM585.003 141.999c72 -2 135.167 11.167 189.5 39.5
s100.5 66.333 138.5 114s68.833 102 92.5 163s41.167 122.5 52.5 184.5h-761c-3.33301 -36.667 -4.83301 -74.167 -4.5 -112.5s3.66602 -75.833 9.99902 -112.5s16.166 -71.334 29.499 -104.001s31.333 -61.5 54 -86.5s50.334 -45.167 83.001 -60.5
s71.334 -23.666 116.001 -24.999z" />
    <glyph glyph-name="uni0473" unicode="&#x473;" horiz-adv-x="1139" 
d="M80 544c6 48.667 16.5049 96.499 31.5049 143.499s34.167 91.333 57.5 133s50.833 80 82.5 115s67 65 106 90s81.667 44.333 128 58s96.166 19.834 149.499 18.501c76 -2 141 -18.833 195 -50.5s97.333 -73 130 -124s55.167 -109 67.5 -174s14.833 -131.5 7.5 -199.5
l-2 -23c-9.33301 -73.333 -28.833 -143.5 -58.5 -210.5s-68.334 -126.167 -116.001 -177.5s-103.667 -91.833 -168 -121.5s-135.833 -43.5 -214.5 -41.5c-75.333 2 -139.833 18.5 -193.5 49.5s-96.834 71.833 -129.501 122.5s-55.334 108 -68.001 172
s-15.334 130 -8.00098 198zM484.005 129.999c50 -2 94.6699 6.5 134.003 25.5s73.666 44.667 102.999 77s53.833 69.333 73.5 111s34.5 84.167 44.5 127.5h-584c-2 -39.333 0 -79 6 -119s17.667 -76.167 35 -108.5s41.166 -59 71.499 -80s69.166 -32.167 116.499 -33.5z
M627.008 950.999c-48 1.33301 -91.167 -7.00098 -129.5 -25.001s-72 -42.5 -101 -73.5s-53.5 -66.667 -73.5 -107s-35.333 -81.5 -46 -123.5h581c0.666992 38.667 -2.5 77.334 -9.5 116.001s-19.333 73.5 -37 104.5s-41.5 56.5 -71.5 76.5s-67.667 30.667 -113 32z" />
    <glyph glyph-name="uni0474" unicode="&#x474;" horiz-adv-x="1261" 
d="M521 366l8.00391 -119.002l60 134l381 802c16.667 38.667 34.667 75.834 54 111.501s42 67.167 68 94.5s56.333 49 91 65s75 24 121 24l51 -2l-21 -171h-10c-22.667 0.666992 -42.834 -3.16602 -60.501 -11.499s-33.334 -19.166 -47.001 -32.499
s-25.834 -28.833 -36.501 -46.5s-20.334 -35.834 -29.001 -54.501l-574 -1160h-167l-237 1456h196z" />
    <glyph glyph-name="uni0475" unicode="&#x475;" horiz-adv-x="1006" 
d="M410 306l3.99707 -87.0029l44 105l238 537c12.667 30 27.334 59.5 44.001 88.5s36.334 55 59.001 78s48.167 41.5 76.5 55.5s60.5 21 96.5 21c21.333 0 40.833 -2.16699 58.5 -6.5s35.5 -11.166 53.5 -20.499l-36 -146c-6.66699 2.66699 -13.334 4.83398 -20.001 6.50098
s-13.667 2.5 -21 2.5c-14 0 -27.167 -3 -39.5 -9s-23.666 -13.5 -33.999 -22.5s-19.666 -19.167 -27.999 -30.5s-15.5 -22.666 -21.5 -33.999l-433 -844h-137l-182 1082h177z" />
    <glyph glyph-name="uni0476" unicode="&#x476;" horiz-adv-x="1261" 
d="M521 366l8.00391 -119.002l60 134l381 802c16.667 38.667 34.667 75.834 54 111.501s42 67.167 68 94.5s56.333 49 91 65s75 24 121 24l51 -2l-21 -171h-10c-22.667 0.666992 -42.834 -3.16602 -60.501 -11.499s-33.334 -19.166 -47.001 -32.499
s-25.834 -28.833 -36.501 -46.5s-20.334 -35.834 -29.001 -54.501l-574 -1160h-167l-237 1456h196zM718.004 1502h-180l-251 266h234zM970.004 1502h-159l-193 266h214z" />
    <glyph glyph-name="uni0477" unicode="&#x477;" horiz-adv-x="1006" 
d="M410 306l3.99707 -87.0029l44 105l238 537c12.667 30 27.334 59.5 44.001 88.5s36.334 55 59.001 78s48.167 41.5 76.5 55.5s60.5 21 96.5 21c21.333 0 40.833 -2.16699 58.5 -6.5s35.5 -11.166 53.5 -20.499l-36 -146c-6.66699 2.66699 -13.334 4.83398 -20.001 6.50098
s-13.667 2.5 -21 2.5c-14 0 -27.167 -3 -39.5 -9s-23.666 -13.5 -33.999 -22.5s-19.666 -19.167 -27.999 -30.5s-15.5 -22.666 -21.5 -33.999l-433 -844h-137l-182 1082h177zM567.997 1207h-180l-251 266h234zM819.997 1207h-159l-193 266h214z" />
    <glyph glyph-name="uni0478" unicode="&#x478;" horiz-adv-x="2326" 
d="M1267 682c-13.333 -90 -37.167 -177.502 -71.5 -262.502s-79.5 -160.5 -135.5 -226.5s-123.167 -118.5 -201.5 -157.5s-167.5 -57.5 -267.5 -55.5c-64 1.33301 -120.833 11.833 -170.5 31.5s-92.667 46.334 -129 80.001s-66.5 73 -90.5 118s-42.5 93.167 -55.5 144.5
s-20.667 104.833 -23 160.5s0.166992 111.167 7.5 166.5l13 92c8.66699 59.333 22.167 118 40.5 176s41.5 113.333 69.5 166s60.833 101.334 98.5 146.001s80 83.167 127 115.5s99 57.333 156 75s118.5 25.834 184.5 24.501c64.667 -1.33301 122 -11.833 172 -31.5
s93.167 -46.334 129.5 -80.001s66.5 -73 90.5 -118s42.167 -93.333 54.5 -145s19.5 -105.5 21.5 -161.5s-0.666992 -111.667 -8 -167zM1093 775.998c4.66699 37.333 7.66406 76.501 8.99707 117.501s-0.5 81 -5.5 120s-13.667 76.333 -26 112s-29.833 67 -52.5 94
s-51 48.833 -85 65.5s-75 25.667 -123 27c-50 1.33301 -95.5 -5 -136.5 -19s-78.333 -33.833 -112 -59.5s-63.334 -56 -89.001 -91s-48 -72.667 -67 -113s-34.833 -82.166 -47.5 -125.499s-22 -86.333 -28 -129l-13 -95c-4.66699 -36.667 -7.5 -75.334 -8.5 -116.001
s1 -80.667 6 -120s13.833 -76.833 26.5 -112.5s30.334 -67.334 53.001 -95.001s50.834 -50 84.501 -67s74.167 -26.167 121.5 -27.5c50.667 -1.33301 96.834 5 138.501 19s79.167 33.667 112.5 59s62.833 55.5 88.5 90.5s47.834 72.667 66.501 113s34 82.5 46 126.5
s21.333 87.667 28 131zM1795 272.999l384.999 808.999h200l-636 -1250c-17.333 -35.333 -37.166 -69.5 -59.499 -102.5s-47.833 -62.167 -76.5 -87.5s-60.834 -45.5 -96.501 -60.5s-74.834 -22.167 -117.501 -21.5c-18.667 0.666992 -37.167 2.83398 -55.5 6.50098
s-36.166 7.5 -53.499 11.5l16 150c7.33301 -1.33301 15 -2.5 23 -3.5s16 -1.5 24 -1.5c32.667 -1.33301 62 2 88 10s49.333 19.833 70 35.5s39.334 34.667 56.001 57s32 47.5 46 75.5l64 122l-187 1059h189z" />
    <glyph glyph-name="uni0479" unicode="&#x479;" horiz-adv-x="2093" 
d="M80 544c6 48.667 16.5049 96.499 31.5049 143.499s34.167 91.333 57.5 133s50.833 80 82.5 115s67 65 106 90s81.667 44.333 128 58s96.166 19.834 149.499 18.501c76 -2 141 -18.833 195 -50.5s97.333 -73 130 -124s55.167 -109 67.5 -174s14.833 -131.5 7.5 -199.5
l-2 -23c-9.33301 -73.333 -28.833 -143.5 -58.5 -210.5s-68.334 -126.167 -116.001 -177.5s-103.667 -91.833 -168 -121.5s-135.833 -43.5 -214.5 -41.5c-75.333 2 -139.833 18.5 -193.5 49.5s-96.834 71.833 -129.501 122.5s-55.334 108 -68.001 172
s-15.334 130 -8.00098 198zM259.005 521.999c-3.33301 -28 -4.83496 -56.999 -4.50195 -86.999s3 -59.333 8 -88s12.833 -55.834 23.5 -81.501s24.834 -48.334 42.501 -68.001s39.334 -35.5 65.001 -47.5s55.834 -18.667 90.501 -20c55.333 -2 104.333 8.83301 147 32.5
s79.167 54.834 109.5 93.501s54.666 82.167 72.999 130.5s30.833 96.5 37.5 144.5l3 22c3.33301 28 4.83301 57.167 4.5 87.5s-3 60 -8 89s-12.833 56.667 -23.5 83s-25 49.5 -43 69.5s-40 36.167 -66 48.5s-56.333 19.166 -91 20.499c-56 2 -105.167 -9.16699 -147.5 -33.5
s-78.5 -56.166 -108.5 -95.499s-54 -83.5 -72 -132.5s-30.333 -97.5 -37 -145.5zM1562 273l384.999 808.999h200l-636 -1250c-17.333 -35.333 -37.166 -69.5 -59.499 -102.5s-47.833 -62.167 -76.5 -87.5s-60.834 -45.5 -96.501 -60.5s-74.834 -22.167 -117.501 -21.5
c-18.667 0.666992 -37.167 2.83398 -55.5 6.50098s-36.166 7.5 -53.499 11.5l16 150c7.33301 -1.33301 15 -2.5 23 -3.5s16 -1.5 24 -1.5c32.667 -1.33301 62 2 88 10s49.333 19.833 70 35.5s39.334 34.667 56.001 57s32 47.5 46 75.5l64 122l-187 1059h189z" />
    <glyph glyph-name="uni047A" unicode="&#x47a;" horiz-adv-x="1362" 
d="M871 1203h-180l67 386h181zM639 -141h-181l69 395h181zM1252 682c-13.333 -90 -37.167 -177.502 -71.5 -262.502s-79.5 -160.5 -135.5 -226.5s-123.167 -118.5 -201.5 -157.5s-167.5 -57.5 -267.5 -55.5c-64 1.33301 -120.833 11.833 -170.5 31.5
s-92.667 46.334 -129 80.001s-66.5 73 -90.5 118s-42.5 93.167 -55.5 144.5s-20.667 104.833 -23 160.5s0.166992 111.167 7.5 166.5l13 92c8.66699 59.333 22.167 118 40.5 176s41.5 113.333 69.5 166s60.833 101.334 98.5 146.001s80 83.167 127 115.5s99 57.333 156 75
s118.5 25.834 184.5 24.501c64.667 -1.33301 122 -11.833 172 -31.5s93.167 -46.334 129.5 -80.001s66.5 -73 90.5 -118s42.167 -93.333 54.5 -145s19.5 -105.5 21.5 -161.5s-0.666992 -111.667 -8 -167zM1078 775.998c4.66699 37.333 7.66406 76.501 8.99707 117.501
s-0.5 81 -5.5 120s-13.667 76.333 -26 112s-29.833 67 -52.5 94s-51 48.833 -85 65.5s-75 25.667 -123 27c-50 1.33301 -95.5 -5 -136.5 -19s-78.333 -33.833 -112 -59.5s-63.334 -56 -89.001 -91s-48 -72.667 -67 -113s-34.833 -82.166 -47.5 -125.499
s-22 -86.333 -28 -129l-13 -95c-4.66699 -36.667 -7.5 -75.334 -8.5 -116.001s1 -80.667 6 -120s13.833 -76.833 26.5 -112.5s30.334 -67.334 53.001 -95.001s50.834 -50 84.501 -67s74.167 -26.167 121.5 -27.5c50.667 -1.33301 96.834 5 138.501 19
s79.167 33.667 112.5 59s62.833 55.5 88.5 90.5s47.834 72.667 66.501 113s34 82.5 46 126.5s21.333 87.667 28 131z" />
    <glyph glyph-name="uni047B" unicode="&#x47b;" horiz-adv-x="1136" 
d="M695 838h-181l64 368h181zM529 -119h-181l64 367h181zM80 544c6 48.667 16.5049 96.499 31.5049 143.499s34.167 91.333 57.5 133s50.833 80 82.5 115s67 65 106 90s81.667 44.333 128 58s96.166 19.834 149.499 18.501c76 -2 141 -18.833 195 -50.5s97.333 -73 130 -124
s55.167 -109 67.5 -174s14.833 -131.5 7.5 -199.5l-2 -23c-9.33301 -73.333 -28.833 -143.5 -58.5 -210.5s-68.334 -126.167 -116.001 -177.5s-103.667 -91.833 -168 -121.5s-135.833 -43.5 -214.5 -41.5c-75.333 2 -139.833 18.5 -193.5 49.5
s-96.834 71.833 -129.501 122.5s-55.334 108 -68.001 172s-15.334 130 -8.00098 198zM259.005 521.999c-3.33301 -28 -4.83496 -56.999 -4.50195 -86.999s3 -59.333 8 -88s12.833 -55.834 23.5 -81.501s24.834 -48.334 42.501 -68.001s39.334 -35.5 65.001 -47.5
s55.834 -18.667 90.501 -20c55.333 -2 104.333 8.83301 147 32.5s79.167 54.834 109.5 93.501s54.666 82.167 72.999 130.5s30.833 96.5 37.5 144.5l3 22c3.33301 28 4.83301 57.167 4.5 87.5s-3 60 -8 89s-12.833 56.667 -23.5 83s-25 49.5 -43 69.5s-40 36.167 -66 48.5
s-56.333 19.166 -91 20.499c-56 2 -105.167 -9.16699 -147.5 -33.5s-78.5 -56.166 -108.5 -95.499s-54 -83.5 -72 -132.5s-30.333 -97.5 -37 -145.5z" />
    <glyph glyph-name="uni047C" unicode="&#x47c;" horiz-adv-x="1749" 
d="M1340 1455c63.333 -3.33301 116.998 -17.8369 160.998 -43.5039s79.333 -59.167 106 -100.5s44.5 -88.666 53.5 -141.999s10.167 -109 3.5 -167l-92 -571c-8.66699 -62 -24.667 -120.833 -48 -176.5s-54 -104.334 -92 -146.001s-83.5 -74.334 -136.5 -98.001
s-113.5 -34.5 -181.5 -32.5c-31.333 0.666992 -62.333 4.5 -93 11.5s-59.5 17.5 -86.5 31.5s-51.5 31.667 -73.5 53s-39.667 47 -53 77c-44 -57.333 -95.833 -100.833 -155.5 -130.5s-126.167 -43.834 -199.5 -42.501c-64 2 -118.333 15.833 -163 41.5
s-80.167 59.334 -106.5 101.001s-44.166 89.334 -53.499 143.001s-10.666 109.5 -3.99902 167.5l91 571c9.33301 66.667 26.166 127.5 50.499 182.5s56 102.5 95 142.5s85.667 71.333 140 94s116.166 34.667 185.499 36l-18 -158c-41.333 -1.33301 -77.333 -10.5 -108 -27.5
s-56.5 -39.333 -77.5 -67s-37.833 -59.167 -50.5 -94.5s-22 -71.333 -28 -108l-92 -572c-3.33301 -30 -4.5 -61.833 -3.5 -95.5s6.66699 -65 17 -94s26.5 -53.333 48.5 -73s52.333 -30.5 91 -32.5c40 -2 76.167 3.66699 108.5 17s60.333 31.833 84 55.5s43 51.667 58 84
s25.5 67.166 31.5 104.499l71 429h188l-70 -429c-4 -34.667 -3.5 -67.5 1.5 -98.5s15.333 -58.5 31 -82.5s36.5 -43.167 62.5 -57.5s58 -22.166 96 -23.499c41.333 -1.33301 76.833 6.83398 106.5 24.501s54.834 40.834 75.501 69.501s36.834 60.834 48.501 96.501
s20.167 70.834 25.5 105.501l92 573c4 31.333 5.66699 63.5 5 96.5s-6 63.5 -16 91.5s-25.667 51.5 -47 70.5s-51 30.167 -89 33.5zM1502 1748l-9.99805 -129.002l-40 1c-26.667 0.666992 -52.5 4.33398 -77.5 11.001s-49.667 14.834 -74 24.501s-48.333 19.834 -72 30.501
s-47.334 20.667 -71.001 30s-47.667 17.166 -72 23.499s-48.833 9.5 -73.5 9.5c-36 0 -65.5 -9.83301 -88.5 -29.5s-37.5 -47.167 -43.5 -82.5l-2 -18l-125 1l3 36c6 72 31.167 127 75.5 165s102.833 56.333 175.5 55c40 -0.666992 78.333 -7.5 115 -20.5
s73 -27.333 109 -43s72.667 -30.167 110 -43.5s76.666 -20.333 117.999 -21h43zM903 1381.99c20 21.333 38.5 43.6689 55.5 67.002s28.833 49.666 35.5 78.999l18 96l154 -1l-15 -101c-4 -23.333 -11.667 -44.833 -23 -64.5s-25 -37.834 -41 -54.501
s-33.667 -31.667 -53 -45s-38.333 -25.333 -57 -36z" />
    <glyph glyph-name="uni047D" unicode="&#x47d;" horiz-adv-x="1535" 
d="M1129 1092c56.667 -3.33301 104.667 -16.832 144 -40.499s70.5 -54.5 93.5 -92.5s38.5 -81 46.5 -129s9.33301 -98 4 -150l-42 -290c-7.33301 -56 -21.166 -109.167 -41.499 -159.5s-47.333 -94.5 -81 -132.5s-74.167 -67.833 -121.5 -89.5s-102 -31.834 -164 -30.501
c-28 0.666992 -55.5 3.83398 -82.5 9.50098s-52.5 14.5 -76.5 26.5s-45.833 27.333 -65.5 46s-35.834 41 -48.501 67c-40 -49.333 -86 -86.833 -138 -112.5s-110.333 -37.5 -175 -35.5c-58 1.33301 -106.667 13.833 -146 37.5s-70.666 54.5 -93.999 92.5s-39 81.5 -47 130.5
s-9.33301 99.167 -4 150.5l42 290c8 60 22.5 115.167 43.5 165.5s48.833 93.666 83.5 129.999s76.334 64.833 125.001 85.5s104.667 31.667 168 33l-17 -152c-36 -1.33301 -66.833 -9.66602 -92.5 -24.999s-47.334 -35.333 -65.001 -60s-31.667 -52.5 -42 -83.5
s-17.833 -62.167 -22.5 -93.5l-42 -291c-2 -16 -3.33301 -33.5 -4 -52.5s0 -38 2 -57s5.5 -37.333 10.5 -55s12.333 -33.334 22 -47.001s22.167 -25 37.5 -34s34 -13.833 56 -14.5c34 -2 64.667 2.66699 92 14s51.166 27.333 71.499 48s36.833 44.834 49.5 72.501
s21.334 57.167 26.001 88.5l38 236h180l-36 -236c-3.33301 -29.333 -2.66602 -57.333 2.00098 -84s13.667 -50.167 27 -70.5s31.166 -36.833 53.499 -49.5s49.833 -19.334 82.5 -20.001c35.333 -1.33301 65.5 6.16699 90.5 22.5s45.833 37.333 62.5 63s29.834 54 39.501 85
s16.5 61.167 20.5 90.5l43 292c3.33301 26 5.16602 53.5 5.49902 82.5s-3.16699 56 -10.5 81s-19.833 46 -37.5 63s-42.834 27.167 -75.501 30.5zM1356 1396l-9.99805 -129.004l-41 1c-39.333 0.666992 -77.333 7.66699 -114 21s-72.834 27.833 -108.501 43.5
s-71.334 30 -107.001 43s-72.167 19.5 -109.5 19.5c-35.333 0.666992 -64.666 -8.66602 -87.999 -27.999s-38 -46.666 -44 -81.999l-2 -18l-125 1l2 36c7.33301 72.667 33.166 127.834 77.499 165.501s102.833 55.834 175.5 54.501c40 -0.666992 78.167 -7.5 114.5 -20.5
s72.5 -27.333 108.5 -43s72.5 -30.167 109.5 -43.5s76.167 -20.333 117.5 -21h44zM755.002 1020c20 22 38.5 44.502 55.5 67.502s28.5 49.5 34.5 79.5l18 95l155 -1l-14 -101c-4 -22.667 -11.667 -43.834 -23 -63.501s-24.833 -38 -40.5 -55s-33 -32.333 -52 -46
s-37.833 -25.834 -56.5 -36.501z" />
    <glyph glyph-name="uni047E" unicode="&#x47e;" horiz-adv-x="1757" 
d="M677 1688l19 108h788l-18 -108h-321l-22 -125h-164l22 125h-304zM1753 1456l-180.001 -1059c-8.66699 -62 -25.667 -119 -51 -171s-58 -96.5 -98 -133.5s-86.833 -65.667 -140.5 -86s-112.834 -29.833 -177.501 -28.5c-31.333 0.666992 -62 4.66699 -92 12
s-57.833 18.166 -83.5 32.499s-48.834 32.5 -69.501 54.5s-37 48 -49 78c-44.667 -58.667 -97 -103.334 -157 -134.001s-127.667 -45 -203 -43c-60 2 -112.167 14.167 -156.5 36.5s-80.5 52.333 -108.5 90s-47.667 81.5 -59 131.5s-14 103.667 -8 161l180 1059h188
l-179 -1060c-3.33301 -30 -3.66602 -60.167 -0.999023 -90.5s9.83398 -57.833 21.501 -82.5s28.5 -45.167 50.5 -61.5s50.667 -25.166 86 -26.499c40 -2 76.167 3.66699 108.5 17s60.5 31.833 84.5 55.5s43.5 51.667 58.5 84s25.167 67.166 30.5 104.499l181 1060h194
l-179 -1060c-3.33301 -32 -3 -63.5 1 -94.5s12.833 -58.5 26.5 -82.5s32.5 -43.667 56.5 -59s54.667 -23.666 92 -24.999c38.667 -1.33301 73.334 5 104.001 19s57 33 79 57s39.833 52 53.5 84s23.167 65.667 28.5 101l180 1060h188z" />
    <glyph glyph-name="uni047F" unicode="&#x47f;" horiz-adv-x="1543" 
d="M509 1349l20 108h787l-16 -108h-322l-23 -127h-164l23 127h-305zM1494 1082l-121.999 -727.998c-8 -56.667 -23.167 -108.334 -45.5 -155.001s-51.166 -86.667 -86.499 -120s-77.166 -58.833 -125.499 -76.5s-101.833 -25.834 -160.5 -24.501
c-27.333 0.666992 -53.833 4 -79.5 10s-49.834 15 -72.501 27s-43 27.167 -61 45.5s-32.667 40.166 -44 65.499c-40 -49.333 -86 -86.666 -138 -111.999s-110.333 -37.333 -175 -36c-54 1.33301 -100.833 12 -140.5 32s-72 46.833 -97 80.5s-42.5 73 -52.5 118
s-12.333 93.167 -7 144.5l122 729h180l-122 -730c-2.66699 -25.333 -3.16699 -50.833 -1.5 -76.5s7.33398 -49.167 17.001 -70.5s23.667 -39 42 -53s42.5 -21.667 72.5 -23c34 -1.33301 64.667 3.66699 92 15s51.166 27.166 71.499 47.499s37 44.333 50 72
s21.833 57.167 26.5 88.5l123 730h182l-122 -730c-2.66699 -27.333 -2.33398 -54.166 0.999023 -80.499s10.666 -49.833 21.999 -70.5s27.166 -37.667 47.499 -51s46.166 -20.333 77.499 -21c32.667 -1.33301 61.834 4 87.501 16s47.834 28.333 66.501 49
s33.667 44.667 45 72s19.333 56 24 86l122 730h181z" />
    <glyph glyph-name="uni0480" unicode="&#x480;" horiz-adv-x="1300" 
d="M595 -380l-186.997 0.00292969l69 366c-73.333 13.333 -135 40.333 -185 81s-89.5 89.5 -118.5 146.5s-48.167 119.333 -57.5 187s-9.33301 135.167 0 202.5l39 250c8.66699 54 22 107.167 40 159.5s40.833 101.833 68.5 148.5s59.5 89.667 95.5 129s76.167 73 120.5 101
s92.666 49.667 144.999 65s108.166 22.333 167.499 21c73.333 -1.33301 139.166 -13.833 197.499 -37.5s107.166 -56.667 146.499 -99s68.666 -93.333 87.999 -153s26.666 -125.834 21.999 -198.501h-188c3.33301 48 0.5 92 -8.5 132s-24.833 74.5 -47.5 103.5
s-52.167 51.833 -88.5 68.5s-79.833 25.667 -130.5 27c-42.667 1.33301 -82.167 -4.16699 -118.5 -16.5s-69.833 -29.5 -100.5 -51.5s-58.167 -48.167 -82.5 -78.5s-45.666 -62.833 -63.999 -97.5s-33.666 -70.834 -45.999 -108.501s-21.5 -75.167 -27.5 -112.5l-40 -253
c-4.66699 -32 -7 -65.5 -7 -100.5s2.83301 -69.5 8.5 -103.5s14.834 -66.333 27.501 -97s29.167 -57.834 49.5 -81.501s45.333 -43 75 -58s64.5 -23.167 104.5 -24.5l123 -1z" />
    <glyph glyph-name="uni0481" unicode="&#x481;" horiz-adv-x="1072" 
d="M484 -382h-181.001l70 370c-60.667 14.667 -110.834 40 -150.501 76s-70.5 78.333 -92.5 127s-36.333 101.334 -43 158.001s-7 112.667 -1 168l4 43c8.66699 70 27 137.833 55 203.5s64.833 124 110.5 175s99.667 91.5 162 121.5s131.5 44 207.5 42
c56 -1.33301 106.667 -12.333 152 -33s83.666 -48.5 114.999 -83.5s55 -76.333 71 -124s22.667 -98.834 20 -153.501l-170 1c2 31.333 -0.833008 61.333 -8.5 90s-19.667 54 -36 76s-37.166 39.833 -62.499 53.5s-55 21.167 -89 22.5
c-52.667 2 -99.334 -8.83301 -140.001 -32.5s-75.334 -54.667 -104.001 -93s-51.667 -81 -69 -128s-29 -92.833 -35 -137.5l-5 -42c-3.33301 -26 -5.16602 -53.333 -5.49902 -82s1.33398 -57 5.00098 -85s10.167 -54.833 19.5 -80.5s21.833 -48.5 37.5 -68.5
s35.334 -36.333 59.001 -49s51.834 -20 84.501 -22l110 -1z" />
    <glyph glyph-name="uni0482" unicode="&#x482;" horiz-adv-x="1249" 
d="M556 439l252 -172l-82 -114l-252 169l-234 -322h-176l293 405l-251 171l82 114l254 -170l269 373l-253 171l84 116l252 -170l242 332h172l-300 -415l255 -171l-85 -113l-250 169z" />
    <glyph glyph-name="uni0483" unicode="&#x483;" horiz-adv-x="10" 
d="M-607 1315l-23 -125l-162 1l42 233h523l18 108l161 -1l-38 -216h-521z" />
    <glyph glyph-name="uni0484" unicode="&#x484;" horiz-adv-x="10" 
d="M-708 1429c42.667 0.666992 83.5 7.66895 122.5 21.002s77.667 27.833 116 43.5s76.833 30 115.5 43s78.667 19.167 120 18.5c67.333 -0.666992 119.5 -19.5 156.5 -56.5s53.833 -89.5 50.5 -157.5l-3 -39l-122 1l2 20c2.66699 32 -3 57 -17 75s-37.667 27.667 -71 29
c-39.333 1.33301 -78.166 -4.33398 -116.499 -17.001s-76.833 -26.834 -115.5 -42.501s-77.834 -30.167 -117.501 -43.5s-80.167 -20.333 -121.5 -21h-48l12 127z" />
    <glyph glyph-name="uni0485" unicode="&#x485;" horiz-adv-x="10" 
d="M-489 1509l20 114h175l-27 -151l37 -114l-77 -57z" />
    <glyph glyph-name="uni0486" unicode="&#x486;" horiz-adv-x="10" 
d="M-382 1303l-71 72l80 121l21 127h177l-24 -132z" />
    <glyph glyph-name="uni0488" unicode="&#x488;" horiz-adv-x="10" 
d="M-510 1267c6.66699 59.333 28.832 105.835 66.499 139.502s86.834 50.167 147.501 49.5c58.667 -0.666992 105.334 -18 140.001 -52s52 -80.333 52 -139l-107 1c0.666992 14 0.166992 27.167 -1.5 39.5s-5.33398 23.166 -11.001 32.499s-13.667 16.666 -24 21.999
s-23.5 8 -39.5 8c-32 0.666992 -56.667 -8.83301 -74 -28.5s-30 -43.5 -38 -71.5zM14.998 990.002c6.66699 58.667 28.834 105.001 66.501 139.001s86.5 50.667 146.5 50c29.333 0 55.833 -4.5 79.5 -13.5s44 -21.833 61 -38.5s30 -36.667 39 -60s13.5 -49.666 13.5 -78.999
l-108 1c0.666992 14 0.166992 27.167 -1.5 39.5s-5.33398 23.166 -11.001 32.499s-13.667 16.666 -24 21.999s-23.5 8 -39.5 8s-30 -2.5 -42 -7.5s-22.5 -12.167 -31.5 -21.5s-16.5 -20 -22.5 -32s-11 -25 -15 -39zM109.998 487.003
c3.33301 28.667 10.667 54.6719 22 78.0049s26.166 43.166 44.499 59.499s39.833 28.833 64.5 37.5s52 13 82 13c58.667 -0.666992 105.334 -17.834 140.001 -51.501s52 -79.834 52 -138.501l-108 1c0.666992 14 0.166992 27.167 -1.5 39.5s-5.33398 23.166 -11.001 32.499
s-13.667 16.666 -24 21.999s-23.5 8 -39.5 8c-32 0 -56.667 -9.66699 -74 -29s-29.666 -43 -36.999 -71zM-170.001 -31.9922c2.66699 28.667 9.66699 54.8369 21 78.5039s26.166 43.667 44.499 60s39.833 28.833 64.5 37.5s52 12.667 82 12
c58.667 -0.666992 105.334 -17.834 140.001 -51.501s52 -79.834 52 -138.501l-108 1c0.666992 14 0.166992 27.167 -1.5 39.5s-5.33398 23.166 -11.001 32.499s-13.667 16.666 -24 21.999s-23.5 8 -39.5 8c-32 0 -56.667 -9.66699 -74 -29s-29.666 -43 -36.999 -71z
M-779.001 -315.989c6 59.333 28.001 105.836 66.001 139.503s87 50.167 147 49.5c58.667 -1.33301 105.5 -18.833 140.5 -52.5s52.5 -79.834 52.5 -138.501l-108 1c0.666992 14 0.166992 27.167 -1.5 39.5s-5.33398 23.166 -11.001 32.499s-13.667 16.666 -24 21.999
s-23.5 8 -39.5 8c-31.333 0.666992 -55.833 -9 -73.5 -29s-30.167 -43.667 -37.5 -71zM-1114 990.014c6.66699 59.333 29 105.836 67 139.503s87.333 50.167 148 49.5c58.667 -1.33301 105.334 -18.833 140.001 -52.5s52 -79.834 52 -138.501l-107 1
c0.666992 14 0.166992 27.167 -1.5 39.5s-5.33398 23.166 -11.001 32.499s-13.667 16.666 -24 21.999s-23.5 8 -39.5 8c-32 0.666992 -56.667 -8.83301 -74 -28.5s-30 -43.5 -38 -71.5zM-1370 487.017c3.33301 28.667 10.6699 54.6719 22.0029 78.0049
s26.166 43.166 44.499 59.499s39.666 28.833 63.999 37.5s51.5 13 81.5 13c58.667 -0.666992 105.5 -17.834 140.5 -51.501s52.5 -79.834 52.5 -138.501l-108 1c0.666992 14 0.166992 27.167 -1.5 39.5s-5.33398 23.166 -11.001 32.499s-13.667 16.666 -24 21.999
s-23.5 8 -39.5 8c-32 0 -56.667 -9.66699 -74 -29s-30 -43 -38 -71zM-1299 -31.9785c6.66699 58 28.834 104.004 66.501 138.004s86.167 50.667 145.5 50c58.667 -0.666992 105.667 -17.834 141 -51.501s53 -79.834 53 -138.501l-109 1
c0.666992 14 0.166992 27.167 -1.5 39.5s-5.33398 23.166 -11.001 32.499s-13.667 16.666 -24 21.999s-23.5 8 -39.5 8c-32 0 -56.5 -9.66699 -73.5 -29s-29.5 -43 -37.5 -71z" />
    <glyph glyph-name="uni0489" unicode="&#x489;" horiz-adv-x="10" 
d="M-454 -58l12 -18l-172 -337h-100l126 352zM-427 1125l-13 16l171 337h101l-127 -351zM134 632l10 10l311 -127l-16 -92l-320 69zM-1019 432l-11 -10l-311 127l17 91l320 -68zM-30 1002l3 17l331 153l61 -77l-306 -191zM-861 21l-3 -18l-332 -153l-62 78l309 191z
M-845 860l-16 2l-94 335l67 61l148 -303zM-50 161l18 -2l93 -335l-68 -62l-146 303z" />
    <glyph glyph-name="uni048A" unicode="&#x48a;" 
d="M1196 1456h194l-253 -1456h-187l193 1110l-881 -1110h-195l253 1456h188l-193 -1110zM1206 1818c-4 -42 -14.501 -79.8311 -31.501 -113.498s-39.167 -62.167 -66.5 -85.5s-59.166 -41 -95.499 -53s-75.5 -17.333 -117.5 -16c-40.667 0.666992 -77.667 7.5 -111 20.5
s-61.666 31 -84.999 54s-41.333 51 -54 84s-18.667 69.833 -18 110.5l147 -1c-2 -42.667 6.16699 -78 24.5 -106s50.833 -42.667 97.5 -44c47.333 -0.666992 84.666 13.166 111.999 41.499s45 64.166 53 107.499zM1315 5.00195c-11.333 -72.667 -36.667 -140.167 -76 -202.5
s-87.333 -115.833 -144 -160.5l-104 75c34.667 42.667 64.667 87.167 90 133.5s43.333 96.5 54 150.5l26 151h177z" />
    <glyph glyph-name="uni048B" unicode="&#x48b;" horiz-adv-x="1157" 
d="M892 1082h187l-188 -1082h-181l136 777l-612 -777h-187l188 1082h180l-135 -778zM1008 1476c-4 -42 -14.501 -79.8311 -31.501 -113.498s-39.167 -62.167 -66.5 -85.5s-59.166 -41 -95.499 -53s-75.5 -17.333 -117.5 -16c-40.667 0.666992 -77.667 7.5 -111 20.5
s-61.666 31 -84.999 54s-41.333 51 -54 84s-18.667 69.833 -18 110.5l147 -1c-2 -42.667 6.16699 -78 24.5 -106s50.833 -42.667 97.5 -44c47.333 -0.666992 84.666 13.166 111.999 41.499s45 64.166 53 107.499zM1070 5.00195c-11.333 -72.667 -36.667 -140.167 -76 -202.5
s-87.333 -115.833 -144 -160.5l-104 75c34.667 42.667 64.667 87.167 90 133.5s43.333 96.5 54 150.5l26 151h177z" />
    <glyph glyph-name="uni048C" unicode="&#x48c;" horiz-adv-x="1256" 
d="M661 1104l-228.001 -0.000976562l-42 -242l327 -1c64 -1.33301 122.833 -11.333 176.5 -30s99.334 -45.5 137.001 -80.5s66 -78.333 85 -130s25.5 -110.834 19.5 -177.501c-6 -73.333 -24.833 -137.666 -56.5 -192.999s-72 -101.666 -121 -138.999s-105 -65.333 -168 -84
s-128.833 -27.667 -197.5 -27h-539l191 1104h-202l27 151h201l35 201h188l-35 -201h229zM363.999 703.999l-96 -547.001l330 -1c44.667 0 87 6.5 127 19.5s75.5 31.833 106.5 56.5s56.667 54.834 77 90.501s33.5 76.5 39.5 122.5c4.66699 40.667 2.66699 76.667 -6 108
s-23.334 58 -44.001 80s-46.667 38.833 -78 50.5s-66.666 18.167 -105.999 19.5z" />
    <glyph glyph-name="uni048D" unicode="&#x48d;" horiz-adv-x="1087" 
d="M765 1304h-311.002l-97 -558l253 -1c52.667 -2 100.834 -11.5 144.501 -28.5s80.834 -41 111.501 -72s53.5 -68.333 68.5 -112s20.5 -92.834 16.5 -147.501c-4.66699 -60.667 -19.5 -115 -44.5 -163s-57.5 -88.667 -97.5 -122s-86 -58.666 -138 -75.999
s-107.333 -25.333 -166 -24h-459l226 1304h-186l27 152h185l34 193h182l-34 -193h312zM330.998 594l-77.001 -443.001l255 -2c34.667 0.666992 66.834 6.5 96.501 17.5s55.834 26.333 78.501 46s41.167 43.5 55.5 71.5s23.5 59.667 27.5 95c4 28.667 3.5 55.834 -1.5 81.501
s-14.167 48 -27.5 67s-30.833 34.333 -52.5 46s-47.834 18.167 -78.501 19.5z" />
    <glyph glyph-name="uni048E" unicode="&#x48e;" horiz-adv-x="1278" 
d="M1198 567l-116 -94l-292 412l114 96zM345 570l-98.999 -569.998h-188l253 1456l509 -1c65.333 -1.33301 125.666 -12 180.999 -32s102.333 -48.5 141 -85.5s67.667 -82.333 87 -136s26 -114.834 20 -183.501c-6.66699 -76.667 -26 -143.334 -58 -200.001
s-73 -103.5 -123 -140.5s-107.333 -64.333 -172 -82s-133 -26.5 -205 -26.5zM372.001 727.002l324 -0.999023c46.667 0 91 6 133 18s79.167 30 111.5 54s59.166 54.167 80.499 90.5s35 79.166 41 128.499c5.33301 42 3.33301 80 -6 114s-24.666 63 -45.999 87
s-48.5 42.833 -81.5 56.5s-70.5 21.167 -112.5 22.5l-345 1z" />
    <glyph glyph-name="uni048F" unicode="&#x48f;" horiz-adv-x="1137" 
d="M925 7l-116 -96l-262 384l116 95zM1011 536c-5.33301 -44 -14.002 -88.5 -26.002 -133.5s-27.5 -88.333 -46.5 -130s-41.667 -80.5 -68 -116.5s-56.666 -67.333 -90.999 -94s-72.666 -47.5 -114.999 -62.5s-88.833 -21.833 -139.5 -20.5
c-56.667 1.33301 -109.834 11.833 -159.501 31.5s-92.5 51.5 -128.5 95.5l-97 -522h-181l260 1498l164 1l-20 -121c43.333 46.667 91.5 82 144.5 106s111.833 35.333 176.5 34c48.667 -1.33301 91.334 -10 128.001 -26s68 -37.5 94 -64.5s47 -58.333 63 -94
s28 -73.5 36 -113.5s12.5 -81.167 13.5 -123.5s-0.5 -83.5 -4.5 -123.5zM832.998 557c2.66699 26.667 4.16895 54.668 4.50195 84.001s-1.5 58.333 -5.5 87s-10.833 55.834 -20.5 81.501s-22.834 48.5 -39.501 68.5s-37.334 36 -62.001 48s-54 18.667 -88 20
c-58.667 1.33301 -110 -11.834 -154 -39.501s-83 -64.167 -117 -109.5l-91 -519c20 -47.333 48.5 -83.5 85.5 -108.5s81.5 -38.167 133.5 -39.5c55.333 -1.33301 103.5 10.167 144.5 34.5s75.833 56.166 104.5 95.499s51.167 83.333 67.5 132s27.833 96.667 34.5 144z" />
    <glyph glyph-name="uni0490" unicode="&#x490;" horiz-adv-x="1100" 
d="M1150 1304h-3l-1 -6h-680l-225 -1298h-189l253 1456h690l59 336h181z" />
    <glyph glyph-name="uni0491" unicode="&#x491;" horiz-adv-x="895" 
d="M868 929h-489l-161 -929h-182l188 1082h488l56 317h182z" />
    <glyph glyph-name="uni0492" unicode="&#x492;" horiz-adv-x="1115" 
d="M634 684h-260l-118 -684h-189l119 684h-170l27 151h169l108 621h869l-28 -158h-680l-81 -463h261z" />
    <glyph glyph-name="uni0493" unicode="&#x493;" horiz-adv-x="843" 
d="M592 479h-282l-83 -479h-182l83 479h-154l27 151h153l79 452h666l-28 -153h-483l-52 -299h283z" />
    <glyph glyph-name="uni0494" unicode="&#x494;" horiz-adv-x="1216" 
d="M1161 1298l-680.004 -0.00195312l-81 -465l163 -1c85.333 -2 160.5 -17 225.5 -45s118.5 -66.833 160.5 -116.5s72 -109 90 -178s22.667 -145.5 14 -229.5c-8.66699 -80 -26.334 -153.5 -53.001 -220.5s-62.667 -125 -108 -174s-100.166 -87.333 -164.499 -115
s-138.166 -42.167 -221.499 -43.5l14 146c58.667 1.33301 108.834 13.5 150.501 36.5s76.334 53.333 104.001 91s49.167 80.834 64.5 129.501s26 99 32 151c6.66699 58.667 5.83398 112.5 -2.49902 161.5s-25 91.333 -50 127s-59 63.834 -102 84.501
s-95.833 31.667 -158.5 33l-186 1l-116 -671h-189l253 1456h869z" />
    <glyph glyph-name="uni0495" unicode="&#x495;" horiz-adv-x="1009" 
d="M862 929h-482.998l-49 -284h100c67.333 -2 128.666 -14.5 183.999 -37.5s102.166 -54.833 140.499 -95.5s66.666 -89.334 84.999 -146.001s23.833 -119.334 16.5 -188.001c-6 -60 -21.833 -115.667 -47.5 -167s-58.5 -97.166 -98.5 -137.499
s-85.5 -74.166 -136.5 -101.499s-104.833 -47 -161.5 -59l-33 149c40 10.667 77 25.167 111 43.5s63.667 40.666 89 66.999s46.166 56.666 62.499 90.999s27.166 72.833 32.499 115.5c4.66699 43.333 2.83398 83.333 -5.49902 120s-23.166 68.334 -44.499 95.001
s-48.666 47.834 -81.999 63.501s-72.333 24.167 -117 25.5h-123l-84 -483h-182l188 1082h666z" />
    <glyph glyph-name="uni0496" unicode="&#x496;" horiz-adv-x="1813" 
d="M1173 664h-156l-115 -664h-188l116 664h-153l-515 -664h-246l616 778l-315 678h209l266 -632h165l110 632h187l-110 -632h146l486 632h233l-567 -697l338 -759h-220zM1699 -359h-182l89 512h182z" />
    <glyph glyph-name="uni0497" unicode="&#x497;" horiz-adv-x="1531" 
d="M956 470h-131l-81 -470h-181l82 470h-119l-376 -470h-241l482 570l-245 512h206l193 -448h128l78 448h181l-79 -448h115l351 448h231l-440 -533l274 -549h-215zM1383 -359h-182l89 512h182z" />
    <glyph glyph-name="uni0498" unicode="&#x498;" horiz-adv-x="1189" 
d="M617 820c42 0 82.833 4.66504 122.5 13.998s75.5 24 107.5 44s58.833 46 80.5 78s35.167 71 40.5 117c4.66699 42 0.833984 78.333 -11.499 109s-31 56 -56 76s-54.5 35.167 -88.5 45.5s-70 15.833 -108 16.5c-38.667 0.666992 -76.5 -4.33301 -113.5 -15
s-70.5 -26.5 -100.5 -47.5s-55.5 -46.833 -76.5 -77.5s-35.167 -66 -42.5 -106l-186 -1c6.66699 66.667 26.167 125.334 58.5 176.001s72.833 93 121.5 127s103.167 59.5 163.5 76.5s121.833 25.167 184.5 24.5c62 -1.33301 121.167 -10.333 177.5 -27s105 -41.667 146 -75
s72.667 -75.333 95 -126s30.5 -110.334 24.5 -179.001c-3.33301 -41.333 -13.333 -78.666 -30 -111.999s-38 -63.5 -64 -90.5s-55.333 -50.833 -88 -71.5s-66.667 -38.667 -102 -54c68.667 -30 118.834 -73.667 150.501 -131s44.834 -123 39.501 -197
c-4 -50 -14.667 -95.5 -32 -136.5s-39.833 -77.667 -67.5 -110s-59.667 -60.5 -96 -84.5s-75.166 -43.667 -116.499 -59s-84.666 -26.666 -129.999 -33.999s-90.666 -10.666 -135.999 -9.99902c-64 1.33301 -123.667 11.5 -179 30.5s-103 46.5 -143 82.5
s-70.833 80.167 -92.5 132.5s-30.834 112.166 -27.501 179.499l186 -1c-2.66699 -40.667 2.16602 -77.334 14.499 -110.001s30.5 -60.5 54.5 -83.5s52.667 -40.833 86 -53.5s69.666 -19.667 108.999 -21c43.333 -1.33301 86.666 3.5 129.999 14.5
s82.666 27.833 117.999 50.5s65.166 51.334 89.499 86.001s39.5 75.667 45.5 123c5.33301 44.667 2.33301 82.834 -9 114.501s-29 57.5 -53 77.5s-53.5 34.667 -88.5 44s-72.833 14.666 -113.5 15.999l-173 1l28 158zM502 -431.002h-182l89 512h182z" />
    <glyph glyph-name="uni0499" unicode="&#x499;" horiz-adv-x="1019" 
d="M510 629c28 0 55.166 2.83105 81.499 8.49805s50.166 14.834 71.499 27.501s39.166 29.5 53.499 50.5s23.166 47.167 26.499 78.5c3.33301 28 0.5 51.833 -8.5 71.5s-21.833 36 -38.5 49s-36.5 22.667 -59.5 29s-46.833 9.5 -71.5 9.5
c-28 0.666992 -55.5 -2.66602 -82.5 -9.99902s-51.833 -18.333 -74.5 -33s-42.167 -32.834 -58.5 -54.501s-27.5 -46.5 -33.5 -74.5l-180 -1c6 54.667 22.5 102.334 49.5 143.001s60.833 74.334 101.5 101.001s85.834 46.5 135.501 59.5s99.834 19.167 150.501 18.5
c47.333 -0.666992 93 -7 137 -19s82.5 -30.333 115.5 -55s58.833 -56.167 77.5 -94.5s26 -84.166 22 -137.499c-2 -30.667 -9 -58.334 -21 -83.001s-27.333 -47 -46 -67s-39.667 -37.833 -63 -53.5s-48 -29.5 -74 -41.5c50 -22 86.5 -53.833 109.5 -95.5
s32.833 -89.5 29.5 -143.5c-3.33301 -58.667 -18.666 -109.167 -45.999 -151.5s-62.166 -77 -104.499 -104s-89.5 -46.667 -141.5 -59s-104 -17.833 -156 -16.5c-51.333 0.666992 -100.166 8.5 -146.499 23.5s-86.833 36.667 -121.5 65s-61.834 63.5 -81.501 105.5
s-28.5 90.667 -26.5 146l177 -1c-1.33301 -30 3.33398 -56.667 14.001 -80s25.5 -43.166 44.5 -59.499s41.333 -28.833 67 -37.5s52.834 -13.334 81.501 -14.001s57.667 2.5 87 9.5s56.166 18 80.499 33s45 34.167 62 57.5s27.5 50.666 31.5 81.999
c4 30.667 2.16699 56.334 -5.5 77.001s-19.834 37.167 -36.501 49.5s-36.667 21.166 -60 26.499s-48.333 8.33301 -75 9l-192 1l28 156zM415.999 -430.002h-182l89 512h182z" />
    <glyph glyph-name="uni049A" unicode="&#x49a;" horiz-adv-x="1287" 
d="M547 654h-178l-113 -654h-188l253 1456h187l-111 -642h137l605 642h247l-671 -715l444 -741h-214zM1141 -360h-182l89 512h182z" />
    <glyph glyph-name="uni049B" unicode="&#x49b;" horiz-adv-x="1083" 
d="M446 461h-137l-81 -461h-181l188 1082h181l-80 -458h110l432 458h233l-514 -529l347 -553h-214zM953 -359h-182l89 512h182z" />
    <glyph glyph-name="uni049C" unicode="&#x49c;" horiz-adv-x="1260" 
d="M1352 1456l-516 -700l296 -756h-224l-226 654h-82l-43 -244h-145l44 244h-100l-114 -654h-188l252 1456h189l-112 -641h100l45 256h145l-46 -256h69l425 641h231z" />
    <glyph glyph-name="uni049D" unicode="&#x49d;" horiz-adv-x="1126" 
d="M1171 1082l-425 -524l261 -558h-217l-187 461l-50 1l-39 -195h-145l35 194h-97l-80 -461h-182l188 1082h182l-81 -458h97l38 213h145l-43 -215l39 1l331 459h230z" />
    <glyph glyph-name="uni049E" unicode="&#x49e;" horiz-adv-x="1307" 
d="M711 1079h-248l-46 -265h137l605 642h247l-671 -715l444 -741h-214l-398 654h-178l-113 -654h-188l187 1079h-182l27 151h181l40 226h187l-39 -226h249z" />
    <glyph glyph-name="uni049F" unicode="&#x49f;" horiz-adv-x="1037" 
d="M681 1217h-237l-104 -599l111 112l384 352h235l-497 -461l342 -621h-198l-278 499l-142 -127l-64 -372h-181l211 1217h-200l27 151h200l29 168h181l-29 -168h237z" />
    <glyph glyph-name="uni04A0" unicode="&#x4a0;" horiz-adv-x="1636" 
d="M901 654h-178l-113 -654h-188l226 1304h-460l27 152h647l-111 -642h137l605 642h247l-671 -715l444 -741h-214z" />
    <glyph glyph-name="uni04A1" unicode="&#x4a1;" horiz-adv-x="1380" 
d="M753 461h-137l-81 -461h-181l161 930h-398l27 152h579l-80 -458h110l432 458h233l-514 -529l347 -553h-214z" />
    <glyph glyph-name="uni04A2" unicode="&#x4a2;" 
d="M1146 0h-188l117 673h-711l-117 -673h-188l253 1456h188l-109 -626h710l109 626h189zM1240 -359h-182l89 512h182z" />
    <glyph glyph-name="uni04A3" unicode="&#x4a3;" horiz-adv-x="1156" 
d="M890 0h-181l81 462h-481l-81 -462h-181l188 1082h181l-81 -469h480l82 469h181zM985 -359h-182l89 512h182z" />
    <glyph glyph-name="uni04A4" unicode="&#x4a4;" horiz-adv-x="1949" 
d="M1989 1304h-618l-226 -1304h-188l117 673h-711l-117 -673h-188l253 1456h188l-109 -626h710l109 626h807z" />
    <glyph glyph-name="uni04A5" unicode="&#x4a5;" 
d="M1402 929h-362l-161 -929h-181l81 462h-481l-81 -462h-181l188 1082h181l-81 -469h480l82 469h543z" />
    <glyph glyph-name="uni04A6" unicode="&#x4a6;" horiz-adv-x="2044" 
d="M1281 832l105.996 -0.00195312c85.333 -2 160.5 -17 225.5 -45s118.5 -66.833 160.5 -116.5s72 -109 90 -178s22.667 -145.5 14 -229.5c-8.66699 -80 -26.334 -153.5 -53.001 -220.5s-62.667 -125 -108 -174s-100.166 -87.333 -164.499 -115
s-138.166 -42.167 -221.499 -43.5l14 146c58.667 1.33301 108.834 13.5 150.501 36.5s76.334 53.333 104.001 91s49.167 80.834 64.5 129.501s26 99 32 151c6.66699 58.667 5.83398 112.5 -2.49902 161.5s-25 91.333 -50 127s-59 63.834 -102 84.501
s-95.833 31.667 -158.5 33h-129l-116 -670h-188l225 1298h-695l-225 -1298h-188l253 1456h1071z" />
    <glyph glyph-name="uni04A7" unicode="&#x4a7;" horiz-adv-x="1737" 
d="M992 645l150.998 -0.000976562c68 -1.33301 130.667 -13.166 188 -35.499s106.166 -53.666 146.499 -93.999s70.5 -89 90.5 -146s26.333 -120.833 19 -191.5c-6 -60 -21.833 -115.667 -47.5 -167s-58.167 -97.166 -97.5 -137.499s-84.333 -74.333 -135 -102
s-104.334 -47.5 -161.001 -59.5l-35 150c40 10.667 76.833 25.167 110.5 43.5s63.334 40.666 89.001 66.999s46.5 56.666 62.5 90.999s26.667 72.833 32 115.5c5.33301 45.333 2.83301 86.5 -7.5 123.5s-27.166 68.5 -50.499 94.5s-52.666 46.5 -87.999 61.5
s-75.666 23.167 -120.999 24.5h-174l-84 -483h-181l162 929h-482l-162 -929h-181l188 1082h844z" />
    <glyph glyph-name="uni04A8" unicode="&#x4a8;" horiz-adv-x="1482" 
d="M1300 -29c-64 1.33301 -126.665 7.66895 -187.998 19.002s-121.333 29.333 -180 54c-50 -21.333 -101.167 -37.5 -153.5 -48.5s-105.833 -16.167 -160.5 -15.5c-63.333 1.33301 -120.333 11.5 -171 30.5s-95.667 44.833 -135 77.5s-72.666 71.167 -99.999 115.5
s-48.666 92 -63.999 143s-25 104.5 -29 160.5s-2.33301 112 5 168l26 172c8 49.333 19.167 99.166 33.5 149.499s32.666 98.666 54.999 144.999s48.333 89.666 78 129.999s63.667 75.666 102 105.999s81 54.5 128 72.5s98.833 27.667 155.5 29l-18 -165
c-38 -1.33301 -72.167 -9.33301 -102.5 -24s-57.333 -34 -81 -58s-44.5 -51.667 -62.5 -83s-33.5 -64.166 -46.5 -98.499s-23.667 -68.833 -32 -103.5s-14.833 -67.334 -19.5 -98.001l-26 -175c-5.33301 -38 -7.83301 -77.333 -7.5 -118s4.16602 -80.5 11.499 -119.5
s18.666 -76 33.999 -111s35.333 -65.833 60 -92.5s54.5 -48 89.5 -64s75.833 -24.333 122.5 -25c23.333 -0.666992 45.833 0.333008 67.5 3s43.834 6.33398 66.501 11.001c-64.667 78 -109.167 162.667 -133.5 254s-29.833 187 -16.5 287l35 227
c6 41.333 15.167 83.666 27.5 126.999s28.166 85.5 47.499 126.5s42 79.833 68 116.5s55.667 68.334 89 95.001s70.333 47.5 111 62.5s85.667 21.833 135 20.5c47.333 -1.33301 88.666 -10.666 123.999 -27.999s65.666 -40 90.999 -68s46 -60.333 62 -97
s28 -75.334 36 -116.001s12.333 -81.834 13 -123.501s-1.33301 -81.5 -6 -119.5l-38 -244c-17.333 -105.333 -50.5 -202.166 -99.5 -290.499s-115.5 -165.833 -199.5 -232.5c34.667 -7.33301 69.334 -12.666 104.001 -15.999s70 -5.33301 106 -6zM794.002 696.003
c-6 -44 -8.00684 -87.498 -6.00684 -130.498s9 -84.5 21 -124.5s29.667 -77.667 53 -113s53 -67 89 -95c74.667 52.667 133.5 117.667 176.5 195s72.167 160.666 87.5 249.999l39 250c2.66699 19.333 4.83398 42.166 6.50098 68.499s1.83398 53.5 0.500977 81.5
s-4.66602 55.667 -9.99902 83s-13.666 52 -24.999 74s-26.666 40 -45.999 54s-43.666 21.667 -72.999 23c-31.333 1.33301 -59.333 -4 -84 -16s-46.667 -28.167 -66 -48.5s-36.166 -44 -50.499 -71s-26.5 -55 -36.5 -84s-18.333 -57.833 -25 -86.5s-11.667 -54.667 -15 -78z
" />
    <glyph glyph-name="uni04A9" unicode="&#x4a9;" horiz-adv-x="1208" 
d="M1048 -13c-51.333 1.33301 -101.502 6.3291 -150.502 14.9961s-97.5 22.667 -145.5 42c-41.333 -20.667 -83.833 -36.667 -127.5 -48s-88.5 -16.666 -134.5 -15.999c-52 0.666992 -98.5 9.66699 -139.5 27s-76.667 40.166 -107 68.499s-55.666 61.666 -75.999 99.999
s-36.166 79 -47.499 122s-18.333 87.333 -21 133s-1.66699 90.834 3 135.501l7 60c7.33301 58.667 21 116.167 41 172.5s47.333 106.833 82 151.5s76.667 81 126 109s106.666 43 171.999 45l-18 -158c-38 -2 -70 -14 -96 -36s-47.5 -48.667 -64.5 -80s-30.333 -65 -40 -101
s-16.5 -69.333 -20.5 -100l-8 -61c-3.33301 -26.667 -5.33301 -55.667 -6 -87s0.833008 -62.666 4.5 -93.999s10.167 -61.833 19.5 -91.5s22.5 -56 39.5 -79s38.167 -41.5 63.5 -55.5s56 -21.333 92 -22c16 -0.666992 32 0.166016 48 2.49902s32.333 5.16602 49 8.49902
c-48 61.333 -81.167 127.833 -99.5 199.5s-22.833 145.834 -13.5 222.501l13 104c4 32 10.5 65.167 19.5 99.5s20.5 67.5 34.5 99.5s30.667 62.167 50 90.5s41.666 53 66.999 74s53.833 37.333 85.5 49s66.834 16.834 105.501 15.501
c37.333 -1.33301 70 -9.16602 98 -23.499s51.833 -33.166 71.5 -56.499s35.5 -50.166 47.5 -80.499s21 -61.833 27 -94.5s9.33301 -65.834 10 -99.501s-0.666016 -65.167 -3.99902 -94.5l-14 -105c-22 -151.333 -86.333 -280.666 -193 -387.999
c27.333 -6 54.5 -10.167 81.5 -12.5s54.5 -3.83301 82.5 -4.5zM659.998 568.996c-6.66699 -62.667 -2 -122.502 14 -179.502s47.667 -107.167 95 -150.5c41.333 42.667 73.166 90.5 95.499 143.5s37.5 108.833 45.5 167.5l14 109c2 17.333 3.83301 41.833 5.5 73.5
s0.5 63.334 -3.5 95.001s-12.667 59.334 -26 83.001s-34 36.167 -62 37.5c-20.667 0.666992 -38.834 -3.33301 -54.501 -12s-29.167 -20.5 -40.5 -35.5s-21.166 -32.333 -29.499 -52s-15.166 -39.667 -20.499 -60s-9.5 -40 -12.5 -59s-5.5 -35.833 -7.5 -50.5z" />
    <glyph glyph-name="uni04AA" unicode="&#x4aa;" horiz-adv-x="1303" 
d="M1169 464c-14 -75.333 -38.498 -143.169 -73.498 -203.502s-78.167 -111.5 -129.5 -153.5s-110.166 -74.167 -176.499 -96.5s-137.833 -32.5 -214.5 -30.5c-61.333 1.33301 -116 11.5 -164 30.5s-89.833 44.5 -125.5 76.5s-65.167 69.667 -88.5 113
s-41.5 89.666 -54.5 138.999s-20.667 100.833 -23 154.5s0.166992 107.167 7.5 160.5l21 146c13.333 88.667 37.5 174 72.5 256s80.667 154.5 137 217.5s123.166 113 200.499 150s165 54.5 263 52.5c73.333 -1.33301 137.833 -14.5 193.5 -39.5s102.334 -59 140.001 -102
s66.334 -94.167 86.001 -153.5s30.5 -124 32.5 -194h-187c-2 46 -7.83301 88.833 -17.5 128.5s-25 74.334 -46 104.001s-48.5 53.334 -82.5 71.001s-76.333 27.167 -127 28.5c-48.667 1.33301 -93.334 -4.66699 -134.001 -18s-77.5 -32.166 -110.5 -56.499
s-62.333 -53.166 -88 -86.499s-48 -69.333 -67 -108s-34.833 -79.167 -47.5 -121.5s-22.334 -84.5 -29.001 -126.5l-22 -149c-4.66699 -35.333 -7.66699 -72.333 -9 -111s0.5 -76.834 5.5 -114.501s13.5 -73.667 25.5 -108s28.667 -64.833 50 -91.5
s48.166 -48.167 80.499 -64.5s71.166 -25.166 116.499 -26.499c56 -2 105.667 4.16699 149 18.5s81.333 35.666 114 63.999s60.5 63 83.5 104s41.833 86.833 56.5 137.5zM573.002 -431.003h-182l89 512h182z" />
    <glyph glyph-name="uni04AB" unicode="&#x4ab;" horiz-adv-x="1050" 
d="M475 130c32.667 -0.666992 64.168 4.00098 94.501 14.001s57.833 24.167 82.5 42.5s45.834 40.666 63.501 66.999s30.834 55.166 39.501 86.499l171 1c-8 -54 -26.5 -103.5 -55.5 -148.5s-64.5 -83.5 -106.5 -115.5s-88.833 -56.667 -140.5 -74
s-104.167 -25.333 -157.5 -24c-76 2 -140.333 18.333 -193 49s-94.5 71 -125.5 121s-52.167 106.833 -63.5 170.5s-13.333 129.5 -6 197.5l5 43c8.66699 72.667 27 142.167 55 208.5s65.167 124.5 111.5 174.5s101 89.5 164 118.5s133.833 42.5 212.5 40.5
c56.667 -1.33301 107.834 -12 153.501 -32s84.5 -47.5 116.5 -82.5s56.667 -76.167 74 -123.5s25.666 -99 24.999 -155h-169c0 32.667 -4.33301 63.334 -13 92.001s-21.834 54 -39.501 76s-39.5 39.5 -65.5 52.5s-56.333 20.167 -91 21.5
c-55.333 2 -103.833 -8.33301 -145.5 -31s-77 -52.667 -106 -90s-52 -79.666 -69 -126.999s-28.833 -95 -35.5 -143l-5 -42c-4.66699 -42.667 -6 -86.5 -4 -131.5s10.667 -86.333 26 -124s38.666 -68.834 69.999 -93.501s73.666 -37.667 126.999 -39zM431.001 -430.999h-182
l89 512h182z" />
    <glyph glyph-name="uni04AC" unicode="&#x4ac;" horiz-adv-x="1195" 
d="M1261 1298h-453l-225 -1298h-187l225 1298h-453l28 158h1093zM672 -359h-182l89 512h182z" />
    <glyph glyph-name="uni04AD" unicode="&#x4ad;" horiz-adv-x="964" 
d="M974 932h-352l-162 -932h-180l161 932h-345l26 150h878zM555 -359h-182l89 512h182z" />
    <glyph glyph-name="uni04AE" unicode="&#x4ae;" horiz-adv-x="1203" 
d="M611 726l495 730h224l-653 -923l-93 -533h-187l96 554l-325 902h204z" />
    <glyph glyph-name="uni04AF" unicode="&#x4af;" horiz-adv-x="1005" 
d="M446 278l412 804h192l-552 -1036l-80 -462h-181l85 491l-190 1007h177z" />
    <glyph glyph-name="uni04B0" unicode="&#x4b0;" horiz-adv-x="1203" 
d="M892 521h-217l-91 -521h-187l90 521h-213l27 151h149l-282 784h204l239 -730l495 730h224l-555 -784h144z" />
    <glyph glyph-name="uni04B1" unicode="&#x4b1;" horiz-adv-x="1005" 
d="M711 -11h-223l-70 -405h-181l70 405h-214l27 151h189l-177 942h177l137 -804l412 804h192l-502 -942h190z" />
    <glyph glyph-name="uni04B2" unicode="&#x4b2;" horiz-adv-x="1255" 
d="M666 899l425 557h232l-567 -731l339 -725h-211l-258 567l-438 -567h-232l579 743l-330 713h208zM1078 -359h-182l89 512h182z" />
    <glyph glyph-name="uni04B3" unicode="&#x4b3;" horiz-adv-x="995" 
d="M496 688l294 394h222l-434 -544l264 -538h-197l-179 404l-305 -404h-221l447 556l-256 526h198zM843 -359h-182l89 512h182z" />
    <glyph glyph-name="uni04B4" unicode="&#x4b4;" horiz-adv-x="1792" 
d="M535 1304h-363l27 152h925l-27 -152h-374l-198 -1147h695l226 1299h187l-225 -1295h149l-106 -512h-170l62 351h-1034z" />
    <glyph glyph-name="uni04B5" unicode="&#x4b5;" horiz-adv-x="1341" 
d="M354 931h-267l27 152h688l-27 -152h-240l-135 -780h481l162 931h181l-162 -931h126l-100 -472h-162l56 321h-790z" />
    <glyph glyph-name="uni04B6" unicode="&#x4b6;" horiz-adv-x="1370" 
d="M1337 1456l-252.998 -1456h-188l111 604c-62 -19.333 -124.333 -33.166 -187 -41.499s-126.334 -12.166 -191.001 -11.499c-71.333 0.666992 -134.5 10.834 -189.5 30.501s-100.167 48.5 -135.5 86.5s-60.5 84.667 -75.5 140s-18.5 119.666 -10.5 192.999l76 455h188
l-75 -456c-5.33301 -46 -5.33301 -86.833 0 -122.5s17.166 -65.834 35.499 -90.501s43.5 -43.5 75.5 -56.5s72 -19.833 120 -20.5c65.333 -1.33301 130 3 194 13s127.667 22.667 191 38l125 695h189zM1175 -359.001h-182l89 512h182z" />
    <glyph glyph-name="uni04B7" unicode="&#x4b7;" horiz-adv-x="1090" 
d="M825 0l-182 -0.000976562l75 393c-40 -10.667 -80 -18.667 -120 -24s-80.333 -7.66602 -121 -6.99902c-61.333 0.666992 -115 11 -161 31s-83.667 47.667 -113 83s-50 77.666 -62 126.999s-14.667 104 -8 164l50 316h181l-51 -317c-4 -34.667 -4.33301 -67 -1 -97
s11.5 -56.167 24.5 -78.5s31.667 -40.166 56 -53.499s55.5 -20.666 93.5 -21.999c42 -1.33301 83.5 0.666992 124.5 6s81.833 12.666 122.5 21.999l98 539h182zM919 -359.001h-182l89 512h182z" />
    <glyph glyph-name="uni04B8" unicode="&#x4b8;" horiz-adv-x="1360" 
d="M719 318h-146l122 701h146zM1337 1456l-252.998 -1456h-188l111 604c-62 -19.333 -124.333 -33.166 -187 -41.499s-126.334 -12.166 -191.001 -11.499c-71.333 0.666992 -134.5 10.834 -189.5 30.501s-100.167 48.5 -135.5 86.5s-60.5 84.667 -75.5 140
s-18.5 119.666 -10.5 192.999l76 455h188l-75 -456c-5.33301 -46 -5.33301 -86.833 0 -122.5s17.166 -65.834 35.499 -90.501s43.5 -43.5 75.5 -56.5s72 -19.833 120 -20.5c65.333 -1.33301 130 3 194 13s127.667 22.667 191 38l125 695h189z" />
    <glyph glyph-name="uni04B9" unicode="&#x4b9;" horiz-adv-x="1107" 
d="M563 229h-146l99 566h146zM852 0l-182 -0.000976562l75 393c-40 -10.667 -80 -18.667 -120 -24s-80.333 -7.66602 -121 -6.99902c-61.333 0.666992 -115 11 -161 31s-83.667 47.667 -113 83s-50 77.666 -62 126.999s-14.667 104 -8 164l50 316h181l-51 -317
c-4 -34.667 -4.33301 -67 -1 -97s11.5 -56.167 24.5 -78.5s31.667 -40.166 56 -53.499s55.5 -20.666 93.5 -21.999c42 -1.33301 83.5 0.666992 124.5 6s81.833 12.666 122.5 21.999l98 539h182z" />
    <glyph glyph-name="uni04BA" unicode="&#x4ba;" horiz-adv-x="1360" 
d="M236 0l252.997 1456h188l-111 -604c62 19.333 124.333 33.166 187 41.499s126.334 12.166 191.001 11.499c71.333 -1.33301 134.333 -11.666 189 -30.999s99.834 -48 135.501 -86s61 -84.833 76 -140.5s18.5 -119.834 10.5 -192.501l-76 -455h-188l75 456
c5.33301 46 5.33301 86.833 0 122.5s-17.166 65.834 -35.499 90.501s-43.5 43.334 -75.5 56.001s-72 19.667 -120 21c-65.333 1.33301 -130 -3 -194 -13s-127.667 -22.667 -191 -38l-125 -695h-189z" />
    <glyph glyph-name="uni04BB" unicode="&#x4bb;" horiz-adv-x="1104" 
d="M369 950c43.333 47.333 92.3301 84.667 146.997 112s114.667 40.333 180 39c58 -0.666992 106.167 -11.667 144.5 -33s68.5 -49.833 90.5 -85.5s36.333 -77.167 43 -124.5s7.33398 -97 2.00098 -149l-118 -709h-181l119 712c4 32.667 4.33301 63 1 91
s-11.166 52.5 -23.499 73.5s-30 37.667 -53 50s-52.5 18.833 -88.5 19.5c-31.333 0.666992 -60.666 -3.33301 -87.999 -12s-52.833 -21 -76.5 -37s-45.667 -34.667 -66 -56s-38.833 -44.333 -55.5 -69l-134 -772h-181l267 1536h181z" />
    <glyph glyph-name="uni04BC" unicode="&#x4bc;" horiz-adv-x="1546" 
d="M877 -21c-90 0.666992 -169.167 17.499 -237.5 50.499s-124.333 77.5 -168 133.5s-74.167 121.833 -91.5 197.5s-19.333 156.5 -6 242.5l19 103c-48 9.33301 -88.667 25.5 -122 48.5s-60 51.167 -80 84.5s-33.833 70.666 -41.5 111.999s-9.83398 85 -6.50098 131l147 -2
c-2.66699 -26.667 -3 -52 -1 -76s7.16699 -46.167 15.5 -66.5s20.666 -38.5 36.999 -54.5s37.833 -29.333 64.5 -40l3 12c12 51.333 27.5 102.5 46.5 153.5s41.833 99.667 68.5 146s57 89.333 91 129s72.167 74 114.5 103s89 51.333 140 67s106.5 22.834 166.5 21.501
c62 -1.33301 116.5 -11.333 163.5 -30s87.5 -43.834 121.5 -75.501s61.667 -68.667 83 -111s37.333 -88 48 -137s16.5 -100.167 17.5 -153.5s-2.16699 -106.333 -9.5 -159l-18 -113h-866l-15 -94c-8 -60 -8.5 -117.667 -1.5 -173s23.167 -104.333 48.5 -147
s60.5 -77 105.5 -103s101.5 -39.667 169.5 -41c62.667 -1.33301 122.334 5.66699 179.001 21s113.334 35.333 170.001 60l34 -144c-26.667 -20 -56 -36.167 -88 -48.5s-65 -22.166 -99 -29.499s-68.167 -12.166 -102.5 -14.499s-67.5 -3.5 -99.5 -3.5zM594 833.999
l682.998 1.99805l6 34c5.33301 34 8.5 68.5 9.5 103.5s-1.16699 68.833 -6.5 101.5s-14 63.334 -26 92.001s-28.5 53.834 -49.5 75.501s-46.667 39 -77 52s-66.166 20.167 -107.499 21.5c-43.333 1.33301 -82.666 -4.33398 -117.999 -17.001s-67.5 -30.167 -96.5 -52.5
s-54.833 -48.666 -77.5 -78.999s-42.5 -63 -59.5 -98s-31.833 -71 -44.5 -108s-23 -73.5 -31 -109.5z" />
    <glyph glyph-name="uni04BD" unicode="&#x4bd;" horiz-adv-x="1188" 
d="M589 -20c-74 1.33301 -137.829 16.5 -191.496 45.5s-97.167 67.5 -130.5 115.5s-56.833 103 -70.5 165s-17.5 126.667 -11.5 194l3 29c-64.667 24 -111.834 64.667 -141.501 122s-41.834 126.333 -36.501 207l145 -1c-4 -44 -1.5 -81.5 7.5 -112.5
s26.833 -55.167 53.5 -72.5c17.333 58 41.5 113.333 72.5 166s68.333 98.834 112 138.501s93 71 148 94s115.167 33.5 180.5 31.5c74.667 -2 136.667 -18.5 186 -49.5s87.833 -71.333 115.5 -121s45.5 -105.834 53.5 -168.501s7.66699 -126.667 -1 -192l-12 -83h-706
c-6 -42 -6 -84 0 -126s18.5 -79.833 37.5 -113.5s45.167 -61.334 78.5 -83.001s74.333 -33.167 123 -34.5c61.333 -1.33301 116.333 11.5 165 38.5s93 62.167 133 105.5l104 -88c-24 -34.667 -51.333 -65 -82 -91s-63.834 -47.833 -99.501 -65.5
s-73.334 -30.667 -113.001 -39s-80.5 -12.166 -122.5 -11.499zM719.004 951c-46 2 -86.832 -6 -122.499 -24s-67 -41.833 -94 -71.5s-50.167 -63.334 -69.5 -101.001s-35.333 -75.834 -48 -114.501l526 -2l4 18c5.33301 35.333 5.66602 70.333 0.999023 105
s-15 65.834 -31 93.501s-37.667 50.334 -65 68.001s-61 27.167 -101 28.5z" />
    <glyph glyph-name="uni04BE" unicode="&#x4be;" horiz-adv-x="1546" 
d="M877 -21c-90 0.666992 -169.167 17.499 -237.5 50.499s-124.333 77.5 -168 133.5s-74.167 121.833 -91.5 197.5s-19.333 156.5 -6 242.5l19 103c-48 9.33301 -88.667 25.5 -122 48.5s-60 51.167 -80 84.5s-33.833 70.666 -41.5 111.999s-9.83398 85 -6.50098 131l147 -2
c-2.66699 -26.667 -3 -52 -1 -76s7.16699 -46.167 15.5 -66.5s20.666 -38.5 36.999 -54.5s37.833 -29.333 64.5 -40l3 12c12 51.333 27.5 102.5 46.5 153.5s41.833 99.667 68.5 146s57 89.333 91 129s72.167 74 114.5 103s89 51.333 140 67s106.5 22.834 166.5 21.501
c62 -1.33301 116.5 -11.333 163.5 -30s87.5 -43.834 121.5 -75.501s61.667 -68.667 83 -111s37.333 -88 48 -137s16.5 -100.167 17.5 -153.5s-2.16699 -106.333 -9.5 -159l-18 -113h-866l-15 -94c-8 -60 -8.5 -117.667 -1.5 -173s23.167 -104.333 48.5 -147
s60.5 -77 105.5 -103s101.5 -39.667 169.5 -41c62.667 -1.33301 122.334 5.66699 179.001 21s113.334 35.333 170.001 60l34 -144c-26.667 -20 -56 -36.167 -88 -48.5s-65 -22.166 -99 -29.499s-68.167 -12.166 -102.5 -14.499s-67.5 -3.5 -99.5 -3.5zM594 833.999
l682.998 1.99805l6 34c5.33301 34 8.5 68.5 9.5 103.5s-1.16699 68.833 -6.5 101.5s-14 63.334 -26 92.001s-28.5 53.834 -49.5 75.501s-46.667 39 -77 52s-66.166 20.167 -107.499 21.5c-43.333 1.33301 -82.666 -4.33398 -117.999 -17.001s-67.5 -30.167 -96.5 -52.5
s-54.833 -48.666 -77.5 -78.999s-42.5 -63 -59.5 -98s-31.833 -71 -44.5 -108s-23 -73.5 -31 -109.5zM853.998 -427.003h-182l89 512h182z" />
    <glyph glyph-name="uni04BF" unicode="&#x4bf;" horiz-adv-x="1188" 
d="M589 -20c-74 1.33301 -137.829 16.5 -191.496 45.5s-97.167 67.5 -130.5 115.5s-56.833 103 -70.5 165s-17.5 126.667 -11.5 194l3 29c-64.667 24 -111.834 64.667 -141.501 122s-41.834 126.333 -36.501 207l145 -1c-4 -44 -1.5 -81.5 7.5 -112.5
s26.833 -55.167 53.5 -72.5c17.333 58 41.5 113.333 72.5 166s68.333 98.834 112 138.501s93 71 148 94s115.167 33.5 180.5 31.5c74.667 -2 136.667 -18.5 186 -49.5s87.833 -71.333 115.5 -121s45.5 -105.834 53.5 -168.501s7.66699 -126.667 -1 -192l-12 -83h-706
c-6 -42 -6 -84 0 -126s18.5 -79.833 37.5 -113.5s45.167 -61.334 78.5 -83.001s74.333 -33.167 123 -34.5c61.333 -1.33301 116.333 11.5 165 38.5s93 62.167 133 105.5l104 -88c-24 -34.667 -51.333 -65 -82 -91s-63.834 -47.833 -99.501 -65.5
s-73.334 -30.667 -113.001 -39s-80.5 -12.166 -122.5 -11.499zM719.004 951c-46 2 -86.832 -6 -122.499 -24s-67 -41.833 -94 -71.5s-50.167 -63.334 -69.5 -101.001s-35.333 -75.834 -48 -114.501l526 -2l4 18c5.33301 35.333 5.66602 70.333 0.999023 105
s-15 65.834 -31 93.501s-37.667 50.334 -65 68.001s-61 27.167 -101 28.5zM602.005 -424h-182l89 512h182z" />
    <glyph glyph-name="uni04C0" unicode="&#x4c0;" horiz-adv-x="550" 
d="M260 0h-187l253 1456h187z" />
    <glyph glyph-name="uni04C1" unicode="&#x4c1;" horiz-adv-x="1813" 
d="M1173 664h-156l-115 -664h-188l116 664h-153l-515 -664h-246l616 778l-315 678h209l266 -632h165l110 632h187l-110 -632h146l486 632h233l-567 -697l338 -759h-220zM1399 1818c-4 -42 -14.501 -79.8311 -31.501 -113.498s-39.167 -62.167 -66.5 -85.5
s-59.166 -41 -95.499 -53s-75.5 -17.333 -117.5 -16c-40.667 0.666992 -77.667 7.5 -111 20.5s-61.666 31 -84.999 54s-41.333 51 -54 84s-18.667 69.833 -18 110.5l147 -1c-2 -42.667 6.16699 -78 24.5 -106s50.833 -42.667 97.5 -44
c47.333 -0.666992 84.666 13.166 111.999 41.499s45 64.166 53 107.499z" />
    <glyph glyph-name="uni04C2" unicode="&#x4c2;" horiz-adv-x="1531" 
d="M956 470h-131l-81 -470h-181l82 470h-119l-376 -470h-241l482 570l-245 512h206l193 -448h128l78 448h181l-79 -448h115l351 448h231l-440 -533l274 -549h-215zM1236 1476c-4 -42 -14.501 -79.8311 -31.501 -113.498s-39.167 -62.167 -66.5 -85.5
s-59.166 -41 -95.499 -53s-75.5 -17.333 -117.5 -16c-40.667 0.666992 -77.667 7.5 -111 20.5s-61.666 31 -84.999 54s-41.333 51 -54 84s-18.667 69.833 -18 110.5l147 -1c-2 -42.667 6.16699 -78 24.5 -106s50.833 -42.667 97.5 -44
c47.333 -0.666992 84.666 13.166 111.999 41.499s45 64.166 53 107.499z" />
    <glyph glyph-name="uni04C3" unicode="&#x4c3;" horiz-adv-x="1260" 
d="M242 0l-189.001 -0.000976562l253 1456h189l-109 -625h120l607 625h235l-624 -636c76 -8.66699 141 -29.334 195 -62.001s97.667 -74.167 131 -124.5s56.333 -107.666 69 -171.999s15.334 -132.5 8.00098 -204.5c-8 -80 -25.5 -153.833 -52.5 -221.5
s-63.5 -126 -109.5 -175s-101.333 -87.667 -166 -116s-138.667 -43.5 -222 -45.5l11 154c58 0.666992 107.667 12.334 149 35.001s76 52.667 104 90s49.667 80 65 128s26 98 32 150c6.66699 57.333 6 110.333 -2 159s-24.333 91 -49 127s-58 64.333 -100 85
s-94 31.667 -156 33l-274 1z" />
    <glyph glyph-name="uni04C4" unicode="&#x4c4;" horiz-adv-x="1091" 
d="M620 608c54 -10.667 101.832 -28.5 143.499 -53.5s76.167 -56 103.5 -93s47.166 -79.167 59.499 -126.5s15.833 -98.333 10.5 -153c-6 -58.667 -21.833 -112.667 -47.5 -162s-58.334 -93 -98.001 -131s-84.5 -69.833 -134.5 -95.5s-102.333 -44.167 -157 -55.5l-36 150
c38 9.33301 73.667 22.333 107 39s62.833 37.334 88.5 62.001s46.834 53.167 63.501 85.5s27.334 68.833 32.001 109.5c5.33301 46.667 2.33301 87 -9 121s-29.166 62.333 -53.499 85s-54.5 39.667 -90.5 51s-75.667 17.666 -119 18.999l-176 1l-80 -461h-182l188 1082h182
l-81 -458h80l462 458h234z" />
    <glyph glyph-name="uni04C5" unicode="&#x4c5;" horiz-adv-x="1416" 
d="M1381 1456l-251.997 -1456h-188l225 1298h-502l-107 -524l-33 -170c-12 -59.333 -27 -117.833 -45 -175.5s-40 -112.667 -66 -165s-57.833 -98.166 -95.5 -137.499s-82.334 -70.5 -134.001 -93.5s-111.834 -33.833 -180.501 -32.5h-57l18 156h36
c48.667 0 90.667 10.333 126 31s65.833 48 91.5 82s47 72.833 64 116.5s31.167 88.334 42.5 134.001s20.666 90.667 27.999 135l20 119.5l138 682h871zM1305 4.99805c-11.333 -72.667 -36.667 -140.167 -76 -202.5s-87.333 -115.833 -144 -160.5l-104 75
c34.667 42.667 64.667 87.167 90 133.5s43.333 96.5 54 150.5l26 151h177z" />
    <glyph glyph-name="uni04C6" unicode="&#x4c6;" horiz-adv-x="1158" 
d="M1081 1082l-187.998 -1082h-182l162 929h-354l-66 -310l-28 -139.5c-10 -48.333 -22.333 -95.5 -37 -141.5s-32.667 -89.667 -54 -131s-47.5 -77.5 -78.5 -108.5s-67.667 -55.333 -110 -73s-91.833 -26.167 -148.5 -25.5h-56l21 164h37c36.667 0 68.167 7.66699 94.5 23
s48.833 35.333 67.5 60s34.167 52.667 46.5 84s22.666 63.833 30.999 97.5s15.166 66.834 20.499 99.501l15 90l96 464h711zM1072 4.99902c-11.333 -72.667 -36.667 -140.167 -76 -202.5s-87.333 -115.833 -144 -160.5l-104 75c34.667 42.667 64.667 87.167 90 133.5
s43.333 96.5 54 150.5l26 151h177z" />
    <glyph glyph-name="uni04C7" unicode="&#x4c7;" horiz-adv-x="1424" 
d="M508 1456l-113.997 -657.998h693l115 658h187l-263 -1540c-7.33301 -51.333 -20.166 -98.833 -38.499 -142.5s-42.833 -81.334 -73.5 -113.001s-67.334 -56.334 -110.001 -74.001s-91.334 -26.167 -146.001 -25.5c-20.667 0 -40.834 2 -60.501 6
s-39.167 8.66699 -58.5 14l30 153c15.333 -4.66699 31.166 -8.66699 47.499 -12s32.5 -5 48.5 -5c28 0 52 5.83301 72 17.5s36.833 27 50.5 46s24.5 40.5 32.5 64.5s14 47.667 18 71l122 725h-693l-111 -641h-189l253 1456h188z" />
    <glyph glyph-name="uni04C8" unicode="&#x4c8;" horiz-adv-x="1135" 
d="M406 1082l-82 -469.001h481l82 469h180l-199 -1171c-6.66699 -51.333 -19.167 -98.5 -37.5 -141.5s-42.5 -80 -72.5 -111s-66 -55.167 -108 -72.5s-90 -25.666 -144 -24.999c-20.667 0 -40.667 2 -60 6s-39 8.66699 -59 14l31 146c15.333 -4.66699 31 -8.5 47 -11.5
s32.333 -4.5 49 -4.5c28 0 52 5.83301 72 17.5s36.833 27.167 50.5 46.5s24.5 40.833 32.5 64.5s14 47.5 18 71.5l92 551h-481l-80 -462h-182l188 1082h182z" />
    <glyph glyph-name="uni04C9" unicode="&#x4c9;" 
d="M1146 0h-188l117 673h-711l-117 -673h-188l253 1456h188l-109 -626h710l109 626h189zM1324 5c-11.333 -72.667 -36.667 -140.167 -76 -202.5s-87.333 -115.833 -144 -160.5l-104 75c34.667 42.667 64.667 87.167 90 133.5s43.333 96.5 54 150.5l26 151h177z" />
    <glyph glyph-name="uni04CA" unicode="&#x4ca;" horiz-adv-x="1156" 
d="M890 0h-181l81 462h-481l-81 -462h-181l188 1082h181l-81 -469h480l82 469h181zM1069 5c-11.333 -72.667 -36.667 -140.167 -76 -202.5s-87.333 -115.833 -144 -160.5l-104 75c34.667 42.667 64.667 87.167 90 133.5s43.333 96.5 54 150.5l26 151h177z" />
    <glyph glyph-name="uni04CB" unicode="&#x4cb;" horiz-adv-x="1370" 
d="M1337 1456l-252.998 -1456h-188l111 604c-62 -19.333 -124.333 -33.166 -187 -41.499s-126.334 -12.166 -191.001 -11.499c-71.333 0.666992 -134.5 10.834 -189.5 30.501s-100.167 48.5 -135.5 86.5s-60.5 84.667 -75.5 140s-18.5 119.666 -10.5 192.999l76 455h188
l-75 -456c-5.33301 -46 -5.33301 -86.833 0 -122.5s17.166 -65.834 35.499 -90.501s43.5 -43.5 75.5 -56.5s72 -19.833 120 -20.5c65.333 -1.33301 130 3 194 13s127.667 22.667 191 38l125 695h189zM858.002 -359.001h-182l89 512h182z" />
    <glyph glyph-name="uni04CC" unicode="&#x4cc;" horiz-adv-x="1090" 
d="M825 0l-182 -0.000976562l75 393c-40 -10.667 -80 -18.667 -120 -24s-80.333 -7.66602 -121 -6.99902c-61.333 0.666992 -115 11 -161 31s-83.667 47.667 -113 83s-50 77.666 -62 126.999s-14.667 104 -8 164l50 316h181l-51 -317c-4 -34.667 -4.33301 -67 -1 -97
s11.5 -56.167 24.5 -78.5s31.667 -40.166 56 -53.499s55.5 -20.666 93.5 -21.999c42 -1.33301 83.5 0.666992 124.5 6s81.833 12.666 122.5 21.999l98 539h182zM601 -359.001h-182l89 512h182z" />
    <glyph glyph-name="uni04CD" unicode="&#x4cd;" horiz-adv-x="1744" 
d="M549 1456l255 -1186l668 1186h247l-253 -1456h-187l100 576l119 586l-660 -1162h-144l-260 1185l-90 -628l-97 -557h-188l253 1456h237zM1631 5c-11.333 -72.667 -36.667 -140.167 -76 -202.5s-87.333 -115.833 -144 -160.5l-104 75
c34.667 42.667 64.667 87.167 90 133.5s43.333 96.5 54 150.5l26 151h177z" />
    <glyph glyph-name="uni04CE" unicode="&#x4ce;" horiz-adv-x="1483" 
d="M674 247l502 835h230l-188 -1082h-181l135 773l-468 -773h-126l-208 812l-142 -812h-180l188 1082h229zM1396 5c-11.333 -72.667 -36.667 -140.167 -76 -202.5s-87.333 -115.833 -144 -160.5l-104 75c34.667 42.667 64.667 87.167 90 133.5s43.333 96.5 54 150.5l26 151
h177z" />
    <glyph glyph-name="uni04CF" unicode="&#x4cf;" horiz-adv-x="550" 
d="M260 0h-187l253 1456h187z" />
    <glyph glyph-name="uni04D0" unicode="&#x4d0;" horiz-adv-x="1306" 
d="M909 380h-590l-199 -380h-201l791 1456h165l288 -1456h-185zM402 538h479l-121 679zM1145 1806c-4 -42 -14.501 -79.8311 -31.501 -113.498s-39.167 -62.167 -66.5 -85.5s-59.166 -41 -95.499 -53s-75.5 -17.333 -117.5 -16c-40.667 0.666992 -77.667 7.5 -111 20.5
s-61.666 31 -84.999 54s-41.333 51 -54 84s-18.667 69.833 -18 110.5l147 -1c-2 -42.667 6.16699 -78 24.5 -106s50.833 -42.667 97.5 -44c47.333 -0.666992 84.666 13.166 111.999 41.499s45 64.166 53 107.499z" />
    <glyph glyph-name="uni04D1" unicode="&#x4d1;" horiz-adv-x="1091" 
d="M689 0c-4.66699 19.333 -7.00195 38.333 -7.00195 57s1 37.667 3 57c-44 -40.667 -92.333 -73.5 -145 -98.5s-109.667 -36.833 -171 -35.5c-45.333 0.666992 -87.666 8.5 -126.999 23.5s-73.333 36.167 -102 63.5s-50.667 60 -66 98s-21.666 80.333 -18.999 127
c4 68.667 22.167 126.334 54.5 173.001s73.166 84.167 122.499 112.5s104 48.666 164 60.999s119.667 18.5 179 18.5l189 -1l12 86c3.33301 31.333 2 59.833 -4 85.5s-16.667 47.834 -32 66.501s-35.166 33.167 -59.499 43.5s-52.5 15.833 -84.5 16.5
c-28 0.666992 -55.667 -2.5 -83 -9.5s-52.5 -17.667 -75.5 -32s-42.833 -32.333 -59.5 -54s-28 -46.834 -34 -75.501l-182 -1c5.33301 54 22.833 101.167 52.5 141.5s66 74 109 101s90.167 47 141.5 60s101 19.167 149 18.5c54.667 -1.33301 104.167 -10.5 148.5 -27.5
s81.833 -41.167 112.5 -72.5s53.167 -69.166 67.5 -113.499s18.833 -94.5 13.5 -150.5l-83 -503c-6 -36.667 -9.5 -73.334 -10.5 -110.001s3.16699 -73 12.5 -109l-2 -17h-184zM404.998 140c30.667 -0.666992 60.166 2.83301 88.499 10.5s55.166 18.834 80.499 33.501
s48.833 32 70.5 52s41.167 42 58.5 66l39 223l-137 1c-36 0 -74.333 -2.5 -115 -7.5s-78.667 -15 -114 -30s-65.5 -36 -90.5 -63s-40.167 -62.5 -45.5 -106.5c-3.33301 -27.333 -1.5 -51.833 5.5 -73.5s17.833 -40.334 32.5 -56.001s32.834 -27.667 54.501 -36
s45.834 -12.833 72.501 -13.5zM1003 1496c-4 -42 -14.501 -79.8311 -31.501 -113.498s-39.167 -62.167 -66.5 -85.5s-59.166 -41 -95.499 -53s-75.5 -17.333 -117.5 -16c-40.667 0.666992 -77.667 7.5 -111 20.5s-61.666 31 -84.999 54s-41.333 51 -54 84
s-18.667 69.833 -18 110.5l147 -1c-2 -42.667 6.16699 -78 24.5 -106s50.833 -42.667 97.5 -44c47.333 -0.666992 84.666 13.166 111.999 41.499s45 64.166 53 107.499z" />
    <glyph glyph-name="uni04D2" unicode="&#x4d2;" horiz-adv-x="1306" 
d="M909 380h-590l-199 -380h-201l791 1456h165l288 -1456h-185zM402 538h479l-121 679zM526 1679c0.666992 30.667 10.6699 56.1699 30.0029 76.5029s44.666 31.166 75.999 32.499c31.333 0.666992 57.166 -8.83301 77.499 -28.5s30.166 -45.167 29.499 -76.5
c0 -30.667 -10 -56 -30 -76s-45.667 -30.667 -77 -32c-31.333 -0.666992 -56.833 8.66602 -76.5 27.999s-29.5 44.666 -29.5 75.999zM943.003 1677c0.666992 30.667 10.667 56.335 30 77.002s44.666 31.667 75.999 33c32 0.666992 58 -8.83301 78 -28.5
s29.667 -45.5 29 -77.5c0 -31.333 -10 -56.833 -30 -76.5s-45.667 -30.167 -77 -31.5c-30.667 -0.666992 -56.167 8.66602 -76.5 27.999s-30.166 44.666 -29.499 75.999z" />
    <glyph glyph-name="uni04D3" unicode="&#x4d3;" horiz-adv-x="1091" 
d="M689 0c-4.66699 19.333 -7.00195 38.333 -7.00195 57s1 37.667 3 57c-44 -40.667 -92.333 -73.5 -145 -98.5s-109.667 -36.833 -171 -35.5c-45.333 0.666992 -87.666 8.5 -126.999 23.5s-73.333 36.167 -102 63.5s-50.667 60 -66 98s-21.666 80.333 -18.999 127
c4 68.667 22.167 126.334 54.5 173.001s73.166 84.167 122.499 112.5s104 48.666 164 60.999s119.667 18.5 179 18.5l189 -1l12 86c3.33301 31.333 2 59.833 -4 85.5s-16.667 47.834 -32 66.501s-35.166 33.167 -59.499 43.5s-52.5 15.833 -84.5 16.5
c-28 0.666992 -55.667 -2.5 -83 -9.5s-52.5 -17.667 -75.5 -32s-42.833 -32.333 -59.5 -54s-28 -46.834 -34 -75.501l-182 -1c5.33301 54 22.833 101.167 52.5 141.5s66 74 109 101s90.167 47 141.5 60s101 19.167 149 18.5c54.667 -1.33301 104.167 -10.5 148.5 -27.5
s81.833 -41.167 112.5 -72.5s53.167 -69.166 67.5 -113.499s18.833 -94.5 13.5 -150.5l-83 -503c-6 -36.667 -9.5 -73.334 -10.5 -110.001s3.16699 -73 12.5 -109l-2 -17h-184zM404.998 140c30.667 -0.666992 60.166 2.83301 88.499 10.5s55.166 18.834 80.499 33.501
s48.833 32 70.5 52s41.167 42 58.5 66l39 223l-137 1c-36 0 -74.333 -2.5 -115 -7.5s-78.667 -15 -114 -30s-65.5 -36 -90.5 -63s-40.167 -62.5 -45.5 -106.5c-3.33301 -27.333 -1.5 -51.833 5.5 -73.5s17.833 -40.334 32.5 -56.001s32.834 -27.667 54.501 -36
s45.834 -12.833 72.501 -13.5zM383.997 1369c0.666992 30.667 10.6699 56.1699 30.0029 76.5029s44.666 31.166 75.999 32.499c31.333 0.666992 57.166 -8.83301 77.499 -28.5s30.166 -45.167 29.499 -76.5c0 -30.667 -10 -56 -30 -76s-45.667 -30.667 -77 -32
c-31.333 -0.666992 -56.833 8.66602 -76.5 27.999s-29.5 44.666 -29.5 75.999zM801 1367c0.666992 30.667 10.667 56.335 30 77.002s44.666 31.667 75.999 33c32 0.666992 58 -8.83301 78 -28.5s29.667 -45.5 29 -77.5c0 -31.333 -10 -56.833 -30 -76.5
s-45.667 -30.167 -77 -31.5c-30.667 -0.666992 -56.167 8.66602 -76.5 27.999s-30.166 44.666 -29.499 75.999z" />
    <glyph glyph-name="uni04D4" unicode="&#x4d4;" horiz-adv-x="1867" 
d="M1719 0h-857l47 353h-540l-261 -353h-232l1106 1456h930l-27 -152h-670l-63 -471h574l-27 -151h-567l-71 -531h685zM496 527h436l96 722z" />
    <glyph glyph-name="uni04D5" unicode="&#x4d5;" horiz-adv-x="1687" 
d="M1131 -20c-35.333 0.666992 -70.3291 4.49609 -104.996 11.4961s-67.5 17.667 -98.5 32s-59.667 32.833 -86 55.5s-48.833 49.667 -67.5 81c-58 -63.333 -125.333 -109.5 -202 -138.5s-157.667 -42.833 -243 -41.5c-48 0.666992 -91.333 8.5 -130 23.5s-71.5 36 -98.5 63
s-47.333 59.833 -61 98.5s-18.834 82.334 -15.501 131.001c4 64 20.833 117.833 50.5 161.5s67 78.667 112 105s95.333 45.166 151 56.499s111.5 17 167.5 17l226 -1l12 86c3.33301 30 3 58.667 -1 86s-12.5 51.333 -25.5 72s-30.833 37.334 -53.5 50.001
s-50.667 19.667 -84 21c-30.667 0.666992 -60.667 -2.83301 -90 -10.5s-55.833 -19.667 -79.5 -36s-43.834 -36.666 -60.501 -60.999s-27.667 -52.166 -33 -83.499l-179 19c6 56.667 23.167 105.667 51.5 147s63.666 75.333 105.999 102s89.333 46.167 141 58.5
s103.5 18.166 155.5 17.499c30.667 -0.666992 61.334 -4.16699 92.001 -10.5s59.667 -16 87 -29s52 -29.833 74 -50.5s39.667 -46 53 -76c48 50 101.333 90.333 160 121s124 45.334 196 44.001c70 -1.33301 129.333 -15.5 178 -42.5s87.667 -62.833 117 -107.5
s49.166 -96 59.499 -154s11.5 -119 3.5 -183l-18 -118h-702c-6 -45.333 -6.16699 -89.5 -0.5 -132.5s18.167 -81.667 37.5 -116s46 -62.166 80 -83.499s77 -32.333 129 -33c60 -1.33301 116.167 8 168.5 28s103.166 45.667 152.499 77l53 -137
c-25.333 -22 -53.333 -40.667 -84 -56s-62.5 -27.833 -95.5 -37.5s-66.5 -16.5 -100.5 -20.5s-67.333 -6 -100 -6zM370.004 128.996c27.333 -0.666992 54.168 2.50195 80.501 9.50195s52 16.5 77 28.5s49.167 25.667 72.5 41s45 31.666 65 48.999l43 238l-203 1
c-32 0 -64.667 -3.83301 -98 -11.5s-64 -19.834 -92 -36.501s-51.833 -37.834 -71.5 -63.501s-31.834 -56.5 -36.501 -92.5c-3.33301 -26.667 -1.33301 -50.167 6 -70.5s18.5 -37.166 33.5 -50.499s33.167 -23.5 54.5 -30.5s44.333 -10.833 69 -11.5zM1243.01 951.998
c-46 1.33301 -86.832 -6.99902 -122.499 -24.999s-67 -42 -94 -72s-50 -63.833 -69 -101.5s-34.833 -75.5 -47.5 -113.5h522l6 32c6 36.667 6.66699 71.667 2 105s-14.834 62.666 -30.501 87.999s-37.167 45.833 -64.5 61.5s-61.333 24.167 -102 25.5z" />
    <glyph glyph-name="uni04D6" unicode="&#x4d6;" horiz-adv-x="1139" 
d="M976 673h-612l-90 -516h712l-28 -157h-899l253 1456h889l-28 -158h-701l-81 -468h612zM1095 1818c-4 -42 -14.501 -79.8311 -31.501 -113.498s-39.167 -62.167 -66.5 -85.5s-59.166 -41 -95.499 -53s-75.5 -17.333 -117.5 -16c-40.667 0.666992 -77.667 7.5 -111 20.5
s-61.666 31 -84.999 54s-41.333 51 -54 84s-18.667 69.833 -18 110.5l147 -1c-2 -42.667 6.16699 -78 24.5 -106s50.833 -42.667 97.5 -44c47.333 -0.666992 84.666 13.166 111.999 41.499s45 64.166 53 107.499z" />
    <glyph glyph-name="uni04D7" unicode="&#x4d7;" horiz-adv-x="1062" 
d="M480 -20c-74 1.33301 -137.83 16.501 -191.497 45.501s-97.167 67.5 -130.5 115.5s-56.833 103 -70.5 165s-17.5 126.667 -11.5 194l5 43c5.33301 46 15.166 92 29.499 138s32.833 90 55.5 132s49.5 80.833 80.5 116.5s65.667 66.5 104 92.5s80 46.167 125 60.5
s93.167 20.833 144.5 19.5c74.667 -2 136.667 -18.5 186 -49.5s87.833 -71.333 115.5 -121s45.5 -105.834 53.5 -168.501s7.66699 -126.667 -1 -192l-12 -83h-706c-6 -42 -6 -84 0 -126s18.5 -79.833 37.5 -113.5s45.167 -61.334 78.5 -83.001s74.333 -33.167 123 -34.5
c61.333 -1.33301 116.333 11.5 165 38.5s93 62.167 133 105.5l104 -88c-24 -34.667 -51.333 -65 -82 -91s-63.834 -47.833 -99.501 -65.5s-73.334 -30.667 -113.001 -39s-80.5 -12.166 -122.5 -11.499zM610.003 951.001c-46 2 -86.832 -6 -122.499 -24
s-67 -41.833 -94 -71.5s-50.167 -63.334 -69.5 -101.001s-35.333 -75.834 -48 -114.501l526 -2l4 18c5.33301 35.333 5.66602 70.333 0.999023 105s-15 65.834 -31 93.501s-37.667 50.334 -65 68.001s-61 27.167 -101 28.5zM987.004 1496
c-4 -42 -14.501 -79.8311 -31.501 -113.498s-39.167 -62.167 -66.5 -85.5s-59.166 -41 -95.499 -53s-75.5 -17.333 -117.5 -16c-40.667 0.666992 -77.667 7.5 -111 20.5s-61.666 31 -84.999 54s-41.333 51 -54 84s-18.667 69.833 -18 110.5l147 -1
c-2 -42.667 6.16699 -78 24.5 -106s50.833 -42.667 97.5 -44c47.333 -0.666992 84.666 13.166 111.999 41.499s45 64.166 53 107.499z" />
    <glyph glyph-name="uni04D8" unicode="&#x4d8;" horiz-adv-x="1383" 
d="M760 1475c100.667 -1.33301 187.17 -21.168 259.503 -59.501s130.333 -89.666 174 -153.999s73.334 -138.5 89.001 -222.5s17.5 -172.333 5.5 -265l-13 -93c-8.66699 -58.667 -22.667 -116.834 -42 -174.501s-44 -112.667 -74 -165s-64.667 -100.833 -104 -145.5
s-83.333 -83.167 -132 -115.5s-101.334 -57.5 -158.001 -75.5s-117.334 -26.333 -182.001 -25c-96 2 -177.5 21.167 -244.5 57.5s-120.167 84.666 -159.5 144.999s-65.5 130.166 -78.5 209.499s-13.5 163 -1.5 251l20 124l976 -3l3 12c14 66 18 130.833 12 194.5
s-23 120.834 -51 171.501s-67.167 91.834 -117.5 123.501s-112.833 48.167 -187.5 49.5c-64.667 1.33301 -127.334 -5.83398 -188.001 -21.501s-120.667 -36.167 -180 -61.5l-35 145c28.667 20 59.834 36.333 93.501 49s68.167 22.834 103.5 30.501
s71.166 12.834 107.499 15.501s71.166 3.66699 104.499 3zM591.003 136.998c46 -1.33301 88.502 4.49805 127.502 17.498s74.667 30.833 107 53.5s61.666 49.667 87.999 81s49.833 65 70.5 101s38.667 73.5 54 112.5s28.666 77.833 39.999 116.5l-792 -1l-7 -35
c-10 -59.333 -11.667 -115.666 -5 -168.999s22.5 -100.333 47.5 -141s59.667 -73.167 104 -97.5s99.5 -37.166 165.5 -38.499z" />
    <glyph glyph-name="uni04D9" unicode="&#x4d9;" horiz-adv-x="1057" 
d="M569 1102c75.333 -1.33301 139.331 -17.499 191.998 -48.499s95 -71.5 127 -121.5s54 -106.833 66 -170.5s14.667 -129.167 8 -196.5l-5 -45c-8 -66.667 -26 -132.5 -54 -197.5s-64.667 -123.167 -110 -174.5s-98.5 -92.5 -159.5 -123.5s-127.833 -45.5 -200.5 -43.5
c-69.333 2 -128.666 16.167 -177.999 42.5s-88.666 61.333 -117.999 105s-49.166 94.334 -59.499 152.001s-11.5 118.5 -3.5 182.5l18 121h691c5.33301 40.667 6 82.334 2 125.001s-14.167 81.5 -30.5 116.5s-40 64.167 -71 87.5s-71.167 35.666 -120.5 36.999
c-58.667 2 -114.5 -6.33301 -167.5 -25s-102.5 -45.334 -148.5 -80.001l-61 126c24.667 24 52.167 44.5 82.5 61.5s62.166 30.833 95.499 41.5s67.333 18.167 102 22.5s69 6.16602 103 5.49902zM441.998 131.001c42.667 -1.33301 81 7.16992 115 25.5029
s64 42.166 90 71.499s48.5 62.166 67.5 98.499s34.833 71.833 47.5 106.5l-509 1l-6 -28c-5.33301 -35.333 -5.5 -69.333 -0.5 -102s15.5 -61.667 31.5 -87s37.667 -45.833 65 -61.5s60.333 -23.834 99 -24.501z" />
    </font>
</defs>
</svg>
